<svg class="animated" id="freepik_stories-discount" xmlns="http://www.w3.org/2000/svg" viewBox="0 0 500 500" version="1.1" xmlns:xlink="http://www.w3.org/1999/xlink" xmlns:svgjs="http://svgjs.com/svgjs"><style>svg#freepik_stories-discount:not(.animated) .animable {opacity: 0;}svg#freepik_stories-discount.animated #freepik--background-complete--inject-57 {animation: 1.5s 1 forwards cubic-bezier(.36,-0.01,.5,1.38) slideRight,3s Infinite  linear floating;animation-delay: 0s,1.5s;}svg#freepik_stories-discount.animated #freepik--Floor--inject-57 {animation: 1.5s 1 forwards cubic-bezier(.36,-0.01,.5,1.38) slideRight,3s Infinite  linear floating;animation-delay: 0s,1.5s;}svg#freepik_stories-discount.animated #freepik--Shadow--inject-57 {animation: 1.5s 1 forwards cubic-bezier(.36,-0.01,.5,1.38) slideRight,3s Infinite  linear floating;animation-delay: 0s,1.5s;}svg#freepik_stories-discount.animated #freepik--Plant--inject-57 {animation: 1.5s 1 forwards cubic-bezier(.36,-0.01,.5,1.38) slideRight,3s Infinite  linear floating;animation-delay: 0s,1.5s;}svg#freepik_stories-discount.animated #freepik--label-2--inject-57 {animation: 1.5s 1 forwards cubic-bezier(.36,-0.01,.5,1.38) slideRight,3s Infinite  linear floating;animation-delay: 0s,1.5s;}svg#freepik_stories-discount.animated #freepik--label-1--inject-57 {animation: 1.5s 1 forwards cubic-bezier(.36,-0.01,.5,1.38) slideRight,3s Infinite  linear floating;animation-delay: 0s,1.5s;}svg#freepik_stories-discount.animated #freepik--label-text-2--inject-57 {animation: 1.5s 1 forwards cubic-bezier(.36,-0.01,.5,1.38) slideRight,3s Infinite  linear floating;animation-delay: 0s,1.5s;}svg#freepik_stories-discount.animated #freepik--label-text-1--inject-57 {animation: 1.5s 1 forwards cubic-bezier(.36,-0.01,.5,1.38) slideRight,3s Infinite  linear floating;animation-delay: 0s,1.5s;}svg#freepik_stories-discount.animated #freepik--Coupon--inject-57 {animation: 1.5s 1 forwards cubic-bezier(.36,-0.01,.5,1.38) slideRight,3s Infinite  linear floating;animation-delay: 0s,1.5s;}svg#freepik_stories-discount.animated #freepik--Symbol--inject-57 {animation: 1.5s 1 forwards cubic-bezier(.36,-0.01,.5,1.38) slideRight,3s Infinite  linear floating;animation-delay: 0s,1.5s;}svg#freepik_stories-discount.animated #freepik--Character--inject-57 {animation: 1.5s 1 forwards cubic-bezier(.36,-0.01,.5,1.38) slideRight,3s Infinite  linear floating;animation-delay: 0s,1.5s;}            @keyframes slideRight {                0% {                    opacity: 0;                    transform: translateX(30px);                }                100% {                    opacity: 1;                    transform: translateX(0);                }            }                    @keyframes floating {                0% {                    opacity: 1;                    transform: translateY(0px);                }                50% {                    transform: translateY(-10px);                }                100% {                    opacity: 1;                    transform: translateY(0px);                }            }        </style><g id="freepik--background-complete--inject-57" class="animable animator-active" style="transform-origin: 250px 190.685px;"><path d="M92.71,317.92l-13.13.27-6.66.12c-2.22,0-4.46,0-6.69.05h-.45v-.45l0-11.18v-.51h.51l13.24.06c4.41,0,8.82.11,13.24.16H93v.27c0,1.89-.09,3.78-.13,5.65Zm0,0-.15-5.66c0-1.86-.11-3.7-.13-5.53l.28.27c-4.42.05-8.83.16-13.24.16l-13.24.06.5-.49-.06,11.18-.44-.44c2.18,0,4.35,0,6.54,0l6.58.12Z" style="fill: rgb(235, 235, 235); transform-origin: 79.39px 312.29px;" id="ellfcufrs32c8" class="animable"></path><path d="M77.93,332l-13.12.28-6.66.12c-2.23,0-4.46,0-6.7.05H51V332L51,320.84v-.51h.5l13.24.06c4.42,0,8.83.11,13.24.16h.28v.27c0,1.89-.09,3.78-.13,5.65Zm0,0-.14-5.65c0-1.86-.11-3.7-.13-5.53l.27.27c-4.41.05-8.82.16-13.24.16l-13.24.06.5-.49L51.9,332l-.45-.44c2.19,0,4.36,0,6.55.05l6.58.12Z" style="fill: rgb(235, 235, 235); transform-origin: 64.63px 326.39px;" id="el78uwfx4kib" class="animable"></path><path d="M108.16,332,95,332.3l-6.66.12c-2.23,0-4.46,0-6.7.05h-.44V332l-.06-11.18v-.51h.5l13.24.06c4.42,0,8.83.11,13.24.16h.28v.27c0,1.89-.09,3.78-.13,5.65Zm0,0-.14-5.65c0-1.86-.11-3.7-.13-5.53l.27.27c-4.41.05-8.82.16-13.24.16l-13.24.06.5-.49L82.13,332l-.45-.44c2.19,0,4.36,0,6.55.05l6.58.12Z" style="fill: rgb(235, 235, 235); transform-origin: 94.77px 326.39px;" id="elivc91os3imk" class="animable"></path><path d="M372.35,226.88l-13.12.28-6.66.11c-2.23,0-4.47,0-6.7,0h-.44v-.45l-.06-11.19v-.5h.5l13.24.06c4.41,0,8.83.11,13.24.17h.28v.27c0,1.9-.08,3.79-.13,5.65Zm0,0-.14-5.65c0-1.87-.11-3.71-.13-5.54l.27.27c-4.41,0-8.83.16-13.24.17l-13.24.06.5-.5-.05,11.19-.45-.45c2.18,0,4.36,0,6.55.06l6.58.11Z" style="fill: rgb(235, 235, 235); transform-origin: 359px 221.2px;" id="eljjicsfjczc" class="animable"></path><path d="M448.77,332l-13.12.28-6.66.12c-2.23,0-4.47,0-6.7.05h-.44V332l-.06-11.18v-.51h.5l13.24.06c4.42,0,8.83.11,13.24.16h.28v.27c0,1.89-.08,3.78-.13,5.65Zm0,0-.14-5.65c-.05-1.86-.11-3.7-.13-5.53l.27.27c-4.41.05-8.82.16-13.24.16l-13.24.06.5-.49L422.74,332l-.45-.44c2.18,0,4.36,0,6.55.05l6.58.12Z" style="fill: rgb(235, 235, 235); transform-origin: 435.42px 326.38px;" id="eltynd9fuxf4" class="animable"></path><path d="M434,64.2l-13.12.28-6.67.11c-2.22,0-4.46,0-6.69.06h-.44V64.2L407,53v-.5h.5l13.24.06c4.41,0,8.83.12,13.24.17h.28V53c0,1.9-.08,3.79-.13,5.65Zm0,0-.14-5.65c-.05-1.87-.11-3.71-.13-5.54l.27.27c-4.41,0-8.83.16-13.24.17l-13.24.06.5-.5,0,11.19-.45-.45c2.18,0,4.36,0,6.55.06l6.57.11Z" style="fill: rgb(235, 235, 235); transform-origin: 420.63px 58.575px;" id="elcnz7iqtb5cg" class="animable"></path><path d="M448.77,78.31l-13.12.28L429,78.7c-2.23,0-4.47,0-6.7.06h-.44v-.45l-.06-11.19v-.5h.5l13.24.06c4.42,0,8.83.12,13.24.17h.28v.27c0,1.9-.08,3.79-.13,5.65Zm0,0-.14-5.65c-.05-1.87-.11-3.71-.13-5.54l.27.27c-4.41,0-8.82.16-13.24.17l-13.24.06.5-.5-.05,11.19-.45-.45c2.18,0,4.36,0,6.55.06l6.58.11Z" style="fill: rgb(235, 235, 235); transform-origin: 435.43px 72.69px;" id="el0ask34vmewip" class="animable"></path><path d="M192.77,150.32l-13.12.28-6.66.11c-2.23,0-4.46,0-6.7.06h-.44v-.45l-.06-11.19v-.5h.5l13.24.07c4.42,0,8.83.11,13.24.16h.28v.27c0,1.9-.09,3.79-.13,5.66Zm0,0-.14-5.65c0-1.86-.11-3.7-.13-5.54l.27.28c-4.41.05-8.82.16-13.24.16l-13.24.06.5-.5,0,11.19-.45-.44c2.19,0,4.36,0,6.55.05l6.58.11Z" style="fill: rgb(235, 235, 235); transform-origin: 179.42px 144.7px;" id="eltamtp0s9cs" class="animable"></path><path d="M207.55,164.43l-13.13.28-6.66.11c-2.23.05-4.46,0-6.69.06h-.45v-.45l-.05-11.19v-.5h.51l13.24.07c4.41,0,8.82.11,13.24.16h.27v.27c0,1.9-.09,3.79-.13,5.66Zm0,0-.15-5.65c0-1.86-.11-3.71-.13-5.54l.28.28c-4.42,0-8.83.16-13.24.16l-13.24.06.5-.5-.06,11.19-.44-.44c2.18,0,4.35,0,6.54,0l6.58.11Z" style="fill: rgb(235, 235, 235); transform-origin: 194.2px 158.81px;" id="el7cffi3k0yc" class="animable"></path><path d="M77.93,64.2l-13.12.28-6.66.11c-2.23,0-4.46,0-6.7.06H51V64.2L51,53v-.5h.5l13.24.06c4.42,0,8.83.12,13.24.17h.28V53c0,1.9-.09,3.79-.13,5.65Zm0,0-.14-5.65c0-1.87-.11-3.71-.13-5.54l.27.27c-4.41,0-8.82.16-13.24.17l-13.24.06L52,53,51.9,64.2l-.45-.45c2.19,0,4.36,0,6.55.06l6.58.11Z" style="fill: rgb(235, 235, 235); transform-origin: 64.63px 58.575px;" id="elv0mygrd197" class="animable"></path><rect x="84.01" width="0.8" height="93.78" style="fill: rgb(199, 199, 199); transform-origin: 84.41px 46.89px;" id="ellnbo8ynkoys" class="animable"></rect><polygon points="117.36 125.55 114.71 131.38 54.1 131.38 51.46 125.55 77.26 107.69 91.56 107.69 117.36 125.55" style="fill: rgb(235, 235, 235); transform-origin: 84.41px 119.535px;" id="elpe7ibail8t" class="animable"></polygon><polygon points="93.35 90.48 91.56 107.69 77.26 107.69 75.47 90.48 93.35 90.48" style="fill: rgb(219, 219, 219); transform-origin: 84.41px 99.085px;" id="elwzvgayz0tin" class="animable"></polygon><polygon points="117.36 125.55 114.71 131.38 54.1 131.38 51.45 125.55 117.36 125.55" style="fill: rgb(219, 219, 219); transform-origin: 84.405px 128.465px;" id="elqlgnbscxrne" class="animable"></polygon><rect x="154.77" width="0.8" height="74.99" style="fill: rgb(199, 199, 199); transform-origin: 155.17px 37.495px;" id="elifej2y7syp" class="animable"></rect><polygon points="188.12 106.75 185.47 112.58 124.86 112.58 122.21 106.75 148.02 88.89 162.31 88.89 188.12 106.75" style="fill: rgb(235, 235, 235); transform-origin: 155.165px 100.735px;" id="elc5ghq5flzb9" class="animable"></polygon><polygon points="164.1 71.68 162.31 88.89 148.02 88.89 146.23 71.68 164.1 71.68" style="fill: rgb(219, 219, 219); transform-origin: 155.165px 80.285px;" id="el5ofcm356tmm" class="animable"></polygon><polygon points="188.11 106.75 185.46 112.58 124.85 112.58 122.21 106.75 188.11 106.75" style="fill: rgb(219, 219, 219); transform-origin: 155.16px 109.665px;" id="elpn7gfn7ocj" class="animable"></polygon><path d="M86.07,191.59c-38.81,0-38.87,55.18,0,55.18S124.94,191.59,86.07,191.59Z" style="fill: rgb(235, 235, 235); transform-origin: 86.0812px 219.18px;" id="elm52hi1dmqq9" class="animable"></path><path d="M109.67,224.35c-2.07,9.49-9.94,17.73-23.61,17.73-32.25,0-32.2-45.8,0-45.8h.64c-30.31.55-30.16,43.93.59,43.93C99.84,240.22,107.31,233,109.67,224.35Z" style="fill: rgb(219, 219, 219); transform-origin: 85.7806px 219.18px;" id="elagt8vfvq4qk" class="animable"></path><path d="M86.3,202.32a1,1,0,0,1,1,.92v1.53a14.49,14.49,0,0,1,7.47,2.69c.38.27.59.5.59.89a1,1,0,0,1-1.09,1,1.09,1.09,0,0,1-.76-.27,12.54,12.54,0,0,0-6.3-2.5V217.3c6.39,1.23,9.07,3.42,9.07,7.18,0,4.07-3.73,7-9,7.11v3a1,1,0,0,1-2,0v-3a16.51,16.51,0,0,1-9.44-3.73,1,1,0,0,1-.47-.8,1.06,1.06,0,0,1,1.05-1,1.1,1.1,0,0,1,.76.27,14.19,14.19,0,0,0,8.19,3.49V218.87c-6.3-1.26-8.9-3.38-8.9-7.22s3.69-6.84,8.81-7v-1.46A1,1,0,0,1,86.3,202.32Zm-.92,14.59V206.43c-4.08.07-6.76,2.3-6.76,5.07C78.62,214.11,80,215.72,85.38,216.91Zm1.84,2.35v10.6c4.2-.08,6.93-2.31,6.93-5.22C94.15,222,92.68,220.37,87.22,219.26Z" style="fill: rgb(219, 219, 219); transform-origin: 85.825px 218.955px;" id="elgdzfbo7li9k" class="animable"></path><path d="M409.66,59.83c-34.94,6.27-25.71,58,9.29,51.75S444.66,53.55,409.66,59.83Z" style="fill: rgb(219, 219, 219); transform-origin: 414.318px 85.7028px;" id="elhxoto9d38h" class="animable"></path><path d="M412.94,59.24c-33.3,6-24.07,57.74,9.29,51.75S446.3,53.25,412.94,59.24Z" style="fill: rgb(235, 235, 235); transform-origin: 417.598px 85.115px;" id="elvp2rxel9ldg" class="animable"></path><path d="M438.71,86.33c-.18,9.23-5.55,18.16-17.27,20.26-27.68,5-35.35-38-7.71-42.95l.54-.09c-25.91,5.19-18.48,45.85,7.91,41.11C432.94,102.73,438.14,94.77,438.71,86.33Z" style="fill: rgb(219, 219, 219); transform-origin: 417.577px 85.2719px;" id="elqrqbqln9qr" class="animable"></path><path d="M419.59,69.24a.9.9,0,0,1,.77,1l-.17,1.45A12,12,0,0,1,426.36,75a1,1,0,0,1,.41.9.94.94,0,0,1-1,.79.87.87,0,0,1-.63-.33,10.34,10.34,0,0,0-5.17-3l-1.2,10.18c5.39,1.81,7.47,4.15,7.06,7.72-.46,3.85-4,6.2-8.57,5.81l-.34,2.83a.88.88,0,0,1-1.74-.2l.33-2.87a13.81,13.81,0,0,1-7.76-4.49.92.92,0,0,1,.71-1.61A.91.91,0,0,1,409,91a11.85,11.85,0,0,0,6.7,4.14L417,84.82c-5.31-1.84-7.33-4.11-6.9-7.74s4-6.1,8.4-5.68l.17-1.39A.89.89,0,0,1,419.59,69.24ZM417.17,83,418.33,73c-3.53-.34-6.11,1.49-6.41,4.11C411.63,79.62,412.61,81.29,417.17,83Zm1.33,2.41-1.18,10c3.65.36,6.26-1.47,6.58-4.23C424.2,88.66,423.11,87,418.5,85.37Z" style="fill: rgb(219, 219, 219); transform-origin: 417.103px 84.9166px;" id="eliyfnayhbii9" class="animable"></path><path d="M439.27,310.55a6.17,6.17,0,0,1-1,3.07c0-.21-.08-.42-.13-.64s-.11-.44-.18-.66a12.67,12.67,0,0,0-2.39-4.12l-.36-.41-.09-.11h0a1.54,1.54,0,0,1-.17-.19c-9.67-12.25-18.88,7.6-19.07,8.06h0s-.53-19.8,10-20.35C434.19,294.78,439.76,304.43,439.27,310.55Z" style="fill: rgb(235, 235, 235); transform-origin: 427.588px 305.368px;" id="elwkgil9clv4" class="animable"></path><path d="M438.29,313.62a4.17,4.17,0,0,1-.87.91c-5,3.86-20.52,1.2-21.48,1h0c14.55,1.4,18.54-3.9,19.24-7.88l.09.11.36.41a13,13,0,0,1,2.39,4.12c.07.22.13.45.18.66S438.26,313.41,438.29,313.62Z" style="fill: rgb(235, 235, 235); transform-origin: 427.115px 312.129px;" id="elc2w6c5q9g75" class="animable"></path><g id="eloz8snjl20g"><path d="M438.29,313.62a4.17,4.17,0,0,1-.87.91c-5,3.86-20.52,1.2-21.48,1h0c14.55,1.4,18.54-3.9,19.24-7.88l.09.11.36.41a13,13,0,0,1,2.39,4.12c.07.22.13.45.18.66S438.26,313.41,438.29,313.62Z" style="opacity: 0.2; transform-origin: 427.115px 312.129px;" class="animable"></path></g><path d="M392.15,312.8a6.2,6.2,0,0,0,1.27,3c0-.21,0-.43.07-.65a5.57,5.57,0,0,1,.12-.67,12.45,12.45,0,0,1,2-4.33l.31-.45a.76.76,0,0,1,.08-.11h0l.15-.2c8.46-13.12,19.52,5.76,19.75,6.2h0s-1.36-19.76-11.92-19.3C395.71,296.62,391.08,306.76,392.15,312.8Z" style="fill: rgb(235, 235, 235); transform-origin: 403.949px 306.041px;" id="elldgkfk74qwd" class="animable"></path><path d="M393.42,315.76a3.93,3.93,0,0,0,.95.82c5.38,3.36,20.54-.75,21.48-1h0c-14.36,2.78-18.83-2.11-19.91-6a.76.76,0,0,0-.08.11l-.31.45a12.64,12.64,0,0,0-2,4.33c-.05.23-.09.45-.12.67S393.43,315.55,393.42,315.76Z" style="fill: rgb(235, 235, 235); transform-origin: 404.633px 313.737px;" id="elc3cv9j1n8jh" class="animable"></path><g id="elrf3oh512fj9"><path d="M393.42,315.76a3.93,3.93,0,0,0,.95.82c5.38,3.36,20.54-.75,21.48-1h0c-14.36,2.78-18.83-2.11-19.91-6a.76.76,0,0,0-.08.11l-.31.45a12.64,12.64,0,0,0-2,4.33c-.05.23-.09.45-.12.67S393.43,315.55,393.42,315.76Z" style="opacity: 0.2; transform-origin: 404.633px 313.737px;" class="animable"></path></g><polygon points="444.2 381.37 387.93 381.37 392.58 317.9 438.58 319.87 444.2 381.37" style="fill: rgb(219, 219, 219); transform-origin: 416.065px 349.635px;" id="elqtqevff58t" class="animable"></polygon><polygon points="457.19 381.37 439.72 381.37 437.27 319.87 454.07 321.33 457.19 381.37" style="fill: rgb(166, 166, 166); transform-origin: 447.23px 350.62px;" id="elg8yc97rm5qj" class="animable"></polygon><polygon points="387.17 317.9 387.17 330.29 437.27 328.76 437.27 314.57 387.17 317.9" style="fill: rgb(199, 199, 199); transform-origin: 412.22px 322.43px;" id="elr6f570bo73l" class="animable"></polygon><polygon points="456.12 330.29 437.27 328.76 437.27 314.57 457.19 317.9 456.12 330.29" style="fill: rgb(219, 219, 219); transform-origin: 447.23px 322.43px;" id="elneyzt8gde6" class="animable"></polygon><polygon points="420.2 381.37 408.43 381.37 407.24 316.57 421.15 315.64 420.2 381.37" style="fill: rgb(235, 235, 235); transform-origin: 414.195px 348.505px;" id="elah9s3qwkbtw" class="animable"></polygon><polygon points="446.94 381.37 450.94 381.37 450.58 316.8 444.99 315.86 446.94 381.37" style="fill: rgb(235, 235, 235); transform-origin: 447.965px 348.615px;" id="elo9j8pxwz9nr" class="animable"></polygon><path d="M395.31,339.1a5.75,5.75,0,0,1-1.27,2.75c0-.2,0-.4,0-.61s-.06-.42-.1-.64a11.78,11.78,0,0,0-1.76-4.11l-.28-.42-.08-.11h0l-.14-.19c-7.62-12.51-18.44,4.94-18.68,5.34h0s1.74-18.5,11.64-17.82C392.35,323.83,396.45,333.46,395.31,339.1Z" style="fill: rgb(219, 219, 219); transform-origin: 384.249px 332.561px;" id="elu0w9tf923i" class="animable"></path><path d="M394,341.85a3.87,3.87,0,0,1-.91.75c-5.13,3-19.25-1.2-20.13-1.46l0,0c13.4,2.95,17.72-1.53,18.82-5.16l.08.11.28.42a12.17,12.17,0,0,1,1.76,4.11c0,.22.07.43.1.64S394,341.65,394,341.85Z" style="fill: rgb(166, 166, 166); transform-origin: 383.487px 339.828px;" id="elrlz19lqunaf" class="animable"></path><path d="M351.14,335.87a5.92,5.92,0,0,0,.85,2.9c0-.2.08-.4.14-.6a5.3,5.3,0,0,1,.19-.61,11.65,11.65,0,0,1,2.34-3.81l.34-.38.09-.1h0l.17-.17c9.36-11.27,17.52,7.58,17.69,8h0s1-18.56-8.92-19.33C356.29,321.19,350.83,330.11,351.14,335.87Z" style="fill: rgb(219, 219, 219); transform-origin: 362.053px 331.422px;" id="elc20i9idv0p5" class="animable"></path><path d="M352,338.77a4.09,4.09,0,0,0,.79.87c4.64,3.74,19.23,1.62,20.13,1.49h0c-13.69,1-17.31-4.1-17.87-7.85l-.09.1-.34.38a11.93,11.93,0,0,0-2.34,3.81,5.3,5.3,0,0,0-.19.61C352.07,338.37,352,338.57,352,338.77Z" style="fill: rgb(166, 166, 166); transform-origin: 362.46px 337.563px;" id="elwal12mrw74b" class="animable"></path><polygon points="347.36 381.23 399.5 381.23 397.59 344.31 352.57 342.7 347.36 381.23" style="fill: rgb(235, 235, 235); transform-origin: 373.43px 361.965px;" id="el1hv09yd91a5" class="animable"></polygon><g id="elh116ekbstut"><polygon points="347.36 381.23 399.5 381.23 397.59 344.31 352.57 342.7 347.36 381.23" style="fill: rgb(255, 255, 255); opacity: 0.6; transform-origin: 373.43px 361.965px;" class="animable"></polygon></g><polygon points="336.7 381.23 351.52 381.23 353.79 342.7 338.51 345.55 336.7 381.23" style="fill: rgb(235, 235, 235); transform-origin: 345.245px 361.965px;" id="eldjk2aif8obb" class="animable"></polygon><polygon points="400.21 342.84 400.21 355.73 353.79 354.13 353.79 339.39 400.21 342.84" style="fill: rgb(235, 235, 235); transform-origin: 377px 347.56px;" id="elevnzab32ud6" class="animable"></polygon><g id="elury5a9a52pm"><polygon points="400.21 342.84 400.21 355.73 353.79 354.13 353.79 339.39 400.21 342.84" style="fill: rgb(255, 255, 255); opacity: 0.4; transform-origin: 377px 347.56px;" class="animable"></polygon></g><polygon points="336.33 355.73 353.79 354.13 353.79 339.39 335.33 342.84 336.33 355.73" style="fill: rgb(235, 235, 235); transform-origin: 344.56px 347.56px;" id="eltya6fr8z7gf" class="animable"></polygon><g id="elrp2a6zx9q8r"><polygon points="336.33 355.73 353.79 354.13 353.79 339.39 335.33 342.84 336.33 355.73" style="opacity: 0.1; transform-origin: 344.56px 347.56px;" class="animable"></polygon></g><polygon points="385.25 341.73 384.8 381.23 372.49 381.23 372.29 340.77 385.25 341.73" style="fill: rgb(219, 219, 219); transform-origin: 378.77px 361px;" id="elkj41olbinzd" class="animable"></polygon><polygon points="346.43 340.77 341.8 341.63 341.8 381.23 345.67 381.23 346.43 340.77" style="fill: rgb(219, 219, 219); transform-origin: 344.115px 361px;" id="elrcek90i3m2h" class="animable"></polygon><path d="M102.78,339.1a5.84,5.84,0,0,1-1.26,2.75c0-.2,0-.4,0-.61a5,5,0,0,0-.1-.64,11.78,11.78,0,0,0-1.76-4.11c-.09-.14-.18-.28-.28-.42a.76.76,0,0,0-.08-.11h0c0-.07-.09-.13-.13-.19-7.63-12.51-18.45,4.94-18.68,5.34h0s1.75-18.5,11.65-17.82C99.83,323.83,103.93,333.46,102.78,339.1Z" style="fill: rgb(219, 219, 219); transform-origin: 91.7306px 332.561px;" id="el57suenj4tw" class="animable"></path><path d="M101.52,341.85a4.09,4.09,0,0,1-.91.75c-5.13,3-19.26-1.2-20.13-1.46l0,0c13.4,2.95,17.72-1.53,18.82-5.16a.76.76,0,0,1,.08.11c.1.14.19.28.28.42a11.78,11.78,0,0,1,1.76,4.11,5,5,0,0,1,.1.64C101.5,341.45,101.51,341.65,101.52,341.85Z" style="fill: rgb(166, 166, 166); transform-origin: 91px 339.828px;" id="elaf7r75ccmrn" class="animable"></path><path d="M58.62,335.87a5.92,5.92,0,0,0,.85,2.9c0-.2.08-.4.13-.6s.12-.4.19-.61a11.7,11.7,0,0,1,2.35-3.81l.34-.38.09-.1h0l.16-.17c9.37-11.27,17.53,7.58,17.7,8h0s1-18.56-8.91-19.33C63.77,321.19,58.31,330.11,58.62,335.87Z" style="fill: rgb(219, 219, 219); transform-origin: 69.5328px 331.422px;" id="el8li4vhi9h93" class="animable"></path><path d="M59.47,338.77a3.85,3.85,0,0,0,.79.87c4.64,3.74,19.22,1.62,20.13,1.49h0c-13.68,1-17.3-4.1-17.86-7.85l-.09.1-.34.38a12,12,0,0,0-2.35,3.81c-.07.21-.13.41-.19.61S59.5,338.57,59.47,338.77Z" style="fill: rgb(166, 166, 166); transform-origin: 69.93px 337.563px;" id="el30egj3n4atd" class="animable"></path><polygon points="54.84 381.23 106.98 381.23 105.07 344.31 60.05 342.7 54.84 381.23" style="fill: rgb(235, 235, 235); transform-origin: 80.91px 361.965px;" id="elbt0t5wq256e" class="animable"></polygon><g id="el5u3u7eitjpl"><polygon points="54.84 381.23 106.98 381.23 105.07 344.31 60.05 342.7 54.84 381.23" style="fill: rgb(255, 255, 255); opacity: 0.6; transform-origin: 80.91px 361.965px;" class="animable"></polygon></g><polygon points="44.18 381.23 58.99 381.23 61.26 342.7 45.98 345.55 44.18 381.23" style="fill: rgb(235, 235, 235); transform-origin: 52.72px 361.965px;" id="elhw2owpevkuo" class="animable"></polygon><polygon points="107.69 342.84 107.69 355.73 61.26 354.13 61.26 339.39 107.69 342.84" style="fill: rgb(235, 235, 235); transform-origin: 84.475px 347.56px;" id="elcpa0cg2h0qg" class="animable"></polygon><g id="elnb7verrgvo"><polygon points="107.69 342.84 107.69 355.73 61.26 354.13 61.26 339.39 107.69 342.84" style="fill: rgb(255, 255, 255); opacity: 0.4; transform-origin: 84.475px 347.56px;" class="animable"></polygon></g><polygon points="43.8 355.73 61.26 354.13 61.26 339.39 42.81 342.84 43.8 355.73" style="fill: rgb(235, 235, 235); transform-origin: 52.035px 347.56px;" id="elryc61crybh" class="animable"></polygon><g id="elbspp95zrbkf"><polygon points="43.8 355.73 61.26 354.13 61.26 339.39 42.81 342.84 43.8 355.73" style="opacity: 0.1; transform-origin: 52.035px 347.56px;" class="animable"></polygon></g><polygon points="92.73 341.73 92.27 381.23 79.97 381.23 79.77 340.77 92.73 341.73" style="fill: rgb(219, 219, 219); transform-origin: 86.25px 361px;" id="el3pmz1yszzoo" class="animable"></polygon><polygon points="53.91 340.77 49.28 341.63 49.28 381.23 53.15 381.23 53.91 340.77" style="fill: rgb(219, 219, 219); transform-origin: 51.595px 361px;" id="elz6ssuvz9gse" class="animable"></polygon></g><g id="freepik--Floor--inject-57" class="animable animator-active" style="transform-origin: 250px 381.325px;"><polygon points="41.45 381.32 93.59 381.08 145.73 380.99 250 380.83 354.27 380.99 406.41 381.08 458.55 381.32 406.41 381.57 354.27 381.66 250 381.82 145.73 381.66 93.59 381.57 41.45 381.32" style="fill: rgb(38, 50, 56); transform-origin: 250px 381.325px;" id="elsj7o51afc5j" class="animable"></polygon></g><g id="freepik--Shadow--inject-57" class="animable animator-active" style="transform-origin: 250px 429.55px;"><ellipse cx="250" cy="429.55" rx="172.28" ry="15.85" style="fill: rgb(235, 235, 235); transform-origin: 250px 429.55px;" id="elyab96k4al" class="animable"></ellipse></g><g id="freepik--Plant--inject-57" class="animable animator-active" style="transform-origin: 88.355px 320.152px;"><path d="M80.17,289.59a74.48,74.48,0,0,1,1.73-12.17,26.94,26.94,0,0,1,4.35-10.26,13,13,0,0,1,8.52-5.31c3.34-.41,6.47,1.08,9,3.18,3.09,2.6,5.46,6.05,7.68,9.4a113.09,113.09,0,0,1,6.64,11.62.11.11,0,0,1-.2.11,71.67,71.67,0,0,0-5.94-9.73,61.49,61.49,0,0,0-6.83-8.27c-2.29-2.24-5.21-4.33-8.53-4.44a10.48,10.48,0,0,0-8.34,4.3c-2.22,2.84-3.35,6.4-4.2,9.86a74.14,74.14,0,0,0-1.71,11.59c-.65,8-.83,16.08-1,24.12-.1,4.55-.16,9.1-.21,13.65,0,2.3,0,4.61,0,6.91a42.39,42.39,0,0,1-.27,6.67c-.07.45-.81.41-.88,0a39.2,39.2,0,0,1-.31-6.32c0-2.18,0-4.37-.07-6.55q-.06-6.37-.05-12.75C79.48,306.66,79.59,298.1,80.17,289.59Z" style="fill: rgb(38, 50, 56); transform-origin: 98.8177px 301.462px;" id="el1fnb4u9nxt6" class="animable"></path><path d="M91.62,283.55c.43-2.27,1.19-5.23,2.48-7,2.33-3.16,4.83-1.78,2.51,1.71a20.93,20.93,0,0,0-3.25,8.62s3.9,5.57,8.61,8.31c-.2-2.14-.81-5.43-.39-8.61.9-6.89,5.07-6.5,4-1a47.5,47.5,0,0,0-1,11.06,23.45,23.45,0,0,0,5,2.46c-.27-.79-.56-1.75-.88-2.91-1.67-6.17,2.45-8.1,2.58-4.63a49.07,49.07,0,0,0,1.6,8.76c2.26.76,4.13,1.28,5.28,1.68a19.34,19.34,0,0,1,7.72,5.27,24.62,24.62,0,0,0,5.26-6.8c-1.44-1.24-3.72-3.08-6.87-5.31-5.92-4.18-3.86-9.45.83-6.17,3.39,2.36,6,6.75,7.2,9a36.63,36.63,0,0,0,2.69-12.32c-4.65-4.36-16.15-10.44-12.68-10.44,3.12,0,10.09,4.57,12.65,6.33a31.37,31.37,0,0,0-.39-3.58c-4.38-2.87-18.6-7.33-16.34-8.62,2.49-1.41,12.42,3.19,15.42,4.64a18.13,18.13,0,0,0-2.63-5.44c-6.05-8.1-17-10.89-21.72-9.35-3.36,1.09-2.38,9.64-3.1,9.35C92.8,263.1,86.65,267,91.62,283.55Zm33.16-.94c1-1.16,5.4,2.25,4.12,4.12S123.55,284.1,124.78,282.61Zm-23.19-7.29c1.16.75-.56,5.06-2.36,3.76C97.69,278,100.41,274.57,101.59,275.32Z" style="fill: rgb(223, 57, 57); transform-origin: 112.449px 283.037px;" id="elofsohmfp3ae" class="animable"></path><g id="elz56s8h22te"><path d="M91.62,283.55c.43-2.27,1.19-5.23,2.48-7,2.33-3.16,4.83-1.78,2.51,1.71a20.93,20.93,0,0,0-3.25,8.62s3.9,5.57,8.61,8.31c-.2-2.14-.81-5.43-.39-8.61.9-6.89,5.07-6.5,4-1a47.5,47.5,0,0,0-1,11.06,23.45,23.45,0,0,0,5,2.46c-.27-.79-.56-1.75-.88-2.91-1.67-6.17,2.45-8.1,2.58-4.63a49.07,49.07,0,0,0,1.6,8.76c2.26.76,4.13,1.28,5.28,1.68a19.34,19.34,0,0,1,7.72,5.27,24.62,24.62,0,0,0,5.26-6.8c-1.44-1.24-3.72-3.08-6.87-5.31-5.92-4.18-3.86-9.45.83-6.17,3.39,2.36,6,6.75,7.2,9a36.63,36.63,0,0,0,2.69-12.32c-4.65-4.36-16.15-10.44-12.68-10.44,3.12,0,10.09,4.57,12.65,6.33a31.37,31.37,0,0,0-.39-3.58c-4.38-2.87-18.6-7.33-16.34-8.62,2.49-1.41,12.42,3.19,15.42,4.64a18.13,18.13,0,0,0-2.63-5.44c-6.05-8.1-17-10.89-21.72-9.35-3.36,1.09-2.38,9.64-3.1,9.35C92.8,263.1,86.65,267,91.62,283.55Zm33.16-.94c1-1.16,5.4,2.25,4.12,4.12S123.55,284.1,124.78,282.61Zm-23.19-7.29c1.16.75-.56,5.06-2.36,3.76C97.69,278,100.41,274.57,101.59,275.32Z" style="opacity: 0.1; transform-origin: 112.449px 283.037px;" class="animable"></path></g><path d="M103.36,276.65c.61-1.21,1.24-2.41,1.94-3.57a20.09,20.09,0,0,1,2.24-3.24c-.2-.24-.38-.48-.58-.71s.06-.23.14-.14c.23.26.44.52.66.79a.22.22,0,0,1,.1.11c.83,1,1.62,2,2.37,3.08a36,36,0,0,1,3.93,1.14c1.33.45,2.64.91,3.93,1.45.14.06.07.28-.06.22-1.28-.56-2.58-1.11-3.9-1.56s-2.53-.75-3.8-1.11c.41.59.82,1.17,1.21,1.77a46.5,46.5,0,0,1,6.95,2.84c2.34,1.11,4.6,2.41,6.85,3.71.13.07,0,.27-.12.19a75.82,75.82,0,0,0-6.82-3.53c-2.17-1-4.43-1.85-6.62-2.82,5.52,8.62,8.84,18.57,13.27,27.78.06.13-.15.24-.2.11-1.36-3.23-2.91-6.38-4.39-9.56-1.32-2.85-2.61-5.72-3.93-8.57-.39-.83-.79-1.67-1.19-2.5.24,4.61.14,9.29.89,13.84a.11.11,0,1,1-.22,0c-.32-4.93-1.19-9.77-1.15-14.72,0,0,0,0,0-.06-.94-1.88-1.94-3.74-3-5.54-1.83,4.31-3.75,8.68-4.61,13.31,0,.14-.26.08-.22-.07,1.25-4.64,2.4-9.28,4.63-13.57a51.44,51.44,0,0,0-3.89-5.61c-.61,1.15-1.4,2.23-2.09,3.32s-1.36,2.15-2,3.25a47.67,47.67,0,0,0-3.45,7.3c0,.14-.28.07-.22-.06C101.08,281.5,102.15,279,103.36,276.65Z" style="fill: rgb(38, 50, 56); transform-origin: 112.698px 286.076px;" id="els2wedjxizu9" class="animable"></path><path d="M59.81,287.13c3.54-3.56,7.67-8.22,13.14-8.21,5.29,0,9.18,4.26,11.42,8.66,2.34,4.59,3.18,9.79,3.84,14.85a179.85,179.85,0,0,1,1.4,18.26c.1,3.39.08,6.79,0,10.18a67.67,67.67,0,0,1-.78,10.26c-.1.55-1,.57-1,0-.16-2.85,0-5.72,0-8.58s0-5.63-.13-8.44c-.21-5.69-.62-11.37-1.29-17-.58-4.93-1.05-10-2.53-14.78-1.33-4.31-3.83-9.23-8.19-11.12-6-2.58-11.77,2.13-15.66,6.11C59.88,287.38,59.71,287.23,59.81,287.13Z" style="fill: rgb(38, 50, 56); transform-origin: 74.7289px 310.235px;" id="eldk33q12lcdh" class="animable"></path><path d="M41.72,295.07h0c0,.73.07,1.45.12,2.15a12.89,12.89,0,0,1,5.81-2.41c5-.53,4.71,3.29,1.35,3.45a19.09,19.09,0,0,0-6.9,1.39c.82,6.64,2.64,12,2.92,12A95,95,0,0,0,58.31,310c-1.25-2.66-4.1-6.21-2.65-6.49s3.05,2.87,3.85,6.25a64.26,64.26,0,0,0,9.67-2.66c-2.21-1.92-5.64-4.3-4.33-5.32s4,2.34,5.65,4.78a19.31,19.31,0,0,0,4.18-2.33c-3-4.38-10.25-5.27-9.3-8.43s7.75,1.22,10.8,7.08c3.59-3.71,4.64-9,4.26-13.47-3.12-.36-9.13.29-8.7-1.95s4.78-1.81,8.33-.51A12.54,12.54,0,0,0,78,282c-3.3-4.22-13.34,1.15-13.34,1.15s1.08-10.09-2.76-11.84c-2.2-1-6.1-1-10,1.31,2.19.18,4.85.87,5.91,2.39,1.36,1.94-.79,3-2.15,2.1-1-.63-2.76-2.63-6-2.89a19.88,19.88,0,0,0-3.63,4A19.13,19.13,0,0,0,45,279.94a13.83,13.83,0,0,1,11.76.21c4.35,2.17,1.92,6.69-1.83,4.93s-7.31-3.48-11.28-2.49a28.11,28.11,0,0,0-1.91,11.26,19.48,19.48,0,0,1,6.45-3.09c4.33-1.14,5.64,1.45.88,1.93A19,19,0,0,0,41.72,295.07ZM47,288.12c-.3-1.4,2.77-1.8,3.28-.66C50.7,288.43,47.28,289.53,47,288.12Zm26.27,7.77c.29-.76,2.34.11,2.15,1.06C75.16,298.22,73,296.66,73.26,295.89Zm-14.5,4.92c1.49-.6,3.83,3.13,2.2,4S57.53,301.3,58.76,300.81Z" style="fill: rgb(223, 57, 57); transform-origin: 61.1167px 291.162px;" id="elvl25xfrieqe" class="animable"></path><path d="M45.61,311c2.25-3.78,4.48-7.57,6.85-11.27,1.1-1.73,2.26-3.42,3.46-5.08-.18,0-.36-.09-.54-.12l-.9-.18c-.69-.12-1.39-.22-2.09-.29s-1.32-.1-2-.11a9.89,9.89,0,0,0-2.11.11.06.06,0,1,1,0-.11c.7,0,1.42-.06,2.13-.07s1.37,0,2.06.05a17.85,17.85,0,0,1,1.92.2l1,.18a6.39,6.39,0,0,1,.63.13c1.22-1.68,2.49-3.32,3.8-4.94a45.42,45.42,0,0,0-12.35-3.94c-.07,0,0-.12,0-.11a41.89,41.89,0,0,1,12.53,3.8c.72-.88,1.45-1.77,2.18-2.64s1.68-1.94,2.42-3c0-.06.15,0,.09.07a44.18,44.18,0,0,0-2.86,3.51h0a42.84,42.84,0,0,1,4.59,3.69c1.5,1.33,3,2.71,4.39,4.12.06.05,0,.13-.08.08q-2.1-2.1-4.39-4c-1.52-1.27-3.13-2.43-4.66-3.68a0,0,0,0,1,0,0l-1.05,1.39-.53.69,0,0c-.59.76-1.17,1.53-1.75,2.3a18.47,18.47,0,0,1,1.74,3.14c.51,1.07,1,2.17,1.35,3.27a46.62,46.62,0,0,1,1.88,7.07.06.06,0,1,1-.11,0,40.72,40.72,0,0,0-2-6.92c-.44-1.16-.94-2.28-1.45-3.4s-1-2-1.48-3c-.5.68-1,1.35-1.5,2l-.43.6a.06.06,0,0,1-.05.1h0c-1.55,2.17-3,4.38-4.46,6.62a2.3,2.3,0,0,1,.2.49c.09.28.18.55.26.83a15.76,15.76,0,0,1,.39,1.68c.1.53.17,1.06.22,1.6a15.93,15.93,0,0,0,.14,1.83c0,.09-.13.09-.11,0a5.72,5.72,0,0,0-.13-1.7c-.08-.59-.19-1.16-.32-1.74s-.26-1-.42-1.54c-.07-.26-.16-.51-.24-.76l-.16-.42c-.67,1.05-1.34,2.11-2,3.17-1.3,2.11-2.59,4.23-3.88,6.34C45.71,311.15,45.54,311.05,45.61,311Z" style="fill: rgb(38, 50, 56); transform-origin: 58.2139px 297.338px;" id="elcy0o5ya0efi" class="animable"></path><path d="M80.4,339.92c.06-2.14.4-4.3.63-6.42s.47-4.27.7-6.41a98.88,98.88,0,0,1,1.65-12.36,18.11,18.11,0,0,1,5-9.25,8.25,8.25,0,0,1,4.94-2.35,8.47,8.47,0,0,1,5.23,1.62,18.2,18.2,0,0,1,4.41,4.64,44.77,44.77,0,0,1,3.43,5.57c0,.08-.08.12-.12.05a28.29,28.29,0,0,0-7.43-8.32,8.64,8.64,0,0,0-4.68-1.95,6.31,6.31,0,0,0-4.54,1.81,17,17,0,0,0-4.8,8.48A87.92,87.92,0,0,0,83,326.45c-.3,2.26-.59,4.53-.89,6.79s-.49,4.56-1,6.78A.38.38,0,0,1,80.4,339.92Z" style="fill: rgb(38, 50, 56); transform-origin: 93.395px 321.676px;" id="elqx12glv4z6" class="animable"></path><path d="M90.92,323.31a11.82,11.82,0,0,0,2.32,2.38c-.35-2.09-.77-5.8.28-7.77,1.64-3.06,3.57-1.54,2.6,1.13a21.64,21.64,0,0,0-1.58,7.55,32.67,32.67,0,0,0,7.1,3.35,12,12,0,0,1-.23-3.65c.33-3.28,2.84-3.22,2.18.19a21.62,21.62,0,0,0-.34,4,73.22,73.22,0,0,0,11.07,2.5,32.5,32.5,0,0,0,4.58-8.15c-2.67-.67-8.07-.82-8-2.73.15-2.56,5.38-.59,8.44,1.27a20.6,20.6,0,0,0,.93-6.9,34.54,34.54,0,0,0-7.36-1.22c-5.49-.47-5.22-3.59-1.24-3.51,2.93.05,6.65,1.85,8.41,2.78-1.15-7.47-6.85-12.26-11.41-12.44-7.68-.31-4.92,9.25-4.92,9.25s-5.2-3.66-10.12-3.56S85.67,316,90.92,323.31Zm20.51-13.81c-.17-1.08,3.26-1.34,3.44,0C115.07,311.09,111.61,310.59,111.43,309.5ZM117,320.71c-.07-.7,1.41-.83,1.74.06C118.92,321.34,117,321.4,117,320.71Zm-18.45.65c1.16.17,1.82,4.31-.17,4.22C96.81,325.52,97.52,321.22,98.5,321.36Z" style="fill: rgb(223, 57, 57); transform-origin: 104.228px 317.536px;" id="el3fieqi313ie" class="animable"></path><g id="elmt2y7axv9l"><path d="M90.92,323.31a11.82,11.82,0,0,0,2.32,2.38c-.35-2.09-.77-5.8.28-7.77,1.64-3.06,3.57-1.54,2.6,1.13a21.64,21.64,0,0,0-1.58,7.55,32.67,32.67,0,0,0,7.1,3.35,12,12,0,0,1-.23-3.65c.33-3.28,2.84-3.22,2.18.19a21.62,21.62,0,0,0-.34,4,73.22,73.22,0,0,0,11.07,2.5,32.5,32.5,0,0,0,4.58-8.15c-2.67-.67-8.07-.82-8-2.73.15-2.56,5.38-.59,8.44,1.27a20.6,20.6,0,0,0,.93-6.9,34.54,34.54,0,0,0-7.36-1.22c-5.49-.47-5.22-3.59-1.24-3.51,2.93.05,6.65,1.85,8.41,2.78-1.15-7.47-6.85-12.26-11.41-12.44-7.68-.31-4.92,9.25-4.92,9.25s-5.2-3.66-10.12-3.56S85.67,316,90.92,323.31Zm20.51-13.81c-.17-1.08,3.26-1.34,3.44,0C115.07,311.09,111.61,310.59,111.43,309.5ZM117,320.71c-.07-.7,1.41-.83,1.74.06C118.92,321.34,117,321.4,117,320.71Zm-18.45.65c1.16.17,1.82,4.31-.17,4.22C96.81,325.52,97.52,321.22,98.5,321.36Z" style="opacity: 0.1; transform-origin: 104.228px 317.536px;" class="animable"></path></g><path d="M100.11,326c.19-.52.36-1,.52-1.57-.15.54-.28,1.07-.38,1.61C100.23,326.1,100.07,326.06,100.11,326Z" style="fill: rgb(38, 50, 56); transform-origin: 100.367px 325.25px;" id="elky11tlpk9d" class="animable"></path><path d="M102.13,319.31c.36-1.06.77-2.11,1.18-3.15.22-.56.45-1.11.69-1.66a6.85,6.85,0,0,1,.69-1.38,9.47,9.47,0,0,1-.62-1.34s0-.08.07,0a16.63,16.63,0,0,1,1.49,2.32c.22.37.42.74.63,1.1a11.16,11.16,0,0,1,1.29.2l1.38.28,1.36.32c.46.11.91.26,1.37.33.1,0,.06.18,0,.14a9,9,0,0,0-1.44-.37c-.44-.1-.88-.18-1.33-.24s-.89-.12-1.34-.16l-1-.09c.19.33.38.64.56,1a1.09,1.09,0,0,0,.08.15,4.53,4.53,0,0,1,1.1.13l1.19.24c.8.18,1.6.36,2.39.59,1.66.46,3.3,1,4.94,1.53.09,0,0,.16-.06.13a48,48,0,0,0-5-1.37l-2.36-.53-1.19-.25a7,7,0,0,1-.91-.2c.84,1.56,1.64,3.15,2.37,4.77,1.59,3.52,2.93,7.15,4.3,10.77,0,.09-.11.15-.14.06A99.32,99.32,0,0,0,109.23,322c-.31-.63-.63-1.25-.94-1.87,0,.12-.05.25-.08.38-.08.42-.15.85-.23,1.28-.14.86-.29,1.71-.41,2.57a30.15,30.15,0,0,0-.62,5.34c0,.11-.17.11-.15,0a25.05,25.05,0,0,0,.19-2.6c.06-.9.12-1.8.23-2.69s.21-1.73.35-2.58c.07-.43.15-.86.23-1.29a2.46,2.46,0,0,1,.24-.93l-1.35-2.7c-.43-.85-.86-1.69-1.3-2.53l-.59-1.07a10.11,10.11,0,0,1-.5,1.29l-.6,1.46c-.44,1.07-.85,2.15-1.26,3.23-.58,1.54-1.22,3.11-1.7,4.71C101.21,322.45,101.61,320.86,102.13,319.31Z" style="fill: rgb(38, 50, 56); transform-origin: 108.794px 322.209px;" id="elaialgl7us9" class="animable"></path><path d="M100.63,324.39c0-.12.07-.24.11-.37C100.71,324.15,100.67,324.27,100.63,324.39Z" style="fill: rgb(38, 50, 56); transform-origin: 100.685px 324.205px;" id="el3rhlsv1o4oj" class="animable"></path><polygon points="67.56 335.76 68.1 347.19 69.49 376.66 99.89 376.66 101.28 347.19 101.82 335.76 67.56 335.76" style="fill: rgb(55, 71, 79); transform-origin: 84.69px 356.21px;" id="el2pcyke38tc7" class="animable"></polygon><polygon points="67.56 335.76 68.1 347.19 101.28 347.19 101.82 335.76 67.56 335.76" style="fill: rgb(38, 50, 56); transform-origin: 84.69px 341.475px;" id="elch1in2zaroh" class="animable"></polygon><g id="elu4mkr4if2hh"><rect x="65.4" y="331.14" width="38.59" height="9.24" style="fill: rgb(55, 71, 79); transform-origin: 84.695px 335.76px; transform: rotate(180deg);" class="animable"></rect></g><rect x="92.09" y="376.66" width="5.34" height="4.84" style="fill: rgb(55, 71, 79); transform-origin: 94.76px 379.08px;" id="elexg9dxkyvm5" class="animable"></rect><rect x="92.09" y="376.66" width="5.34" height="2.42" style="fill: rgb(38, 50, 56); transform-origin: 94.76px 377.87px;" id="elmfxpm0bhzvb" class="animable"></rect><rect x="71.95" y="376.66" width="5.33" height="4.84" style="fill: rgb(55, 71, 79); transform-origin: 74.615px 379.08px;" id="el8pbmy78wg3g" class="animable"></rect><rect x="71.95" y="376.66" width="5.33" height="2.42" style="fill: rgb(38, 50, 56); transform-origin: 74.615px 377.87px;" id="elawylsfxii3e" class="animable"></rect></g><g id="freepik--label-2--inject-57" class="animable animator-active" style="transform-origin: 291.085px 110.551px;"><path d="M270.11,133.63l-.3.41c-.41.54-10.05,13.27-16.44,11.88-2-.44-3.18-1.52-3.22-3-.1-2.92,3.83-6.53,8.57-7.88a42.18,42.18,0,0,1,10.88-1.4Zm-18.67,7a4.22,4.22,0,0,0-.77,2.3c0,1.26,1,2.13,2.81,2.53,5.44,1.18,13.83-9,15.58-11.26a41.13,41.13,0,0,0-10.2,1.38A13.25,13.25,0,0,0,251.44,140.58Z" style="fill: rgb(38, 50, 56); transform-origin: 260.129px 139.828px;" id="el09wtrz7mky39" class="animable"></path><path d="M306.06,75.63a1.69,1.69,0,0,0-2.39-.1l-41.3,37.78a1.71,1.71,0,0,0-.54,1.4l1.34,16.61v.24l.05.43v.19l.51,6.29a1.68,1.68,0,0,0,1.4,1.54l6.28,1.07.57.09L288.64,144a1.65,1.65,0,0,0,1.44-.42l41.29-37.78a1.7,1.7,0,0,0,.1-2.41Z" style="fill: rgb(255, 255, 255); transform-origin: 296.873px 109.556px;" id="elog2n05tycs" class="animable"></path><path d="M306.06,75.63a1.66,1.66,0,0,0-1.46-.53,1.68,1.68,0,0,0-.75.29c-.22.16-.4.36-.61.54l-2.39,2.2-4.78,4.39-9.57,8.8-19.13,17.6-4.78,4.39a1.62,1.62,0,0,0-.61,1.31l.13,1.61.27,3.24,1.08,12.95.27,3.24.13,1.62.07.81,0,.4a1.3,1.3,0,0,0,.08.34,1.46,1.46,0,0,0,1,.93c.48.1,1,.18,1.58.27l3.2.54,12.82,2.15,3.2.55,1.6.27.8.14.4.07a1.06,1.06,0,0,0,.35,0,1.4,1.4,0,0,0,.66-.19,1.37,1.37,0,0,0,.29-.2l.3-.28,1.2-1.09,2.4-2.19,9.61-8.75,19.21-17.5,4.81-4.37,2.4-2.19,1.2-1.1a2.37,2.37,0,0,0,.53-.57,1.68,1.68,0,0,0,.22-.72,1.5,1.5,0,0,0-.14-.75,2.26,2.26,0,0,0-.46-.63l-1.09-1.2-2.19-2.4-4.37-4.8Zm0,0,17.6,19.13,4.4,4.78,2.2,2.39,1.1,1.2a2.4,2.4,0,0,1,.5.67,1.85,1.85,0,0,1,.16.84,1.79,1.79,0,0,1-.25.81,2.43,2.43,0,0,1-.56.63l-1.19,1.1-2.4,2.2-4.78,4.4-19.12,17.59-9.57,8.8-2.39,2.2-1.19,1.1-.3.28a2,2,0,0,1-.37.27,2,2,0,0,1-.89.26,2.15,2.15,0,0,1-.45,0l-.41-.07-.8-.13-1.6-.27-3.2-.54L269.74,141l-3.2-.55c-.54-.1-1.05-.17-1.62-.29a1.91,1.91,0,0,1-1.29-1.21,2.15,2.15,0,0,1-.09-.44l0-.41-.07-.81-.12-1.62-.25-3.24-1-12.95-.25-3.24-.13-1.63a1.94,1.94,0,0,1,.72-1.53l4.81-4.38,19.21-17.5L296,82.48l4.81-4.38,2.4-2.19c.21-.17.39-.37.61-.53a1.77,1.77,0,0,1,.76-.29A1.7,1.7,0,0,1,306.06,75.63Z" style="fill: rgb(235, 235, 235); transform-origin: 296.871px 109.684px;" id="el3s8qhqdsd9g" class="animable"></path><path d="M268.94,132.21a2.6,2.6,0,0,1,.36-.46s0,0,0,0h0a2.25,2.25,0,0,1,3,3.32l0,0a2,2,0,0,1-.33.25l-.22.11a2.24,2.24,0,0,1-2.85-3.2Z" style="fill: rgb(255, 255, 255); transform-origin: 270.723px 133.478px;" id="elio6dzbzmkbi" class="animable"></path><path d="M268.94,132.21a2.35,2.35,0,0,1,.36-.47h0s0,0,0,0h0a2.44,2.44,0,0,1,1.63-.65,2.34,2.34,0,0,1,1.68.68,2.4,2.4,0,0,1-.1,3.48h0l-.2.15-.21.14h0a2.27,2.27,0,0,1-1.58.27,2.36,2.36,0,0,1-1.35-.75A2.39,2.39,0,0,1,268.94,132.21Zm0,0a2.17,2.17,0,0,0-.27,1.43,2.11,2.11,0,0,0,1.94,1.77,2.18,2.18,0,0,0,1.26-.32h0l.16-.13.17-.13h0a2.07,2.07,0,0,0,.65-1.38,2.14,2.14,0,0,0-.46-1.49,2.09,2.09,0,0,0-1.44-.77,2.14,2.14,0,0,0-1.61.52h0l0,0h0A2,2,0,0,0,268.94,132.21Z" style="fill: rgb(235, 235, 235); transform-origin: 270.941px 133.471px;" id="el5wwkqzto038" class="animable"></path><path d="M303.25,79.08l-38,34.76a1.74,1.74,0,0,0-.57,1.38l.92,15.95,0,.52.28,4.81A1.59,1.59,0,0,0,267.3,138l21.09,3.11a1.7,1.7,0,0,0,1.42-.44l38-34.76a1.69,1.69,0,0,0,.16-2.38L305.62,79.13A1.67,1.67,0,0,0,303.25,79.08Zm2.15.26,22.33,24.38a1.38,1.38,0,0,1-.14,2l-38,34.76a1.44,1.44,0,0,1-1.18.38l-21.09-3.11a1.29,1.29,0,0,1-.77-.41,1.27,1.27,0,0,1-.34-.81l-.28-4.79,0-.53-.92-16a1.44,1.44,0,0,1,.47-1.14l38-34.76A1.37,1.37,0,0,1,305.4,79.34Z" style="fill: rgb(38, 50, 56); transform-origin: 296.532px 109.87px;" id="elrbp1zbjcx6" class="animable"></path></g><g id="freepik--label-1--inject-57" class="animable animator-active" style="transform-origin: 144.351px 236.729px;"><path d="M171,265.32a52.24,52.24,0,0,1,13.49,1.73c5.87,1.67,10.73,6.14,10.62,9.76-.06,1.87-1.48,3.2-4,3.75-7.92,1.72-19.87-14.05-20.37-14.72l-.38-.51Zm13.31,2.36A50.93,50.93,0,0,0,171.65,266c2.17,2.75,12.57,15.42,19.31,13.95,2.23-.48,3.43-1.57,3.48-3.13a5.29,5.29,0,0,0-.95-2.85A16.47,16.47,0,0,0,184.29,267.68Z" style="fill: rgb(38, 50, 56); transform-origin: 182.736px 273.005px;" id="elx1ijy7wpucl" class="animable"></path><path d="M125.8,193.47a2.09,2.09,0,0,1,3-.13l51.17,46.82a2.12,2.12,0,0,1,.67,1.73L179,262.47l0,.29-.05.54,0,.24-.62,7.79a2.09,2.09,0,0,1-1.74,1.9l-7.78,1.33-.7.11-20.63,3.51a2.06,2.06,0,0,1-1.78-.52L94.45,230.84a2.11,2.11,0,0,1-.13-3Z" style="fill: rgb(255, 255, 255); transform-origin: 137.202px 235.491px;" id="eldwxqw4nzg8n" class="animable"></path><path d="M104.12,217.28l-5.43,5.95-2.71,3-1.35,1.48a2.65,2.65,0,0,0-.57.78,2,2,0,0,0-.17.92,2,2,0,0,0,.27.9,2.94,2.94,0,0,0,.66.71l1.48,1.36,3,2.71,6,5.42L129,262.17,141,273l3,2.71,1.48,1.36.38.34a2.27,2.27,0,0,0,.35.26,1.76,1.76,0,0,0,.81.23,2.25,2.25,0,0,0,.44,0l.5-.08,1-.18,2-.34,4-.68,15.88-2.66,4-.67c.65-.11,1.35-.21,2-.33a1.87,1.87,0,0,0,1.24-1.15,2.05,2.05,0,0,0,.09-.43l0-.5.08-1,.17-2,.33-4,1.34-16,.33-4,.17-2a2,2,0,0,0-.76-1.62l-5.93-5.45L150,212.91,138.19,202l-5.93-5.45-3-2.73a8,8,0,0,0-.76-.66,2,2,0,0,0-.92-.36,2.07,2.07,0,0,0-1.82.66Zm23.5-24.48a2.19,2.19,0,0,1,.93.35,9.83,9.83,0,0,1,.76.67l3,2.71,6,5.42,11.91,10.84L174,234.47l6,5.42a2.35,2.35,0,0,1,.88,1.9l-.15,2-.31,4-1.26,16.05-.31,4-.16,2-.08,1,0,.51a2.08,2.08,0,0,1-.12.55,2.35,2.35,0,0,1-1.59,1.49c-.71.15-1.33.24-2,.36l-4,.69-15.87,2.74-4,.67-2,.33-1,.16-.49.09a2.69,2.69,0,0,1-.57,0,2.41,2.41,0,0,1-1.1-.32,2.13,2.13,0,0,1-.45-.34l-.37-.34-1.48-1.36-3-2.73-11.85-10.9L105,240.73l-5.92-5.45-3-2.73-1.49-1.36a3.42,3.42,0,0,1-.69-.77,2.43,2.43,0,0,1-.31-1,2.33,2.33,0,0,1,.2-1,3.08,3.08,0,0,1,.61-.84l1.37-1.48,2.72-3,5.46-5.92,21.8-23.7A2.11,2.11,0,0,1,127.62,192.8Z" style="fill: rgb(235, 235, 235); transform-origin: 137.235px 235.612px;" id="elspp6uam2ehl" class="animable"></path><path d="M171.81,263.57a3.11,3.11,0,0,0-.46-.57l0-.05h0a2.78,2.78,0,0,0-3.75,4.11l0,0a2.94,2.94,0,0,0,.42.3,1,1,0,0,0,.27.14,2.78,2.78,0,0,0,3.54-4Z" style="fill: rgb(255, 255, 255); transform-origin: 169.478px 264.996px;" id="elq1hpdkp89rb" class="animable"></path><path d="M171.47,267.05a2.93,2.93,0,0,1-1.68.93,2.9,2.9,0,0,1-2-.33h0l-.26-.18-.25-.18h0l0,0a3,3,0,0,1-1-2.15,3,3,0,0,1,.88-2.15,2.89,2.89,0,0,1,2.08-.85,3,3,0,0,1,2,.8h0l.05.05h0a3.21,3.21,0,0,1,.45.58A3,3,0,0,1,171.47,267.05Zm-.13-4.05h0l-.05-.05h0a2.63,2.63,0,0,0-2-.65,2.66,2.66,0,0,0-1.78,1,2.72,2.72,0,0,0-.57,1.85,2.65,2.65,0,0,0,.81,1.71l0,0,.22.17.2.15,0,0a2.62,2.62,0,0,0,3.13-.27,2.62,2.62,0,0,0,.84-1.53,2.74,2.74,0,0,0-.33-1.77A2.85,2.85,0,0,0,171.34,263Z" style="fill: rgb(235, 235, 235); transform-origin: 169.226px 265.087px;" id="elypag851mcy9" class="animable"></path><path d="M126.35,197.8,98.69,228a2.09,2.09,0,0,0,.19,2.94L145.94,274a2.15,2.15,0,0,0,1.76.55l26.13-3.85a2,2,0,0,0,1.7-1.85l.35-6,0-.64,1.14-19.76a2.15,2.15,0,0,0-.7-1.71l-47.06-43.07A2.09,2.09,0,0,0,126.35,197.8ZM129,198l47.06,43.07a1.76,1.76,0,0,1,.58,1.42l-1.14,19.77,0,.65-.34,5.95a1.64,1.64,0,0,1-.42,1,1.69,1.69,0,0,1-1,.5l-26.13,3.85a1.8,1.8,0,0,1-1.46-.46L99.13,230.69a1.72,1.72,0,0,1-.17-2.42l27.66-30.21A1.72,1.72,0,0,1,129,198Z" style="fill: rgb(38, 50, 56); transform-origin: 137.599px 235.857px;" id="elu44b7ilowbe" class="animable"></path></g><g id="freepik--label-text-2--inject-57" class="animable animator-active" style="transform-origin: 294.559px 112.648px;"><path d="M286.76,122.22a4.94,4.94,0,0,1-6.92,7h0c-.28-.27-.55-.54-.81-.83a11.84,11.84,0,0,1-2.29-3.55,7.21,7.21,0,0,1-.42-4.34,5.89,5.89,0,0,1,1.61-2.77,1.13,1.13,0,0,1,1.6,0,1.18,1.18,0,0,1,0,1.61,3.81,3.81,0,0,0-1,1.71,4.29,4.29,0,0,0,0,1.92,4.11,4.11,0,0,0,.17.57,4.66,4.66,0,0,1,1.16-1.62A4.93,4.93,0,0,1,286.76,122.22Zm-1.67,1.53a2.67,2.67,0,1,0-3.94,3.61,2.67,2.67,0,0,0,3.94-3.61Z" style="fill: rgb(69, 90, 100); transform-origin: 282.049px 123.879px;" id="eltl1tlr14cu" class="animable"></path><path d="M287.62,118.46a8.74,8.74,0,0,1-2.26-4.52,4.29,4.29,0,0,1,5.57-5.1,9.39,9.39,0,0,1,6.56,7.17,4.28,4.28,0,0,1-5.57,5.1A8.85,8.85,0,0,1,287.62,118.46Zm5.93-5.43a6.76,6.76,0,0,0-3.17-2,2.36,2.36,0,0,0-2.23.36,2.46,2.46,0,0,0-.59,2.22,6.75,6.75,0,0,0,1.73,3.33,6.64,6.64,0,0,0,3.15,2,2.49,2.49,0,0,0,2.28-.38,2.42,2.42,0,0,0,.54-2.21A6.77,6.77,0,0,0,293.55,113Z" style="fill: rgb(69, 90, 100); transform-origin: 291.427px 114.978px;" id="elpm1opyzdv8o" class="animable"></path><path d="M295.69,106.19l0,0a3.43,3.43,0,0,1,0-5,3.39,3.39,0,0,1,4.89.41l0,0a3.37,3.37,0,1,1-4.93,4.56Zm3.62-3.31,0,0a1.83,1.83,0,0,0-2.55-.47c-.71.64-.5,1.72.24,2.53l0,0a1.84,1.84,0,0,0,2.56.47C300.26,104.76,300.05,103.69,299.31,102.88Zm4.52,8.74-1.72-15.71a.77.77,0,0,1,.26-.74.81.81,0,0,1,1.14,0,1,1,0,0,1,.22.51l1.72,15.71a.81.81,0,0,1-.27.75.78.78,0,0,1-1.12-.05A.91.91,0,0,1,303.83,111.62Zm3.13-5.87,0,0a3.36,3.36,0,1,1,4.92-4.56l0,0a3.44,3.44,0,0,1,0,5A3.4,3.4,0,0,1,307,105.75Zm3.61-3.31,0,0a1.83,1.83,0,0,0-2.55-.47c-.71.64-.5,1.72.25,2.53l0,0a1.84,1.84,0,0,0,2.56.47C311.53,104.33,311.31,103.25,310.57,102.44Z" style="fill: rgb(69, 90, 100); transform-origin: 303.783px 103.644px;" id="el6df002indtn" class="animable"></path></g><g id="freepik--label-text-1--inject-57" class="animable animator-active" style="transform-origin: 139.12px 239.374px;"><path d="M128.26,226.74a6.3,6.3,0,0,1-1.68,4.59,6.39,6.39,0,0,1-4.42,2,6.25,6.25,0,0,1-4.57-1.66l0,0a6.24,6.24,0,0,1-2-4.4,1.41,1.41,0,0,1,1.39-1.51,1.45,1.45,0,0,1,1.51,1.39,3.43,3.43,0,0,0,3.61,3.31,3.49,3.49,0,0,0,2.4-1.1,3.33,3.33,0,0,0,.91-2.51,3.29,3.29,0,0,0-1.11-2.38,3.42,3.42,0,0,0-2.49-.93,1.47,1.47,0,0,1-1.52-1.39c0-.15,0-.29,0-.44s0-.05,0-.07a.24.24,0,0,0,0-.13c0-.06.06-.11.1-.15s0,0,0-.06a1.32,1.32,0,0,1,.3-.32l5.06-4.37a1.54,1.54,0,0,1,1.17-.32.26.26,0,0,0,.11,0l.09,0a1.34,1.34,0,0,1,.59.33l5.58,5.12a1.45,1.45,0,1,1-2,2.14l-4.65-4.27-1.95,1.66a6.87,6.87,0,0,1,1.43,1A6.31,6.31,0,0,1,128.26,226.74Z" style="fill: rgb(55, 71, 79); transform-origin: 124.672px 224.807px;" id="el6vixqzuvr28" class="animable"></path><path d="M131.45,232.27a10.94,10.94,0,0,1,5.44-3.33,5.4,5.4,0,0,1,7,6.44,10.94,10.94,0,0,1-2.89,5.67,11.1,11.1,0,0,1-5.41,3.36,5.41,5.41,0,0,1-7-6.44A11,11,0,0,1,131.45,232.27Zm7.47,6.86a8.53,8.53,0,0,0,2.18-4.2,3,3,0,0,0-.7-2.77,3.11,3.11,0,0,0-2.85-.49,9,9,0,0,0-6.17,6.71,3.15,3.15,0,0,0,.72,2.82,3.05,3.05,0,0,0,2.84.44A8.48,8.48,0,0,0,138.92,239.13Z" style="fill: rgb(55, 71, 79); transform-origin: 136.242px 236.672px;" id="elm7ky9sevddi" class="animable"></path><path d="M141.8,251.9,161.36,248a1,1,0,0,1,.95.25,1,1,0,0,1,.08,1.43,1.16,1.16,0,0,1-.62.34l-19.56,3.88a1.07,1.07,0,0,1-1-.27,1,1,0,0,1-.06-1.42A1.26,1.26,0,0,1,141.8,251.9Zm5.94-10.82,0,0a4.33,4.33,0,0,1,6.24-.5,4.26,4.26,0,0,1,0,6.19l0,0a4.34,4.34,0,0,1-6.25.5A4.29,4.29,0,0,1,147.74,241.08Zm1.77,14.11,0,0a4.25,4.25,0,1,1,6.27,5.69l0,0a4.34,4.34,0,0,1-6.24.5A4.3,4.3,0,0,1,149.51,255.19Zm2.78-9.92,0,0c1-1.06,1.17-2.49.32-3.27s-2.22-.43-3.15.59l0,0c-1,1.08-1.16,2.48-.31,3.26S151.35,246.29,152.29,245.27Zm1.78,14.1,0,0c1-1.05,1.17-2.48.32-3.26s-2.22-.43-3.16.59l0,0c-1,1.08-1.17,2.49-.32,3.27S153.13,260.39,154.07,259.37Z" style="fill: rgb(55, 71, 79); transform-origin: 151.768px 250.978px;" id="elvnj3ccv80j" class="animable"></path></g><g id="freepik--Coupon--inject-57" class="animable animator-active" style="transform-origin: 250px 351.59px;"><path d="M368,366.71A25.3,25.3,0,0,0,393.25,392v32.44H106.75V392a25.3,25.3,0,1,0,0-50.59V278.74h286.5v62.67A25.3,25.3,0,0,0,368,366.71Z" style="fill: rgb(223, 57, 57); transform-origin: 250px 351.59px;" id="elc6gmcf87sa" class="animable"></path><g id="el89ax34qv4s5"><path d="M393.25,392v32.44H106.75V392a25.3,25.3,0,0,0,25.3-25.29H368A25.3,25.3,0,0,0,393.25,392Z" style="fill: rgb(255, 255, 255); opacity: 0.3; transform-origin: 250px 395.575px;" class="animable"></path></g><g id="elg0719ixy3rt"><g style="opacity: 0.2; transform-origin: 250.025px 366.7px;" class="animable"><path d="M134.05,367.7h-2a1,1,0,0,1,0-2h2a1,1,0,0,1,0,2Z" id="elac2qoby57qw" class="animable" style="transform-origin: 133.05px 366.7px;"></path><path d="M356.88,367.7h-4a1,1,0,0,1,0-2h4a1,1,0,0,1,0,2Zm-13.11,0h-4a1,1,0,0,1,0-2h4a1,1,0,0,1,0,2Zm-13.11,0h-4a1,1,0,0,1,0-2h4a1,1,0,0,1,0,2Zm-13.11,0h-4a1,1,0,0,1,0-2h4a1,1,0,0,1,0,2Zm-13.1,0h-4a1,1,0,0,1,0-2h4a1,1,0,0,1,0,2Zm-13.11,0h-4a1,1,0,0,1,0-2h4a1,1,0,0,1,0,2Zm-13.11,0h-4a1,1,0,0,1,0-2h4a1,1,0,0,1,0,2Zm-13.11,0h-4a1,1,0,0,1,0-2h4a1,1,0,0,1,0,2Zm-13.1,0h-4a1,1,0,1,1,0-2h4a1,1,0,1,1,0,2Zm-13.11,0h-4a1,1,0,1,1,0-2h4a1,1,0,1,1,0,2Zm-13.11,0h-4a1,1,0,0,1,0-2h4a1,1,0,0,1,0,2Zm-13.11,0h-4a1,1,0,0,1,0-2h4a1,1,0,0,1,0,2Zm-13.1,0h-4a1,1,0,0,1,0-2h4a1,1,0,0,1,0,2Zm-13.11,0h-4a1,1,0,0,1,0-2h4a1,1,0,0,1,0,2Zm-13.11,0h-4a1,1,0,1,1,0-2h4a1,1,0,0,1,0,2Zm-13.1,0h-4a1,1,0,1,1,0-2h4a1,1,0,1,1,0,2Zm-13.11,0h-4a1,1,0,0,1,0-2h4a1,1,0,1,1,0,2Z" id="elhbvczdw18j" class="animable" style="transform-origin: 250.02px 366.7px;"></path><path d="M368,367.7h-2a1,1,0,0,1,0-2h2a1,1,0,0,1,0,2Z" id="eljawf3o5ifi" class="animable" style="transform-origin: 367px 366.7px;"></path></g></g></g><g id="freepik--Symbol--inject-57" class="animable animator-active" style="transform-origin: 252.125px 353.135px;"><path d="M217.47,336.82v-.19c0-9,6.17-16.47,15.28-16.47s15.1,7.45,15.1,16.29v.18c0,8.93-6.08,16.48-15.28,16.48C223.55,353.11,217.47,345.65,217.47,336.82Zm22.18,0v-.19c0-5.15-2.94-9.38-7.08-9.38-4.33,0-6.91,4.23-6.91,9.2v.18c0,5.25,3,9.39,7.09,9.39C237.08,346,239.65,341.79,239.65,336.82Zm-11.59,43,42.24-57.71a3.52,3.52,0,0,1,3.13-1.65,3.61,3.61,0,0,1,3.68,3.59,4.17,4.17,0,0,1-.82,2.39L234,384.13a3.78,3.78,0,0,1-3.22,1.65,3.53,3.53,0,0,1-3.59-3.59A4.15,4.15,0,0,1,228.06,379.8Zm28.35-10v-.19c0-9,6.16-16.47,15.27-16.47s15.1,7.45,15.1,16.29v.18c0,8.93-6.17,16.48-15.28,16.48S256.41,378.6,256.41,369.77Zm22.18,0v-.19c0-5.15-2.95-9.38-7.09-9.38-4.33,0-6.9,4.23-6.9,9.2v.18c0,5.25,2.94,9.39,7.08,9.39C276,379,278.59,374.74,278.59,369.77Z" style="fill: rgb(38, 50, 56); transform-origin: 252.125px 353.135px;" id="elwfzub3y713h" class="animable"></path></g><g id="freepik--Character--inject-57" class="animable animator-active" style="transform-origin: 302.284px 263.934px;"><path d="M402.28,285.22c-.66-2-36-48.67-38.4-49.57-.27-.12-16.07,11.12-16.07,11.12-.65.87-30.66-5.48-30.66-5.48l-.3,36.21,54.68-1.16s7.38,4.34,14.14,7.88h0a81.11,81.11,0,0,0,8.89,4.31C397.31,289.23,403,287.2,402.28,285.22Z" style="fill: rgb(211, 118, 106); transform-origin: 359.596px 262.16px;" id="elso0eujxqyb" class="animable"></path><path d="M394.58,288.53a78.31,78.31,0,0,1-8.89-4.31h0c-6.75-3.54-14.14-7.88-14.14-7.88l-12.17.26-19.05-30.74c4.18.74,7.3,1.18,7.51.9,0,0,15.78-11.23,16.06-11.11,2.41.9,37.74,47.57,38.4,49.56S397.31,289.24,394.58,288.53Z" style="fill: rgb(255, 255, 255); transform-origin: 371.342px 262.162px;" id="elmaw1qxh56kc" class="animable"></path><path d="M402.6,285.28c-.69-2-36.18-48.69-38.66-49.62-.93-.35-8.66,4.42-16.13,11.11l22.92,30s21.14,11.2,24,11.92S403.3,287.32,402.6,285.28Z" style="fill: rgb(166, 166, 166); transform-origin: 375.234px 262.239px;" id="el2inokjr22bo" class="animable"></path><path d="M400.23,286c-6.14-7.68-30.19-39.21-35.67-47.26-.05-.06,0-.1.05,0,6.25,7.47,30,39.19,35.75,47.19C400.48,286.1,400.36,286.19,400.23,286Z" style="fill: rgb(38, 50, 56); transform-origin: 382.474px 262.393px;" id="elmx4tr9pfvuk" class="animable"></path><path d="M390.73,287a7.94,7.94,0,0,1-1.65-6.13,7.67,7.67,0,0,1,2.85-4.92c.05,0,.11.05.07.09a9.13,9.13,0,0,0-1.17,10.89A.06.06,0,0,1,390.73,287Z" style="fill: rgb(38, 50, 56); transform-origin: 390.503px 281.488px;" id="eltpcldgwchzi" class="animable"></path><path d="M373.38,278.67c-2.43-3.1-4.08-7.57-3-11.46,0-.15.25-.09.28,0a54.33,54.33,0,0,0,3.14,11.18A.24.24,0,0,1,373.38,278.67Z" style="fill: rgb(38, 50, 56); transform-origin: 371.942px 272.95px;" id="elfd5ddjjawc8" class="animable"></path><path d="M376.16,280.37c-2.43-3.1-4.08-7.57-3-11.46,0-.15.25-.09.28,0a54.33,54.33,0,0,0,3.14,11.18A.24.24,0,0,1,376.16,280.37Z" style="fill: rgb(38, 50, 56); transform-origin: 374.722px 274.65px;" id="elvmn79goqpq" class="animable"></path><path d="M378.94,282.07c-2.43-3.1-4.08-7.57-3-11.46,0-.15.25-.09.28,0a54.33,54.33,0,0,0,3.14,11.18A.24.24,0,0,1,378.94,282.07Z" style="fill: rgb(38, 50, 56); transform-origin: 377.502px 276.35px;" id="elx5itvwz53yq" class="animable"></path><path d="M381.72,283.77c-2.43-3.1-4.08-7.57-3-11.46,0-.15.25-.09.28,0a54.33,54.33,0,0,0,3.14,11.18A.24.24,0,0,1,381.72,283.77Z" style="fill: rgb(38, 50, 56); transform-origin: 380.282px 278.05px;" id="elljwvoswax" class="animable"></path><path d="M358.65,246.41c-2.67-3.51,2.8-7.66,5.47-4.13S361.31,249.94,358.65,246.41Z" style="fill: rgb(38, 50, 56); transform-origin: 361.385px 244.347px;" id="elh7smdn5hysn" class="animable"></path><path d="M372,284.67c.89-3.35.31-7,.15-10.37,0-.35-.4-.47-.68-.37a.1.1,0,0,0-.16,0,20.56,20.56,0,0,0-5.84,8.93c-.62,2-.39,5,2.13,5.58S371.48,286.62,372,284.67Zm-2.49,2.11c-3.64,2.28-3.36-2.78-2.84-4.25a21.09,21.09,0,0,1,1.24-2.74,61.64,61.64,0,0,1,3.3-5.3c0,1.68.09,3.34.12,5C371.37,281.5,371.52,285.53,369.51,286.78Z" style="fill: rgb(38, 50, 56); transform-origin: 368.832px 281.209px;" id="el8wlhmcytonj" class="animable"></path><path d="M360.86,264.31c-1.86,1.8-.53,4.46,1,5.87a20.56,20.56,0,0,0,9.61,4.64c.08,0,.12,0,.13-.11A.48.48,0,0,0,372,274c-1.62-3-3-6.39-5.48-8.8C365.1,263.84,362.61,262.6,360.86,264.31Zm7.78,5.7c.83,1.45,1.59,2.94,2.48,4.36a61.69,61.69,0,0,1-5.55-2.84,22.27,22.27,0,0,1-2.48-1.71c-1.2-1-4-5.19.24-5.11C365.7,264.75,367.65,268.28,368.64,270Z" style="fill: rgb(38, 50, 56); transform-origin: 366.005px 269.149px;" id="el5pbxcd5jltk" class="animable"></path><path d="M315.49,230.19H291s-25.67-12.34-46.35-7.37c-23.7,5.7-26.73,35.48-9,46,22.45,13.34,122.35,10.76,122.35,10.76L336.34,243s-33.22-7-63.35-6l42.5,5.79Z" style="fill: rgb(55, 71, 79); transform-origin: 291.143px 250.71px;" id="el9as30w3z4zk" class="animable"></path><path d="M337.78,245.34a.67.67,0,0,1,0-.19.83.83,0,0,0,0-.15l-.09-.36c-.07-.24-.16-.48-.25-.71s-.2-.47-.31-.7a5.4,5.4,0,0,0-.4-.65s0,0-.06,0l0,0-.05,0-.05,0c-3.66-.68-28.48-4.23-32.17-4.65s-7.46-.77-11.19-1.09a223.25,223.25,0,0,0-22.4-.8c-.7,0-1.4,0-2.1.06-.15-.05-.31-.07-.46-.11-.36-.09-.72-.18-1.08-.25-.67-.13-1.35-.22-2-.33-1.42-.21-2.83-.36-4.24-.63a.07.07,0,0,0,0,.14c1.41.31,2.8.72,4.22,1l1.22.26c-2.74.14-5.47.35-8.21.6-.08,0-.09.14,0,.14,3.72-.22,7.47-.25,11.2-.19s7.4.15,11.09.36c7.48.43,14.95,1.1,22.39,1.88,4.18.43,29.49,4.13,33.69,4.3h.05a2.49,2.49,0,0,0,.11.29c.12.23.23.45.36.68s.24.42.37.63l.21.3.1.15c0,.05.1.11.11.16S337.83,245.42,337.78,245.34Z" style="fill: rgb(38, 50, 56); transform-origin: 297.969px 240.136px;" id="eltzab68kjzr" class="animable"></path><path d="M350.14,277.35c-1.33-2.13-2.47-4.42-3.7-6.62s-2.45-4.43-3.68-6.64c-2.46-4.41-11.28-19.24-12.15-20.27a.08.08,0,0,0-.14.08c.41,1.15,5.92,11,7.18,13.16,2.54,4.38,5.2,8.67,7.83,13,.75,1.24,1.52,2.45,2.28,3.68s1.57,2.44,2.27,3.7C350.07,277.5,350.19,277.43,350.14,277.35Z" style="fill: rgb(38, 50, 56); transform-origin: 340.306px 260.621px;" id="elgbdzkvmkhd5" class="animable"></path><path d="M330.36,247.51c-2.21-.53-4.47-.88-6.69-1.3L317,245q-6.71-1.25-13.43-2.38c-8.94-1.51-17.91-2.76-26.94-3.62-5.09-.49-10.2-.81-15.3-1.19-.11,0-.11.17,0,.17,9.09.41,18.17,1.64,27.17,2.94s17.8,2.68,26.68,4.18q3.77.63,7.52,1.29c2.54.44,5.09,1,7.65,1.31C330.41,247.67,330.45,247.53,330.36,247.51Z" style="fill: rgb(38, 50, 56); transform-origin: 295.83px 242.755px;" id="elv8qvkn0s2b" class="animable"></path><path d="M355.75,404.32c-2.15-.21-55.67-24.26-57.13-26.47-.56-.84,2.49-8.83,6.44-18.39.86-2.07,1.75-4.2,2.68-6.35,6-14,12.61-28.71,12.61-28.71l35.85,16-13.6,28.27-3,6.2s16.38,18.38,17.72,21S357.9,404.54,355.75,404.32Z" style="fill: rgb(211, 118, 106); transform-origin: 328.27px 364.363px;" id="elh4sd542t6hs" class="animable"></path><path d="M355.75,404.32c-2.15-.21-55.67-24.26-57.13-26.47-.68-1,4-12.62,9.12-24.74l34.86,15.55-3,6.2s16.38,18.38,17.72,21S357.9,404.54,355.75,404.32Z" style="fill: rgb(255, 255, 255); transform-origin: 328.27px 378.718px;" id="ellami8hjjpnd" class="animable"></path><path d="M355.75,404.32c-2.15-.21-55.67-24.26-57.13-26.47-.56-.84,2.49-8.83,6.44-18.39l34.55,15.4s16.38,18.38,17.72,21S357.9,404.54,355.75,404.32Z" style="fill: rgb(166, 166, 166); transform-origin: 328.274px 381.893px;" id="eltnwp1ectnj" class="animable"></path><path d="M355.94,401.84c-8.87-4.25-45.06-20.57-54.15-24.1-.07,0-.1,0,0,.06,8.71,4.41,45,20.43,54.12,24.19C356.07,402.07,356.13,401.93,355.94,401.84Z" style="fill: rgb(38, 50, 56); transform-origin: 328.892px 389.877px;" id="elf5ejo2kwyzm" class="animable"></path><path d="M354.75,392.36a7.89,7.89,0,0,0-6.35-.22,7.63,7.63,0,0,0-4.16,3.89c0,.05.08.1.11,0a9.14,9.14,0,0,1,10.35-3.6C354.77,392.5,354.82,392.39,354.75,392.36Z" style="fill: rgb(38, 50, 56); transform-origin: 349.512px 393.833px;" id="eloqzczpcz5ek" class="animable"></path><path d="M342.69,377.32c-3.57-1.66-8.3-2.27-11.85-.33-.14.07,0,.27.1.26a53.82,53.82,0,0,1,11.62.54A.25.25,0,0,0,342.69,377.32Z" style="fill: rgb(38, 50, 56); transform-origin: 336.801px 376.786px;" id="elawo9ag2c4b6" class="animable"></path><path d="M345,379.65c-3.57-1.67-8.3-2.27-11.85-.34-.14.08,0,.27.1.27a53.73,53.73,0,0,1,11.61.54A.25.25,0,0,0,345,379.65Z" style="fill: rgb(38, 50, 56); transform-origin: 339.112px 379.114px;" id="elclw4tbh4vr6" class="animable"></path><path d="M347.27,382c-3.57-1.66-8.31-2.26-11.86-.33-.13.07,0,.27.11.26a55.06,55.06,0,0,1,11.61.54A.25.25,0,0,0,347.27,382Z" style="fill: rgb(38, 50, 56); transform-origin: 341.38px 381.469px;" id="elp8dtca0g15r" class="animable"></path><path d="M349.55,384.3c-3.57-1.66-8.3-2.27-11.85-.33-.14.07,0,.27.1.26a53.7,53.7,0,0,1,11.61.54A.25.25,0,0,0,349.55,384.3Z" style="fill: rgb(38, 50, 56); transform-origin: 343.662px 383.767px;" id="elauleoa3bsdv" class="animable"></path><path d="M307.9,370.25c-4-1.8-6.83,4.47-2.79,6.27S312,372.05,307.9,370.25Z" style="fill: rgb(38, 50, 56); transform-origin: 306.523px 373.385px;" id="elymk1j81j3ua" class="animable"></path><path d="M350.88,369.48c-1.14-2.32-4.09-1.88-5.92-.82a20.74,20.74,0,0,0-7.39,7.72.1.1,0,0,0,.07.15c0,.29.17.65.52.58,3.35-.62,7-.86,10.07-2.49C350,373.67,352,371.68,350.88,369.48ZM343,375.13c-1.64.35-3.28.61-4.91,1,1.44-1.5,2.82-3.06,4.41-4.42a23.74,23.74,0,0,1,2.4-1.83c1.32-.83,6.19-2.25,4.79,1.82C349,374,345,374.72,343,375.13Z" style="fill: rgb(38, 50, 56); transform-origin: 344.38px 372.459px;" id="elyusw8nv0as" class="animable"></path><path d="M328.05,373.7c2.91,1.89,6.54,2.45,9.83,3.35.34.09.57-.24.56-.53a.11.11,0,0,0,.08-.15,20.68,20.68,0,0,0-6.7-8.32c-1.73-1.22-4.63-1.91-6,.31S326.36,372.6,328.05,373.7Zm-1.24-3c-1.05-4.17,3.68-2.34,4.92-1.4a22.77,22.77,0,0,1,2.24,2c1.47,1.48,2.7,3.15,4,4.77-1.59-.54-3.21-.95-4.82-1.43C331.26,374.08,327.38,373,326.81,370.68Z" style="fill: rgb(38, 50, 56); transform-origin: 331.94px 371.988px;" id="elnl9z54e2xcd" class="animable"></path><path d="M308.55,349.82l40.32,18.23s48-92.1,49.24-120.29c1.07-24-15.64-33.26-69.63-17.74l-13.23.17v9.13c5.8.76,21.29,3.2,21.29,3.2,11.27,4.25,14.9,6,14.72,6.37C323.16,305.65,308.55,349.82,308.55,349.82Z" style="fill: rgb(55, 71, 79); transform-origin: 353.354px 295.219px;" id="elxlu6lr74sk" class="animable"></path><path d="M357.87,238.77c-1.63,2.17-3.14,4.42-4.58,6.73a96.7,96.7,0,0,0-27.47-7.24c-2.65-.33-5.32-.56-8-.71-.11,0-.1.16,0,.17a120,120,0,0,1,28,5.32c2.51.77,5,1.67,7.45,2.55-1.73,2.77-3.36,5.61-4.93,8.46a170.18,170.18,0,0,0-7.89,16.46c-1.29,3.11-2.55,6.25-3.66,9.43,0,.09.11.15.15.06q7.39-16.47,16.13-32.24c1.65-3,3.36-5.9,5-8.89C358.06,238.79,357.93,238.68,357.87,238.77Z" style="fill: rgb(38, 50, 56); transform-origin: 337.906px 258.797px;" id="elvglj9o0r3ij" class="animable"></path><path d="M349.75,358.31c-2.35-.92-4.63-2.06-6.93-3.1l-6.93-3.11c-4.6-2.06-20.54-8.67-21.86-9-.09,0-.13.11-.06.16,1,.67,11.3,5.24,13.63,6.24,4.65,2,9.35,3.83,14,5.73,1.34.54,2.69,1.05,4,1.58s2.71,1,4,1.6C349.78,358.47,349.83,358.34,349.75,358.31Z" style="fill: rgb(38, 50, 56); transform-origin: 331.861px 350.763px;" id="elr5syvf02lca" class="animable"></path><path d="M357.67,242.93c-3.18,6-5.89,12.37-8.65,18.61s-5.43,12.48-8,18.76q-7.75,18.78-14.46,38c-2.53,7.24-4.9,14.53-7.21,21.84,0,.1.14.14.17,0,4.27-12.92,8.9-25.74,13.73-38.46s9.94-25.28,15.36-37.73q2.28-5.25,4.63-10.46c1.57-3.48,3.21-6.93,4.68-10.45A.13.13,0,0,0,357.67,242.93Z" style="fill: rgb(38, 50, 56); transform-origin: 338.641px 291.54px;" id="elk0e7qg8ogbe" class="animable"></path><path d="M320.68,172.82c9.74,18.05,21.85,37.4,30.18,39,6.48,1.27,33.06-3.39,43.72-14.05,2.35-2.35-17.16-18.18-19.13-16.91-5.8,3.74-21.15,6.86-22,6.11-1.16-1-14.62-13.82-23.94-22C317,154.05,315.64,163.49,320.68,172.82Z" style="fill: rgb(211, 118, 106); transform-origin: 356.36px 186.047px;" id="el9l7w84jqn54" class="animable"></path><path d="M401.22,195.8c-3.94,3.75-15,8.26-18.08,8.33s-11.39-18.47-9.89-21.27S389,168.48,394.51,168,405.3,191.91,401.22,195.8Z" style="fill: rgb(211, 118, 106); transform-origin: 387.869px 186.062px;" id="elgly3dsu3l89" class="animable"></path><path d="M375.33,180.46A45.07,45.07,0,0,0,379,167.87c.54-5.21.74-13,3.55-12.83,5.78.37,5.27,19.82,5.27,19.82s-1.6,8.55-7.36,8.69A5.72,5.72,0,0,1,375.33,180.46Z" style="fill: rgb(211, 118, 106); transform-origin: 381.581px 169.294px;" id="eleh7n4xoolmi" class="animable"></path><path d="M386.15,170.44c.69,2.79,3,2.08,3,2.08l15.79-2.77s11.33-5.25,10.3-8.38c-1.78-5.4-25.39,5.45-27.63,6.06A2.44,2.44,0,0,0,386.15,170.44Z" style="fill: rgb(211, 118, 106); transform-origin: 400.672px 166.234px;" id="elaqqjks3j9km" class="animable"></path><path d="M395.9,167s1.08-5.7,1.62-7S412,140.7,418.11,135.18c1.51-1.35,2.26-1.91,3-1.75,0,0-18.44,25.68-20.33,28.17-1.09,1.43-2.22,5.85-2.22,5.85Z" style="fill: rgb(199, 199, 199); transform-origin: 408.505px 150.427px;" id="elz1whiv76g" class="animable"></path><path d="M381.32,160.26h0c-2.13.26-7.34.22-9.12,1.58a5.37,5.37,0,0,0-2.1,5.92,3.71,3.71,0,0,0,.27.68,4.72,4.72,0,0,0,2,2l.41.2a7.8,7.8,0,0,0,2.48.71c.83.08,1.63.11,2.36.2a5.64,5.64,0,0,1,1.36.34l1.19-.59a10.41,10.41,0,0,1,1.85-3.32c1.65-1.69,7.21-3.67,9.26-4.5a3.82,3.82,0,0,0,.76-.36.48.48,0,0,0,.06-.28v-.09a.57.57,0,0,0,0-.12h0c0-.09,0-.19,0-.29l0-.13c-.06-.32-.15-.67-.25-1l0-.12c-.1-.35-.22-.69-.32-.94s-.14-.3-.18-.38l0,0s0,0,0,0C390.93,159.44,383.45,160,381.32,160.26Zm-.54,3.22a2.09,2.09,0,0,1,.54,1c.2,1-.7,2.89-4.05,4.2l-.22.08-.23.08-.14,0-.24.07-.44.1-.28,0a4.31,4.31,0,0,1-.87,0h-.14l-.37-.07-.16,0h0l-.08,0h0l-.07,0h0l-.12-.05-.2-.09-.14-.07,0,0-.12-.07,0,0-.12-.08-.12-.09h0l-.09-.08a2.8,2.8,0,0,1-.47-.53s0,0,0,0a3.44,3.44,0,0,1-.24-.43,3.13,3.13,0,0,1-.2-1.28,3.16,3.16,0,0,1,1.57-2.59,6,6,0,0,1,2.4-.81C378.82,162.29,380.15,162.8,380.78,163.48Z" style="fill: rgb(223, 57, 57); transform-origin: 380.994px 165.779px;" id="elvq36aegpumm" class="animable"></path><g id="el8z0il8ccypv"><path d="M380.78,163.48a2.84,2.84,0,0,1,.88,3.32c-.74,2.22-5,3.7-7.69,3a2.61,2.61,0,0,1-2-2.82,3.8,3.8,0,0,1,.11-.85,3.13,3.13,0,0,0,.2,1.28,3.44,3.44,0,0,0,.24.43s0,0,0,0a2.8,2.8,0,0,0,.47.53l.09.08h0l.12.09.12.08,0,0,.12.07,0,0,.14.07.2.09.12.05h0l.07,0h0l.08,0h0l.16,0,.37.07h.14a4.31,4.31,0,0,0,.87,0l.28,0,.44-.1.24-.07.14,0,.23-.08.22-.08c3.35-1.31,4.25-3.24,4.05-4.2A2.09,2.09,0,0,0,380.78,163.48Z" style="opacity: 0.1; transform-origin: 376.914px 166.728px;" class="animable"></path></g><g id="elv010bxoc5lh"><path d="M391.18,159.65c.25.21,1.17,3.09.86,3.43a3.82,3.82,0,0,1-.76.36,3.09,3.09,0,0,0-1.25-2.29c-1.09-1-8.52-.89-8.71-.89C383.45,160,390.93,159.44,391.18,159.65Z" style="opacity: 0.1; transform-origin: 386.712px 161.522px;" class="animable"></path></g><path d="M395.9,167h0c-.35,0-.6,0-.66,0-.52.63-3.78,4.77-5,6.52-.32.44-.8,1.06-1.32,1.78h0c-1.55,2.13-3.58,5.13-3.69,7.07-.15,2.61,1.58,4.09,4.23,3.6,3.64-.68,6.49-6.47,7.64-9.36a38,38,0,0,0,1.69-6.88,8.84,8.84,0,0,0,.21-2.14,2,2,0,0,0-.51-.17A22,22,0,0,0,395.9,167Zm-.23,5.6c.63.41,1,.83.47,2.63a21.48,21.48,0,0,1-3.64,6.53l-.78,1a4.11,4.11,0,0,1-.38.45c-1.42,1.51-3.47,2-4.19.24-.88-2.08,4.07-8.81,5.26-10S394.94,172.09,395.67,172.57Z" style="fill: rgb(223, 57, 57); transform-origin: 392.112px 176.532px;" id="el0bhy6mxu2ezq" class="animable"></path><g id="elpvu6dh0i9li"><path d="M399,167.6a8.84,8.84,0,0,1-.21,2.14c-.2-1.17-1.84-1.64-2.9-1.32-1.22.36-6.79,6.69-7,6.89.52-.72,1-1.34,1.32-1.78,1.27-1.75,4.52-5.89,5-6.52C395.46,166.75,398.76,167.44,399,167.6Z" style="opacity: 0.1; transform-origin: 393.946px 171.131px;" class="animable"></path></g><path d="M428.88,143.81s.27.66-.85,1.57-14.76,9.2-23.06,13.7l-.48.25-.78.42-.82.43c-.65.33-1.17.6-1.71.82h0a17,17,0,0,1-4.53,1.05c-.52.07-1.1.15-1.76.22h0c-.81.1-1.74.21-2.8.32l-.68-2.51,2.23-.37c.72-.13,1.52-.27,2.21-.42a11.56,11.56,0,0,0,1.76-.45c.14-.08,1.19-.58,2.82-1.36l2.59-1.25.72-.34.39-.19Z" style="fill: rgb(219, 219, 219); transform-origin: 410.159px 153.2px;" id="eldd3g0dgon0o" class="animable"></path><path d="M399.8,159a.7.7,0,0,1,.52.85.7.7,0,0,1-1.37-.32A.71.71,0,0,1,399.8,159Z" style="fill: rgb(199, 199, 199); transform-origin: 399.636px 159.687px;" id="ely30fz43tzc" class="animable"></path><path d="M399.75,159.21a.5.5,0,0,1-.22,1,.5.5,0,0,1-.38-.59A.51.51,0,0,1,399.75,159.21Z" style="fill: rgb(235, 235, 235); transform-origin: 399.645px 159.711px;" id="elpo3qt6tte0p" class="animable"></path><path d="M389.1,172.52s-5.09,2.29-4.77,5.46,4.78,2.05,5.1,2c-.27.13-4.9,2.35-4.24,5.5s5,1.5,5.25,1.39c-.21.19-3,2.84-2,5.12,1.8,3.91,9.21-2.65,12.68-2.29,0,0,.06,5.95.1,6.12,0,0,7.18-6.1,7.4-10.81a3,3,0,0,0-2.17-3.07s2.53-1.71,2.09-4.21c-.23-1.28-2.48-2.05-2.48-2.05A3.77,3.77,0,0,0,407.5,172a3.08,3.08,0,0,0-2.61-2.37C399.77,168.5,389.1,172.52,389.1,172.52Z" style="fill: rgb(211, 118, 106); transform-origin: 396.471px 182.625px;" id="elu7az9b9ixhr" class="animable"></path><path d="M404.55,169.62c.06,0,.06-.08,0-.09a26.76,26.76,0,0,0-15.66,3c-.15.08-.51.8-.34.71C392.91,171.13,399,169.89,404.55,169.62Z" style="fill: rgb(38, 50, 56); transform-origin: 396.55px 171.303px;" id="el91cplpbqx8o" class="animable"></path><path d="M406.13,175.61c.06,0,.06-.1,0-.1a25.11,25.11,0,0,0-16.88,4.33c-.17.13-.19.41,0,.28C392.7,178,401.14,175.84,406.13,175.61Z" style="fill: rgb(38, 50, 56); transform-origin: 397.645px 177.765px;" id="elz6gmphysox" class="animable"></path><path d="M390.19,187.22c4.85-3.29,10.26-4.7,16-5.34.08,0,.06-.12,0-.13-2.91-.45-6.55.34-9.33,1.2a15.47,15.47,0,0,0-6.82,4.1C390,187.13,390.08,187.29,390.19,187.22Z" style="fill: rgb(38, 50, 56); transform-origin: 398.136px 184.428px;" id="ell7cc8g5rh9" class="animable"></path><path d="M389,172.48c-.18.1.42.34.24.45-1.91,1.19-5.22,3.49-4.61,5.27.5,1.42,2.76,1.73,3.67,1.52l2.3-.55-2,1.31a9.73,9.73,0,0,0-2.31,2.12,3.46,3.46,0,0,0-.83,2.7,2,2,0,0,0,1.8,1.71,6,6,0,0,0,2.94-.58l2.56-1.13-2,1.9a9,9,0,0,0-1.49,1.77,3.79,3.79,0,0,0-.67,2.06,1.79,1.79,0,0,0,1,1.57,4,4,0,0,0,2.2,0A30.48,30.48,0,0,0,396.4,191c.76-.3,1.52-.61,2.3-.88a5.75,5.75,0,0,1,2.42-.44,6.2,6.2,0,0,0-2.34.65c-.75.33-1.48.69-2.21,1a25.74,25.74,0,0,1-4.59,1.89,4.62,4.62,0,0,1-2.64.07,2.55,2.55,0,0,1-1.6-2.27,4.64,4.64,0,0,1,.76-2.56,9.83,9.83,0,0,1,1.63-2l.52.77a6.89,6.89,0,0,1-3.46.72,2.84,2.84,0,0,1-1.76-.81,3.14,3.14,0,0,1-.86-1.71,4.36,4.36,0,0,1,1.05-3.42,10.64,10.64,0,0,1,2.58-2.29l.33.77c-1.18.24-3.73.16-4.78-1.95C382.79,175.63,388,172.91,389,172.48Z" style="fill: rgb(38, 50, 56); transform-origin: 392.376px 182.965px;" id="ela521n53qrzi" class="animable"></path><path d="M372.64,181.65l11.68,27.13s-26.69,6.83-35.15,3.42-23.48-26.24-29.64-41c-6.3-15.09,3.29-13,9.74-6.79s23.88,21.78,24.46,21.93S372.64,181.65,372.64,181.65Z" style="fill: rgb(223, 57, 57); transform-origin: 350.897px 186.436px;" id="eld1d5l49nsuu" class="animable"></path><g id="el7n4a6cqz2tl"><path d="M324.9,181.47a1.59,1.59,0,0,0-.83-.84l.92,1.69A1.47,1.47,0,0,0,324.9,181.47ZM338,176a1.58,1.58,0,1,0-.86,2A1.58,1.58,0,0,0,338,176Zm-1.05,1.6a1.08,1.08,0,0,1-.83-2,1.08,1.08,0,1,1,.83,2Zm-9.6-8.73a1.59,1.59,0,0,0-2.07-.85,1.58,1.58,0,1,0,2.07.85Zm-1.05,1.61a1.08,1.08,0,0,1-1.39-.59,1.07,1.07,0,1,1,2-.82A1.09,1.09,0,0,1,326.31,170.5Zm20,25.42a1.57,1.57,0,1,0-.86,2.05A1.56,1.56,0,0,0,346.27,195.92Zm-1,1.6a1.08,1.08,0,0,1-.83-2,1.07,1.07,0,0,1,1.41.58A1.08,1.08,0,0,1,345.23,197.52Zm14.14-7a1.58,1.58,0,1,0-.85,2A1.57,1.57,0,0,0,359.37,190.48Zm-1,1.59a1.08,1.08,0,1,1,.58-1.4A1.08,1.08,0,0,1,358.34,192.07Zm14.14-7a1.57,1.57,0,1,0-.86,2.05A1.58,1.58,0,0,0,372.48,185Zm-1.05,1.6a1.08,1.08,0,1,1,.58-1.4A1.07,1.07,0,0,1,371.43,186.63Zm-35.8,2.16a1.58,1.58,0,1,0-.86,2.05A1.57,1.57,0,0,0,335.63,188.79Zm-1.05,1.6a1.07,1.07,0,1,1,.58-1.4A1.06,1.06,0,0,1,334.58,190.39Zm14.16-7a1.59,1.59,0,0,0-2.07-.86,1.58,1.58,0,1,0,2.07.86Zm-1.05,1.6a1.1,1.1,0,0,1-1.41-.58,1.08,1.08,0,0,1,.59-1.41,1.06,1.06,0,0,1,1.4.58A1.09,1.09,0,0,1,347.69,185Zm19.95,25.43a1.57,1.57,0,1,0-2.91,1.2,1.5,1.5,0,0,0,.87.84h0l1.54-.22A1.54,1.54,0,0,0,367.64,210.38Zm-1,1.59a1.08,1.08,0,0,1-.82-2,1.08,1.08,0,1,1,.82,2Zm14.15-7a1.58,1.58,0,1,0-.86,2A1.58,1.58,0,0,0,380.75,204.93Zm-1.05,1.6a1.08,1.08,0,1,1,.58-1.41A1.09,1.09,0,0,1,379.7,206.53ZM357,203.25a1.57,1.57,0,1,0-.86,2.05A1.57,1.57,0,0,0,357,203.25Zm-1,1.6a1.09,1.09,0,0,1-1.41-.58,1.08,1.08,0,1,1,2-.83A1.1,1.1,0,0,1,356,204.85Zm14.14-7a1.57,1.57,0,1,0-.84,2A1.57,1.57,0,0,0,370.1,197.81Zm-1,1.59a1.08,1.08,0,1,1,.56-1.4A1.07,1.07,0,0,1,369.07,199.4Z" style="opacity: 0.2; transform-origin: 352.496px 190.21px;" class="animable"></path></g><path d="M372,196.06c-.76-1.86-1.53-3.73-2.31-5.58s-1.49-3.76-2.4-5.55c0-.08-.18,0-.16,0,.55,1.86,1.31,3.68,2,5.49s1.46,3.85,2.2,5.77c1.47,3.8,3.09,7.53,4.77,11.24,0,.09.16,0,.13-.06C374.86,203.6,373.48,199.81,372,196.06Z" style="fill: rgb(38, 50, 56); transform-origin: 371.681px 196.181px;" id="ellvbqug4h0kb" class="animable"></path><g id="ela1twvqvrwnd"><path d="M319.53,171.21c6.16,14.74,21.19,37.58,29.64,41a22,22,0,0,0,8.32.92L321.9,159.93C318,159,315.53,161.62,319.53,171.21Z" style="opacity: 0.1; transform-origin: 337.49px 186.478px;" class="animable"></path></g><path d="M280.66,229.93c.12.17,57.78,1.39,58.36.84.82-.78-4.52-55-12.87-68.44-2.09-3.36-11.91-5.85-16.31-1.29C292.82,178.66,280.23,229.34,280.66,229.93Z" style="fill: rgb(223, 57, 57); transform-origin: 309.876px 194.733px;" id="el7cl2qf4bwax" class="animable"></path><g id="eltnp87qnj3en"><path d="M330.8,214.13a1.58,1.58,0,1,0-.86,2.05A1.58,1.58,0,0,0,330.8,214.13Zm-1.05,1.6a1.08,1.08,0,0,1-1.41-.58,1.09,1.09,0,0,1,.59-1.41,1.08,1.08,0,0,1,1.4.59A1.07,1.07,0,0,1,329.75,215.73Zm-12.06,3.85a1.58,1.58,0,1,0-.86,2A1.58,1.58,0,0,0,317.69,219.58Zm-1.05,1.6a1.08,1.08,0,1,1,.58-1.41A1.06,1.06,0,0,1,316.64,221.18ZM304.59,225a1.58,1.58,0,1,0-.86,2A1.57,1.57,0,0,0,304.59,225Zm-1,1.6a1.08,1.08,0,1,1-.83-2,1.08,1.08,0,1,1,.83,2Zm-14.12,3a1.49,1.49,0,0,0-.7.58h.66a1,1,0,0,1,.23-.13,1.08,1.08,0,0,1,1.07.16l.68,0A1.56,1.56,0,0,0,289.43,229.61Zm49.07-8.25a1.47,1.47,0,0,0,0,1.11.51.51,0,0,0,.09.16C338.58,222.22,338.54,221.8,338.5,221.36Zm-10.17,5.34a1.57,1.57,0,1,0-.86,2.06A1.58,1.58,0,0,0,328.33,226.7Zm-1,1.61a1.09,1.09,0,0,1-1.41-.59,1.08,1.08,0,0,1,2-.82A1.1,1.1,0,0,1,327.29,228.31Zm7-37.85a1.07,1.07,0,0,1-.5-2.05l.11,0-.09-.49a.83.83,0,0,0-.21.06,1.58,1.58,0,0,0-.84,2.06,1.56,1.56,0,0,0,1.61.94C334.31,190.78,334.28,190.62,334.25,190.46Zm-11.72,3.77a1.58,1.58,0,1,0-.86,2.05A1.57,1.57,0,0,0,322.53,194.23Zm-1,1.6a1.07,1.07,0,1,1,.58-1.4A1.07,1.07,0,0,1,321.49,195.83Zm-12.07,3.85a1.57,1.57,0,1,0-.86,2A1.57,1.57,0,0,0,309.42,199.68Zm-1.05,1.6a1.08,1.08,0,1,1,.59-1.41A1.08,1.08,0,0,1,308.37,201.28Zm-12,3.84a1.58,1.58,0,1,0-.86,2A1.58,1.58,0,0,0,296.33,205.12Zm-1.05,1.6a1.08,1.08,0,0,1-.83-2,1.08,1.08,0,0,1,.83,2Zm37.88-5.35a1.57,1.57,0,1,0-.84,2A1.57,1.57,0,0,0,333.16,201.37Zm-1,1.59a1.08,1.08,0,0,1-1.41-.58,1.08,1.08,0,1,1,1.41.58Zm-12.06,3.85a1.57,1.57,0,1,0-.86,2.05A1.59,1.59,0,0,0,320.07,206.81Zm-1.05,1.6a1.09,1.09,0,0,1-1.41-.59,1.08,1.08,0,0,1,2-.82A1.09,1.09,0,0,1,319,208.41ZM307,212.25a1.58,1.58,0,1,0-.85,2.05A1.57,1.57,0,0,0,307,212.25Zm-1,1.6a1.09,1.09,0,0,1-1.41-.59,1.08,1.08,0,0,1,2-.82A1.1,1.1,0,0,1,305.93,213.85Zm-12.07,3.84a1.57,1.57,0,1,0-.86,2.05A1.57,1.57,0,0,0,293.86,217.69Zm-1,1.6a1.08,1.08,0,1,1,.58-1.4A1.07,1.07,0,0,1,292.82,219.29Zm34.54-50.4a1.59,1.59,0,0,0-2.07-.85,1.58,1.58,0,1,0,2.07.85Zm-1.05,1.61a1.08,1.08,0,0,1-1.39-.59,1.07,1.07,0,1,1,2-.82A1.09,1.09,0,0,1,326.31,170.5Zm-12,3.83a1.59,1.59,0,0,0-2.07-.85,1.58,1.58,0,1,0,2.07.85Zm-1,1.61a1.09,1.09,0,0,1-1.41-.59,1.08,1.08,0,0,1,2-.82A1.09,1.09,0,0,1,313.22,175.94Zm-12.06,3.84a1.58,1.58,0,1,0-.86,2.05A1.58,1.58,0,0,0,301.16,179.78Zm-1.05,1.6a1.08,1.08,0,0,1-.83-2,1.08,1.08,0,1,1,.83,2Zm24.79.09a1.57,1.57,0,1,0-.85,2A1.57,1.57,0,0,0,324.9,181.47Zm-1,1.59a1.08,1.08,0,0,1-1.41-.58,1.07,1.07,0,0,1,.58-1.41,1.08,1.08,0,1,1,.83,2Zm-12.07,3.85a1.57,1.57,0,1,0-.86,2.05A1.58,1.58,0,0,0,311.8,186.91Zm-1.05,1.6a1.08,1.08,0,1,1,.59-1.41A1.09,1.09,0,0,1,310.75,188.51Zm-12.06,3.84a1.57,1.57,0,1,0-.84,2.05A1.57,1.57,0,0,0,298.69,192.35Zm-1,1.6a1.1,1.1,0,0,1-1.41-.58,1.08,1.08,0,1,1,1.41.58Zm19-32.38a1.57,1.57,0,1,0-.84,2A1.57,1.57,0,0,0,316.63,161.57Zm-1,1.59a1.08,1.08,0,0,1-1.41-.58,1.07,1.07,0,0,1,.58-1.41,1.08,1.08,0,1,1,.83,2Z" style="opacity: 0.2; transform-origin: 313.7px 195.385px;" class="animable"></path></g><path d="M315.67,169.35C300,182,276.83,191,270.68,189.48c-8.28-2-23.53-15.23-30.81-22.81-2.14-2.22,15.52-18.52,17.81-16.15,2.76,2.87,16.84,18,17.2,18.15.75.42,30.94-6.82,36.41-8.17C320.22,158.3,322.83,163.58,315.67,169.35Z" style="fill: rgb(211, 118, 106); transform-origin: 279.742px 169.966px;" id="el05ut523srkc8" class="animable"></path><path d="M229.52,154.75c2.13,4.67,10.22,12.53,12.9,13.67s16.49-12.16,16.17-15.13-8.7-18.15-13.38-20.52S227.32,149.91,229.52,154.75Z" style="fill: rgb(211, 118, 106); transform-origin: 243.935px 150.53px;" id="elml29607xzd" class="animable"></path><polygon points="175.66 184.83 220.57 212.36 242.06 162.6 210.26 143.1 175.66 184.83" style="fill: rgb(223, 57, 57); transform-origin: 208.86px 177.73px;" id="eldzp5mfepa3n" class="animable"></polygon><polygon points="210.26 143.1 187.2 191.9 175.66 184.83 210.26 143.1" style="fill: rgb(223, 57, 57); transform-origin: 192.96px 167.5px;" id="elk29hevq8qya" class="animable"></polygon><g id="eldmqb0ww0o6c"><polygon points="210.26 143.1 187.2 191.9 175.66 184.83 210.26 143.1" style="opacity: 0.1; transform-origin: 192.96px 167.5px;" class="animable"></polygon></g><path d="M231.17,160.27l1.59.56s1.56-4.39,3.07-8.8a8.73,8.73,0,0,0-5.1-10.78c-2.83-1.17-6.93-.91-9.13,3.66-2.36,4.88-3.34,7.26-3.39,7.36l1.56.64s1-2.44,3.34-7.27c1.7-3.51,4.72-3.77,7-2.84a7.06,7.06,0,0,1,4.14,8.69C232.73,155.89,231.19,160.22,231.17,160.27Z" style="fill: rgb(38, 50, 56); transform-origin: 227.228px 150.745px;" id="el34zh5bmm6ex" class="animable"></path><path d="M186.81,191.18c-.52-1.22-1.11-2.41-1.7-3.6s-1.21-2.35-1.85-3.51l-.09-.16H183c-1.11.11-2.22.21-3.33.36s-2.21.29-3.31.49c1.12,0,2.24,0,3.35-.09s2.22-.12,3.33-.21l-.26-.14c.62,1.17,1.27,2.32,1.93,3.47S186.07,190.08,186.81,191.18Z" style="fill: rgb(255, 255, 255); transform-origin: 181.585px 187.545px;" id="elju99nai4k7" class="animable"></path><path d="M183,184.2c2-2.8,3.92-5.63,5.85-8.46s3.81-5.69,5.72-8.54,3.77-5.73,5.62-8.61l2.77-4.34c.9-1.45,1.83-2.9,2.72-4.36-1,1.39-2,2.81-2.95,4.21l-2.9,4.25c-1.93,2.83-3.82,5.69-5.73,8.54s-3.76,5.73-5.61,8.61S184.81,181.28,183,184.2Z" style="fill: rgb(255, 255, 255); transform-origin: 194.34px 167.045px;" id="eltq7977n22bn" class="animable"></path><path d="M230.06,159.38a2.24,2.24,0,1,0,3.08-.74A2.24,2.24,0,0,0,230.06,159.38Z" style="fill: rgb(38, 50, 56); transform-origin: 231.97px 160.55px;" id="el1l0g041t9ew" class="animable"></path><path d="M217.23,151.51a2.24,2.24,0,1,0,3.08-.73A2.25,2.25,0,0,0,217.23,151.51Z" style="fill: rgb(38, 50, 56); transform-origin: 219.136px 152.689px;" id="elng5f7uc6ab" class="animable"></path><path d="M251.67,137.85c-.32,2.71-3.32.79-3.32.79s3.66,3.8,2.25,6.46-4.9.11-5.16-.06c.19.2,3.46,3.79,1.77,6.31s-4.89-.44-5.09-.64c.12.25,1.66,3.56-.05,5.19-3,2.8-7.13-5.56-10.3-6.48,0,0-2.15,5.19-2.25,5.33s-4.13-7.88-2.66-12.08a2.84,2.84,0,0,1,3-1.93s-1.62-2.39-.35-4.42c.65-1,2.89-.92,2.89-.92a3.57,3.57,0,0,1,0-3.71c1-1.39,3.08-1.05,3.08-1.05s-.28-2.43,1.18-3.53C239.63,124.9,252.35,132.07,251.67,137.85Z" style="fill: rgb(211, 118, 106); transform-origin: 239.117px 141.585px;" id="el758ij8gmhfj" class="animable"></path><path d="M235.84,130.64s0-.09,0-.07a25.27,25.27,0,0,1,12.65,8.15c.11.13-.06.35-.2.23A51.54,51.54,0,0,0,235.84,130.64Z" style="fill: rgb(38, 50, 56); transform-origin: 242.183px 134.776px;" id="elmjr708nmel" class="animable"></path><path d="M232.35,135.34c-.06,0,0-.11,0-.1A23.76,23.76,0,0,1,245.65,145c.1.17,0,.42-.11.24C243.28,142.13,236.64,137.29,232.35,135.34Z" style="fill: rgb(38, 50, 56); transform-origin: 239.007px 140.271px;" id="elf6suh24upy4" class="animable"></path><path d="M242.21,151.13c-3.08-4.6-7.33-7.74-12.16-10.34-.06,0,0-.12,0-.11,2.71.63,5.62,2.61,7.75,4.34a14.65,14.65,0,0,1,4.53,6C242.41,151.11,242.28,151.22,242.21,151.13Z" style="fill: rgb(38, 50, 56); transform-origin: 236.189px 145.921px;" id="el5b1yga7hzc6" class="animable"></path><path d="M248.35,138.64a16.36,16.36,0,0,1,1.67,2.54,5.53,5.53,0,0,1,.77,2.8,1.83,1.83,0,0,1-.54,1.2,2.76,2.76,0,0,1-1.17.67,3.27,3.27,0,0,1-2.57-.63l-1.82-1.29,1.26,1.84a9.1,9.1,0,0,1,1.27,2.67,3.25,3.25,0,0,1-.22,2.66,1.85,1.85,0,0,1-2.18.86,5.6,5.6,0,0,1-2.37-1.54l-1.85-1.9,1.12,2.39a8.31,8.31,0,0,1,.68,2.08,3.54,3.54,0,0,1-.14,2,1.68,1.68,0,0,1-1.45,1,3.72,3.72,0,0,1-1.93-.76,29.61,29.61,0,0,1-3.44-3c-.56-.54-1.12-1.08-1.71-1.59a5.59,5.59,0,0,0-2-1.24,5.91,5.91,0,0,1,1.82,1.4c.54.55,1,1.12,1.57,1.7a25.37,25.37,0,0,0,3.35,3.28,4.3,4.3,0,0,0,2.29,1,2.39,2.39,0,0,0,2.2-1.41,4.32,4.32,0,0,0,.23-2.52,9.1,9.1,0,0,0-.71-2.33l-.73.49a6.58,6.58,0,0,0,2.78,1.85,2.75,2.75,0,0,0,1.83-.08,3,3,0,0,0,1.35-1.2,4.09,4.09,0,0,0,.28-3.37,9.89,9.89,0,0,0-1.44-2.91l-.56.56a3.92,3.92,0,0,0,3.22.61,3.38,3.38,0,0,0,1.41-.9,2.42,2.42,0,0,0,.62-1.56,5.75,5.75,0,0,0-1-3A13.89,13.89,0,0,0,248.35,138.64Z" style="fill: rgb(38, 50, 56); transform-origin: 241.485px 147.71px;" id="elm6fh94fuqbk" class="animable"></path><path d="M257.62,150.45s-.49-21.78-8.91-17.41c-2.5,1.29-11.23,9.6-9.59,11.39,2.11,2.3,6.4-.49,8.81-2.66,0,0-.87,7.43,4.12,9.58A5.4,5.4,0,0,0,257.62,150.45Z" style="fill: rgb(211, 118, 106); transform-origin: 248.268px 142.107px;" id="elxr0n2yonv6a" class="animable"></path><path d="M249.43,132.72a11.3,11.3,0,0,0-2.9,1.61,24.82,24.82,0,0,0-2.57,2.13,38.41,38.41,0,0,0-4.49,4.94,6.09,6.09,0,0,0-.86,1.55,2.17,2.17,0,0,0-.14,1,1.46,1.46,0,0,0,.13.54,1.76,1.76,0,0,0,.31.46,2.81,2.81,0,0,0,1.74.86,4.94,4.94,0,0,0,1.81-.16,10.11,10.11,0,0,0,3.1-1.49,22.5,22.5,0,0,0,2.63-2.11l-.64-.34a13.66,13.66,0,0,0,0,2.56,13.16,13.16,0,0,0,.51,2.48,8.61,8.61,0,0,0,1.13,2.27,6.55,6.55,0,0,0,1.78,1.74,7.46,7.46,0,0,1-1.56-1.89,9.07,9.07,0,0,1-.88-2.25,12.19,12.19,0,0,1-.35-2.4,12.75,12.75,0,0,1,.1-2.4l.15-1-.79.64a23,23,0,0,1-2.59,1.94,9.82,9.82,0,0,1-2.84,1.34,2.76,2.76,0,0,1-2.65-.42c-.54-.52,0-1.59.6-2.44a32.27,32.27,0,0,1,2-2.57c.71-.84,1.42-1.67,2.18-2.46A21.48,21.48,0,0,1,249.43,132.72Z" style="fill: rgb(38, 50, 56); transform-origin: 244.715px 141.74px;" id="elrp9qgy3sz7l" class="animable"></path><path d="M263.26,153l-23.7,17.63s19.66,19.29,28.69,20.57,33.48-10.94,46.19-20.62c13-9.9,3.66-12.88-5-10.76s-31.58,6.89-32.16,6.72S263.26,153,263.26,153Z" style="fill: rgb(223, 57, 57); transform-origin: 280.214px 172.146px;" id="eli3u3ciumy8m" class="animable"></path><g id="elyi0e5zq2ttj"><path d="M299.09,178.93a1.56,1.56,0,0,0-.89,1.9l.45-.24h0a1.07,1.07,0,0,1,1.78-1l.45-.26A1.56,1.56,0,0,0,299.09,178.93Zm-10.91,6.86a1.42,1.42,0,0,0-.12-.57,1.58,1.58,0,0,0-2.92,1.21,1.47,1.47,0,0,0,.36.52l.52-.22a1,1,0,0,1-.41-.49,1.07,1.07,0,0,1,.58-1.41,1.07,1.07,0,0,1,1.46,1.19Zm-15.28,4a1.58,1.58,0,0,0-1,1.29,5,5,0,0,0,.52-.07,1.08,1.08,0,0,1,.64-.76,1.07,1.07,0,0,1,1.29.4l.51-.12A1.56,1.56,0,0,0,272.9,189.81Zm6.47-23.61a1.07,1.07,0,0,1-1.94.31.34.34,0,0,1-.17,0,3.57,3.57,0,0,1-.49-.38,1.47,1.47,0,0,0,.1.4,1.57,1.57,0,0,0,2.06.83,1.53,1.53,0,0,0,1-1.26Zm-12.69,4.57a1.57,1.57,0,1,0-.84,2A1.57,1.57,0,0,0,266.68,170.77Zm-1,1.59a1.08,1.08,0,1,1,.57-1.4A1.07,1.07,0,0,1,265.65,172.36Zm-12.08,3.85a1.57,1.57,0,1,0-.84,2A1.57,1.57,0,0,0,253.57,176.21Zm-1,1.6a1.1,1.1,0,0,1-1.41-.58,1.08,1.08,0,0,1,.58-1.41,1.07,1.07,0,0,1,1.41.58A1.09,1.09,0,0,1,252.54,177.81Zm64.09-16.24a1.57,1.57,0,1,0-.84,2A1.57,1.57,0,0,0,316.63,161.57Zm-1,1.59a1.08,1.08,0,0,1-1.41-.58,1.07,1.07,0,0,1,.58-1.41,1.08,1.08,0,1,1,.83,2ZM303.54,167a1.57,1.57,0,1,0-2.91,1.2,1.57,1.57,0,0,0,2.05.85A1.59,1.59,0,0,0,303.54,167Zm-1.05,1.6a1.09,1.09,0,0,1-1.41-.58,1.08,1.08,0,0,1,.58-1.41,1.07,1.07,0,0,1,1.41.58A1.09,1.09,0,0,1,302.49,168.61Zm-12.07,3.84a1.57,1.57,0,1,0-.84,2.05A1.58,1.58,0,0,0,290.42,172.45Zm-1,1.6a1.08,1.08,0,0,1-1.4-.58,1.07,1.07,0,1,1,2-.83A1.08,1.08,0,0,1,289.39,174.05Zm-12.06,3.84a1.58,1.58,0,1,0-.86,2.05A1.57,1.57,0,0,0,277.33,177.89Zm-1.05,1.6a1.07,1.07,0,0,1-1.4-.58,1.07,1.07,0,1,1,1.4.58Zm-12.06,3.85a1.58,1.58,0,1,0-.85,2A1.57,1.57,0,0,0,264.22,183.34Zm-1,1.59a1.07,1.07,0,1,1,.58-1.4A1.08,1.08,0,0,1,263.19,184.93Zm5.44-26.64a1.07,1.07,0,0,1-.61,1.31,1.09,1.09,0,0,1-1.41-.59,1.07,1.07,0,0,1,.58-1.4,1,1,0,0,1,.69-.05l-.52-.52a1.61,1.61,0,0,0-.36.1,1.57,1.57,0,0,0,1.2,2.91,1.62,1.62,0,0,0,1-1.23h0ZM256,163.44a1.57,1.57,0,1,0-.84,2.05A1.57,1.57,0,0,0,256,163.44Zm-1,1.6a1.09,1.09,0,0,1-1.41-.59,1.08,1.08,0,0,1,2-.82A1.09,1.09,0,0,1,254.92,165Zm-12.06,3.84a1.49,1.49,0,0,0-.32-.48l-.41.3a1.08,1.08,0,1,1-1.7,1.26l-.39.3a1.57,1.57,0,0,0,2.82-1.38Z" style="opacity: 0.2; transform-origin: 278.428px 174.055px;" class="animable"></path></g><path d="M256.61,165l4.8-3.68c1.6-1.21,3.18-2.5,4.86-3.59.08-.05.18,0,.11.12-1.41,1.33-3,2.52-4.48,3.75s-3.19,2.6-4.8,3.89c-3.17,2.55-6.44,5-9.75,7.34-.08.06-.16-.06-.09-.12C250.32,170.08,253.41,167.49,256.61,165Z" style="fill: rgb(38, 50, 56); transform-origin: 256.818px 165.279px;" id="el5ap3r0xacek" class="animable"></path><path d="M306,177.61c-1,.24-2,.5-3,.79l-.54.18,1.18-.72a44.6,44.6,0,0,0,4.09-2.58c.06,0,0-.13-.07-.11a45.5,45.5,0,0,0-4.47,2.37,65.24,65.24,0,0,0-6.56,4c-.07.06,0,.16.09.13a34.15,34.15,0,0,0,4.46-2.27l.52-.15c.47-.13,1-.29,1.42-.45,1-.34,1.91-.71,2.86-1.1C306.08,177.65,306.06,177.6,306,177.61Z" style="fill: rgb(38, 50, 56); transform-origin: 302.178px 178.422px;" id="el6wea2c6eyy" class="animable"></path><path d="M323.07,170.84c-2.45.3-7.92-3.9-10.21-7.62-.15-.26.11-3.05.26-6.45.09-2.06.14-4.36,0-6.46l13.35,2.52a33.64,33.64,0,0,0-.86,8.14,5.54,5.54,0,0,0,.13.86s0,.08,0,.14C326.15,163.59,326.9,170.37,323.07,170.84Z" style="fill: rgb(211, 118, 106); transform-origin: 319.642px 160.583px;" id="el9wg4p0oetwn" class="animable"></path><path d="M325.77,161.83a1,1,0,0,0,0,.14,8.12,8.12,0,0,1-1.36.14c-7.65.23-10-9.08-10.55-11.65l12.6,2.37a33.64,33.64,0,0,0-.86,8.14A7.08,7.08,0,0,0,325.77,161.83Z" style="fill: rgb(38, 50, 56); transform-origin: 320.16px 156.287px;" id="el1zwo7ci6edr" class="animable"></path><path d="M312.15,134.82c-1.57,4.63.47,18.23,3.71,21.34,4.69,4.52,12.57,5.19,16.47-.5,3.77-5.5.79-23.17-2.85-26C324.14,125.43,314.47,128,312.15,134.82Z" style="fill: rgb(211, 118, 106); transform-origin: 322.843px 143.671px;" id="elrn83ux64lb" class="animable"></path><path d="M323,143.08s-.06.06,0,.09c.2.91.28,2-.49,2.44,0,0,0,.06,0,0C323.42,145.32,323.3,143.9,323,143.08Z" style="fill: rgb(38, 50, 56); transform-origin: 322.865px 144.358px;" id="elgegcfjpbakp" class="animable"></path><path d="M322,142.29c-1.49.16-1,3.12.33,3S323.21,142.14,322,142.29Z" style="fill: rgb(38, 50, 56); transform-origin: 322.113px 143.789px;" id="elsdmnn1cd4mp" class="animable"></path><path d="M328.08,142.14s.08,0,.08.07c.11.92.39,1.95,1.27,2.13,0,0,0,.06,0,.06C328.39,144.41,328,143,328.08,142.14Z" style="fill: rgb(38, 50, 56); transform-origin: 328.75px 143.27px;" id="elo4ex7cfj77" class="animable"></path><path d="M328.76,141.06c1.45-.33,2,2.6.66,2.91S327.54,141.34,328.76,141.06Z" style="fill: rgb(38, 50, 56); transform-origin: 329.132px 142.513px;" id="elx7khib1kl7k" class="animable"></path><path d="M320.6,141.11a10.14,10.14,0,0,0,1.08-.58,2,2,0,0,0,1-.79.64.64,0,0,0-.22-.75,1.57,1.57,0,0,0-1.58.08,2.28,2.28,0,0,0-1.17,1.18A.68.68,0,0,0,320.6,141.11Z" style="fill: rgb(38, 50, 56); transform-origin: 321.197px 139.986px;" id="el56uo05h66n8" class="animable"></path><path d="M329.73,138.11a10.26,10.26,0,0,1-1.23-.13,1.93,1.93,0,0,1-1.21-.37.61.61,0,0,1-.08-.76,1.57,1.57,0,0,1,1.5-.53,2.35,2.35,0,0,1,1.52.66A.68.68,0,0,1,329.73,138.11Z" style="fill: rgb(38, 50, 56); transform-origin: 328.757px 137.201px;" id="el9iptva0bk3" class="animable"></path><path d="M323.4,151.77c.25.18.52.44.85.42a2.38,2.38,0,0,0,.95-.38s.06,0,.05,0a1.25,1.25,0,0,1-1.09.67,1,1,0,0,1-.84-.7S323.36,151.74,323.4,151.77Z" style="fill: rgb(38, 50, 56); transform-origin: 324.286px 152.119px;" id="elom4zumicwvc" class="animable"></path><path d="M324,148.88a3.11,3.11,0,0,0,2.29,1.07,3.91,3.91,0,0,0,1.13-.11.73.73,0,0,0,.21-.06l.2-.06a.23.23,0,0,0,.15-.23h0s0-.06,0-.09h0v-.08c-.09-.71-.32-1.77-.32-1.77.28.09,1.68.49,1.61.12a47.77,47.77,0,0,0-2.63-9.25c0-.1-.19-.05-.16,0,.5,2.93,1.51,5.75,2.06,8.69a5.53,5.53,0,0,0-1.54-.23c-.1,0,.48,2,.49,2.37,0,0,0,0,0,0a4.38,4.38,0,0,1-3.38-.51C324,148.74,323.88,148.82,324,148.88Z" style="fill: rgb(38, 50, 56); transform-origin: 326.611px 144.158px;" id="eluz49fsafd4" class="animable"></path><path d="M326.9,149.54a3.73,3.73,0,0,1-1.31,1.37,1.7,1.7,0,0,1-1,.22c-.76-.08-.88-.75-.83-1.35a4.18,4.18,0,0,1,.19-.92A4.9,4.9,0,0,0,326.9,149.54Z" style="fill: rgb(38, 50, 56); transform-origin: 325.325px 149.998px;" id="elwmy9s5jpsq" class="animable"></path><path d="M325.59,150.91a1.7,1.7,0,0,1-1,.22c-.76-.08-.88-.75-.83-1.35A1.75,1.75,0,0,1,325.59,150.91Z" style="fill: rgb(255, 155, 188); transform-origin: 324.67px 150.453px;" id="elbarhget44ve" class="animable"></path><path d="M311.55,147c2.57-.82,3.59-9.57,3.59-9.57s.11,3.69.79,3.58,3.36-5.22,3.55-8.82a28.24,28.24,0,0,0,6.68,3c3.32.87,6.95.53,6.93,0,0-1.67-1.72-6-4-7.42a11.77,11.77,0,0,0-11.73-1A11.39,11.39,0,0,0,310,135.1C309.34,137.8,310.61,147.29,311.55,147Z" style="fill: rgb(38, 50, 56); transform-origin: 321.454px 136.331px;" id="elbox01skgyqm" class="animable"></path><path d="M314.7,145.92s-3-4.4-5-3.33.23,7.43,2.55,8.32a2.37,2.37,0,0,0,3.19-1.24Z" style="fill: rgb(211, 118, 106); transform-origin: 312.182px 146.777px;" id="elxyqhp42az0c" class="animable"></path><path d="M310.37,144.39s0,.05,0,.07a6,6,0,0,1,3.05,3.78,1.3,1.3,0,0,0-2-.38s0,.09,0,.09a1.44,1.44,0,0,1,1.6.52,7.45,7.45,0,0,1,.76,1.31c.07.14.34.07.28-.1v0C314.19,147.56,312.61,144.63,310.37,144.39Z" style="fill: rgb(38, 50, 56); transform-origin: 312.219px 147.122px;" id="elinm0ccpfir" class="animable"></path><path d="M326.56,126a20.3,20.3,0,0,0-5.43-2.15c-2.13-.46-9-.53-10.74.69s-2.75,7.59-2.87,8.53-.21,6.64,1.72,8.19,3-8.07,6.51-11S326.56,126,326.56,126Z" style="fill: rgb(223, 57, 57); transform-origin: 317.013px 132.485px;" id="elj6ojdxag0sb" class="animable"></path><g id="elyvptwqc4fqb"><path d="M326.56,126s-7.29,1.36-10.81,4.27-4.57,12.53-6.51,11a4.53,4.53,0,0,1-1.45-3.16c.68-2.77,2.2-7,4.82-9.86,2.44-2.64,6.35-3.74,10.44-3.84A22.5,22.5,0,0,1,326.56,126Z" style="opacity: 0.1; transform-origin: 317.175px 132.922px;" class="animable"></path></g><path d="M309.3,147.05c.41-2.55,3.63-9.2,6.71-12.89s11.34-5.29,12.46-5.13c2.72.4,3.1,1.83,3.55,1.62s-1.7-3-2.43-3.56-2.7-1.79-3.89-1.87-8.58,0-11.52,2.9-7.47,11.31-7,13.61c.12.55.8,1,1,1.74.21,1,.32,2.21.56,2.94S309.26,147.27,309.3,147.05Z" style="fill: rgb(223, 57, 57); transform-origin: 319.614px 136.175px;" id="el37xvcqyecwz" class="animable"></path><path d="M316.8,132.44a12.13,12.13,0,0,1-1.66-1.46,9.33,9.33,0,0,1-1.38-1.75s-.1,0-.08,0a7.47,7.47,0,0,0,1.23,2,6.11,6.11,0,0,0,1.82,1.36C316.8,132.61,316.86,132.49,316.8,132.44Z" style="fill: rgb(38, 50, 56); transform-origin: 315.251px 130.911px;" id="elff2jv5lv1v" class="animable"></path><path d="M309.5,144.48c-.05-.19-.16-.36-.23-.55a2.94,2.94,0,0,1-.19-.66,6.08,6.08,0,0,0-.18-1.27,4.6,4.6,0,0,0-.53-.91A1.72,1.72,0,0,1,308,140c0-.06-.08-.07-.08,0a4.27,4.27,0,0,0,.68,2.06,9,9,0,0,1,.24,1.36,2,2,0,0,0,.58,1.14C309.43,144.59,309.52,144.55,309.5,144.48Z" style="fill: rgb(38, 50, 56); transform-origin: 308.711px 142.261px;" id="elx71c4yr6n3" class="animable"></path><path d="M310.63,141.79a9.73,9.73,0,0,1-.64-.94,7.14,7.14,0,0,1-.47-1c-.13-.34-.24-.69-.36-1s-.35-.8-.48-1.21c0,0-.1,0-.08,0,.13.42.19.87.31,1.31a11,11,0,0,0,.4,1.09,5.68,5.68,0,0,0,.53,1,2.56,2.56,0,0,0,.76.81S310.65,141.81,310.63,141.79Z" style="fill: rgb(38, 50, 56); transform-origin: 309.616px 139.745px;" id="elgmsg9g7y0yo" class="animable"></path><path d="M311.79,139.36a7.21,7.21,0,0,1-1.26-1.7c-.32-.61-.61-1.25-.89-1.88,0,0-.09,0-.08,0a8.59,8.59,0,0,0,.71,2,5.07,5.07,0,0,0,.58.87,5,5,0,0,0,.87.72S311.82,139.4,311.79,139.36Z" style="fill: rgb(38, 50, 56); transform-origin: 310.677px 137.58px;" id="elapurkyk5f3" class="animable"></path><path d="M313,137a2.47,2.47,0,0,1-.62-.74c-.19-.31-.38-.62-.56-.94s-.35-.61-.53-.91a2.55,2.55,0,0,1-.37-1c0-.05-.09-.05-.09,0a2.64,2.64,0,0,0,.21,1,5.89,5.89,0,0,0,.49,1.05,8.43,8.43,0,0,0,.64,1,1.68,1.68,0,0,0,.78.64A.06.06,0,0,0,313,137Z" style="fill: rgb(38, 50, 56); transform-origin: 311.923px 135.236px;" id="eljf5ai12wbas" class="animable"></path><path d="M314,134.06a9.34,9.34,0,0,1-.63-.78c-.2-.27-.38-.55-.56-.83s-.38-.59-.55-.89c0-.05-.1,0-.08,0a7.4,7.4,0,0,0,.39,1,9.16,9.16,0,0,0,.55.88,8.3,8.3,0,0,0,.64.8,2.74,2.74,0,0,0,.78.66c.05,0,.11,0,.08-.08A5.1,5.1,0,0,0,314,134.06Z" style="fill: rgb(38, 50, 56); transform-origin: 313.403px 133.219px;" id="elaeurufo4w34" class="animable"></path><path d="M318.9,131.16c-.23-.34-.45-.67-.71-1a11.94,11.94,0,0,0-.83-.91,11.48,11.48,0,0,0-1.88-1.52s-.09,0-.06.06c1.13,1.15,2.3,2.25,3.41,3.41C318.87,131.25,318.93,131.2,318.9,131.16Z" style="fill: rgb(38, 50, 56); transform-origin: 317.161px 129.475px;" id="el6j6md07144p" class="animable"></path><path d="M320.64,129.1a5.33,5.33,0,0,0-.8-.91,11.43,11.43,0,0,0-2.09-1.41c-.05,0-.09,0-.05.06.63.51,1.26,1,1.86,1.53a11.23,11.23,0,0,1,.85.84c.27.29.46.64.71.94a0,0,0,0,0,.06,0A2.91,2.91,0,0,0,320.64,129.1Z" style="fill: rgb(38, 50, 56); transform-origin: 319.432px 128.465px;" id="elqbzsa8com1a" class="animable"></path><path d="M322.87,128.28a5.75,5.75,0,0,0-.73-.9,6.54,6.54,0,0,0-1.78-1.26c-.05,0-.08,0,0,.07a12.52,12.52,0,0,1,1.65,1.44c.26.26.5.54.74.81s.45.61.72.85c0,0,.05,0,0,0A6.12,6.12,0,0,0,322.87,128.28Z" style="fill: rgb(38, 50, 56); transform-origin: 321.901px 127.705px;" id="elgyh6c58izjs" class="animable"></path><path d="M324.53,127.14c-.25-.25-.52-.48-.78-.71a3.55,3.55,0,0,0-.85-.58s-.07.05,0,.08c.49.46,1,.94,1.45,1.41a8.87,8.87,0,0,1,1.07,1.52,0,0,0,0,0,.05,0A3.24,3.24,0,0,0,324.53,127.14Z" style="fill: rgb(38, 50, 56); transform-origin: 324.169px 127.355px;" id="elqf0ktjznj8" class="animable"></path><path d="M326.49,126.89a5.53,5.53,0,0,0-1.62-1.22s-.08,0,0,.08a6,6,0,0,1,1.45,1.31,8.63,8.63,0,0,1,1.1,1.63s.06,0,.06,0A4.52,4.52,0,0,0,326.49,126.89Z" style="fill: rgb(38, 50, 56); transform-origin: 326.157px 127.18px;" id="elztwvjtwdufj" class="animable"></path><path d="M328.91,128.26a3.65,3.65,0,0,0-.18-.41,5.22,5.22,0,0,0-.51-.75,10.08,10.08,0,0,0-1.36-1.25s-.1,0-.05.07a7.63,7.63,0,0,1,1.26,1.28,6.2,6.2,0,0,1,.49.73c.07.12.13.25.2.38a1.66,1.66,0,0,0,.18.38,0,0,0,0,0,.07,0A1,1,0,0,0,328.91,128.26Z" style="fill: rgb(38, 50, 56); transform-origin: 327.903px 127.27px;" id="el8azocbfozib" class="animable"></path><path d="M330.44,128.54a5.11,5.11,0,0,0-.41-.62c-.16-.2-.32-.38-.49-.56l-.54-.54s-.11,0-.06.06a4.55,4.55,0,0,1,.49.58l.44.58c.14.2.29.39.43.58a5.39,5.39,0,0,0,.43.6s.07,0,.06,0A2.72,2.72,0,0,0,330.44,128.54Z" style="fill: rgb(38, 50, 56); transform-origin: 329.859px 128.02px;" id="elhmv8qy88y2t" class="animable"></path></g><defs>     <filter id="active" height="200%">         <feMorphology in="SourceAlpha" result="DILATED" operator="dilate" radius="2"></feMorphology>                <feFlood flood-color="#32DFEC" flood-opacity="1" result="PINK"></feFlood>        <feComposite in="PINK" in2="DILATED" operator="in" result="OUTLINE"></feComposite>        <feMerge>            <feMergeNode in="OUTLINE"></feMergeNode>            <feMergeNode in="SourceGraphic"></feMergeNode>        </feMerge>    </filter>    <filter id="hover" height="200%">        <feMorphology in="SourceAlpha" result="DILATED" operator="dilate" radius="2"></feMorphology>                <feFlood flood-color="#ff0000" flood-opacity="0.5" result="PINK"></feFlood>        <feComposite in="PINK" in2="DILATED" operator="in" result="OUTLINE"></feComposite>        <feMerge>            <feMergeNode in="OUTLINE"></feMergeNode>            <feMergeNode in="SourceGraphic"></feMergeNode>        </feMerge>            <feColorMatrix type="matrix" values="0   0   0   0   0                0   1   0   0   0                0   0   0   0   0                0   0   0   1   0 "></feColorMatrix>    </filter></defs></svg>