<svg xmlns="http://www.w3.org/2000/svg" viewBox="0 0 500 500"><g id="freepik--background-complete--inject-39"><rect x="374.53" y="50.87" width="73.88" height="73.88" style="fill:#ebebeb"></rect><path d="M412.7,62.72a2.49,2.49,0,0,1,2.51,2.51v1.29a21.31,21.31,0,0,1,9.05,3.21A3.12,3.12,0,0,1,426,72.54a3.21,3.21,0,0,1-3.27,3.21,3.41,3.41,0,0,1-1.75-.53,21.41,21.41,0,0,0-6-2.57V83.87c8.88,2.22,12.68,5.78,12.68,12,0,6.43-5,10.69-12.44,11.39v3.51a2.49,2.49,0,0,1-2.51,2.51,2.54,2.54,0,0,1-2.57-2.51v-3.63a25.25,25.25,0,0,1-12-4.55,3.21,3.21,0,0,1-1.57-2.81,3.16,3.16,0,0,1,3.21-3.21,3.26,3.26,0,0,1,1.93.64,20.7,20.7,0,0,0,8.64,3.92V89.65c-8.53-2.22-12.5-5.43-12.5-12,0-6.25,5-10.57,12.27-11.16V65.23A2.54,2.54,0,0,1,412.7,62.72Zm-2.34,19.92V72.3c-3.74.35-5.61,2.34-5.61,4.91S405.86,81.18,410.36,82.64ZM415,90.76v10.63c3.74-.41,5.79-2.28,5.79-5.08C420.76,93.74,419.47,92.16,415,90.76Z" style="fill:#fff"></path><path d="M118,302.39a352.34,352.34,0,0,0-.51-37.48,477,477,0,0,0-11.74-76.36c-3.27-14.13-7.31-28-11.51-41.9-.12-.41-.79-.3-.68.14,13,48.92,23.65,99.4,22.92,150.25-.21,14.23-1.85,28.2-3.21,42.35,0,.37.59.52.68.14C116.63,327.42,117.5,314.75,118,302.39Z" style="fill:#ebebeb"></path><path d="M93.56,146.79s-19.68,50-15.27,61.69,13.49,14.25,13.49,14.25-12,17.19-3.63,33.31,27.11,15.37,28.35,33.65C116.5,289.69,117.55,213.25,93.56,146.79Z" style="fill:#ebebeb"></path><path d="M114.37,258.12a.47.47,0,0,0,0-.26c-2.77-34-8.79-67.82-19.09-100.49,0-.09-.19-.06-.17,0q5.85,21.92,10.34,44.07a21.85,21.85,0,0,0-9.4-5.24c-.06,0-.09.08,0,.1,3.64,1.58,7.13,3.4,9.7,6.49.57,2.89,1.14,5.79,1.67,8.69-4.4-4.92-10.5-7.36-16.6-9.67-.09,0-.13.1,0,.13,6.36,2.59,12.69,5.92,17,11.4q2.25,12.44,4,25a23.71,23.71,0,0,0-11.74-6.72c-.13,0-.21.17-.07.21a24.7,24.7,0,0,1,11.9,7.62l.07.05q.6,4.41,1.12,8.82a30.4,30.4,0,0,0-8.23-5c-.08,0-.12.09,0,.13a28.35,28.35,0,0,1,8.24,5.45.18.18,0,0,0,.1,0c.33,2.8.65,5.6.94,8.4a40,40,0,0,0-16.69-11.92.11.11,0,0,0-.08.2,43.4,43.4,0,0,1,16.45,12.66.38.38,0,0,0,.42.13c.42,4.3.81,8.6,1.12,12.92,0,.06.1.06.1,0Q114.91,264.75,114.37,258.12Z" style="fill:#fff"></path><path d="M98.55,191.28c-3.41-2.35-7.75-3.35-11.82-3.69a.08.08,0,0,0,0,.15c4.24.63,7.8,2.17,11.69,3.82C98.58,191.64,98.7,191.38,98.55,191.28Z" style="fill:#fff"></path><path d="M100.94,244.17a24.93,24.93,0,0,0-8.87-3c-.11,0-.12.15,0,.17a33.22,33.22,0,0,1,8.78,3.08A.12.12,0,0,0,100.94,244.17Z" style="fill:#fff"></path><path d="M169.74,209.3A133.74,133.74,0,0,0,147,229.21a81.83,81.83,0,0,0-16,27.09,202.39,202.39,0,0,0-11.9,64.79,157.56,157.56,0,0,0,3.5,36.44.35.35,0,0,0,.68-.13,204.58,204.58,0,0,1,.36-63.69c3.39-20.66,8.69-43.15,21.83-59.94,7.15-9.14,16.07-16.34,24.89-23.77C170.81,209.61,170.22,209,169.74,209.3Z" style="fill:#ebebeb"></path><path d="M122,306.22A122.24,122.24,0,0,1,138.59,285c9.84-9.84,18.13-16.84,19.41-23.35s-9.86-11.3-9.86-11.3,13.62,2.45,17.35-3.27S171,208.23,171,208.23s-24.79,17.7-36.33,42.51S122,306.22,122,306.22Z" style="fill:#ebebeb"></path><path d="M162.44,216.72C152,227,141.52,237.88,135.38,251.34a132.58,132.58,0,0,0-5.48,14.27v0c-.32,1-.64,2-.94,2.94a.34.34,0,0,0-.05.17,280.36,280.36,0,0,0-7,30.59c0,.07.09.1.1,0,1.07-5.16,2.25-10.38,3.56-15.58l.15,0a21.58,21.58,0,0,1,6.51-1.65c.14,0,.13-.27,0-.27a24.24,24.24,0,0,0-6.43,1.18c1.2-4.69,2.5-9.37,4-14a68.8,68.8,0,0,1,14.7-1.92c.05,0,.06-.08,0-.08A55.66,55.66,0,0,0,130,268.25c.26-.79.53-1.57.79-2.36a73.71,73.71,0,0,1,9.78-1.66c.06,0,.06-.11,0-.1a46.73,46.73,0,0,0-9.58,1.16c1.35-4,2.8-7.92,4.42-11.76a71.35,71.35,0,0,1,4.68-9.08A61,61,0,0,1,148,243c.08,0,.07-.12,0-.13a21.59,21.59,0,0,0-7.42.73c1.3-2.1,2.67-4.16,4.14-6.16h0c5.56-1.23,11.19-2.38,16.88-1.31.1,0,.13-.14,0-.17-5.41-1.42-10.78-.6-16.17.46.59-.78,1.19-1.55,1.8-2.32a37.19,37.19,0,0,1,10.38-1.63c.08,0,.09-.11,0-.11a26.81,26.81,0,0,0-9.68.86c4.6-5.71,9.67-11.08,14.69-16.38C162.87,216.62,162.69,216.48,162.44,216.72Z" style="fill:#fff"></path><path d="M162.17,239.3a22,22,0,0,0-4.93-.17c-.2,0-.18.34,0,.35,1.63.05,3.26-.08,4.89,0A.1.1,0,0,0,162.17,239.3Z" style="fill:#fff"></path><path d="M144.33,271.42a22.23,22.23,0,0,0-7.64,1.54c-.06,0,0,.12,0,.11,2.53-.61,5.08-.85,7.63-1.27A.19.19,0,0,0,144.33,271.42Z" style="fill:#fff"></path><path d="M139,260.33a16,16,0,0,0-3.24.29.1.1,0,0,0,0,.19,16.06,16.06,0,0,0,3.25-.15A.17.17,0,0,0,139,260.33Z" style="fill:#fff"></path><path d="M49.33,244.44a112.67,112.67,0,0,1,23,10.85,68.86,68.86,0,0,1,19.19,18.23,170.39,170.39,0,0,1,24.61,49.69,132.89,132.89,0,0,1,5.58,30.3.29.29,0,0,1-.58.05,172,172,0,0,0-15-51.46c-7.51-15.94-17-32.91-31.52-43.46-7.9-5.75-16.78-9.51-25.63-13.49C48.53,244.94,48.86,244.28,49.33,244.44Z" style="fill:#ebebeb"></path><path d="M110.38,311.84A103.4,103.4,0,0,0,92,298.5c-10.24-5.69-18.57-9.44-21.11-14.41s5.37-11.43,5.37-11.43-10.46,5.13-14.8,1.37S48,243.88,48,243.88s24.15,8.59,39.23,26S110.38,311.84,110.38,311.84Z" style="fill:#ebebeb"></path><path d="M109.12,306.39C97,283.72,80.92,263.22,58.84,249.68c0,0,0,0,0,0A111.53,111.53,0,0,1,75,262.34a25.65,25.65,0,0,0-13,2.74c-.09.05,0,.17.07.14A35.41,35.41,0,0,1,75.44,263a.28.28,0,0,0,.15-.06c.78.75,1.55,1.5,2.32,2.27a40.6,40.6,0,0,0-6.94.92c-.06,0,0,.1,0,.09a35.34,35.34,0,0,1,7.33-.6,152.57,152.57,0,0,1,11.39,12.93,11.66,11.66,0,0,0-4.85.35.1.1,0,0,0,0,.19,25.64,25.64,0,0,1,5.18-.08c.66.85,1.33,1.68,2,2.54a46.76,46.76,0,0,0-14.66,1.42c-.07,0,0,.13,0,.11a59.44,59.44,0,0,1,15.06-1c.61.82,1.2,1.66,1.8,2.49a31.71,31.71,0,0,0-8.72,1c-.11,0-.08.2,0,.17a33.38,33.38,0,0,1,9-.7c2.6,3.58,5.09,7.24,7.48,10.94a8.14,8.14,0,0,0-3.83.23.06.06,0,0,0,0,.11,16.38,16.38,0,0,1,4.14.19q3.22,5,6.23,10.13C108.81,306.91,109.28,306.7,109.12,306.39Z" style="fill:#fff"></path><path d="M90.33,287.59a18.79,18.79,0,0,0-7,.86c-.06,0,0,.12,0,.1a54.66,54.66,0,0,1,7-.71C90.47,287.83,90.5,287.6,90.33,287.59Z" style="fill:#fff"></path><path d="M69.27,260a12.13,12.13,0,0,0-3.24.19c-.13,0-.09.21,0,.19,1.06-.11,2.11-.07,3.17-.1C69.42,260.23,69.45,260,69.27,260Z" style="fill:#fff"></path><polygon points="141.52 387.18 87.01 387.18 94.78 330.24 96.77 315.64 131.76 315.64 133.75 330.24 141.52 387.18" style="fill:#dbdbdb"></polygon><polygon points="133.75 330.24 94.78 330.24 96.77 315.64 131.76 315.64 133.75 330.24" style="fill:#c7c7c7"></polygon><rect x="91.77" y="310.58" width="45" height="12.36" style="fill:#dbdbdb"></rect><rect x="434.79" y="208.44" width="26.48" height="11.19" transform="translate(896.07 428.07) rotate(180)" style="fill:#ebebeb"></rect><rect x="449.56" y="194.33" width="26.48" height="11.19" transform="translate(925.61 399.85) rotate(180)" style="fill:#ebebeb"></rect><rect x="420.02" y="194.33" width="26.48" height="11.19" transform="translate(866.52 399.85) rotate(180)" style="fill:#ebebeb"></rect><rect x="38.73" y="352.76" width="26.48" height="11.19" transform="translate(103.93 716.71) rotate(180)" style="fill:#ebebeb"></rect><rect x="23.96" y="338.65" width="26.48" height="11.19" transform="translate(74.39 688.49) rotate(180)" style="fill:#ebebeb"></rect><rect x="449.56" y="352.75" width="26.48" height="11.19" transform="translate(925.61 716.69) rotate(180)" style="fill:#ebebeb"></rect><rect x="112.43" y="101.68" width="26.48" height="11.19" style="fill:#ebebeb"></rect><rect x="97.65" y="115.79" width="26.48" height="11.19" style="fill:#ebebeb"></rect></g><g id="freepik--Shadow--inject-39"><ellipse cx="259.65" cy="434.98" rx="198.01" ry="28.49" style="fill:#ebebeb"></ellipse></g><g id="freepik--Floor--inject-39"><path d="M51.94,387.18c126.89-.62,269.23-.62,396.12,0-126.89.61-269.23.61-396.12,0Z" style="fill:#263238"></path></g><g id="freepik--Device--inject-39"><path d="M350.15,73.61v322a17,17,0,0,1-16.87,17.17H166.71a17,17,0,0,1-16.86-17.17v-322a17,17,0,0,1,16.86-17.16H333.28A17,17,0,0,1,350.15,73.61Z" style="fill:#263238"></path><path d="M339.61,89.78V385c0,9-6.76,16.33-15.09,16.33h-149c-8.35,0-15.11-7.31-15.11-16.33V89.78c0-18.39,6.76-22.45,15.11-22.45h29.85c1.73,0,3.15,2,3.15,4.4v1c0,5.74,3.13,5.76,7,5.76h69c3.87,0,7,0,7-5.76v-1c0-2.44,1.39-4.4,3.15-4.4h29.86C332.85,67.33,339.61,72.94,339.61,89.78Z" style="fill:#fff"></path><path d="M259.41,71.39H240.58a1.16,1.16,0,0,1-1.16-1.17h0a1.16,1.16,0,0,1,1.16-1.16h18.83a1.16,1.16,0,0,1,1.17,1.16h0A1.17,1.17,0,0,1,259.41,71.39Z" style="fill:#fff"></path><path d="M321.28,198.71l.2,79.9a8.08,8.08,0,0,1-8.06,8.11l-126.72.33a8.1,8.1,0,0,1-8.11-8.07l-.2-79.9a7.53,7.53,0,0,1,7.5-7.55l127.84-.33A7.53,7.53,0,0,1,321.28,198.71Z" style="fill:#455a64"></path><rect x="190.44" y="205.21" width="26.82" height="18.54" rx="4.2" transform="translate(-0.56 0.53) rotate(-0.15)" style="fill:#FFC727"></rect><path d="M304.8,215.11l-12.14,0a5.07,5.07,0,0,1-5.09-5.07h0a5.07,5.07,0,0,1,5.07-5.09l12.13,0a5.1,5.1,0,0,1,5.1,5.07h0A5.08,5.08,0,0,1,304.8,215.11Z" style="fill:#fff"></path><path d="M189.52,240.68l-1.1.65a.27.27,0,0,1-.37-.09.26.26,0,0,1,.1-.37l1.5-.91a.29.29,0,0,1,.37.1.34.34,0,0,1,0,.2l0,7.14a.27.27,0,0,1-.53,0Z" style="fill:#f8f8f8"></path><path d="M192,247.19l3.62-3.29a2,2,0,0,0,.67-1.49,1.94,1.94,0,0,0-.53-1.33,2,2,0,0,0-1.48-.66,2,2,0,0,0-1.35.52l-.38.34a.25.25,0,0,1-.38,0,.25.25,0,0,1,0-.37l.38-.36a2.58,2.58,0,0,1,1.72-.66,2.55,2.55,0,0,1,2.54,2.53,2.54,2.54,0,0,1-.83,1.89l-3.1,2.82h3.68a.27.27,0,0,1,.26.28.26.26,0,0,1-.26.26l-4.34,0h0a.26.26,0,0,1-.2-.08A.29.29,0,0,1,192,247.19Z" style="fill:#f8f8f8"></path><path d="M203.23,240.35l-2,2.07a2.63,2.63,0,0,1,1.34,4.44,2.67,2.67,0,0,1-1.87.78,2.55,2.55,0,0,1-1.86-.77.28.28,0,0,1,.39-.39,2.08,2.08,0,0,0,1.47.6,2.11,2.11,0,0,0,1.47-.61,2.07,2.07,0,0,0,.61-1.48,2,2,0,0,0-.61-1.46,2.05,2.05,0,0,0-1.47-.61.27.27,0,0,1-.22-.11h0a.28.28,0,0,1,0-.4l1.93-2h-3a.27.27,0,0,1-.27-.28.26.26,0,0,1,.27-.27H203a.28.28,0,0,1,.28.27.28.28,0,0,1,0,.13A.41.41,0,0,1,203.23,240.35Z" style="fill:#f8f8f8"></path><path d="M209.77,246h-4.24a.25.25,0,0,1-.17-.05.26.26,0,0,1,0-.38l4.48-5.62h0a.26.26,0,0,1,.38,0,.28.28,0,0,1,.09.13s0,0,0,.05v0l0,5.33h.52a.27.27,0,1,1,0,.54h-.52v1.33a.27.27,0,0,1-.28.27.27.27,0,0,1-.26-.27Zm0-.53v-4.56l-3.67,4.57Z" style="fill:#f8f8f8"></path><path d="M219.53,246.83a.26.26,0,0,1,0-.39.28.28,0,0,1,.4,0,2.09,2.09,0,0,0,3.55-1.49,2.1,2.1,0,0,0-.61-1.48,2.1,2.1,0,0,0-2.94,0,.27.27,0,0,1-.39,0,.13.13,0,0,1-.07-.09h0a0,0,0,0,1,0,0,.25.25,0,0,1,0-.09.43.43,0,0,0,0-.05l.37-3.14a.22.22,0,0,1,.11-.2.23.23,0,0,1,.18-.07h3.62a.27.27,0,0,1,.28.28.27.27,0,0,1-.28.28h-3.39l-.27,2.31a2.67,2.67,0,0,1,1.32-.36A2.61,2.61,0,0,1,224,245a2.61,2.61,0,0,1-.76,1.87,2.7,2.7,0,0,1-1.87.77A2.63,2.63,0,0,1,219.53,246.83Z" style="fill:#f8f8f8"></path><path d="M226.92,241.5a3.16,3.16,0,0,1,2.72-1.7.27.27,0,0,1,.28.25.29.29,0,0,1-.27.29,2.65,2.65,0,0,0-2.26,1.42,5,5,0,0,0-.55,1.56,2.51,2.51,0,0,1,1.92-.88,2.57,2.57,0,1,1-2.56,2.66,2.85,2.85,0,0,1,0-.51A6.42,6.42,0,0,1,226.92,241.5Zm-.18,3.55a.68.68,0,0,0,0,.15.15.15,0,0,1,0,.07,2.08,2.08,0,1,0,0-.26Z" style="fill:#f8f8f8"></path><path d="M234.18,247.18l2.86-6.83h-3.76a.27.27,0,0,1,0-.54h4.11a.32.32,0,0,1,.17,0,.35.35,0,0,1,.15.17.24.24,0,0,1,0,.09.19.19,0,0,1,0,.14l-3,7.17a.27.27,0,0,1-.24.17.14.14,0,0,1-.11,0A.28.28,0,0,1,234.18,247.18Z" style="fill:#f8f8f8"></path><path d="M241.85,239.76a1.62,1.62,0,0,1,1,2.92,2.52,2.52,0,1,1-3.47,2.34,2.55,2.55,0,0,1,1.55-2.34,1.63,1.63,0,0,1-.65-1.31A1.6,1.6,0,0,1,241.85,239.76Zm0,7.24a2,2,0,0,0,0-4,2,2,0,0,0-2,2A2,2,0,0,0,241.87,247Zm0-4.53a1.12,1.12,0,0,0,1.09-1.11,1.09,1.09,0,0,0-2.17,0A1.1,1.1,0,0,0,241.85,242.47Z" style="fill:#f8f8f8"></path><path d="M255.68,239.72a2.56,2.56,0,0,1,2.56,2.26l0,.06,0,.66a6.51,6.51,0,0,1-.74,3.11,3.2,3.2,0,0,1-2.72,1.69h0a.26.26,0,0,1-.28-.25.28.28,0,0,1,.27-.29,2.66,2.66,0,0,0,2.26-1.42,4.83,4.83,0,0,0,.55-1.56,2.5,2.5,0,0,1-1.93.86,2.56,2.56,0,1,1,0-5.12Zm2,2.55a2,2,0,1,0-2,2A2,2,0,0,0,257.72,242.27Z" style="fill:#f8f8f8"></path><path d="M260.24,243.6a5,5,0,0,1,.74-2.73,2.4,2.4,0,0,1,1.94-1.17,2.45,2.45,0,0,1,1.95,1.16,5,5,0,0,1,.76,2.72,5,5,0,0,1-.75,2.72,2.2,2.2,0,0,1-3.89,0A4.88,4.88,0,0,1,260.24,243.6Zm.54,0a4.42,4.42,0,0,0,.67,2.41,1.65,1.65,0,0,0,3,0,4.64,4.64,0,0,0,0-4.82,1.66,1.66,0,0,0-3,0A4.43,4.43,0,0,0,260.78,243.6Z" style="fill:#f8f8f8"></path><path d="M269.22,240.47l-1.1.65a.29.29,0,0,1-.13,0,.29.29,0,0,1-.24-.14.25.25,0,0,1,.1-.36l1.5-.92a.29.29,0,0,1,.37.1.35.35,0,0,1,0,.2l0,7.15a.27.27,0,0,1-.53,0Z" style="fill:#f8f8f8"></path><path d="M271.68,247l3.62-3.29a2,2,0,0,0,.67-1.49,2,2,0,0,0-.53-1.33,2,2,0,0,0-1.48-.65,2,2,0,0,0-1.35.51l-.38.35a.27.27,0,0,1-.37-.39l.38-.36a2.63,2.63,0,0,1,1.72-.66,2.49,2.49,0,0,1,1.87.83,2.46,2.46,0,0,1,.67,1.7,2.54,2.54,0,0,1-.83,1.89l-3.1,2.82h3.68a.27.27,0,0,1,.26.28.27.27,0,0,1-.26.27h-4.38a.23.23,0,0,1-.2-.08A.29.29,0,0,1,271.68,247Z" style="fill:#f8f8f8"></path><path d="M289.59,240.12l-2,2.07a2.59,2.59,0,0,1,1.33.71,2.64,2.64,0,0,1,.77,1.87,2.59,2.59,0,0,1-.77,1.87,2.65,2.65,0,0,1-1.87.78,2.59,2.59,0,0,1-1.85-.77.26.26,0,0,1,0-.39.27.27,0,0,1,.39,0,2.09,2.09,0,0,0,3.56-1.49,2,2,0,0,0-.62-1.47,2,2,0,0,0-1.47-.6.29.29,0,0,1-.22-.12h0a.28.28,0,0,1,0-.4l1.93-2h-3a.27.27,0,0,1-.28-.28.28.28,0,0,1,.28-.28h3.63a.27.27,0,0,1,.28.28.24.24,0,0,1,0,.12A.28.28,0,0,1,289.59,240.12Z" style="fill:#f8f8f8"></path><path d="M296.14,245.8h-4.25a.2.2,0,0,1-.16-.06.25.25,0,0,1,0-.38l4.49-5.61h0a.26.26,0,0,1,.38,0,.67.67,0,0,1,.09.14s0,0,0,0v5.37h.52a.27.27,0,1,1,0,.53h-.52v1.34a.29.29,0,0,1-.28.27.28.28,0,0,1-.27-.27Zm0-.54,0-4.56-3.66,4.57Z" style="fill:#f8f8f8"></path><path d="M299.23,246.62a.26.26,0,0,1,0-.39.28.28,0,0,1,.4,0,2.12,2.12,0,0,0,1.47.6,2.08,2.08,0,1,0,0-4.16,2,2,0,0,0-1.47.62.27.27,0,0,1-.39,0,.18.18,0,0,1-.07-.09h0a.06.06,0,0,1,0,0,.22.22,0,0,1,0-.09.43.43,0,0,0,0-.05l.37-3.14a.23.23,0,0,1,.11-.2.26.26,0,0,1,.18-.06h3.62a.27.27,0,0,1,.28.27.27.27,0,0,1-.28.28H300l-.27,2.31a2.78,2.78,0,0,1,1.32-.36,2.63,2.63,0,0,1,2.63,2.63,2.61,2.61,0,0,1-.76,1.87,2.7,2.7,0,0,1-1.87.77A2.63,2.63,0,0,1,299.23,246.62Z" style="fill:#f8f8f8"></path><path d="M306.62,241.29a3.16,3.16,0,0,1,2.72-1.7.28.28,0,0,1,.28.26.29.29,0,0,1-.27.29,2.62,2.62,0,0,0-2.26,1.41,5.08,5.08,0,0,0-.55,1.56,2.56,2.56,0,1,1-.64,1.78,2.8,2.8,0,0,1,0-.51A6.44,6.44,0,0,1,306.62,241.29Zm-.18,3.56a.59.59,0,0,0,0,.14.19.19,0,0,1,0,.08,2.09,2.09,0,1,0,0-.27Z" style="fill:#f8f8f8"></path><rect x="190.56" y="260.93" width="67.86" height="3.33" transform="translate(-0.68 0.58) rotate(-0.15)" style="fill:#263238"></rect><rect x="190.58" y="268.36" width="48.04" height="3.33" transform="translate(-0.7 0.56) rotate(-0.15)" style="fill:#263238"></rect><rect x="249.05" y="205.05" width="33.84" height="3.33" transform="matrix(1, 0, 0, 1, -0.54, 0.69)" style="fill:#263238"></rect><path d="M179.47,175.31a.26.26,0,0,1,.25-.25h2.07a2.09,2.09,0,0,1,0,4.17l-1.81,0v2.87a.26.26,0,0,1-.26.25.26.26,0,0,1-.25-.25Zm2.32,3.43a1.59,1.59,0,0,0,0-3.17H180v3.17Z" style="fill:#263238"></path><path d="M189.74,177.51v4.61a.26.26,0,0,1-.25.25.25.25,0,0,1-.25-.25v-.76a2.41,2.41,0,0,1-1.92,1,2.56,2.56,0,0,1,0-5.12,2.38,2.38,0,0,1,1.92,1v-.75a.25.25,0,0,1,.25-.26A.26.26,0,0,1,189.74,177.51Zm-.5,2.3a1.92,1.92,0,1,0-1.92,2.06A2,2,0,0,0,189.24,179.81Z" style="fill:#263238"></path><path d="M191.81,177.49a.24.24,0,0,1,.24-.24.25.25,0,0,1,.26.24v2.78a1.57,1.57,0,0,0,1.56,1.58,1.59,1.59,0,0,0,1.59-1.58v-2.78a.17.17,0,0,1,0-.12v0h0a.3.3,0,0,1,.1-.07h.11l.13.06a.24.24,0,0,1,.06.08.19.19,0,0,1,0,.1V182a2.4,2.4,0,0,1-2.43,2.4,2.45,2.45,0,0,1-1.05-.24.25.25,0,0,1-.11-.33.26.26,0,0,1,.32-.13,1.89,1.89,0,0,0,.84.2,1.91,1.91,0,0,0,1.93-1.9v-.33a2.12,2.12,0,0,1-1.59.73,2.09,2.09,0,0,1-2.06-2.09Z" style="fill:#263238"></path><path d="M205.69,179.34a1.58,1.58,0,1,0-3.16,0v2.86a.28.28,0,0,1-.12.14l-.13,0h-.07l-.07,0,0,0,0,0s0,0,0,0v0a0,0,0,0,0,0,0v-2.84a1.58,1.58,0,1,0-3.15,0v2.79a.22.22,0,0,1-.12.2l-.06,0h-.1a.26.26,0,0,1-.21-.19v-4.67a.25.25,0,1,1,.49,0V178a2,2,0,0,1,1.57-.74,2.06,2.06,0,0,1,1.83,1.09,2.12,2.12,0,0,1,1.84-1.09,2.08,2.08,0,0,1,2.08,2.08v2.79a.25.25,0,0,1-.26.24.25.25,0,0,1-.24-.24Z" style="fill:#263238"></path><path d="M207.94,179.82a2.48,2.48,0,0,1,4.95-.19h0v0a.24.24,0,0,1-.25.23h-4.19a2,2,0,0,0,2,2,1.94,1.94,0,0,0,1.65-.93.23.23,0,0,1,.33-.08.26.26,0,0,1,.09.35,2.44,2.44,0,0,1-2.07,1.16A2.52,2.52,0,0,1,207.94,179.82Zm.54-.41h3.87a2,2,0,0,0-1.92-1.65A2,2,0,0,0,208.48,179.41Z" style="fill:#263238"></path><path d="M218.32,179.34a1.57,1.57,0,0,0-1.57-1.57,1.6,1.6,0,0,0-1.59,1.57v2.82a.31.31,0,0,1,0,.12.23.23,0,0,1-.19.09h-.06a.26.26,0,0,1-.17-.14,0,0,0,0,1,0,0v-4.68a.25.25,0,1,1,.49,0V178a2.07,2.07,0,0,1,3.66,1.33v2.78a.25.25,0,0,1-.25.25.25.25,0,0,1-.25-.25Z" style="fill:#263238"></path><path d="M222.86,177.51a.28.28,0,0,1-.25.25H222v3.72a.4.4,0,0,0,.38.38.26.26,0,1,1,0,.51.87.87,0,0,1-.9-.89v-3.72h-.64c-.25,0-.25-.13-.25-.25s0-.26.25-.26h.64v-1.9a.27.27,0,0,1,.25-.25.29.29,0,0,1,.27.25v1.9h.66A.28.28,0,0,1,222.86,177.51Z" style="fill:#263238"></path><path d="M235.7,179.34a1.61,1.61,0,0,0-1.59-1.58,1.59,1.59,0,0,0-1.57,1.58v2.86a.29.29,0,0,1-.13.14.27.27,0,0,1-.12,0h-.08l-.06,0,0,0,0,0s0,0,0,0v0a0,0,0,0,0,0,0v-2.84a1.58,1.58,0,1,0-3.16,0v2.79a.23.23,0,0,1-.11.2l-.06,0h-.11a.28.28,0,0,1-.21-.19v-4.67a.25.25,0,0,1,.24-.25.24.24,0,0,1,.25.25V178a2.06,2.06,0,0,1,1.58-.74,2.09,2.09,0,0,1,1.83,1.09,2.1,2.1,0,0,1,1.83-1.09,2.08,2.08,0,0,1,2.08,2.08v2.79a.25.25,0,0,1-.25.24.25.25,0,0,1-.24-.24Z" style="fill:#263238"></path><path d="M238,179.82a2.48,2.48,0,0,1,5-.19h0v0a.24.24,0,0,1-.25.23h-4.2a2,2,0,0,0,2,2,1.92,1.92,0,0,0,1.64-.93.24.24,0,0,1,.34-.08.26.26,0,0,1,.08.35,2.44,2.44,0,0,1-2.06,1.16A2.52,2.52,0,0,1,238,179.82Zm.53-.41h3.88a2,2,0,0,0-1.92-1.65A2,2,0,0,0,238.48,179.41Z" style="fill:#263238"></path><path d="M246,177.51a.27.27,0,0,1-.25.25h-.65v3.72a.4.4,0,0,0,.37.38.26.26,0,1,1,0,.51.88.88,0,0,1-.9-.89v-3.72H244c-.25,0-.25-.13-.25-.25s0-.26.25-.26h.63v-1.9a.28.28,0,0,1,.25-.25.29.29,0,0,1,.28.25v1.9h.65A.27.27,0,0,1,246,177.51Z" style="fill:#263238"></path><path d="M252,179.27a1.63,1.63,0,0,0-3.25,0v2.88s0,0,0,0,0,0,0,0a.23.23,0,0,1-.16.13h-.07a.3.3,0,0,1-.2-.08l0-.09a.22.22,0,0,1,0-.08v-6.81a.25.25,0,0,1,.25-.25.26.26,0,0,1,.26.25V178a2.12,2.12,0,0,1,1.62-.76,2,2,0,0,1,2.14,2v2.85a.26.26,0,0,1-.26.25.25.25,0,0,1-.25-.25Z" style="fill:#263238"></path><path d="M256.81,177.25a2.56,2.56,0,1,1-2.42,2.56A2.5,2.5,0,0,1,256.81,177.25Zm0,4.62a2.07,2.07,0,1,0-1.92-2.06A2,2,0,0,0,256.81,181.87Z" style="fill:#263238"></path><path d="M265.25,181.38a2.45,2.45,0,0,1-2,1,2.56,2.56,0,0,1,0-5.12,2.44,2.44,0,0,1,2,1v-2.95a.26.26,0,0,1,.51,0v6.81a.26.26,0,0,1-.51,0Zm0-1.47v-.17a2,2,0,1,0,0,.17Z" style="fill:#263238"></path><path d="M181.36,126.41h-2.2a.25.25,0,0,1-.25-.26.25.25,0,0,1,.25-.25h4.91a.26.26,0,0,1,.25.25.26.26,0,0,1-.25.26h-2.21V133a.25.25,0,0,1-.25.25.25.25,0,0,1-.25-.25Z" style="fill:#263238"></path><path d="M186.9,128.1a2.56,2.56,0,1,1-2.42,2.55A2.5,2.5,0,0,1,186.9,128.1Zm0,4.61a2.07,2.07,0,1,0-1.92-2.06A2,2,0,0,0,186.9,132.71Z" style="fill:#263238"></path><path d="M192.83,128.35a.27.27,0,0,1-.25.25h-.66v3.72a.4.4,0,0,0,.38.38.29.29,0,0,1,.26.26.28.28,0,0,1-.26.25.88.88,0,0,1-.9-.89V128.6h-.64c-.25,0-.25-.13-.25-.25s0-.25.25-.25h.64v-1.9a.27.27,0,0,1,.25-.25.27.27,0,0,1,.27.25v1.9h.66A.26.26,0,0,1,192.83,128.35Z" style="fill:#263238"></path><path d="M199.2,128.35V133a.25.25,0,0,1-.5,0v-.76a2.41,2.41,0,0,1-1.92,1,2.56,2.56,0,0,1,0-5.11,2.37,2.37,0,0,1,1.92,1v-.75a.25.25,0,1,1,.5,0Zm-.5,2.3a1.92,1.92,0,1,0-1.92,2.06A2,2,0,0,0,198.7,130.65Z" style="fill:#263238"></path><path d="M201.59,126.15a.26.26,0,0,1,.25-.25.27.27,0,0,1,.27.25V133a.26.26,0,0,1-.27.25.25.25,0,0,1-.25-.25Z" style="fill:#263238"></path><path d="M207.26,130.74v-2.39a.25.25,0,0,1,.25-.25.26.26,0,0,1,.26.25v.74a2.38,2.38,0,0,1,1.94-1,2.54,2.54,0,0,1,0,5.08,2.39,2.39,0,0,1-1.94-1v2.92a.26.26,0,0,1-.26.25.25.25,0,0,1-.25-.25Zm.51-.11a2,2,0,1,0,3.9,0,2,2,0,1,0-3.9-.08Z" style="fill:#263238"></path><path d="M214.15,128.36a.25.25,0,1,1,.5,0v1.12a.75.75,0,0,1,.07-.12,2.47,2.47,0,0,1,2.05-1.25.25.25,0,0,1,.25.25.26.26,0,0,1-.25.25,1.82,1.82,0,0,0-1.48.83,4.37,4.37,0,0,0-.62,1.19.16.16,0,0,0,0,.09V133a.25.25,0,1,1-.5,0Z" style="fill:#263238"></path><path d="M218.74,126.68a.25.25,0,0,1,.25-.25.25.25,0,0,1,.26.25v.24a.27.27,0,0,1-.26.27.27.27,0,0,1-.25-.27Zm0,1.67a.25.25,0,0,1,.25-.25.24.24,0,0,1,.26.25V133a.25.25,0,0,1-.26.25.25.25,0,0,1-.25-.25Z" style="fill:#263238"></path><path d="M221.3,130.64a2.64,2.64,0,0,1,4.26-2,.22.22,0,0,1,0,.34.25.25,0,0,1-.34.05,2.08,2.08,0,1,0-1.32,3.66,2.19,2.19,0,0,0,1.32-.45.26.26,0,0,1,.34,0,.24.24,0,0,1-.05.37,2.66,2.66,0,0,1-1.61.54A2.58,2.58,0,0,1,221.3,130.64Z" style="fill:#263238"></path><path d="M227.11,130.66a2.48,2.48,0,0,1,4.95-.18h0v0a.24.24,0,0,1-.25.23h-4.2a2,2,0,0,0,2,2,1.93,1.93,0,0,0,1.65-.93.24.24,0,0,1,.34-.08.27.27,0,0,1,.08.35,2.44,2.44,0,0,1-2.07,1.16A2.52,2.52,0,0,1,227.11,130.66Zm.53-.4h3.87a2,2,0,0,0-1.92-1.66A2,2,0,0,0,227.64,130.26Z" style="fill:#263238"></path><path d="M185.43,140a.9.9,0,0,1,.9.9v.46a7.66,7.66,0,0,1,3.24,1.15,1.12,1.12,0,0,1,.62,1,1.15,1.15,0,0,1-1.17,1.15,1.12,1.12,0,0,1-.62-.19,7.79,7.79,0,0,0-2.16-.92v4c3.18.8,4.54,2.07,4.54,4.31s-1.8,3.82-4.45,4.07v1.26a.89.89,0,0,1-.9.89.91.91,0,0,1-.92-.89v-1.3a9,9,0,0,1-4.28-1.63,1.15,1.15,0,0,1,.58-2.15,1.12,1.12,0,0,1,.69.23,7.4,7.4,0,0,0,3.09,1.4v-4.12c-3.05-.79-4.47-1.94-4.47-4.3s1.78-3.78,4.39-4v-.44A.91.91,0,0,1,185.43,140Zm-.84,7.13v-3.7c-1.33.12-2,.83-2,1.75S183,146.56,184.59,147.09Zm1.65,2.9v3.8c1.34-.14,2.07-.81,2.07-1.82S187.85,150.49,186.24,150Z" style="fill:#FFC727"></path><path d="M202.72,150.93a5,5,0,1,1-7.75-4.16,3.35,3.35,0,0,1-.69-2.07,3.45,3.45,0,0,1,6.9,0,3.35,3.35,0,0,1-.69,2.07A5,5,0,0,1,202.72,150.93Zm-2.27,0a2.73,2.73,0,0,0-2.7-2.72,2.71,2.71,0,1,0,0,5.41A2.7,2.7,0,0,0,200.45,150.93Zm-3.89-6.23a1.17,1.17,0,1,0,2.34,0,1.17,1.17,0,0,0-2.34,0Z" style="fill:#FFC727"></path><path d="M206,146.33a5.07,5.07,0,0,1,10.12-.52s0,0,0,0c0,.4,0,.8,0,1.19a12.33,12.33,0,0,1-.73,4.29,7.34,7.34,0,0,1-2.7,3.57,6,6,0,0,1-3.13,1,1.16,1.16,0,0,1-1.21-1.11,1.2,1.2,0,0,1,1.12-1.21,3.85,3.85,0,0,0,2-.58,4.27,4.27,0,0,0,1.31-1.47,3.91,3.91,0,0,0,.28-.54,5,5,0,0,1-2,.42A5.07,5.07,0,0,1,206,146.33Zm2.32,0a2.75,2.75,0,1,0,5.5,0,2.75,2.75,0,0,0-5.5,0Z" style="fill:#FFC727"></path><path d="M219.46,157.78a1.8,1.8,0,0,0,1.42-1.88,1.53,1.53,0,0,1-1.2-1.42v-.17a1.36,1.36,0,0,1,1.43-1.4c.94,0,1.5.71,1.5,1.84V155a4.19,4.19,0,0,1-1,3.05,3.15,3.15,0,0,1-2,.9.58.58,0,0,1-.65-.58A.59.59,0,0,1,219.46,157.78Z" style="fill:#FFC727"></path><path d="M224,146.33a5.07,5.07,0,0,1,10.11-.52s0,0,0,0c0,.4,0,.8,0,1.19a12.1,12.1,0,0,1-.73,4.29,7.32,7.32,0,0,1-2.69,3.57,6,6,0,0,1-3.14,1,1.17,1.17,0,0,1-1.21-1.11,1.21,1.21,0,0,1,1.13-1.21,3.84,3.84,0,0,0,2-.58,4.19,4.19,0,0,0,1.32-1.47,3,3,0,0,0,.27-.54,4.91,4.91,0,0,1-2,.42A5.07,5.07,0,0,1,224,146.33Zm2.32,0a2.75,2.75,0,1,0,5.49,0,2.75,2.75,0,0,0-5.49,0Z" style="fill:#FFC727"></path><path d="M237.44,146.33a5.07,5.07,0,0,1,10.11-.52s0,0,0,0c0,.4.05.8.05,1.19a12.11,12.11,0,0,1-.74,4.29,7.26,7.26,0,0,1-2.69,3.57,6,6,0,0,1-3.13,1,1.17,1.17,0,0,1-1.22-1.11,1.21,1.21,0,0,1,1.13-1.21,3.88,3.88,0,0,0,2-.58,4.27,4.27,0,0,0,1.31-1.47,3,3,0,0,0,.27-.54,4.91,4.91,0,0,1-2,.42A5.07,5.07,0,0,1,237.44,146.33Zm2.32,0a2.75,2.75,0,1,0,5.49,0,2.75,2.75,0,0,0-5.49,0Z" style="fill:#FFC727"></path><path d="M214.83,98.3a.25.25,0,0,1,.25-.25h2.06a2.08,2.08,0,1,1,0,4.16l-1.8,0v2.87a.26.26,0,0,1-.26.26.26.26,0,0,1-.25-.26Zm2.31,3.42a1.58,1.58,0,1,0,0-3.16h-1.8v3.16Z" style="fill:#263238"></path><path d="M225.09,100.49v4.61a.26.26,0,0,1-.25.26.26.26,0,0,1-.25-.26v-.76a2.39,2.39,0,0,1-1.92,1,2.56,2.56,0,0,1,0-5.12,2.4,2.4,0,0,1,1.92,1v-.75a.25.25,0,0,1,.25-.25A.24.24,0,0,1,225.09,100.49Zm-.5,2.31a1.92,1.92,0,1,0-1.92,2A2,2,0,0,0,224.59,102.8Z" style="fill:#263238"></path><path d="M227.16,100.48a.25.25,0,0,1,.5,0v2.78a1.58,1.58,0,0,0,3.15,0v-2.78a.24.24,0,0,1,.05-.13s0,0,0,0h0a.18.18,0,0,1,.09-.06h.12l.12.05a.2.2,0,0,1,.06.09.14.14,0,0,1,0,.1V105a2.42,2.42,0,0,1-2.44,2.4,2.65,2.65,0,0,1-1-.24.25.25,0,0,1-.1-.34.27.27,0,0,1,.32-.12,2,2,0,0,0,.83.2,1.92,1.92,0,0,0,1.93-1.9v-.34a2.07,2.07,0,0,1-3.65-1.35Z" style="fill:#263238"></path><path d="M241.05,102.33a1.61,1.61,0,0,0-1.59-1.59,1.59,1.59,0,0,0-1.57,1.59v2.82l0,0v0a.25.25,0,0,1-.12.13.28.28,0,0,1-.13,0h-.05s0,0,0,0,0,0-.06,0l0,0,0,0,0,0,0,0a0,0,0,0,0,0,0,0,0,0,0,0,0,0v-2.84a1.58,1.58,0,1,0-3.15,0v2.78a.22.22,0,0,1-.11.2l-.07,0s0,0,0,0h-.06a.31.31,0,0,1-.21-.19v-4.68a.24.24,0,0,1,.24-.24.23.23,0,0,1,.25.24V101a2.07,2.07,0,0,1,3.4.36,2.13,2.13,0,0,1,1.84-1.09,2.08,2.08,0,0,1,2.08,2.08v2.78a.25.25,0,0,1-.25.25.25.25,0,0,1-.24-.25Z" style="fill:#263238"></path><path d="M243.3,102.81a2.48,2.48,0,0,1,4.95-.19h0v0a.24.24,0,0,1-.25.23h-4.2a2,2,0,0,0,2,2,1.92,1.92,0,0,0,1.65-.92.25.25,0,0,1,.34-.09.28.28,0,0,1,.08.36,2.44,2.44,0,0,1-2.07,1.16A2.51,2.51,0,0,1,243.3,102.81Zm.53-.41h3.87a2,2,0,0,0-1.92-1.66A2,2,0,0,0,243.83,102.4Z" style="fill:#263238"></path><path d="M253.68,102.33a1.58,1.58,0,0,0-1.58-1.58,1.61,1.61,0,0,0-1.59,1.58v2.82a.22.22,0,0,1,0,.11.23.23,0,0,1-.19.1h-.06a.32.32,0,0,1-.16-.14s0,0,0,0V100.5a.25.25,0,0,1,.25-.25.25.25,0,0,1,.24.25V101a2.08,2.08,0,0,1,3.67,1.34v2.77a.26.26,0,0,1-.25.26.25.25,0,0,1-.25-.26Z" style="fill:#263238"></path><path d="M258.21,100.49a.26.26,0,0,1-.25.25h-.66v3.73a.39.39,0,0,0,.38.37.3.3,0,0,1,.26.26.29.29,0,0,1-.26.26.88.88,0,0,1-.9-.89v-3.73h-.64c-.25,0-.25-.12-.25-.25s0-.25.25-.25h.64v-1.9a.27.27,0,0,1,.25-.25.27.27,0,0,1,.27.25v1.9H258A.27.27,0,0,1,258.21,100.49Z" style="fill:#263238"></path><path d="M264.12,105.36h0a.27.27,0,0,1-.23-.26V98.3a.25.25,0,0,1,.25-.25h1.37a3.66,3.66,0,0,1,0,7.31Zm1.35-.52a3.14,3.14,0,1,0,0-6.28h-1.11v6.28Z" style="fill:#263238"></path><path d="M274.6,100.49v4.61a.26.26,0,0,1-.25.26.26.26,0,0,1-.25-.26v-.76a2.39,2.39,0,0,1-1.93,1,2.56,2.56,0,0,1,0-5.12,2.4,2.4,0,0,1,1.93,1v-.75a.24.24,0,0,1,.25-.25A.25.25,0,0,1,274.6,100.49Zm-.5,2.31a1.93,1.93,0,1,0-1.93,2A2,2,0,0,0,274.1,102.8Z" style="fill:#263238"></path><path d="M278.56,100.49a.27.27,0,0,1-.25.25h-.66v3.73a.39.39,0,0,0,.37.37.3.3,0,0,1,.27.26.29.29,0,0,1-.27.26.87.87,0,0,1-.89-.89v-3.73h-.64c-.25,0-.25-.12-.25-.25s0-.25.25-.25h.64v-1.9a.26.26,0,0,1,.25-.25.28.28,0,0,1,.27.25v1.9h.66A.28.28,0,0,1,278.56,100.49Z" style="fill:#263238"></path><path d="M284.93,100.49v4.61a.26.26,0,0,1-.25.26.26.26,0,0,1-.25-.26v-.76a2.39,2.39,0,0,1-1.93,1,2.56,2.56,0,0,1,0-5.12,2.4,2.4,0,0,1,1.93,1v-.75a.24.24,0,0,1,.25-.25A.25.25,0,0,1,284.93,100.49Zm-.5,2.31a1.93,1.93,0,1,0-1.93,2A2,2,0,0,0,284.43,102.8Z" style="fill:#263238"></path><polygon points="184.04 104.69 180.59 101.46 184.04 98.22 184.75 98.98 182.11 101.46 184.75 103.93 184.04 104.69" style="fill:#FFC727"></polygon><path d="M183.46,107.05a5.6,5.6,0,1,1,5.6-5.59A5.6,5.6,0,0,1,183.46,107.05Zm0-10.14a4.55,4.55,0,1,0,4.55,4.55A4.55,4.55,0,0,0,183.46,96.91Z" style="fill:#FFC727"></path><circle cx="316.51" cy="286.09" r="11.27" style="fill:#FFC727"></circle><polygon points="313.3 293.31 309.08 286.72 310.84 285.6 313.49 289.74 321.75 279.41 323.38 280.71 313.3 293.31" style="fill:#fff"></polygon><path d="M253.23,297.89a3.3,3.3,0,1,1-3.29-3.29A3.29,3.29,0,0,1,253.23,297.89Z" style="fill:#FFC727"></path><path d="M234.68,297.89a2.43,2.43,0,1,1-2.43-2.43A2.43,2.43,0,0,1,234.68,297.89Z" style="fill:#ebebeb"></path><path d="M270.18,297.89a2.43,2.43,0,1,1-2.43-2.43A2.43,2.43,0,0,1,270.18,297.89Z" style="fill:#ebebeb"></path><path d="M179.14,321.11a.22.22,0,0,1,.32,0,4,4,0,0,0,2.4.94,2.77,2.77,0,0,0,1.61-.48,1.34,1.34,0,0,0,.63-1.08,1.18,1.18,0,0,0-.6-1,4.67,4.67,0,0,0-1.69-.59h0a4.53,4.53,0,0,1-1.72-.62,1.51,1.51,0,0,1-.75-1.27,1.72,1.72,0,0,1,.76-1.37,3,3,0,0,1,1.76-.53,4,4,0,0,1,2.26.85.23.23,0,0,1,.06.32.21.21,0,0,1-.31.06,3.69,3.69,0,0,0-2-.77,2.63,2.63,0,0,0-1.49.44,1.24,1.24,0,0,0-.57,1,1,1,0,0,0,.54.89,4.16,4.16,0,0,0,1.56.55h0a5.1,5.1,0,0,1,1.85.67,1.64,1.64,0,0,1,.81,1.38,1.86,1.86,0,0,1-.83,1.46,3.25,3.25,0,0,1-1.88.57,4.58,4.58,0,0,1-2.69-1.05A.26.26,0,0,1,179.14,321.11Z" style="fill:#263238"></path><path d="M190.61,317.62v4.61a.25.25,0,0,1-.25.25.25.25,0,0,1-.25-.25v-.76a2.35,2.35,0,0,1-1.92,1,2.56,2.56,0,0,1,0-5.11,2.34,2.34,0,0,1,1.92,1v-.75a.25.25,0,0,1,.25-.25A.24.24,0,0,1,190.61,317.62Zm-.5,2.3a1.92,1.92,0,1,0-1.92,2.06A2,2,0,0,0,190.11,319.92Z" style="fill:#263238"></path><path d="M194.22,322.44a.31.31,0,0,1-.08-.11l-1.92-4.58a.25.25,0,0,1,.12-.32.24.24,0,0,1,.32.13l1.71,4,1.7-4a.25.25,0,0,1,.32-.13.24.24,0,0,1,.13.32l-1.91,4.53a.33.33,0,0,1-.07.13.21.21,0,0,1-.16.07h-.11Z" style="fill:#263238"></path><path d="M198,319.94a2.48,2.48,0,0,1,5-.19h0v0a.24.24,0,0,1-.25.23h-4.2a2,2,0,0,0,2,2,1.9,1.9,0,0,0,1.64-.93.26.26,0,0,1,.34-.08.27.27,0,0,1,.08.35,2.44,2.44,0,0,1-2.06,1.16A2.52,2.52,0,0,1,198,319.94Zm.53-.41h3.88a2,2,0,0,0-3.88,0Z" style="fill:#263238"></path><path d="M207.47,319.91a2.57,2.57,0,0,1,2.63-2.54,2.66,2.66,0,0,1,1.63.56.22.22,0,0,1,0,.34.25.25,0,0,1-.34.05,2.06,2.06,0,0,0-1.32-.46,2.06,2.06,0,1,0,0,4.12,2.17,2.17,0,0,0,1.32-.45.26.26,0,0,1,.34,0,.24.24,0,0,1,0,.37,2.66,2.66,0,0,1-1.61.54A2.58,2.58,0,0,1,207.47,319.91Z" style="fill:#263238"></path><path d="M218.09,317.62v4.61a.25.25,0,0,1-.25.25.25.25,0,0,1-.25-.25v-.76a2.36,2.36,0,0,1-1.92,1,2.56,2.56,0,0,1,0-5.11,2.35,2.35,0,0,1,1.92,1v-.75a.25.25,0,0,1,.25-.25A.24.24,0,0,1,218.09,317.62Zm-.5,2.3a1.92,1.92,0,1,0-1.92,2.06A2,2,0,0,0,217.59,319.92Z" style="fill:#263238"></path><path d="M220.27,317.63a.25.25,0,1,1,.5,0v1.13a.54.54,0,0,1,.07-.13,2.47,2.47,0,0,1,2-1.25.25.25,0,0,1,.25.25.26.26,0,0,1-.25.25,1.82,1.82,0,0,0-1.48.83,4.37,4.37,0,0,0-.62,1.19.2.2,0,0,0,0,.09v2.24a.25.25,0,1,1-.5,0Z" style="fill:#263238"></path><path d="M228.68,321.49a2.39,2.39,0,0,1-2,1,2.56,2.56,0,0,1,0-5.11,2.4,2.4,0,0,1,2,1v-2.95a.26.26,0,0,1,.27-.24.25.25,0,0,1,.25.24v6.81a.25.25,0,0,1-.25.25.26.26,0,0,1-.27-.25Zm0-1.47v-.17a2,2,0,1,0,0,.17Z" style="fill:#263238"></path><path d="M238.27,319.45a1.57,1.57,0,0,0-1.57-1.57,1.6,1.6,0,0,0-1.59,1.57v2.82a.26.26,0,0,1-.05.12.23.23,0,0,1-.19.09h-.06a.26.26,0,0,1-.17-.13s0,0,0,0v-4.68a.25.25,0,1,1,.49,0v.49a2.07,2.07,0,0,1,3.66,1.33v2.78a.24.24,0,0,1-.25.25.25.25,0,0,1-.25-.25Z" style="fill:#263238"></path><path d="M240.92,317.61a.24.24,0,0,1,.25-.25.25.25,0,0,1,.25.25v2.78a1.58,1.58,0,1,0,3.15,0v-2.78a.25.25,0,0,1,.25-.25.24.24,0,0,1,.26.25v2.78a2.08,2.08,0,1,1-4.16,0Z" style="fill:#263238"></path><path d="M254.74,319.45a1.61,1.61,0,0,0-1.59-1.58,1.59,1.59,0,0,0-1.57,1.58v2.86a.23.23,0,0,1-.13.14.27.27,0,0,1-.12,0h-.07a.15.15,0,0,1-.07,0l0,0,0,0,0,0v0a0,0,0,0,0,0,0s0,0,0,0v-2.84a1.58,1.58,0,1,0-3.16,0v2.79a.22.22,0,0,1-.11.2l-.06,0h-.11a.27.27,0,0,1-.21-.19v-4.67a.24.24,0,0,1,.24-.24.23.23,0,0,1,.25.24v.49a2,2,0,0,1,1.58-.73,2.1,2.1,0,0,1,1.83,1.08,2.11,2.11,0,0,1,1.83-1.08,2.08,2.08,0,0,1,2.08,2.07v2.79a.24.24,0,0,1-.25.24.24.24,0,0,1-.24-.24Z" style="fill:#263238"></path><path d="M257.36,320v-4.62a.25.25,0,0,1,.25-.24.25.25,0,0,1,.26.24v2.95a2.43,2.43,0,0,1,2-1,2.56,2.56,0,0,1,0,5.11,2.42,2.42,0,0,1-2-1v.74a.26.26,0,0,1-.26.25.25.25,0,0,1-.25-.25Zm.51-.1a2,2,0,1,0,0-.09Z" style="fill:#263238"></path><path d="M263.89,319.94a2.47,2.47,0,1,1,4.94-.19h0v0a.24.24,0,0,1-.25.23h-4.19a2,2,0,0,0,2,2,1.92,1.92,0,0,0,1.65-.93.25.25,0,0,1,.33-.08.26.26,0,0,1,.09.35,2.44,2.44,0,0,1-2.07,1.16A2.51,2.51,0,0,1,263.89,319.94Zm.53-.41h3.87a2,2,0,0,0-1.92-1.66A2,2,0,0,0,264.42,319.53Z" style="fill:#263238"></path><path d="M270.39,317.63a.25.25,0,0,1,.26-.25.24.24,0,0,1,.24.25v1.13a.35.35,0,0,1,.08-.13,2.44,2.44,0,0,1,2-1.25.24.24,0,0,1,.25.25.25.25,0,0,1-.25.25,1.82,1.82,0,0,0-1.48.83,5,5,0,0,0-.62,1.19.2.2,0,0,0,0,.09v2.24a.24.24,0,0,1-.24.25.25.25,0,0,1-.26-.25Z" style="fill:#263238"></path><rect x="295.14" y="313.61" width="24.33" height="10.77" rx="5.15" style="fill:#FFC727;opacity:0.5"></rect><path d="M318.6,319a4.58,4.58,0,1,1-4.58-4.58A4.58,4.58,0,0,1,318.6,319Z" style="fill:#FFC727"></path><rect x="191.32" y="349.56" width="117.22" height="22.45" style="fill:#FFC727"></rect><path d="M201.45,356.54a.26.26,0,0,1,.25-.26h2.06a2.09,2.09,0,0,1,0,4.17l-1.8,0v2.87a.26.26,0,0,1-.26.25.25.25,0,0,1-.25-.25Zm2.31,3.42a1.6,1.6,0,0,0,1.58-1.59,1.58,1.58,0,0,0-1.58-1.57H202V360Z" style="fill:#fff"></path><path d="M207.42,358.74a.25.25,0,0,1,.26-.25.24.24,0,0,1,.24.25v1.13a.35.35,0,0,1,.08-.13,2.44,2.44,0,0,1,2-1.25.24.24,0,0,1,.25.25.25.25,0,0,1-.25.25,1.82,1.82,0,0,0-1.48.83,4.86,4.86,0,0,0-.62,1.19.18.18,0,0,0,0,.09v2.24a.24.24,0,0,1-.24.25.25.25,0,0,1-.26-.25Z" style="fill:#fff"></path><path d="M213.93,358.48a2.56,2.56,0,1,1-2.42,2.55A2.5,2.5,0,0,1,213.93,358.48Zm0,4.61A2.07,2.07,0,1,0,212,361,2,2,0,0,0,213.93,363.09Z" style="fill:#fff"></path><path d="M217.91,361a2.57,2.57,0,0,1,2.63-2.54,2.68,2.68,0,0,1,1.63.56.25.25,0,0,1,0,.35.27.27,0,0,1-.35,0,2,2,0,0,0-1.31-.46,2.06,2.06,0,1,0,0,4.12,2.14,2.14,0,0,0,1.31-.45.27.27,0,0,1,.35,0,.26.26,0,0,1,0,.37,2.69,2.69,0,0,1-1.61.54A2.58,2.58,0,0,1,217.91,361Z" style="fill:#fff"></path><path d="M223.71,361a2.48,2.48,0,0,1,4.95-.18h0v0a.24.24,0,0,1-.25.23h-4.19a2,2,0,0,0,2,2,1.92,1.92,0,0,0,1.65-.93.25.25,0,0,1,.33-.08.26.26,0,0,1,.09.35,2.44,2.44,0,0,1-2.07,1.16A2.52,2.52,0,0,1,223.71,361Zm.54-.4h3.87A2,2,0,0,0,226.2,359,2,2,0,0,0,224.25,360.64Z" style="fill:#fff"></path><path d="M230.08,361a2.47,2.47,0,0,1,4.94-.18h0v0a.24.24,0,0,1-.25.23h-4.19a2,2,0,0,0,2,2,1.92,1.92,0,0,0,1.65-.93.25.25,0,0,1,.33-.08.26.26,0,0,1,.09.35,2.44,2.44,0,0,1-2.07,1.16A2.51,2.51,0,0,1,230.08,361Zm.53-.4h3.87a2,2,0,0,0-1.92-1.66A2,2,0,0,0,230.61,360.64Z" style="fill:#fff"></path><path d="M240.89,362.6a2.42,2.42,0,0,1-2,1,2.56,2.56,0,0,1,0-5.11,2.43,2.43,0,0,1,2,1v-2.94a.26.26,0,0,1,.26-.26.26.26,0,0,1,.25.26v6.8a.25.25,0,0,1-.25.25.26.26,0,0,1-.26-.25Zm0-1.47V361a2,2,0,1,0,0,.17Z" style="fill:#fff"></path><path d="M248.61,358.73a.27.27,0,0,1-.25.25h-.66v3.72a.4.4,0,0,0,.38.38.29.29,0,0,1,.26.26.27.27,0,0,1-.26.25.87.87,0,0,1-.9-.89V359h-.63c-.25,0-.25-.13-.25-.25s0-.25.25-.25h.63v-1.9a.27.27,0,0,1,.25-.25.27.27,0,0,1,.27.25v1.9h.66A.26.26,0,0,1,248.61,358.73Z" style="fill:#fff"></path><path d="M253,358.48a2.56,2.56,0,1,1-2.42,2.55A2.5,2.5,0,0,1,253,358.48Zm0,4.61a2.07,2.07,0,1,0-1.92-2.06A2,2,0,0,0,253,363.09Z" style="fill:#fff"></path><path d="M260.14,361a2.57,2.57,0,0,1,2.63-2.54,2.66,2.66,0,0,1,1.63.56.24.24,0,0,1,0,.35.27.27,0,0,1-.35,0,2,2,0,0,0-1.32-.46,2.06,2.06,0,1,0,0,4.12,2.15,2.15,0,0,0,1.32-.45.27.27,0,0,1,.35,0,.25.25,0,0,1-.06.37,2.66,2.66,0,0,1-1.61.54A2.58,2.58,0,0,1,260.14,361Z" style="fill:#fff"></path><path d="M268.5,358.48a2.56,2.56,0,1,1-2.42,2.55A2.5,2.5,0,0,1,268.5,358.48Zm0,4.61a2.07,2.07,0,1,0-1.92-2.06A2,2,0,0,0,268.5,363.09Z" style="fill:#fff"></path><path d="M276.5,360.56a1.57,1.57,0,0,0-1.58-1.57,1.6,1.6,0,0,0-1.58,1.57v2.82a.17.17,0,0,1-.06.12.21.21,0,0,1-.18.09H273a.26.26,0,0,1-.16-.13,0,0,0,0,1,0,0,0,0,0,0,0,0,0v-4.66a.24.24,0,0,1,.25-.25.25.25,0,0,1,.24.25v.49a2.06,2.06,0,0,1,1.58-.74,2.08,2.08,0,0,1,2.08,2.07v2.78a.25.25,0,0,1-.5,0Z" style="fill:#fff"></path><path d="M281.5,356.56a.25.25,0,0,1-.25.25.84.84,0,0,0-.65.19,1.32,1.32,0,0,0-.2.85v.54h.72a.26.26,0,0,1,.26.25.26.26,0,0,1-.26.26h-.72v4.45a.25.25,0,0,1-.25.25.26.26,0,0,1-.27-.25V358.9h-.67a.25.25,0,0,1-.25-.26.25.25,0,0,1,.25-.25h.67v-.54a1.82,1.82,0,0,1,.34-1.19,1.37,1.37,0,0,1,1-.37A.26.26,0,0,1,281.5,356.56Z" style="fill:#fff"></path><path d="M283,357.06a.26.26,0,0,1,.51,0v.24a.26.26,0,1,1-.51,0Zm0,1.67a.24.24,0,0,1,.25-.25.24.24,0,0,1,.26.25v4.61a.26.26,0,0,1-.51,0Z" style="fill:#fff"></path><path d="M286,358.74a.25.25,0,0,1,.26-.25.24.24,0,0,1,.24.25v1.13l.08-.13a2.44,2.44,0,0,1,2-1.25.24.24,0,0,1,.25.25.25.25,0,0,1-.25.25,1.85,1.85,0,0,0-1.48.83,4.73,4.73,0,0,0-.61,1.19.13.13,0,0,0,0,.09v2.24a.24.24,0,0,1-.24.25.25.25,0,0,1-.26-.25Z" style="fill:#fff"></path><path d="M297.87,360.56a1.59,1.59,0,0,0-3.17,0v2.87a.25.25,0,0,1-.12.13.31.31,0,0,1-.13,0h-.07l-.06,0,0,0,0,0,0,0v0a.06.06,0,0,0,0,0v-2.84a1.58,1.58,0,1,0-3.15,0v2.79a.21.21,0,0,1-.12.2l-.06,0h-.1a.26.26,0,0,1-.21-.19v-4.67a.24.24,0,0,1,.24-.24.24.24,0,0,1,.25.24v.49a2,2,0,0,1,1.57-.73,2.08,2.08,0,0,1,1.83,1.08,2.14,2.14,0,0,1,1.84-1.08,2.08,2.08,0,0,1,2.08,2.07v2.79a.25.25,0,0,1-.25.24.24.24,0,0,1-.24-.24Z" style="fill:#fff"></path></g><g id="freepik--Character--inject-39"><path d="M312.55,432c2.37.44,67.07-8.89,69.31-10.81.86-.72.05-10.23-1.26-21.69,0-.12,0-.24,0-.36-.27-2.36-8.54-41.48-8.54-41.48l-43.3,6.11,10,40.93.11.7s-23.17,14.65-25.4,17S310.18,431.58,312.55,432Z" style="fill:#f7a9a0"></path><path d="M381.86,421.19c-2.24,1.93-66.94,11.26-69.31,10.82s-1.32-7.22.91-9.58,25.41-17,25.41-17l-.13-.7L337.6,400l41.92-6.34c.33,1.67,1,5.12,1,5.47,0,.12,0,.24.05.35C381.91,411,382.72,420.48,381.86,421.19Z" style="fill:#FFC727"></path><path d="M312.54,432c1.22.22,18.82-2.13,36-4.73,3.45-.52,6.88-1,10.15-1.57,12.23-1.94,22.31-3.78,23.17-4.52s.08-9.95-1.2-21.2c0-.16,0-.32,0-.48a2.09,2.09,0,0,1,0-.36h-.05l-41.76,5.55.11.71s-23.18,14.65-25.41,17S310.17,431.58,312.54,432Z" style="fill:#a6a6a6"></path><path d="M312.92,429.39c10.87-1.84,54.88-8.23,65.76-9.23.09,0,.1.06,0,.07-10.73,2.06-54.79,8.1-65.75,9.34C312.71,429.6,312.69,429.43,312.92,429.39Z" style="fill:#263238"></path><path d="M334.12,405.5c4.17-1.42,9.52-1.52,13.24,1.06.14.1,0,.31-.15.28a60.77,60.77,0,0,0-13-.8A.28.28,0,0,1,334.12,405.5Z" style="fill:#263238"></path><path d="M331.29,407.81c4.17-1.42,9.52-1.52,13.24,1.07.14.1,0,.3-.15.28a60.78,60.78,0,0,0-13-.81A.28.28,0,0,1,331.29,407.81Z" style="fill:#263238"></path><path d="M328.46,410.12c4.17-1.42,9.52-1.51,13.24,1.07.14.1,0,.3-.15.28a61.43,61.43,0,0,0-13-.81A.28.28,0,0,1,328.46,410.12Z" style="fill:#263238"></path><path d="M332.51,397.46l48.66-6.71s-12.12-83-11.75-84.93c.47-2.46,29-118.89,29-118.89h-39.9s-32.82,108-34.08,118.42C322.37,322.19,332.51,397.46,332.51,397.46Z" style="fill:#37474f"></path><path d="M334.8,387.54c8.32-1.7,38.59-5.35,41.92-5.22a.08.08,0,0,1,0,.15c-3.19.95-29.25,4.45-41.92,5.28A.11.11,0,0,1,334.8,387.54Z" style="fill:#263238"></path><path d="M389.33,195.87c-1,2.86-1.8,5.75-2.68,8.64s-1.66,5.79-2.52,8.68c-1.7,5.72-3.32,11.47-4.95,17.21-3.29,11.59-6.42,23.23-9.49,34.88q-2.28,8.66-4.51,17.33c-1.48,5.79-3.05,11.58-4.38,17.41a29.91,29.91,0,0,0-.87,8.37,80.42,80.42,0,0,0,1.18,8.6q1.44,8.92,2.89,17.84,2.91,18,6,36c.25,1.47.55,2.93.83,4.39,0,.08.16.06.15,0-1.6-11.93-3.6-23.81-5.49-35.69q-1.39-8.81-2.83-17.6c-.5-3.07-1-6.13-1.49-9.21a31.42,31.42,0,0,1-.32-8.82,76,76,0,0,1,1.89-8.53c.72-2.86,1.44-5.73,2.17-8.59q2.2-8.67,4.48-17.33,4.56-17.4,9.32-34.75t9.6-34.48c.4-1.43.79-2.85,1.15-4.28C389.48,195.82,389.35,195.79,389.33,195.87Z" style="fill:#263238"></path><path d="M354.3,442.84c2.3.73,67.66-.47,70.12-2.1.94-.6,1.32-10.14,1.45-21.67v-.36c0-2.38-1.3-42.23-1.3-42.23l-42.73.66L383.7,419l0,.72s-24.81,11.65-27.33,13.72S352,442.12,354.3,442.84Z" style="fill:#f7a9a0"></path><path d="M425.92,414.14c0,1.55,0,3.07,0,4.57v.36c-.13,11.53-.51,21.07-1.46,21.67-2.45,1.63-67.82,2.83-70.12,2.1s-.4-7.32,2.1-9.39,27.33-13.72,27.33-13.72l0-.72-.19-4.45Z" style="fill:#FFC727"></path><path d="M354.3,442.84c2.3.73,67.66-.47,70.12-2.1.94-.6,1.32-10.14,1.45-21.67v-.36l-42.17.3,0,.72s-24.81,11.65-27.33,13.72S352,442.12,354.3,442.84Z" style="fill:#a6a6a6"></path><path d="M355,440.29c11-.47,55.48-1.34,66.41-1,.08,0,.09.06,0,.07-10.91.71-55.38,1.22-66.4,1.08C354.76,440.47,354.76,440.3,355,440.29Z" style="fill:#263238"></path><path d="M379,419.22c4.32-.89,9.64-.32,13,2.71.13.11,0,.3-.18.26a60.4,60.4,0,0,0-12.8-2.42A.28.28,0,0,1,379,419.22Z" style="fill:#263238"></path><path d="M375.91,421.16c4.32-.89,9.63-.32,13,2.71.14.12,0,.3-.17.26a61.28,61.28,0,0,0-12.8-2.42A.28.28,0,0,1,375.91,421.16Z" style="fill:#263238"></path><path d="M372.81,423.11c4.32-.89,9.64-.33,13,2.7.13.12,0,.3-.18.26a61,61,0,0,0-12.8-2.42A.27.27,0,0,1,372.81,423.11Z" style="fill:#263238"></path><path d="M359.78,186.93s.92,19.09,5.29,34.21c.35,1.25.73,2.48,1.14,3.66,0,0,1.73,0,8.68,4.24l5.78,182.88,47.08-.5s-7.51-96.92-7.45-103.13c.09-10-5.39-77.56-4.82-79.27,5.85-17.45-3.83-42.09-3.83-42.09Z" style="fill:#37474f"></path><path d="M382.29,403.21c13.26-.8,38.95-1,42.25-.49a.07.07,0,0,1,0,.14c-3.28.59-34.49,1.19-42.24.56A.11.11,0,0,1,382.29,403.21Z" style="fill:#263238"></path><path d="M379.36,326.76q-.86-31.44-2.14-62.87c-.48-11.83-1-23.65-1.67-35.46a.32.32,0,0,0-.64,0c.51,21.08,1.34,42.14,2,63.21s1.42,41.92,2.14,62.88c.4,11.82.76,23.65,1.25,35.47a.13.13,0,0,0,.26,0C380.47,368.91,379.93,347.83,379.36,326.76Z" style="fill:#263238"></path><path d="M416.16,356c-1-13.75-2-27.49-3.05-41.23s-2.05-27.5-3.07-41.24c-.51-6.88-1-13.75-1.54-20.62l-.81-10.31a91.86,91.86,0,0,1-.61-10.21c.13-3.73,1.7-7,2.57-10.6a41.37,41.37,0,0,0,1.06-10.35c-.09-7.18-1.7-14.25-3.19-21.24-.08-.38-.68-.21-.59.18A103.44,103.44,0,0,1,410.11,210a42.18,42.18,0,0,1-.69,9.84c-.61,3.11-1.91,6-2.64,9.07s-.34,6.45-.09,9.66c.27,3.44.5,6.88.74,10.31.48,6.74,1,13.47,1.5,20.21,2,27.35,4,54.71,6.17,82.06,1.2,15.39,2.22,30.81,3.71,46.18,0,.11.19.11.18,0C418.28,383.53,417.14,369.78,416.16,356Z" style="fill:#263238"></path><path d="M406.52,207.7c-.8-.31-1.68-.39-2.5-.63a20.51,20.51,0,0,1-2.53-.89,19.61,19.61,0,0,1-4.37-2.63,10.23,10.23,0,0,1-2.83-4.12c-.36-.85-.69-1.71-1-2.56l-.52-1.26c-.07-.17-.52-1.06-.6-1.34a.09.09,0,0,0,.12,0l0-.05a.08.08,0,0,0,0-.1c-.05-.1-.06-.11-.17-.14a.12.12,0,0,0-.12.06c-.16.28,0,.55.07.85.15.56.29,1.12.43,1.68.26,1,.52,1.95.82,2.92a9.92,9.92,0,0,0,2.84,4.75A15.44,15.44,0,0,0,401,207a16.81,16.81,0,0,0,2.8.77,7.58,7.58,0,0,0,2.68.16C406.68,207.94,406.63,207.74,406.52,207.7Z" style="fill:#263238"></path><path d="M368.66,218.22c-.11-1.65-.24-3.29-.38-4.94-.33-3.75-.72-7.51-1.38-11.22,0-.29-.46-.18-.43.1.25,2.91.58,5.82.85,8.73s.63,5.81.68,8.71c0,.87-.05,2.35-1.12,2.59-1.44.33-2.12-1.56-2.47-2.6a47.9,47.9,0,0,1-1.8-7.93c-.48-3.06-.73-6.16-1-9.23,0-.12-.2-.1-.2,0,0,6.11.07,12.5,2.35,18.27a3.4,3.4,0,0,0,2.53,2.41h.06a.16.16,0,0,0,0,.1c0,.17.07.34.1.51s.05.29.08.43c.06.3.11.6.18.89a.22.22,0,0,0,.44-.05.19.19,0,0,0,.13-.18,4.75,4.75,0,0,0-.4-1.73,2.12,2.12,0,0,0,1.58-1.33A7.6,7.6,0,0,0,368.66,218.22Z" style="fill:#263238"></path><path d="M364.25,223.66a88.38,88.38,0,0,1,13.46,7.05c.17.11,0,.37-.14.28-4.54-2.21-9.18-4.33-13.59-6.78A.31.31,0,0,1,364.25,223.66Z" style="fill:#263238"></path><path d="M363.74,162.22a42.33,42.33,0,0,0,8.17,5.07c-4.43-7.48-3.76-24.37-3.22-22,2.59,11.52,9.83,24.13,12.59,24.76h.05a31.74,31.74,0,0,0,19.73-4.17l0,0c-5.71-8.46-5.48-25.64-5.1-24.59,4.2,11.2,12.87,17.75,14.37,17.73h0c5.56-5.32,8.5-10.63,7.71-11.17-5.77-3.92-10.68-14-15.11-24.71h0c-4.38-10.53-6.6-20.55-12.76-29.95-5.64-8.61-16.9-10.24-23.28-5.84C350.15,98.9,360.17,159.42,363.74,162.22Z" style="fill:#263238"></path><path d="M381.14,87.82c4.64,1.09,8.45,5.34,10.88,9.27,3.23,5.22,5.36,11.14,8,16.66a115.71,115.71,0,0,0,20.21,29.71.21.21,0,0,1-.28.3c-9-6.78-15.17-16.51-20.22-26.52-2.59-5.11-4.62-10.46-7.06-15.64a34.68,34.68,0,0,0-4.94-7.95,21.34,21.34,0,0,0-6.92-5A.43.43,0,0,1,381.14,87.82Z" style="fill:#263238"></path><polygon points="440.77 305.52 375.06 317.26 372.69 248.62 419.23 240.3 440.77 305.52" style="fill:#ebebeb"></polygon><polygon points="419.23 240.3 423.89 308.54 440.78 305.52 419.23 240.3" style="fill:#dbdbdb"></polygon><path d="M385.7,251.32h-2.42c0-.06,0-6.69,0-13.4,0-7.25,6.16-11.9,12-12.22,4.41-.24,9.84,2.06,10.67,9.31.88,7.75,1.08,11.45,1.09,11.6l-2.42.13s-.2-3.79-1.08-11.46c-.63-5.57-4.61-7.35-8.13-7.16-4.75.25-9.71,4-9.75,9.82C385.66,244.64,385.7,251.26,385.7,251.32Z" style="fill:#263238"></path><path d="M424.69,307.87c1.18-1.21,2.42-2.34,3.66-3.47s2.52-2.21,3.81-3.29l.18-.14.2.1c1.26.63,2.52,1.27,3.75,1.95s2.48,1.36,3.69,2.11c-1.33-.51-2.63-1.07-3.91-1.65s-2.57-1.17-3.84-1.78l.38-.05c-1.28,1.09-2.57,2.15-3.89,3.2S426.07,306.91,424.69,307.87Z" style="fill:#fff"></path><path d="M432.38,301.38c-1.05-4.21-2-8.45-3-12.68s-1.87-8.48-2.81-12.73-1.79-8.49-2.64-12.75l-1.27-6.39c-.4-2.14-.82-4.27-1.19-6.41.53,2.1,1,4.22,1.53,6.33l1.46,6.35c1,4.24,1.87,8.48,2.81,12.73s1.79,8.49,2.64,12.75S431.62,297.1,432.38,301.38Z" style="fill:#fff"></path><path d="M387.63,250.65a3.22,3.22,0,1,1-3.82-2.47A3.22,3.22,0,0,1,387.63,250.65Z" style="fill:#263238"></path><path d="M408.78,246.06A3.21,3.21,0,1,1,405,243.6,3.2,3.2,0,0,1,408.78,246.06Z" style="fill:#263238"></path><polygon points="433.12 325.21 356.01 325.21 367.25 246.66 421.88 246.66 433.12 325.21" style="fill:#FFC727"></polygon><polygon points="421.87 246.66 413.31 325.21 433.12 325.21 421.87 246.66" style="opacity:0.1"></polygon><path d="M382.64,252.08l-2.41-.51c0-.07,1.41-6.67,2.9-13.33,1.62-7.2,8.7-10.51,14.61-9.56,4.43.72,9.34,4.17,8.6,11.56-.79,7.9-1.39,11.62-1.41,11.78l-2.43-.4s.61-3.81,1.39-11.63c.57-5.67-3-8.3-6.54-8.88-4.78-.77-10.52,1.89-11.82,7.67C384,245.42,382.65,252,382.64,252.08Z" style="fill:#263238"></path><path d="M414.35,324.61c1.58-1.13,3.23-2.16,4.87-3.2s3.31-2,5-3l.24-.14.21.16c1.3,1,2.6,2,3.87,3s2.54,2.05,3.76,3.14c-1.4-.85-2.77-1.75-4.11-2.67s-2.68-1.85-4-2.81l.44,0q-2.5,1.46-5.07,2.84C417.83,322.89,416.12,323.8,414.35,324.61Z" style="fill:#fff"></path><path d="M424.42,318.8c-.34-5-.59-10-.83-15s-.4-10-.61-15-.31-10-.41-15l-.14-7.53c0-2.51-.07-5-.06-7.53.18,2.51.3,5,.46,7.52l.37,7.52c.23,5,.4,10,.6,15s.32,10,.42,15S424.42,313.78,424.42,318.8Z" style="fill:#fff"></path><circle cx="381.43" cy="251.82" r="3.27" style="fill:#263238"></circle><circle cx="403.46" cy="251.82" r="3.27" style="fill:#263238"></circle><path d="M321.54,104l9.28,28.88c.36.85,0,1.57-.87,1.63l-15.15,1a2.47,2.47,0,0,1-2.2-1.43l-9.27-28.89c-.37-.84,0-1.57.86-1.62l15.15-1A2.45,2.45,0,0,1,321.54,104Z" style="fill:#a6a6a6"></path><path d="M319.74,104.1,329,133a1.06,1.06,0,0,1-.87,1.63l-15.15,1a2.45,2.45,0,0,1-2.2-1.42l-9.27-28.89c-.37-.84,0-1.57.86-1.62l15.15-1A2.45,2.45,0,0,1,319.74,104.1Z" style="fill:#dbdbdb"></path><path d="M315.68,105.7a1.29,1.29,0,1,0,1.17-1.39A1.27,1.27,0,0,0,315.68,105.7Z" style="fill:#455a64"></path><path d="M373.22,145.33c-7.24,18.87-24.76,44-32.71,44.65-3.78.33-10.48,1.72-15.76-2.27-11.54-8.7-21.92-26.2-24.53-36.46-.92-3.65,16.48-13,19.36-10.15,6.73,6.59,15,19.9,16.06,19.74,4.05-.61,19-15,29.46-25.18C377.77,123.34,376.1,137.81,373.22,145.33Z" style="fill:#f7a9a0"></path><path d="M298.39,132.17c1.35-7.64,2.88-9.4.6-16.46-1.5-4.63.82-7.58,4.43-4,5.92,5.79,6.24,16,5.33,19.6Z" style="fill:#f7a9a0"></path><path d="M301.34,154.4s-4.12-10.21-3.48-18.5c.45-5.74,2.8-18.1,18.21-25.66,3.66-1.79,10.14-1.75,5.23,3.34-3.49,3.62-6.79,4.86-8.43,7.34,0,0,8.23,1,9.88,4.76a75.14,75.14,0,0,1,3.63,10.06,16.28,16.28,0,0,1-1.82.84s1.21,3.64-1.1,9Z" style="fill:#f7a9a0"></path><path d="M299.16,130.49c2.15-2.11,6.78-6.51,11.83-8.79,5.6-2.53,17.07-5.89,18.89-1.74,1.34,3-2.92,4.71-2.92,4.71s5-.39,5.64,2.63c.55,2.75-2.83,3.84-2.83,3.84s3.1.29,3.12,3c0,3.3-6.46,2.16-9.33,5.54C322.92,140.47,299.16,130.49,299.16,130.49Z" style="fill:#f7a9a0"></path><path d="M312.67,128.07a24.46,24.46,0,0,1,14.18-3.47c.13,0,.19.11.07.13a60.29,60.29,0,0,0-14.22,3.39A0,0,0,0,1,312.67,128.07Z" style="fill:#263238"></path><path d="M315.39,133.65c2.18-1.22,8.78-3.39,14.36-2.62.13,0,.18.12.06.13a65.08,65.08,0,0,0-14.4,2.54S315.37,133.66,315.39,133.65Z" style="fill:#263238"></path><path d="M325.65,147.4l-20.88,24.21s17.88,17.49,23.7,18.87a26.45,26.45,0,0,0,14.3-.61c4.07-1.17,24.08-24.36,30.66-43.32s-.48-19.87-11.71-8.39-25.13,22.78-25.8,22S325.65,147.4,325.65,147.4Z" style="fill:#FFC727"></path><path d="M325.65,147.4l-20.88,24.21s17.88,17.49,23.7,18.87a26.45,26.45,0,0,0,14.3-.61c4.07-1.17,24.08-24.36,30.66-43.32s-.48-19.87-11.71-8.39-25.13,22.78-25.8,22S325.65,147.4,325.65,147.4Z" style="opacity:0.1"></path><path d="M329.44,154c-.85.77-7.82,8.65-9.37,10.42s-7.47,9-9,10.81c-.06.08,0,.19.12.11.81-.88,1.69-1.7,2.5-2.58s5.46-6.16,7-7.92,8.26-9.77,8.9-10.74C329.64,154,329.51,154,329.44,154Z" style="fill:#263238"></path><path d="M354.16,178.6l-3.87,33.59s54.53-.82,68-2.18c0,0-12.91-62.2-27.93-77.56-7.51-7.68-16-6.84-21.32-1.15-1.34,1.44-17.13,23.66-18.61,32C349.18,170.68,354.16,178.6,354.16,178.6Z" style="fill:#FFC727"></path><path d="M352,173.14a20.31,20.31,0,0,1-1-5.89,28.07,28.07,0,0,1,3-11.73c1-2.09,2.2-4.07,3.17-6.16,0-.06-.06-.1-.09-.05a42.92,42.92,0,0,0-2.58,4.35.88.88,0,0,1,.05-.15c.25-.81.5-1.6.79-2.39,0-.08-.11-.14-.15-.06-.32.77-.63,1.54-.91,2.33a13.83,13.83,0,0,0-.44,1.52,38.91,38.91,0,0,0-2.45,5.72,19.49,19.49,0,0,0-.26,12.08,21.41,21.41,0,0,0,1.24,3c.53,1.08,1.2,2.08,1.77,3.13,0,.09.18,0,.13-.08A30.35,30.35,0,0,1,352,173.14Z" style="fill:#263238"></path><path d="M381.5,131.51c-.45,1-6.77,6.89-11.54,5.76-1.55-.38.1-9,.1-9l0-.66-.3-9.24,11.68-4.72,1.67-.6s-.08,2.54-.21,5.69c0,.15,0,.3,0,.45s0,.35,0,.52c0,.47,0,.95,0,1.43s0,.72-.07,1.1-.06.76-.08,1.14A60.83,60.83,0,0,1,381.5,131.51Z" style="fill:#f7a9a0"></path><path d="M382.88,118.79A18.58,18.58,0,0,1,370,127.66l-.3-9.24,11.68-4.72,1.67-.6S383,115.64,382.88,118.79Z" style="fill:#263238"></path><path d="M358.82,104.19c-2.22,16.09,7.16,19.23,10.63,19.71,3.15.43,13.93,1.5,17.8-14.27s-2.91-21.89-10.05-23.25S361,88.11,358.82,104.19Z" style="fill:#f7a9a0"></path><path d="M363.17,100.86a10.36,10.36,0,0,0,1.12-.08,1.79,1.79,0,0,0,1.13-.3.57.57,0,0,0,.09-.7,1.44,1.44,0,0,0-1.35-.52,2.1,2.1,0,0,0-1.41.55A.62.62,0,0,0,363.17,100.86Z" style="fill:#263238"></path><path d="M373.76,102.44c-.37-.1-.7-.25-1.06-.38a1.83,1.83,0,0,1-1-.59.58.58,0,0,1,.1-.7,1.43,1.43,0,0,1,1.44-.14,2.08,2.08,0,0,1,1.21.92A.62.62,0,0,1,373.76,102.44Z" style="fill:#263238"></path><path d="M371.05,106.2s.08.06.07.11c-.21,1.08-.27,2.36.66,2.89,0,0,0,.07,0,.06C370.58,108.89,370.68,107.19,371.05,106.2Z" style="fill:#263238"></path><path d="M372.21,105.22c1.78.15,1.35,3.69-.3,3.55S370.72,105.09,372.21,105.22Z" style="fill:#263238"></path><path d="M372.89,105.49c.28.24.54.63.91.71s.8-.23,1.12-.55c0,0,.06,0,.06,0-.07.68-.42,1.35-1.16,1.36s-1.08-.65-1.17-1.35C372.64,105.57,372.77,105.39,372.89,105.49Z" style="fill:#263238"></path><path d="M364.74,105.16s-.09,0-.1.09c-.09,1.1-.38,2.35-1.42,2.6a0,0,0,0,0,0,.06C364.46,107.88,364.83,106.22,364.74,105.16Z" style="fill:#263238"></path><path d="M363.89,103.9c-1.75-.34-2.3,3.19-.68,3.5S365.36,104.18,363.89,103.9Z" style="fill:#263238"></path><path d="M363.12,104c-.31.14-.64.44-1,.41s-.62-.46-.81-.86c0,0,0,0-.06,0-.12.67,0,1.4.62,1.63s1.09-.3,1.36-.94C363.31,104.17,363.24,104,363.12,104Z" style="fill:#263238"></path><path d="M369.61,115c-.29.24-.58.57-1,.58a3,3,0,0,1-1.16-.37s-.08,0-.06,0a1.52,1.52,0,0,0,1.36.71,1.2,1.2,0,0,0,.94-.91A.06.06,0,0,0,369.61,115Z" style="fill:#263238"></path><path d="M365.56,110.37s-.45,1.61-.55,2.38c0,.07.17.13.43.18h0a3.72,3.72,0,0,0,3.75-.89.08.08,0,0,0-.1-.13,5.53,5.53,0,0,1-3.48.51c0-.22.86-2.72.74-2.75a6.87,6.87,0,0,0-1.81.16c.83-3.37,2.2-6.58,3-10a.11.11,0,0,0-.2-.08,56.49,56.49,0,0,0-3.66,10.59C363.57,110.83,365.23,110.46,365.56,110.37Z" style="fill:#263238"></path><path d="M385.84,109.69c-4-.29-4.66-12.56-4.73-14.06,0,1-.06,6-.45,6.17a4.16,4.16,0,0,1-1.24-.28h0a11.21,11.21,0,0,0-.08-1.81c0-.28-.13.6-.32,1.68l-.73-.23a14.52,14.52,0,0,0-.23-3.84c-.1-.48-.31,1.65-.83,3.51a48.16,48.16,0,0,0-10.34-2.24c-1-.07-1.85-.09-2.61-.09.05-1.48.28-3.06.16-2.72a14.31,14.31,0,0,0-.72,2.74c-.42,0-.8,0-1.14,0,0-2.11,1.11-5.42.75-4.92a14.69,14.69,0,0,0-2.22,5.09c-1.45.23-1.85.49-1.88.12A17.52,17.52,0,0,1,365,88.2c5.15-4.49,15.11-5.28,20.42,2.14,0,0,4.49,3.18,5,8S388.13,109.86,385.84,109.69Z" style="fill:#263238"></path><path d="M384.52,110.51s3.8-4.88,6-3.5-.8,8.58-3.55,9.44a2.75,2.75,0,0,1-3.6-1.66Z" style="fill:#f7a9a0"></path><path d="M389.63,109.05a0,0,0,0,1,0,.07c-1.93.67-3,2.38-3.8,4.16a1.51,1.51,0,0,1,2.28-.3c.05,0,0,.11-.05.1a1.69,1.69,0,0,0-1.89.49,8,8,0,0,0-1,1.46c-.1.16-.4.06-.33-.13l0-.05C385,112.44,387,109.16,389.63,109.05Z" style="fill:#263238"></path><path d="M393.29,132.41C412,147.7,427.13,171.08,427.93,177c.88,6.52-1.4,30.19-7.57,42.21-1.63,3.17-25.82-11.26-24.22-14.72,3.08-6.66,7.65-24.91,7-28.54-.61-3.36-10.14-23.59-16.66-34.21C380.44,132,384.58,125.3,393.29,132.41Z" style="fill:#f7a9a0"></path><path d="M377.52,233.25a4.24,4.24,0,0,0,4.56,1.65,6.33,6.33,0,0,0,1.54,4c1.79,1.88,5.52-.11,5.52-.11a7.86,7.86,0,0,0,2.3,4c1.9,1.62,5.95.15,5.95.15a6.8,6.8,0,0,0,4.21,2.21c4.36.37,8.38-5,11-8.34s6.77-15.35,7.8-17.55l-21.49-16.79s-15.9,11.81-18.38,16.2C378.41,222.34,375.71,230.47,377.52,233.25Z" style="fill:#f7a9a0"></path><path d="M381.85,234.48c1.28-4.46,3.8-8.31,6.11-12.3.05-.09.19,0,.13.08-2.33,3.94-3.86,8.29-6,12.31C382,234.68,381.82,234.6,381.85,234.48Z" style="fill:#263238"></path><path d="M388.92,238.5a11.9,11.9,0,0,1,1.53-2.77c.61-.94,1.24-1.88,1.88-2.8,1.28-1.84,2.6-3.66,4-5.44.06-.08.2,0,.14.08-1.28,1.85-2.52,3.71-3.72,5.6-.6,1-1.19,1.9-1.77,2.86a15.19,15.19,0,0,1-1.78,2.63A.16.16,0,0,1,388.92,238.5Z" style="fill:#263238"></path><path d="M397.44,242.82A8.39,8.39,0,0,1,399,240.4c.61-.83,1.2-1.66,1.8-2.5,1.18-1.67,2.37-3.34,3.49-5.05.06-.08.19,0,.14.08-1.14,1.75-2.25,3.51-3.4,5.24q-.84,1.28-1.71,2.55a8,8,0,0,1-1.75,2.16A.05.05,0,0,1,397.44,242.82Z" style="fill:#263238"></path><path d="M384.29,139.76c3.61,10.18,18.18,34.39,18.09,36.72s-7.2,26.61-7.2,26.61l28.89,17.54s6.44-33.06,4-44.56c-1.85-8.84-22.21-34.5-32.11-42.4S379.67,126.72,384.29,139.76Z" style="fill:#FFC727"></path><path d="M384.29,139.76c3.61,10.18,18.18,34.39,18.09,36.72s-7.2,26.61-7.2,26.61l28.89,17.54s6.44-33.06,4-44.56c-1.85-8.84-22.21-34.5-32.11-42.4S379.67,126.72,384.29,139.76Z" style="opacity:0.1"></path><path d="M402.41,175.07a17.62,17.62,0,0,0-2.14-4.82c-1.83-3.37-3.65-6.75-5.57-10.07-1.07-1.84-5.37-8.89-6.64-11.15-.12-.21-.42,0-.31.19.69,1.38,2.73,5.05,4.16,7.6-.22-.27-.44-.55-.68-.81-.43-.48-.87-1-1.35-1.41a10.82,10.82,0,0,1-1.47-1.48c-.05-.08-.19,0-.13.08a38.25,38.25,0,0,0,2.57,3c.44.51.88,1,1.3,1.54.29.34.56.7.86,1,.07.13.14.24.19.34,1.88,3.25,3.65,6.57,5.42,9.88a47.18,47.18,0,0,1,2.52,4.9,5.78,5.78,0,0,1,.45,2.46,13.49,13.49,0,0,1-.63,2.95c-1,3.61-1.94,7.23-2.88,10.85-.54,2.09-1.08,4.19-1.58,6.29s-1.08,4.2-1.38,6.34c0,.14.19.26.25.1a56,56,0,0,0,1.75-5.51q.83-2.82,1.59-5.65c1-3.81,2-7.63,3-11.46C402.17,178.56,402.74,176.82,402.41,175.07Z" style="fill:#263238"></path><path d="M423.78,213.05a263.46,263.46,0,0,0-24.36-15.26.08.08,0,0,0-.08.13,265.67,265.67,0,0,0,24.32,15.33A.12.12,0,0,0,423.78,213.05Z" style="fill:#263238"></path></g><g id="freepik--Bill--inject-39"><path d="M121.66,360.11h44.13A10.52,10.52,0,0,0,176.3,349.6V267a10.68,10.68,0,0,1,11.24-10.61H132.17a10.52,10.52,0,0,0-10.51,10.51Z" style="fill:#FFC727"></path><path d="M121.66,360.11h44.13A10.52,10.52,0,0,0,176.3,349.6V267a10.68,10.68,0,0,1,11.24-10.61H132.17a10.52,10.52,0,0,0-10.51,10.51Z" style="opacity:0.1"></path><g style="opacity:0.1"><rect x="129.65" y="266.92" width="39.58" height="1.82"></rect><rect x="129.65" y="272.04" width="39.58" height="1.82"></rect><rect x="129.65" y="277.15" width="39.58" height="1.82"></rect><rect x="129.65" y="282.26" width="39.58" height="1.82"></rect><rect x="129.65" y="287.37" width="39.58" height="1.82"></rect><rect x="129.65" y="292.48" width="39.58" height="1.82"></rect><rect x="129.65" y="297.6" width="39.58" height="1.82"></rect><rect x="129.65" y="302.71" width="39.58" height="1.82"></rect><rect x="129.65" y="307.82" width="39.58" height="1.82"></rect><rect x="129.65" y="312.93" width="39.58" height="1.82"></rect><rect x="129.65" y="318.04" width="39.58" height="1.82"></rect><rect x="129.65" y="323.16" width="39.58" height="1.82"></rect><rect x="129.65" y="328.27" width="39.58" height="1.82"></rect><rect x="129.65" y="333.38" width="39.58" height="1.82"></rect><rect x="129.65" y="338.49" width="39.58" height="1.82"></rect><rect x="129.65" y="343.6" width="39.58" height="1.82"></rect></g><path d="M79,325.14v99.73h33.41V425a10.6,10.6,0,0,0,10.35,10.61h.36a9.51,9.51,0,0,0,1.08-.06l2-.41a10.92,10.92,0,0,0,1.43-.57,6.11,6.11,0,0,0,.67-.35,3,3,0,0,0,.33-.21,7.7,7.7,0,0,0,.89-.6l.14-.11a5.71,5.71,0,0,0,.58-.51,3.84,3.84,0,0,0,.3-.28,10.33,10.33,0,0,0,2.62-4.33.39.39,0,0,1,0-.09c.07-.26.14-.52.2-.79a5.85,5.85,0,0,0,.16-1c0-.16,0-.31,0-.46a.86.86,0,0,0,0-.16c0-.19,0-.38,0-.57V325.25a10.68,10.68,0,0,1,11.25-10.62H89.55A10.52,10.52,0,0,0,79,325.14Z" style="fill:#FFC727"></path><g style="opacity:0.1"><rect x="86.34" y="321.29" width="39.58" height="1.82"></rect><rect x="90.07" y="316.61" width="39.58" height="1.82"></rect><rect x="86.34" y="326.4" width="39.58" height="1.82"></rect><rect x="86.34" y="331.51" width="39.58" height="1.82"></rect><rect x="86.34" y="336.62" width="39.58" height="1.82"></rect><rect x="86.34" y="341.73" width="39.58" height="1.82"></rect><rect x="86.34" y="346.85" width="39.58" height="1.82"></rect><rect x="86.34" y="351.96" width="39.58" height="1.82"></rect><rect x="86.34" y="357.07" width="39.58" height="1.82"></rect><rect x="86.34" y="362.18" width="39.58" height="1.82"></rect><rect x="86.34" y="367.29" width="39.58" height="1.82"></rect><rect x="86.34" y="372.41" width="39.58" height="1.82"></rect><rect x="86.34" y="377.52" width="39.58" height="1.82"></rect><rect x="86.34" y="382.63" width="39.58" height="1.82"></rect><rect x="86.34" y="387.74" width="39.58" height="1.82"></rect><rect x="86.34" y="392.85" width="39.58" height="1.82"></rect><rect x="86.34" y="397.97" width="39.58" height="1.82"></rect><rect x="86.34" y="403.08" width="39.58" height="1.82"></rect><rect x="86.34" y="408.19" width="39.58" height="1.82"></rect><rect x="106.13" y="415.56" width="19.79" height="4.2"></rect></g><path d="M165.42,360.11a1.18,1.18,0,0,0,.27,0,11.14,11.14,0,0,0,1.17-.07,9.54,9.54,0,0,1-1.08.05Z" style="fill:#FFC727"></path><path d="M186.91,256.41A10.61,10.61,0,0,0,176.3,267v20h21.22V267A10.61,10.61,0,0,0,186.91,256.41Z" style="fill:#FFC727"></path><path d="M186.91,256.41A10.61,10.61,0,0,0,176.3,267v20h21.22V267A10.61,10.61,0,0,0,186.91,256.41Z" style="opacity:0.2"></path><path d="M133.65,325.25v34.88h21.23v0h10.35a10.59,10.59,0,0,1-10.35-10.6V325.25a10.62,10.62,0,1,0-21.23,0Z" style="fill:#FFC727"></path><path d="M133.65,325.25v34.88h21.23v0h10.35a10.59,10.59,0,0,1-10.35-10.6V325.25a10.62,10.62,0,1,0-21.23,0Z" style="opacity:0.2"></path><path d="M63.57,424.87V425a10.6,10.6,0,0,0,10.35,10.61H122.8A10.6,10.6,0,0,1,112.45,425v-.14Z" style="fill:#FFC727"></path><path d="M63.57,424.87V425a10.6,10.6,0,0,0,10.35,10.61H122.8A10.6,10.6,0,0,1,112.45,425v-.14Z" style="opacity:0.2"></path></g></svg>