<svg class="animated" id="freepik_stories-profile-interface" xmlns="http://www.w3.org/2000/svg" viewBox="0 0 500 500" version="1.1" xmlns:xlink="http://www.w3.org/1999/xlink" xmlns:svgjs="http://svgjs.com/svgjs"><style>svg#freepik_stories-profile-interface:not(.animated) .animable {opacity: 0;}svg#freepik_stories-profile-interface.animated #freepik--background-complete--inject-65 {animation: 1s 1 forwards cubic-bezier(.36,-0.01,.5,1.38) slideLeft,3s Infinite  linear floating;animation-delay: 0s,1s;}svg#freepik_stories-profile-interface.animated #freepik--Shadow--inject-65 {animation: 1s 1 forwards cubic-bezier(.36,-0.01,.5,1.38) slideLeft,3s Infinite  linear floating;animation-delay: 0s,1s;}svg#freepik_stories-profile-interface.animated #freepik--Character--inject-65 {animation: 1s 1 forwards cubic-bezier(.36,-0.01,.5,1.38) slideLeft,3s Infinite  linear floating;animation-delay: 0s,1s;}svg#freepik_stories-profile-interface.animated #freepik--Device--inject-65 {animation: 1s 1 forwards cubic-bezier(.36,-0.01,.5,1.38) slideLeft,3s Infinite  linear floating;animation-delay: 0s,1s;}            @keyframes slideLeft {                0% {                    opacity: 0;                    transform: translateX(-30px);                }                100% {                    opacity: 1;                    transform: translateX(0);                }            }                    @keyframes floating {                0% {                    opacity: 1;                    transform: translateY(0px);                }                50% {                    transform: translateY(-10px);                }                100% {                    opacity: 1;                    transform: translateY(0px);                }            }        </style><g id="freepik--background-complete--inject-65" class="animable animator-active" style="transform-origin: 250px 228.23px;"><rect y="382.4" width="500" height="0.25" style="fill: rgb(235, 235, 235); transform-origin: 250px 382.525px;" id="elk8aekum15ch" class="animable"></rect><rect x="416.78" y="398.49" width="33.12" height="0.25" style="fill: rgb(235, 235, 235); transform-origin: 433.34px 398.615px;" id="el60nil6eh80w" class="animable"></rect><rect x="322.53" y="401.21" width="8.69" height="0.25" style="fill: rgb(235, 235, 235); transform-origin: 326.875px 401.335px;" id="elaxwjrgk2b1a" class="animable"></rect><rect x="396.59" y="389.21" width="19.19" height="0.25" style="fill: rgb(235, 235, 235); transform-origin: 406.185px 389.335px;" id="el3zht8vu2op3" class="animable"></rect><rect x="52.46" y="390.89" width="43.19" height="0.25" style="fill: rgb(235, 235, 235); transform-origin: 74.055px 391.015px;" id="eligr2uo200j" class="animable"></rect><rect x="104.56" y="390.89" width="6.33" height="0.25" style="fill: rgb(235, 235, 235); transform-origin: 107.725px 391.015px;" id="elwpd1vlgh1f" class="animable"></rect><rect x="131.47" y="395.11" width="93.68" height="0.25" style="fill: rgb(235, 235, 235); transform-origin: 178.31px 395.235px;" id="elx6pa135iv2" class="animable"></rect><path d="M237,337.8H43.91a5.71,5.71,0,0,1-5.7-5.71V60.66A5.71,5.71,0,0,1,43.91,55H237a5.71,5.71,0,0,1,5.71,5.71V332.09A5.71,5.71,0,0,1,237,337.8ZM43.91,55.2a5.46,5.46,0,0,0-5.45,5.46V332.09a5.46,5.46,0,0,0,5.45,5.46H237a5.47,5.47,0,0,0,5.46-5.46V60.66A5.47,5.47,0,0,0,237,55.2Z" style="fill: rgb(235, 235, 235); transform-origin: 140.46px 196.4px;" id="elrpw7072iwgi" class="animable"></path><path d="M453.31,337.8H260.21a5.72,5.72,0,0,1-5.71-5.71V60.66A5.72,5.72,0,0,1,260.21,55h193.1A5.71,5.71,0,0,1,459,60.66V332.09A5.71,5.71,0,0,1,453.31,337.8ZM260.21,55.2a5.47,5.47,0,0,0-5.46,5.46V332.09a5.47,5.47,0,0,0,5.46,5.46h193.1a5.47,5.47,0,0,0,5.46-5.46V60.66a5.47,5.47,0,0,0-5.46-5.46Z" style="fill: rgb(235, 235, 235); transform-origin: 356.75px 196.4px;" id="elz7pelvawphl" class="animable"></path><path d="M75.66,290.59h71.2a12.52,12.52,0,0,1,12.52,12.52v64a12.52,12.52,0,0,1-12.52,12.52H75.66a0,0,0,0,1,0,0v-89a0,0,0,0,1,0,0Z" style="fill: rgb(240, 240, 240); transform-origin: 117.52px 335.11px;" id="elh5gkm4a9f2" class="animable"></path><rect x="62.55" y="290.59" width="26.22" height="89" rx="12.52" style="fill: rgb(245, 245, 245); transform-origin: 75.66px 335.09px;" id="el7hei4wyvxo4" class="animable"></rect><g id="elb4h4l8e4zsw"><rect x="85.19" y="323.42" width="92.93" height="56.17" style="fill: rgb(240, 240, 240); transform-origin: 131.655px 351.505px; transform: rotate(180deg);" class="animable"></rect></g><path d="M77.56,382.4H245.05a2.57,2.57,0,0,0,2.56-2.57v-.24H146.9L75,379.83A2.57,2.57,0,0,0,77.56,382.4Z" style="fill: rgb(224, 224, 224); transform-origin: 161.305px 380.995px;" id="el4vunpslrkuf" class="animable"></path><path d="M150.92,253.67h86.46a15.73,15.73,0,0,1,15.93,17.46l-5.7,65H126.23l5.69-65A19.44,19.44,0,0,1,150.92,253.67Z" style="fill: rgb(224, 224, 224); transform-origin: 189.818px 294.899px;" id="elf0w7ui44bn" class="animable"></path><path d="M137.26,253.67h88.15a15,15,0,0,1,15.16,16.62l-5.77,65.83H113.41l5.77-65.83A18.5,18.5,0,0,1,137.26,253.67Z" style="fill: rgb(245, 245, 245); transform-origin: 177.034px 294.894px;" id="eljl7usfr496j" class="animable"></path><path d="M92.64,318.29h73.61a7.88,7.88,0,0,1,7.88,7.88v7.11a7.88,7.88,0,0,1-7.88,7.89H92.64A11.44,11.44,0,0,1,81.2,329.73h0A11.44,11.44,0,0,1,92.64,318.29Z" style="fill: rgb(224, 224, 224); transform-origin: 127.665px 329.73px;" id="elfvr82df97g4" class="animable"></path><path d="M178.53,290.59h71.2a12.52,12.52,0,0,1,12.52,12.52v64a12.52,12.52,0,0,1-12.52,12.52h-71.2a0,0,0,0,1,0,0v-89a0,0,0,0,1,0,0Z" style="fill: rgb(240, 240, 240); transform-origin: 220.39px 335.11px;" id="el47zx5q1vdbq" class="animable"></path><rect x="165.42" y="290.59" width="26.22" height="89" rx="12.52" style="fill: rgb(245, 245, 245); transform-origin: 178.53px 335.09px;" id="el4lzfa8y4de" class="animable"></rect><rect x="306.56" y="241.67" width="68.45" height="140.73" style="fill: rgb(240, 240, 240); transform-origin: 340.785px 312.035px;" id="eljo2q5m0hwj9" class="animable"></rect><g id="el0zeyi4u1vpk9"><rect x="256.6" y="311.24" width="118.81" height="1.58" style="fill: rgb(230, 230, 230); transform-origin: 316.005px 312.03px; transform: rotate(90deg);" class="animable"></rect></g><rect x="315.22" y="252.63" width="49.7" height="2" style="fill: rgb(230, 230, 230); transform-origin: 340.07px 253.63px;" id="elzr9zjfzmgtn" class="animable"></rect><rect x="376.59" y="241.67" width="68.45" height="140.73" style="fill: rgb(240, 240, 240); transform-origin: 410.815px 312.035px;" id="elszcmqkt9yn" class="animable"></rect><g id="eleqeze65gpk"><rect x="445.05" y="241.67" width="9.06" height="140.73" style="fill: rgb(224, 224, 224); transform-origin: 449.58px 312.035px; transform: rotate(180deg);" class="animable"></rect></g><g id="el4d501fbkpb"><rect x="326.63" y="311.24" width="118.81" height="1.58" style="fill: rgb(230, 230, 230); transform-origin: 386.035px 312.03px; transform: rotate(90deg);" class="animable"></rect></g><g id="elisqbl44dvwd"><rect x="306.24" y="312.04" width="139.13" height="1.58" style="fill: rgb(230, 230, 230); transform-origin: 375.805px 312.83px; transform: rotate(90deg);" class="animable"></rect></g><rect x="385.25" y="252.63" width="49.7" height="2" style="fill: rgb(230, 230, 230); transform-origin: 410.1px 253.63px;" id="elp8l856kgpx" class="animable"></rect><rect x="368.61" y="272.8" width="3.4" height="31.1" style="fill: rgb(224, 224, 224); transform-origin: 370.31px 288.35px;" id="eluyoxk7i6he" class="animable"></rect><rect x="379.59" y="272.8" width="3.4" height="31.1" style="fill: rgb(224, 224, 224); transform-origin: 381.29px 288.35px;" id="elxsiaq8rxcb" class="animable"></rect><rect x="77.09" y="94.92" width="349.02" height="124.49" style="fill: rgb(224, 224, 224); transform-origin: 251.6px 157.165px;" id="elsaj4lfj35fa" class="animable"></rect><rect x="73.89" y="94.92" width="349.02" height="124.49" style="fill: rgb(240, 240, 240); transform-origin: 248.4px 157.165px;" id="elsr928xr9ix" class="animable"></rect><g id="elk3si3gj8t"><rect x="196.63" y="-6.88" width="103.55" height="328.08" style="fill: rgb(250, 250, 250); transform-origin: 248.405px 157.16px; transform: rotate(90deg);" class="animable"></rect></g><polygon points="137.62 208.94 159.36 105.39 207.35 105.39 185.61 208.94 137.62 208.94" style="fill: rgb(255, 255, 255); transform-origin: 172.485px 157.165px;" id="el8wegfs3x9nj" class="animable"></polygon><polygon points="205.86 208.94 227.6 105.39 251.6 105.39 229.85 208.94 205.86 208.94" style="fill: rgb(255, 255, 255); transform-origin: 228.73px 157.165px;" id="eljeokj3rzsd" class="animable"></polygon><polygon points="352.38 208.94 374.12 105.39 398.12 105.39 376.37 208.94 352.38 208.94" style="fill: rgb(255, 255, 255); transform-origin: 375.25px 157.165px;" id="eled5y4bv2zil" class="animable"></polygon></g><g id="freepik--Shadow--inject-65" class="animable animator-active" style="transform-origin: 250px 416.24px;"><ellipse id="freepik--path--inject-65" cx="250" cy="416.24" rx="193.89" ry="11.32" style="fill: rgb(245, 245, 245); transform-origin: 250px 416.24px;" class="animable"></ellipse></g><g id="freepik--Character--inject-65" class="animable animator-active" style="transform-origin: 179.545px 263.145px;"><path d="M166,115.64c2.52-5.77-19.8-11-26.55,6.78-6.12,16.13-16.28,20.25-11.5,31.42,5.17,12.09,34.42,13.54,47.12.14,10.3-10.87-.88-15.45.56-25.67S174.05,114.76,166,115.64Z" style="fill: rgb(38, 50, 56); transform-origin: 153.094px 136.834px;" id="elheeqk48662n" class="animable"></path><path d="M125.34,150.26c-1.16-6.3,1.18-8.9,4.14-12.19a29.53,29.53,0,0,0,7.89-14.77,15.06,15.06,0,0,1,12.53-12c6.6-1.22,13.59.94,15.44,3.68a2.35,2.35,0,0,1,.1,2.71l-.84-.54a1.34,1.34,0,0,0-.09-1.61c-1.64-2.44-8.3-4.39-14.42-3.25-4.37.81-10,3.41-11.74,11.23a30.4,30.4,0,0,1-8.13,15.21c-2.88,3.2-5,5.52-3.89,11.34Z" style="fill: rgb(38, 50, 56); transform-origin: 145.429px 130.606px;" id="elkkde4uzmhg" class="animable"></path><path d="M111.59,145.47l-.62-2a8.18,8.18,0,0,0-2.25-3.55l-2-1.82a3.69,3.69,0,0,0-4.71-.25l-2.14,1.6a3.69,3.69,0,0,0-.72,5.2l1.38,1.8s3.24,5.48,7.93,7.38l1.08-.92,0,0A7,7,0,0,0,111.59,145.47Z" style="fill: rgb(255, 195, 189); transform-origin: 105.162px 145.475px;" id="el037cgrf5ougi" class="animable"></path><path d="M150.46,180.19l-.64.49-.52.38-1,.7c-.67.44-1.35.85-2,1.25a43.44,43.44,0,0,1-4.2,2.12,38.58,38.58,0,0,1-9.25,2.76,31.8,31.8,0,0,1-10.17.06,26.89,26.89,0,0,1-5.06-1.31c-.41-.13-.82-.3-1.22-.47l-.6-.25-.3-.13-.33-.14-.42-.2a10.34,10.34,0,0,1-2.39-1.69,12.61,12.61,0,0,1-1.41-1.55,20.81,20.81,0,0,1-2.72-5c-.6-1.48-1.06-2.9-1.47-4.29a79.71,79.71,0,0,1-1.81-8.17,107.52,107.52,0,0,1-1.53-16.1,4,4,0,0,1,7.85-1.46l0,.11c1.74,4.79,3.41,9.7,5.17,14.36.91,2.32,1.79,4.63,2.79,6.73.48,1.05,1,2.05,1.49,2.92a7.13,7.13,0,0,0,1.27,1.73s0,0-.07-.14a2.81,2.81,0,0,0-.8-.58l-.19-.1c-.06,0-.18-.07-.11-.05l.16,0,.31.08a4.8,4.8,0,0,0,.63.15,16.89,16.89,0,0,0,2.56.31,20,20,0,0,0,5.35-.56,30.57,30.57,0,0,0,5.58-2c.93-.42,1.85-.91,2.75-1.4.45-.25.89-.52,1.31-.78l1-.64.78-.49a8.05,8.05,0,0,1,9.14,13.24Z" style="fill: rgb(255, 195, 189); transform-origin: 128.505px 166.247px;" id="eldf33wgw0ss5" class="animable"></path><path d="M168,411.88c6.33-2.09,11.66-6.37,10.59-13.88-.47-3.22,9.86-4.48,9.86-4.48-1.17,10.23.11,12,1.34,14.31s1.16,5.14-1,5.39c-2.56.31-3.13,0-6.31.45-3.72.49-6.13,2.43-13.56,2.43C164.91,416.1,166,412.54,168,411.88Z" style="fill: rgb(233, 76, 76); transform-origin: 178.4px 404.81px;" id="elp1tuexswuz" class="animable"></path><path d="M187.25,302.61c.73-51.24-4-79.17-4-79.17l-37.91,1.89s5.61,46.88,15.57,81.41c2.66,18.53,8.65,49.87,12.8,70.92a91.05,91.05,0,0,0,18.17-3.44C193.33,355.73,193.59,329,187.25,302.61Z" style="fill: rgb(233, 76, 76); transform-origin: 169.037px 300.55px;" id="elagzq6vrw9be" class="animable"></path><path d="M188.07,398.54s1.48-9.68,2.48-24.32A68,68,0,0,1,175,377.66c2.16,12.78,3.7,20.92,3.7,20.92A13.68,13.68,0,0,0,188.07,398.54Z" style="fill: rgb(255, 195, 189); transform-origin: 182.775px 386.804px;" id="eljey65vgj4w" class="animable"></path><path d="M171.64,371.53c.33,1.76,1.25,6.17,2.16,7.72a.68.68,0,0,0,.5.33c7.07.89,14.13-.53,17-1.81a.62.62,0,0,0,.35-.36c.8-2.12,1.09-6.58,1.18-8.46a.67.67,0,0,0-.8-.69,170.06,170.06,0,0,1-19.82,2.48A.66.66,0,0,0,171.64,371.53Z" style="fill: rgb(38, 50, 56); transform-origin: 182.228px 374.053px;" id="elr5ca0aq5ek" class="animable"></path><path d="M145.84,165.08c-5.62,1-14.19,5.75-14.19,5.75s-4.51,10.8.89,18.58c5.32,1.26,8,.23,8,.23Z" style="fill: rgb(38, 50, 56); transform-origin: 137.863px 177.558px;" id="elcm9f7zj1h2i" class="animable"></path><g id="elnk5bt7lopgf"><path d="M132.54,189.41c5.32,1.26,8,.23,8,.23l-.19-14.57C136.74,179.93,133.73,184.75,132.54,189.41Z" style="opacity: 0.2; transform-origin: 136.54px 182.553px;" class="animable"></path></g><g id="el6y7fvs3muql"><path d="M187.05,272.38c-4.24-10.37-8.8-18.91-10.55-26.71-3,21.21-.64,40.72,10.77,54.7C187.4,290.05,187.29,280.71,187.05,272.38Z" style="opacity: 0.2; transform-origin: 181.318px 273.02px;" class="animable"></path></g><path d="M245,353.7l-15.13,10.76c-12.35-16.09-30.87-40.67-35.35-51.37-11.38-27.15-34.26-87-34.26-87l29.7-6.9s18.74,17.4,30.83,83.06C230.91,316.63,239.43,337.79,245,353.7Z" style="fill: rgb(233, 76, 76); transform-origin: 202.63px 291.825px;" id="elwc1960wrnc" class="animable"></path><path d="M244.13,404.7c3.77-7.37,3.82-15.49-.25-21.89-1.75-2.74,7.14-8.15,7.14-8.15,3.14,9.81,5.7,10.38,7.88,11.9s2.4,4.79.56,5.9a15.23,15.23,0,0,0-5,4.75c-2.28,3-3.56,7.12-6.83,9.69C245.54,408.53,242.47,407.93,244.13,404.7Z" style="fill: rgb(233, 76, 76); transform-origin: 252.177px 391.217px;" id="el2h88dr8ajbi" class="animable"></path><path d="M252.67,379.16s-2.61-9.18-7.73-22.93a68.85,68.85,0,0,1-12.75,9.54c7.23,10.76,12.52,18.49,12.52,18.49A17.37,17.37,0,0,0,252.67,379.16Z" style="fill: rgb(255, 195, 189); transform-origin: 242.43px 370.245px;" id="el8qaqrz1u0ml" class="animable"></path><path d="M226.6,361.57c1,1.46,3.68,5.11,5.15,6.14a.7.7,0,0,0,.6.1c6.8-2.1,12.65-6.31,14.79-8.68a.6.6,0,0,0,.16-.48c-.14-2.25-1.72-6.44-2.41-8.19a.67.67,0,0,0-1-.3,169.51,169.51,0,0,1-17,10.43A.67.67,0,0,0,226.6,361.57Z" style="fill: rgb(38, 50, 56); transform-origin: 236.897px 358.94px;" id="elg2gi80izx5" class="animable"></path><path d="M137.26,180c1.36,8.85-3.91,15.71,4.2,19.79-1.35,6.73.65,20.17,3.86,25.5,4.51,2.45,26.57-1.17,44.6-6.11-.26-7.7-6.59-22.85-4.83-48.07a9.87,9.87,0,0,0-10.2-10.54c-1.56,0-3.22.15-4.9.3a123.85,123.85,0,0,0-17.57,2.4c-1.87.44-3.8.94-5.63,1.46A13.56,13.56,0,0,0,137.26,180Z" style="fill: rgb(38, 50, 56); transform-origin: 163.367px 193.32px;" id="elrnlbsjevztr" class="animable"></path><path d="M150,173.27s5.65-2.06,8.61,3c4.93-2.77,11.86-14.48,11.37-15.37C161.73,163.17,150,173.27,150,173.27Z" style="fill: rgb(255, 255, 255); transform-origin: 160.002px 168.585px;" id="elwoouviys3un" class="animable"></path><path d="M150,173.27s-4.29-.51-5.5,3.29c0-7.5,5.06-12.22,7.27-13.1C151,165.42,150,173.27,150,173.27Z" style="fill: rgb(255, 255, 255); transform-origin: 148.135px 170.01px;" id="el2b7nhc3egjt" class="animable"></path><path d="M167.82,141.05c-.63,5.85-.73,15.25,2.17,19.86,0,0-11,7.53-20,12.36-2.83-6.55,1.77-9.81,1.77-9.81,4.29-1.64,4.25-7.13,3.67-11.33Z" style="fill: rgb(255, 195, 189); transform-origin: 159.53px 157.16px;" id="elaxlna342l77" class="animable"></path><g id="elvr5k4m7d1yi"><path d="M155.45,152.13l7-6.3a6.89,6.89,0,0,1-.22,3.53,14.84,14.84,0,0,1-6.58,7.75A23.48,23.48,0,0,0,155.45,152.13Z" style="opacity: 0.2; transform-origin: 159.017px 151.47px;" class="animable"></path></g><path d="M170.08,130.18c-1,9.5-1.15,13.53-6.05,18.23-7.38,7.07-18.61,3.83-20.46-5.75-1.67-8.63.16-22.71,9.44-26.14S171,120.69,170.08,130.18Z" style="fill: rgb(255, 195, 189); transform-origin: 156.582px 133.953px;" id="elzde581f6yee" class="animable"></path><path d="M168,137.13a7.75,7.75,0,0,1-.34-10.85c2.5-2.53,6,2.71,6,2.71Z" style="fill: rgb(38, 50, 56); transform-origin: 169.635px 131.36px;" id="elrldn82iiwbr" class="animable"></path><path d="M156.41,132.81c0,.78-.47,1.39-1,1.37s-.89-.67-.86-1.44.47-1.39,1-1.37S156.44,132,156.41,132.81Z" style="fill: rgb(38, 50, 56); transform-origin: 155.48px 132.775px;" id="eli1p88hwcl9h" class="animable"></path><path d="M146.87,132.58c0,.77-.46,1.38-1,1.36s-.89-.66-.86-1.44.46-1.38,1-1.36S146.9,131.8,146.87,132.58Z" style="fill: rgb(38, 50, 56); transform-origin: 145.94px 132.54px;" id="eluderzfu9pj" class="animable"></path><path d="M146.23,131.19l-1.84-.61S145.29,132.07,146.23,131.19Z" style="fill: rgb(38, 50, 56); transform-origin: 145.31px 131.024px;" id="elc037lkrm3zh" class="animable"></path><path d="M149.22,132.88a20.74,20.74,0,0,1-3,4.84,3.34,3.34,0,0,0,2.74.62Z" style="fill: rgb(237, 132, 126); transform-origin: 147.72px 135.647px;" id="elsmk6210i1l" class="animable"></path><path d="M153.35,141.38a6.94,6.94,0,0,1-1.31.06.23.23,0,0,1-.22-.23.23.23,0,0,1,.24-.22,6.17,6.17,0,0,0,5.1-2.2.22.22,0,0,1,.31-.06.23.23,0,0,1,.06.32A6.36,6.36,0,0,1,153.35,141.38Z" style="fill: rgb(38, 50, 56); transform-origin: 154.695px 140.069px;" id="elp3mhadtz0d" class="animable"></path><path d="M171.66,138.14a6.1,6.1,0,0,1-3.84,3.26c-2.13.53-3.12-1.81-2.46-4.15.59-2.11,2.42-4.92,4.52-4.41S172.69,136.09,171.66,138.14Z" style="fill: rgb(255, 195, 189); transform-origin: 168.642px 137.128px;" id="eli7e3lk30zw" class="animable"></path><path d="M165.16,116.67A55.16,55.16,0,0,1,143,124.58C143,117.75,156.36,110.08,165.16,116.67Z" style="fill: rgb(38, 50, 56); transform-origin: 154.08px 119.367px;" id="elsv3nhdnu3ja" class="animable"></path><path d="M160,117.5c-1.55,6,14,17,11,27.58,5.08-7.91,1.42-25.71,1.42-25.71S159.32,111.08,160,117.5Z" style="fill: rgb(38, 50, 56); transform-origin: 166.793px 130.071px;" id="el3uki7we220h" class="animable"></path><path d="M158.4,127.71a.43.43,0,0,1-.3-.19,3.64,3.64,0,0,0-2.84-1.67.44.44,0,0,1-.46-.44.45.45,0,0,1,.45-.47,4.51,4.51,0,0,1,3.6,2.07.45.45,0,0,1-.12.63A.44.44,0,0,1,158.4,127.71Z" style="fill: rgb(38, 50, 56); transform-origin: 156.865px 126.329px;" id="elyyr26tplu7" class="animable"></path><path d="M142.65,127.38a.49.49,0,0,1-.31-.14.45.45,0,0,1,0-.64,4.53,4.53,0,0,1,3.93-1.36.46.46,0,0,1,.35.54.45.45,0,0,1-.54.35,3.63,3.63,0,0,0-3.1,1.11A.47.47,0,0,1,142.65,127.38Z" style="fill: rgb(38, 50, 56); transform-origin: 144.418px 126.287px;" id="elunqu0rkoh3e" class="animable"></path><path d="M155.77,131.42l-1.84-.6S154.82,132.31,155.77,131.42Z" style="fill: rgb(38, 50, 56); transform-origin: 154.85px 131.262px;" id="ele71pgtudok4" class="animable"></path><g id="el8ajq3kgx5dy"><path d="M184.85,176a120,120,0,0,0,.53,16c-5-5.28-11.28-15.25-11.69-20.25Z" style="opacity: 0.2; transform-origin: 179.535px 181.875px;" class="animable"></path></g><path d="M217.5,157.22l1.09-6.35,9.87,3.81s-2.29,5.91-6.5,8.52l-1.17-.74A6.92,6.92,0,0,1,217.5,157.22Z" style="fill: rgb(255, 195, 189); transform-origin: 222.98px 157.035px;" id="el9qnrzp9wie6" class="animable"></path><path d="M224.75,147.33,228,149.1a3.06,3.06,0,0,1,1.24,4.13l-.77,1.45-9.87-3.81,2.35-2.81A3.07,3.07,0,0,1,224.75,147.33Z" style="fill: rgb(255, 195, 189); transform-origin: 224.1px 150.823px;" id="eliv91vjfdmf" class="animable"></path><path d="M183.09,164.47l1.26,1.3,1.37,1.39c.93.91,1.86,1.84,2.82,2.72,1.9,1.79,3.86,3.45,5.83,5a43.76,43.76,0,0,0,5.9,3.9,16.08,16.08,0,0,0,5.09,1.82l-2.69.5c-.66.32-.62.46-.48.35a4.23,4.23,0,0,0,.74-.63,19.56,19.56,0,0,0,2-2.45c1.36-1.93,2.74-4.12,4-6.39s2.6-4.6,3.89-7l3.85-7.12,0-.06a4.05,4.05,0,0,1,7.57,2.57c-.46,2.88-1.09,5.6-1.79,8.37S221,174.25,220,177a69.52,69.52,0,0,1-3.48,8.29,37.14,37.14,0,0,1-2.63,4.36,18.17,18.17,0,0,1-2.06,2.4,12.47,12.47,0,0,1-3.89,2.63,6.15,6.15,0,0,1-2.25.49h-.44a27.73,27.73,0,0,1-11.47-2.41,49.22,49.22,0,0,1-4.66-2.29q-2.17-1.28-4.19-2.65a72.08,72.08,0,0,1-7.46-6c-1.15-1.06-2.29-2.13-3.38-3.26-.54-.56-1.09-1.12-1.62-1.71s-1-1.13-1.65-1.88a8.08,8.08,0,0,1,12-10.84Z" style="fill: rgb(255, 195, 189); transform-origin: 196.517px 175.411px;" id="el6k82oj82qps" class="animable"></path><path d="M175.33,160.62c7.33.22,14.62,9,14.62,9s-2.82,11.65-10.85,16.67c-4.52-3.52-8.35-6.34-8.35-6.34C164.36,170.58,166.49,164.36,175.33,160.62Z" style="fill: rgb(38, 50, 56); transform-origin: 178.502px 173.455px;" id="el7k409xbti5g" class="animable"></path><path d="M143.86,224.64c.54,3.13,1.19,5.59,1.4,6.34a.61.61,0,0,0,.29.38c1.07.59,5.95,3,14.91,2.47,10-.54,24.67-6,32.28-11.81a.64.64,0,0,0,.2-.75,28.42,28.42,0,0,0-2.05-3.76.64.64,0,0,0-.72-.26c-3.28,1-23.93,6.91-45.68,6.65A.64.64,0,0,0,143.86,224.64Z" style="fill: rgb(233, 76, 76); transform-origin: 168.42px 225.564px;" id="elcanqi9b1cdf" class="animable"></path><g id="el3rjbt8nj97j"><path d="M143.86,224.64c.54,3.13,1.19,5.59,1.4,6.34a.61.61,0,0,0,.29.38c1.07.59,5.95,3,14.91,2.47,10-.54,24.67-6,32.28-11.81a.64.64,0,0,0,.2-.75,28.42,28.42,0,0,0-2.05-3.76.64.64,0,0,0-.72-.26c-3.28,1-23.93,6.91-45.68,6.65A.64.64,0,0,0,143.86,224.64Z" style="fill: rgb(255, 255, 255); opacity: 0.3; transform-origin: 168.42px 225.564px;" class="animable"></path></g></g><g id="freepik--Device--inject-65" class="animable animator-active" style="transform-origin: 287.57px 230.705px;"><path d="M344.27,386.41H212.61a17.65,17.65,0,0,1-17.77-18.88l16-273.65a20.34,20.34,0,0,1,20-18.88H362.53A17.65,17.65,0,0,1,380.3,93.88L364.25,367.53A20.34,20.34,0,0,1,344.27,386.41Z" style="fill: rgb(233, 76, 76); transform-origin: 287.57px 230.705px;" id="eldkk7z9vlc3" class="animable"></path><g id="elhl3q143lx4j"><path d="M344.27,386.41H212.61a17.65,17.65,0,0,1-17.77-18.88l16-273.65a20.34,20.34,0,0,1,20-18.88H362.53A17.65,17.65,0,0,1,380.3,93.88L364.25,367.53A20.34,20.34,0,0,1,344.27,386.41Z" style="fill: rgb(255, 255, 255); opacity: 0.8; transform-origin: 287.57px 230.705px;" class="animable"></path></g><path d="M343.49,380.93h-128A12.4,12.4,0,0,1,203,367.67L219,95.21a14.3,14.3,0,0,1,14-13.27H361a12.41,12.41,0,0,1,12.49,13.27l-16,272.46A14.29,14.29,0,0,1,343.49,380.93Z" style="fill: rgb(233, 76, 76); transform-origin: 288.245px 231.435px;" id="el14ftj5omp05i" class="animable"></path><path d="M342.11,379.47h-128a12.41,12.41,0,0,1-12.49-13.27l16-272.46a14.3,14.3,0,0,1,14-13.27h128a12.41,12.41,0,0,1,12.49,13.27l-16,272.46A14.3,14.3,0,0,1,342.11,379.47Z" style="fill: rgb(255, 255, 255); transform-origin: 286.865px 229.97px;" id="el45p4aqipskk" class="animable"></path><g id="elfrijfp07sn5"><path d="M338.37,369.34H219a7.67,7.67,0,0,1-7.72-8.2L218,247.49a8.83,8.83,0,0,1,8.68-8.2H346a7.67,7.67,0,0,1,7.72,8.2l-6.67,113.65A8.83,8.83,0,0,1,338.37,369.34Z" style="fill: rgb(233, 76, 76); opacity: 0.1; transform-origin: 282.5px 304.315px;" class="animable"></path></g><g id="elkd6i3x47qd"><path d="M311.86,100.68H277.07a2.74,2.74,0,0,1-2.76-2.93h0a3.16,3.16,0,0,1,3.11-2.94H312.2A2.74,2.74,0,0,1,315,97.75h0A3.15,3.15,0,0,1,311.86,100.68Z" style="fill: rgb(233, 76, 76); opacity: 0.1; transform-origin: 294.655px 97.7447px;" class="animable"></path></g><g id="elwkitprns0zo"><ellipse cx="290.18" cy="173.79" rx="54.07" ry="50.99" style="fill: rgb(233, 76, 76); opacity: 0.1; transform-origin: 290.18px 173.79px; transform: rotate(-44.16deg);" class="animable"></ellipse></g><path d="M253.4,208.57a46.41,46.41,0,0,1-12.47-35l1,0a45.45,45.45,0,0,0,12.2,34.25Z" style="fill: rgb(233, 76, 76); transform-origin: 247.474px 191.07px;" id="el9lftku9i138" class="animable"></path><path d="M339.42,174l-1-.06a47.94,47.94,0,0,0-1-13.14l1-.22A48.42,48.42,0,0,1,339.42,174Z" style="fill: rgb(233, 76, 76); transform-origin: 338.471px 167.29px;" id="elj6o407jg1u" class="animable"></path><path d="M334.52,152.1a45,45,0,0,0-25.35-23.69l.35-.94a45.89,45.89,0,0,1,25.91,24.23Z" style="fill: rgb(233, 76, 76); transform-origin: 322.3px 139.785px;" id="elvaok491aesi" class="animable"></path><g id="els6oppx2hvq"><ellipse cx="290.18" cy="173.79" rx="47.12" ry="44.43" style="fill: rgb(233, 76, 76); transform-origin: 290.18px 173.79px; transform: rotate(-44.16deg);" class="animable"></ellipse></g><path d="M285.09,180h0c2.2-.49,3.23-2.37,3.7-4.51.05-.23.09-.45.13-.67l0-.2a22.74,22.74,0,0,0,.2-2.69,8.72,8.72,0,0,1-7.86-8.54A25.73,25.73,0,0,1,284,151.15a2.81,2.81,0,0,0-1.35.56.33.33,0,0,1-.27.06.36.36,0,0,1-.22-.13.36.36,0,0,1,.07-.49,3.56,3.56,0,0,1,2.16-.72c.15-.24.29-.49.44-.72-.64,0-1.26,0-1.86,0,.66-4.62,9.55-8.5,15.61-5,2.7.54,7.16,4.4,7.16,4.4a56.89,56.89,0,0,1-.21,7.37h0c-.4,4.18-1.39,9.09-3.8,11.83a8.7,8.7,0,0,0,.64-4.45,4.66,4.66,0,0,1-2.08,1.19,12.45,12.45,0,0,1-1,1.76c-.94,4.29-1.61,10-.18,13.29,1.29.08,2.54.2,3.73.33l.29.05a21.34,21.34,0,0,0,2.26-1.53c9-7-.55-15.22,1.7-22.75s.35-10.39-5.8-10.63c2.55-4.07-13.65-10.57-20.77,2.06-6.45,11.45-8.53,17.17-6.21,26.12a11.75,11.75,0,0,0,5.51,6.89,10.54,10.54,0,0,1,1.38-.28C282.47,180.24,283.79,180.1,285.09,180Z" style="fill: rgb(38, 50, 56); transform-origin: 291.361px 160.436px;" id="el9eju4vk8slj" class="animable"></path><path d="M271.1,197.6a22,22,0,0,1-1-2c-.68,2-1.35,4-2,6-.62,1.8-1.21,3.6-1.83,5.32l-.93,2.43-.4,1c-.14.27,0,.11,0,.19a10.44,10.44,0,0,1-1.41,1.36c-.11.11-.25.21-.37.31a42.5,42.5,0,0,0,8.87,4.57c.07-4.57.63-9.32,1.23-10.59C269.66,203.69,270.2,201,271.1,197.6Z" style="fill: rgb(255, 195, 189); transform-origin: 268.21px 206.19px;" id="el8257gbbzqj" class="animable"></path><path d="M274.6,184.11l-.25.35c.08-.12.17-.23.26-.34Z" style="fill: rgb(38, 50, 56); transform-origin: 274.48px 184.285px;" id="el1a79tofpbet" class="animable"></path><path d="M272.29,190.81a10.66,10.66,0,0,1,1.91-6.16,48.27,48.27,0,0,0-4.7,9.6s.18.53.56,1.36a22,22,0,0,0,1,2A25.8,25.8,0,0,0,272.29,190.81Z" style="fill: rgb(38, 50, 56); transform-origin: 271.85px 191.13px;" id="el6vfvox14xf6" class="animable"></path><path d="M307.15,205.32a42.1,42.1,0,0,1-3.15-5.47c-.3.16-.61.32-.93.46-3-3.17-5.56-5.73-5.56-5.73-3.74-7.8-1.43-12.24,5.66-14.05a9.32,9.32,0,0,1,3.1,1.25,7.38,7.38,0,0,0-3.14-1.26l-.29-.05c-1.19-.13-2.44-.25-3.73-.33.28.73-6.14,10-10.17,11.47-1.65-4.16-6.28-4.44-6.28-4.44s-4.32-.89-5.66,1.83c.88-5.62,6.29-8.58,8.09-9-1.3.11-2.62.25-3.89.41a10.54,10.54,0,0,0-1.38.28,10.05,10.05,0,0,0-5.21,3.44c-.09.11-.18.22-.26.34l-.15.19a10.66,10.66,0,0,0-1.91,6.16,25.8,25.8,0,0,1-1.19,6.79c-.9,3.36-1.44,6.09,2.09,8.59-.6,1.27-1.16,6-1.23,10.59a44.26,44.26,0,0,0,15.53,2.76,47.32,47.32,0,0,0,19.66-4.31,103.13,103.13,0,0,1,.09-11.17h0C307.21,204.47,307.17,204.91,307.15,205.32Z" style="fill: rgb(38, 50, 56); transform-origin: 288.835px 199.775px;" id="elu1t7p6aj1dh" class="animable"></path><path d="M282.66,187.17s4.63.28,6.28,4.44c4-1.52,10.45-10.74,10.17-11.47C299.11,180.14,290,184.56,282.66,187.17Z" style="fill: rgb(255, 255, 255); transform-origin: 290.889px 185.875px;" id="el3tlt52xrpla" class="animable"></path><path d="M285.11,180h0c-1.8.43-7.21,3.39-8.09,9,1.34-2.72,5.66-1.83,5.66-1.83C281.28,181.91,285.11,180,285.11,180Z" style="fill: rgb(255, 255, 255); transform-origin: 281.065px 184.5px;" id="elj1a2clxzyd" class="animable"></path><path d="M288.94,174.81l0-.2Z" style="fill: rgb(255, 195, 189); transform-origin: 288.94px 174.71px;" id="el14tmzl395b8" class="animable"></path><path d="M299.29,166.85a12.18,12.18,0,0,1-3.24,3.2,10.74,10.74,0,0,1-1.7,1,11.51,11.51,0,0,1-5.57,4.63l0-.17c-.47,2.14-1.5,4-3.7,4.51,0,0-3.83,1.92-2.45,7.18,7.35-2.61,16.45-7,16.45-7C297.68,176.86,298.35,171.14,299.29,166.85Z" style="fill: rgb(255, 195, 189); transform-origin: 290.81px 177.025px;" id="el858drp7tate" class="animable"></path><path d="M288.81,175.48c.05-.23.09-.45.13-.67C288.9,175,288.86,175.25,288.81,175.48Z" style="fill: rgb(38, 50, 56); transform-origin: 288.875px 175.145px;" id="ely20r9gijz2e" class="animable"></path><g id="elc26hdkbgyq7"><path d="M288.81,175.48c.05-.23.09-.45.13-.67C288.9,175,288.86,175.25,288.81,175.48Z" style="opacity: 0.2; transform-origin: 288.875px 175.145px;" class="animable"></path></g><path d="M289.17,171.92a22.74,22.74,0,0,1-.2,2.69,20.93,20.93,0,0,0,.2-2.69Z" style="fill: rgb(38, 50, 56); transform-origin: 289.07px 173.265px;" id="ell6k73fxyuts" class="animable"></path><g id="elos7s2fsqru"><path d="M289.17,171.92a22.74,22.74,0,0,1-.2,2.69,20.93,20.93,0,0,0,.2-2.69Z" style="opacity: 0.2; transform-origin: 289.07px 173.265px;" class="animable"></path></g><path d="M294.35,171a9.69,9.69,0,0,1-5.18.9,20.93,20.93,0,0,1-.2,2.69l0,.2c0,.22-.08.44-.13.67l0,.17A11.51,11.51,0,0,0,294.35,171Z" style="fill: rgb(255, 195, 189); transform-origin: 291.595px 173.315px;" id="elg5xyb46bs3c" class="animable"></path><g id="el2rglcjlis8t"><path d="M294.35,171a9.69,9.69,0,0,1-5.18.9,20.93,20.93,0,0,1-.2,2.69l0,.2c0,.22-.08.44-.13.67l0,.17A11.51,11.51,0,0,0,294.35,171Z" style="opacity: 0.2; transform-origin: 291.595px 173.315px;" class="animable"></path></g><path d="M294.35,171a10.74,10.74,0,0,0,1.7-1,12.18,12.18,0,0,0,3.24-3.2,12.45,12.45,0,0,0,1-1.76c-.19,0-.38.1-.56.12-1.67.15-2.14-1.73-1.38-3.41a6.58,6.58,0,0,1,1-1.57,6.05,6.05,0,0,1,.3-4.32c-1.52-3.12-3.13-6-3.28-8.09a42.67,42.67,0,0,1-11.54,1.89c-.15.23-.29.48-.44.72a3.32,3.32,0,0,1,1,.15.34.34,0,0,1,.2.44.35.35,0,0,1-.44.21,2.52,2.52,0,0,0-1.11-.08,25.73,25.73,0,0,0-2.67,12.23,8.72,8.72,0,0,0,7.86,8.54h0A9.69,9.69,0,0,0,294.35,171Zm-2.23-19.64a3.42,3.42,0,0,1,2.48,2,.36.36,0,0,1-.16.47.34.34,0,0,1-.26,0,.3.3,0,0,1-.2-.18,2.74,2.74,0,0,0-2-1.57.36.36,0,0,1-.3-.39A.35.35,0,0,1,292.12,151.38Zm-.35,4.94h0a1,1,0,0,1,.35,1.11c-.11.58-.51,1-.89.91s-.6-.6-.49-1.18a1.35,1.35,0,0,1,.43-.76,1.51,1.51,0,0,1-.69-.76Zm-8.2-.42a1.34,1.34,0,0,1,.42-.75,1.57,1.57,0,0,1-.68-.77l1.31.67h0a1.05,1.05,0,0,1,.35,1.11c-.12.58-.51,1-.89.92S283.46,156.48,283.57,155.9Zm2.32,4.86a2.55,2.55,0,0,1-2-.79,16.08,16.08,0,0,0,2.78-3.3Zm1.93,2.68a.18.18,0,0,1-.13-.21.17.17,0,0,1,.2-.13A4.7,4.7,0,0,0,292,162a.17.17,0,1,1,.25.24,4.85,4.85,0,0,1-3.42,1.28A7.22,7.22,0,0,1,287.82,163.44Z" style="fill: rgb(255, 195, 189); transform-origin: 290.824px 159.846px;" id="ellfmziqr3yv" class="animable"></path><polygon points="305.51 156.52 305.51 156.52 305.51 156.52 305.51 156.52" style="fill: rgb(38, 50, 56); transform-origin: 305.51px 156.52px;" id="elbw6egcmc11u" class="animable"></polygon><path d="M301,159c-.42-1-.9-2.07-1.39-3.07a6.05,6.05,0,0,0-.3,4.32A4.05,4.05,0,0,1,301,159Z" style="fill: rgb(38, 50, 56); transform-origin: 300.023px 158.09px;" id="eli81476rcroj" class="animable"></path><path d="M291.15,156.41a1.35,1.35,0,0,0-.43.76c-.11.58.11,1.11.49,1.18s.78-.33.89-.91a1,1,0,0,0-.35-1.11A.61.61,0,0,1,291.15,156.41Z" style="fill: rgb(38, 50, 56); transform-origin: 291.421px 157.344px;" id="el6rri3g24u87" class="animable"></path><path d="M285,156.17a1.05,1.05,0,0,0-.35-1.11.66.66,0,0,1-.61.09,1.34,1.34,0,0,0-.42.75c-.11.58.11,1.11.49,1.19S284.83,156.75,285,156.17Z" style="fill: rgb(38, 50, 56); transform-origin: 284.317px 156.08px;" id="eljhsb9mm6yyl" class="animable"></path><path d="M284.6,155.06h0l-1.31-.67a1.57,1.57,0,0,0,.68.77A.66.66,0,0,0,284.6,155.06Z" style="fill: rgb(38, 50, 56); transform-origin: 283.945px 154.795px;" id="elnchfs5xys3" class="animable"></path><path d="M283.9,160a2.55,2.55,0,0,0,2,.79l.79-4.09A16.08,16.08,0,0,1,283.9,160Z" style="fill: rgb(237, 132, 126); transform-origin: 285.295px 158.747px;" id="elb3mnmjvaivb" class="animable"></path><path d="M292.23,162a.18.18,0,0,0-.25,0,4.7,4.7,0,0,1-4.09,1.08.17.17,0,0,0-.2.13.18.18,0,0,0,.13.21,7.22,7.22,0,0,0,1,.1,4.85,4.85,0,0,0,3.42-1.28A.18.18,0,0,0,292.23,162Z" style="fill: rgb(38, 50, 56); transform-origin: 289.984px 162.736px;" id="elmg03dg9cb5" class="animable"></path><path d="M301,159a4.05,4.05,0,0,0-1.69,1.25,6.58,6.58,0,0,0-1,1.57c-.76,1.68-.29,3.56,1.38,3.41.18,0,.37-.08.56-.12a4.66,4.66,0,0,0,2.08-1.19A18.12,18.12,0,0,0,301,159Z" style="fill: rgb(255, 195, 189); transform-origin: 300.143px 162.119px;" id="elpep5k6rpsf" class="animable"></path><path d="M296.56,146.32c.06-1.44.88-1.79,2-1.57-6.06-3.54-14.95.34-15.61,5,.6,0,1.22,0,1.86,0a42.67,42.67,0,0,0,11.54-1.89A3.19,3.19,0,0,1,296.56,146.32Z" style="fill: rgb(38, 50, 56); transform-origin: 290.755px 146.562px;" id="el2tcp2w8340w" class="animable"></path><path d="M296.56,146.32a3.19,3.19,0,0,0-.21,1.5c.15,2.12,1.76,5,3.28,8.09.49,1,1,2,1.39,3.07a18.12,18.12,0,0,1,1.33,4.92,8.7,8.7,0,0,1-.64,4.45c2.41-2.74,3.4-7.65,3.8-11.83h0a56.89,56.89,0,0,0,.21-7.37s-4.46-3.86-7.16-4.4C297.44,144.53,296.62,144.88,296.56,146.32Z" style="fill: rgb(38, 50, 56); transform-origin: 301.046px 156.52px;" id="elmwo4g1d969s" class="animable"></path><path d="M292,152.07a2.74,2.74,0,0,1,2,1.57.3.3,0,0,0,.2.18.34.34,0,0,0,.26,0,.36.36,0,0,0,.16-.47,3.42,3.42,0,0,0-2.48-2,.35.35,0,0,0-.39.3A.36.36,0,0,0,292,152.07Z" style="fill: rgb(38, 50, 56); transform-origin: 293.198px 152.597px;" id="elzfebquasvsb" class="animable"></path><path d="M285.09,151.23a.35.35,0,0,0,.44-.21.34.34,0,0,0-.2-.44,3.32,3.32,0,0,0-1-.15,3.56,3.56,0,0,0-2.16.72.36.36,0,0,0-.07.49.36.36,0,0,0,.22.13.33.33,0,0,0,.27-.06,2.81,2.81,0,0,1,1.35-.56A2.52,2.52,0,0,1,285.09,151.23Z" style="fill: rgb(38, 50, 56); transform-origin: 283.793px 151.104px;" id="eli8143wcnqmg" class="animable"></path><path d="M291.15,156.41a.61.61,0,0,0,.6-.08h0l-1.31-.67A1.51,1.51,0,0,0,291.15,156.41Z" style="fill: rgb(38, 50, 56); transform-origin: 291.095px 156.058px;" id="elqh4hyq9lzbl" class="animable"></path><path d="M307.15,205.32c0-.41.06-.85.08-1.27-.56-.89-1.13-1.79-1.72-2.68l-1.15-1.71-.36.19A42.1,42.1,0,0,0,307.15,205.32Z" style="fill: rgb(38, 50, 56); transform-origin: 305.615px 202.49px;" id="eld2whluwck5f" class="animable"></path><g id="elc361u6ziryl"><path d="M307.15,205.32c0-.41.06-.85.08-1.27-.56-.89-1.13-1.79-1.72-2.68l-1.15-1.71-.36.19A42.1,42.1,0,0,0,307.15,205.32Z" style="opacity: 0.2; transform-origin: 305.615px 202.49px;" class="animable"></path></g><path d="M310.12,213.6l0,.16a49.61,49.61,0,0,0,10.92-8,43.2,43.2,0,0,0-1.92-4.73,66.63,66.63,0,0,0-3.23-6.11c-1-1.72-2.06-3.36-3.15-5-1,2.09-3.84,7.12-8.35,9.71l1.15,1.71c.59.89,1.16,1.79,1.72,2.68h0c.49.78,1,1.57,1.41,2.35.77,1.35,1.49,2.71,2,4l-.1.68C310.45,211.88,310.3,212.73,310.12,213.6Z" style="fill: rgb(255, 195, 189); transform-origin: 312.715px 201.84px;" id="elk45kmgji3mm" class="animable"></path><path d="M297.51,194.58s2.56,2.56,5.56,5.73c.32-.14.63-.3.93-.46l.36-.19c4.51-2.59,7.33-7.62,8.35-9.71.29-.59.44-.95.44-.95s-2.9-4.8-6.88-7.22a9.32,9.32,0,0,0-3.1-1.25C296.08,182.34,293.77,186.78,297.51,194.58Z" style="fill: rgb(38, 50, 56); transform-origin: 304.443px 190.42px;" id="elvqerc7yb7t" class="animable"></path><path d="M345.46,94.27h14.09a1.54,1.54,0,0,0,1.51-1.43h0a1.33,1.33,0,0,0-1.34-1.42h-14.1a1.54,1.54,0,0,0-1.51,1.42h0A1.33,1.33,0,0,0,345.46,94.27Z" style="fill: rgb(233, 76, 76); transform-origin: 352.585px 92.8451px;" id="eluxxrtbos0s" class="animable"></path><path d="M345.17,99.18h14.09a1.54,1.54,0,0,0,1.51-1.43h0a1.33,1.33,0,0,0-1.34-1.43H345.34a1.54,1.54,0,0,0-1.52,1.43h0A1.35,1.35,0,0,0,345.17,99.18Z" style="fill: rgb(233, 76, 76); transform-origin: 352.296px 97.75px;" id="elhyjoxedfs4n" class="animable"></path><path d="M231.18,99.18h14.09a1.55,1.55,0,0,0,1.52-1.43h0a1.34,1.34,0,0,0-1.35-1.43H231.35a1.53,1.53,0,0,0-1.51,1.43h0A1.34,1.34,0,0,0,231.18,99.18Z" style="fill: rgb(233, 76, 76); transform-origin: 238.315px 97.75px;" id="elzq4nuff03ag" class="animable"></path><path d="M344.88,104.08H359a1.54,1.54,0,0,0,1.52-1.43h0a1.35,1.35,0,0,0-1.35-1.43H345.05a1.55,1.55,0,0,0-1.52,1.43h0A1.34,1.34,0,0,0,344.88,104.08Z" style="fill: rgb(233, 76, 76); transform-origin: 352.025px 102.65px;" id="ela9l26tworb9" class="animable"></path><path d="M326.36,283.49H241.12a11.54,11.54,0,0,1-11.62-12.34h0a13.3,13.3,0,0,1,13.07-12.34h85.24a11.54,11.54,0,0,1,11.62,12.34h0A13.3,13.3,0,0,1,326.36,283.49Z" style="fill: rgb(255, 255, 255); transform-origin: 284.465px 271.15px;" id="elwyix91lmko" class="animable"></path><path d="M324.42,316.66H239.17a11.56,11.56,0,0,1-11.62-12.35h0A13.3,13.3,0,0,1,240.62,292h85.25a11.54,11.54,0,0,1,11.62,12.34h0A13.31,13.31,0,0,1,324.42,316.66Z" style="fill: rgb(255, 255, 255); transform-origin: 282.52px 304.33px;" id="elo7qyo76fd6b" class="animable"></path><path d="M322.47,349.82H237.23a11.54,11.54,0,0,1-11.62-12.34h0a13.31,13.31,0,0,1,13.07-12.35h85.24a11.55,11.55,0,0,1,11.62,12.35h0A13.3,13.3,0,0,1,322.47,349.82Z" style="fill: rgb(255, 255, 255); transform-origin: 280.575px 337.475px;" id="elas42q36hf16" class="animable"></path><g id="elx8j17k3rfad"><ellipse cx="243.44" cy="271.15" rx="6.55" ry="6.17" style="fill: rgb(233, 76, 76); transform-origin: 243.44px 271.15px; transform: rotate(-44.16deg);" class="animable"></ellipse></g><path d="M242.69,298.3l.84,3.17a.82.82,0,0,0,.8.6h3.33a.86.86,0,0,1,.43,1.6l-2.81,2a.92.92,0,0,0-.38,1l.84,3.17a.92.92,0,0,1-1.41,1l-2.58-2a.87.87,0,0,0-1,0l-2.81,2a.84.84,0,0,1-1.29-1l1.21-3.17a.84.84,0,0,0-.26-1l-2.58-2a.91.91,0,0,1,.61-1.6h3.33a.93.93,0,0,0,.87-.6L241,298.3A.88.88,0,0,1,242.69,298.3Z" style="fill: rgb(233, 76, 76); transform-origin: 241.608px 304.344px;" id="elk2jtt4nwkm8" class="animable"></path><path d="M245,334.12l-.53,8.9A1.48,1.48,0,0,1,243,344.4h-7.79A1.29,1.29,0,0,1,234,343l.65-11.08a1.48,1.48,0,0,1,1.46-1.39h5.6Z" style="fill: rgb(233, 76, 76); transform-origin: 239.498px 337.465px;" id="el35x8tdnj5um" class="animable"></path><path d="M241.66,330.55l3.37,3.57h-2.19a1.29,1.29,0,0,1-1.3-1.38l.12-2.19m-.89-2.45-.14,2.39-.13,2.19a2.39,2.39,0,0,0,.63,1.75,2.34,2.34,0,0,0,1.71.73h4.58l-1.64-1.75-3.36-3.57-1.65-1.74Z" style="fill: rgb(255, 255, 255); transform-origin: 243.958px 331.63px;" id="elhyidsxtqmu9" class="animable"></path><g id="ela6jxfefef97"><path d="M323.5,269.84H259.71a1.88,1.88,0,0,1-1.89-2h0a2.17,2.17,0,0,1,2.13-2h63.78a1.88,1.88,0,0,1,1.89,2h0A2.16,2.16,0,0,1,323.5,269.84Z" style="fill: rgb(233, 76, 76); opacity: 0.2; transform-origin: 291.72px 267.84px;" class="animable"></path></g><g id="el1ocfnlq4x2"><path d="M311.41,276.48H259.33a1.89,1.89,0,0,1-1.9-2h0a2.17,2.17,0,0,1,2.13-2h52.08a1.88,1.88,0,0,1,1.9,2h0A2.18,2.18,0,0,1,311.41,276.48Z" style="fill: rgb(233, 76, 76); opacity: 0.2; transform-origin: 285.485px 274.48px;" class="animable"></path></g><g id="el6l2z8hv2s8j"><path d="M321.4,305.62H303.8a2.16,2.16,0,0,0-2.13,2h0a1.88,1.88,0,0,0,1.89,2h17.6a2.16,2.16,0,0,0,2.13-2h0A1.88,1.88,0,0,0,321.4,305.62Z" style="fill: rgb(233, 76, 76); opacity: 0.2; transform-origin: 312.48px 307.62px;" class="animable"></path></g><g id="el46u6xgv3ue"><path d="M293.51,305.62H257.62a2.16,2.16,0,0,0-2.13,2h0a1.87,1.87,0,0,0,1.89,2h35.9a2.17,2.17,0,0,0,2.13-2h0A1.88,1.88,0,0,0,293.51,305.62Z" style="fill: rgb(233, 76, 76); opacity: 0.2; transform-origin: 275.45px 307.62px;" class="animable"></path></g><g id="elw8ijiwk0iv"><path d="M310.09,299H258a2.16,2.16,0,0,0-2.13,2h0a1.88,1.88,0,0,0,1.89,2h52.08a2.17,2.17,0,0,0,2.13-2h0A1.88,1.88,0,0,0,310.09,299Z" style="fill: rgb(233, 76, 76); opacity: 0.2; transform-origin: 283.92px 301px;" class="animable"></path></g><g id="ela1vqx7sb9km"><path d="M319.45,338.78H255.67a2.18,2.18,0,0,0-2.13,2h0a1.88,1.88,0,0,0,1.9,2h63.78a2.16,2.16,0,0,0,2.12-2h0A1.88,1.88,0,0,0,319.45,338.78Z" style="fill: rgb(233, 76, 76); opacity: 0.2; transform-origin: 287.44px 340.78px;" class="animable"></path></g><g id="ely4i174hoipe"><path d="M308.14,332.15H256.06a2.17,2.17,0,0,0-2.13,2h0a1.88,1.88,0,0,0,1.89,2h52.09a2.16,2.16,0,0,0,2.12-2h0A1.88,1.88,0,0,0,308.14,332.15Z" style="fill: rgb(233, 76, 76); opacity: 0.2; transform-origin: 281.98px 334.15px;" class="animable"></path></g></g><defs>     <filter id="active" height="200%">         <feMorphology in="SourceAlpha" result="DILATED" operator="dilate" radius="2"></feMorphology>                <feFlood flood-color="#32DFEC" flood-opacity="1" result="PINK"></feFlood>        <feComposite in="PINK" in2="DILATED" operator="in" result="OUTLINE"></feComposite>        <feMerge>            <feMergeNode in="OUTLINE"></feMergeNode>            <feMergeNode in="SourceGraphic"></feMergeNode>        </feMerge>    </filter>    <filter id="hover" height="200%">        <feMorphology in="SourceAlpha" result="DILATED" operator="dilate" radius="2"></feMorphology>                <feFlood flood-color="#ff0000" flood-opacity="0.5" result="PINK"></feFlood>        <feComposite in="PINK" in2="DILATED" operator="in" result="OUTLINE"></feComposite>        <feMerge>            <feMergeNode in="OUTLINE"></feMergeNode>            <feMergeNode in="SourceGraphic"></feMergeNode>        </feMerge>            <feColorMatrix type="matrix" values="0   0   0   0   0                0   1   0   0   0                0   0   0   0   0                0   0   0   1   0 "></feColorMatrix>    </filter></defs></svg>