<svg xmlns="http://www.w3.org/2000/svg" viewBox="0 0 500 500"><g id="freepik--Floor--inject-34"><path id="freepik--floor--inject-34" d="M77.66,236c-95.18,55-95.17,144.05,0,199S327.16,490,422.34,435s95.17-144,0-199S172.84,181.06,77.66,236Z" style="fill:#fafafa"></path></g><g id="freepik--Clouds--inject-34"><path id="freepik--Cloud--inject-34" d="M346.51,50.47c0-4.22,4.64-7.16,9.88-7.65,6.18-.59,10.56,2.17,10.71,7,4-1.66,8.3-.59,8,3.85,1.05-1.21,5-1.18,6.4-.84a5.55,5.55,0,0,1,3.52,3,4.17,4.17,0,0,1,.36,2.27c2.36-.77,7.71-1.24,9.05.92,2.39,3.85-7.14,4-9.06,2.81-.41,3-10.65,3.48-13.13.72-1.93,2-4.71,2.38-7.72,2.56-5.06.3-8.17-1.42-12.12-3.44-4.3,3.65-11.73,3.71-15.6-.45-1,.93-3.71,1.22-5.89.7-1.43-.34-1.76-1-1.76-1a12.88,12.88,0,0,1-2.63.79c-2.81.58-8,0-5.84-2.57.75-.86,3.48-1.4,4.64-1.14,1.22-2.41,6.14-4.69,9-2.65.11-2.92,2.78-5.21,6.54-5.79C342.06,49.45,345.08,49.28,346.51,50.47Z" style="fill:#f5f5f5"></path><path id="freepik--cloud--inject-34" d="M74,72.58c0-4.23,4.64-7.17,9.88-7.66,6.18-.58,10.56,2.17,10.71,7,4-1.66,8.3-.6,8,3.84,1-1.21,5-1.17,6.39-.84a5.53,5.53,0,0,1,3.52,3,4.12,4.12,0,0,1,.37,2.28c2.36-.77,7.71-1.25,9,.91,2.39,3.85-7.14,4-9.06,2.81-.41,3-10.65,3.48-13.13.72C97.8,86.63,95,87.06,92,87.24c-5.06.3-8.17-1.41-12.12-3.43-4.3,3.64-11.73,3.71-15.6-.46-1,.93-3.71,1.22-5.89.7-1.43-.34-1.76-1-1.76-1a12.88,12.88,0,0,1-2.63.79c-2.81.59-8,0-5.84-2.56.74-.86,3.48-1.41,4.64-1.14,1.22-2.41,6.14-4.7,9-2.66.11-2.92,2.78-5.2,6.54-5.78C69.56,71.55,72.59,71.38,74,72.58Z" style="fill:#f5f5f5"></path><path id="freepik--cloud--inject-34" d="M365,101.12a10.93,10.93,0,0,1,3.69-.68c1.2-.1,1.58-.34,1.81-.59a8.8,8.8,0,0,1,10.59-3.13,6.77,6.77,0,0,1,8-4.52c-.13-3.72,4.62-7.72,8.89-8.63,4.1-.87,7.67-.51,10,2.19,2.51-4.89,12.31-6.26,17.62-3.68,3.05,1.49,5.64,3,6.91,5.81a11.63,11.63,0,0,1,1.14,5.56c2.07-1.83,6.21-2.32,9-1.25,3,1.15,3.2,3.4,3.35,5.68a10.39,10.39,0,0,1,5.42-.1c1.88.56,3,2,2.7,3.22,1.48-.08,5,1.12,4.61,2.69-.45,1.76-4.49,1.58-6,1.52a27.46,27.46,0,0,1-4.22-.66,6.72,6.72,0,0,1-2.2.42c-2.57,0-3.66-1.12-4.07-2.08-1.26,2.64-5.72,4.66-8.88,5.46-5.95,1.53-14.36.6-18-3.85a6.72,6.72,0,0,1-1.77,2.16,10.26,10.26,0,0,1-5.51,2.23c-2.44.23-9,.54-10.84-3.34-1.31,2.58-7.14,3.76-11.58,3.13a18.19,18.19,0,0,1-5-1.5,32.26,32.26,0,0,1-2.86-1.71,2.36,2.36,0,0,0-2.43-.17c-3.05.92-6.58,1.29-9.69,0C363.22,104.25,362.7,102.17,365,101.12Z" style="fill:#ebebeb"></path></g><g id="freepik--Shadows--inject-34"><polygon id="freepik--Shadow--inject-34" points="353.42 237.93 399.49 264.53 448.15 236.47 401.96 209.94 353.42 237.93" style="fill:#e6e6e6"></polygon><polygon id="freepik--shadow--inject-34" points="415.22 263.59 442.09 279.11 470.48 262.74 443.53 247.26 415.22 263.59" style="fill:#e6e6e6"></polygon><path id="freepik--shadow--inject-34" d="M378.12,429.62l-23.2-13.39c-1.74-1-1.74-2.63,0-3.64l87-50.21a7,7,0,0,1,6.29,0l23.21,13.4c1.73,1,1.73,2.63,0,3.63L432.19,402l-47.78,27.58A6.91,6.91,0,0,1,378.12,429.62Z" style="fill:#e6e6e6"></path><path id="freepik--shadow--inject-34" d="M235.5,448.57,464.81,316.18c2.71-1.56,2.71-4.09,0-5.66L309.07,220.61a10.85,10.85,0,0,0-9.8,0L70,353c-2.71,1.56-2.71,4.1,0,5.66L225.7,448.57A10.78,10.78,0,0,0,235.5,448.57Z" style="fill:#e6e6e6"></path><path id="freepik--shadow--inject-34" d="M45,432.22a.2.2,0,0,1-.09-.07c-2.18-1.29-2.14-3.39.09-4.69l94.81-54.73a9.13,9.13,0,0,1,8.24,0l62.59,36.14c2.25,1.3,2.27,3.39.09,4.7l-.09.06-94.79,54.72a9,9,0,0,1-8.23,0l-15.2-8.77Z" style="fill:#e6e6e6"></path><path id="freepik--shadow--inject-34" d="M83.79,380.49A11.22,11.22,0,0,1,82,384.62a19.56,19.56,0,0,1-6.66,5.92c-11.53,6.66-30.24,6.66-41.77,0a19.6,19.6,0,0,1-6.67-5.92,11.17,11.17,0,0,1-1.76-4.13h0c-1-5,1.79-10.22,8.44-14.06,11.53-6.67,30.24-6.67,41.77,0C82,370.27,84.82,375.49,83.79,380.49Z" style="fill:#e6e6e6"></path></g><g id="freepik--Boxes--inject-34"><g id="freepik--boxes--inject-34"><g id="freepik--Box--inject-34"><polygon points="439.95 192.5 401.93 170.55 361.59 193.9 399.61 215.85 439.95 192.5" style="fill:#BA68C8"></polygon><g style="opacity:0.8"><polygon points="439.95 192.5 401.93 170.55 361.59 193.9 399.61 215.85 439.95 192.5" style="fill:#fff"></polygon></g><polygon points="399.61 260.26 439.95 236.92 439.95 192.5 399.61 215.85 399.61 260.26" style="fill:#BA68C8"></polygon><g style="opacity:0.6000000000000001"><polygon points="399.61 260.26 439.95 236.92 439.95 192.5 399.61 215.85 399.61 260.26" style="fill:#fff"></polygon></g><path d="M404,250.28a1.07,1.07,0,0,1-.53-.13,1.61,1.61,0,0,1-.65-1.45v-4.26h0v-.31l.22,0,3.34-2V247a3.82,3.82,0,0,1-1.65,3.11A1.43,1.43,0,0,1,404,250.28Zm-.64-5.53v3.95a1.1,1.1,0,0,0,.38,1,.76.76,0,0,0,.73-.08,3.38,3.38,0,0,0,1.37-2.65v-.34H404.6l-.25-1.68Zm1.71,1.32h.77v-2.94l-2,1.17,1,.17Z" style="fill:#455a64"></path><path d="M404.59,253.68a.27.27,0,0,1-.27-.27v-3.58a.27.27,0,0,1,.54,0v3.58A.27.27,0,0,1,404.59,253.68Z" style="fill:#455a64"></path><path d="M403,254.58a.27.27,0,0,1-.13-.5l3.11-1.8a.27.27,0,1,1,.27.47l-3.11,1.79A.25.25,0,0,1,403,254.58Z" style="fill:#455a64"></path><path d="M414.12,248.41a.57.57,0,0,1-.29-.07.7.7,0,0,1-.32-.65V247a.27.27,0,1,1,.53,0v.73c0,.11,0,.17,0,.18a.24.24,0,0,0,.18,0,1.6,1.6,0,0,0,.5-1.21v-4.76a.27.27,0,1,1,.53,0v4.76a2.06,2.06,0,0,1-.76,1.67A.87.87,0,0,1,414.12,248.41Z" style="fill:#455a64"></path><path d="M411.3,244.25v-.46a7.57,7.57,0,0,1,3.42-5.94,2.27,2.27,0,0,1,3.7,2.13v.16Zm5-6.35a2.7,2.7,0,0,0-1.34.42,7.08,7.08,0,0,0-3.13,5l6-3.48a2,2,0,0,0-.83-1.75A1.45,1.45,0,0,0,416.33,237.9Z" style="fill:#455a64"></path><path d="M423.74,242.93a.27.27,0,0,1-.27-.27v-9.12a.27.27,0,0,1,.54,0v9.12A.27.27,0,0,1,423.74,242.93Z" style="fill:#455a64"></path><path d="M423,235.62a.22.22,0,0,1-.11,0,.26.26,0,0,1-.14-.35l1-2.2,1.07,1.22a.27.27,0,0,1,0,.38.26.26,0,0,1-.38,0l-.5-.58-.62,1.42A.26.26,0,0,1,423,235.62Z" style="fill:#455a64"></path><path d="M426.22,241.52a.27.27,0,0,1-.27-.27v-9.12a.27.27,0,1,1,.54,0v9.12A.27.27,0,0,1,426.22,241.52Z" style="fill:#455a64"></path><path d="M425.43,234.21l-.1,0a.27.27,0,0,1-.14-.36l.95-2.2,1.06,1.23a.27.27,0,0,1,0,.38.28.28,0,0,1-.38,0l-.5-.58-.62,1.42A.26.26,0,0,1,425.43,234.21Z" style="fill:#455a64"></path><polygon points="399.61 260.26 361.59 238.32 361.59 193.9 399.61 215.85 399.61 260.26" style="fill:#BA68C8"></polygon><g style="opacity:0.30000000000000004"><polygon points="399.61 260.26 361.59 238.32 361.59 193.9 399.61 215.85 399.61 260.26" style="fill:#fff"></polygon></g><polygon points="377.44 203.04 417.82 179.72 424.15 183.38 383.77 206.7 377.44 203.04" style="fill:#455a64"></polygon><polygon points="377.44 203.04 377.44 210.36 378.32 209.85 379.5 211.56 380.24 210.93 381.53 212.73 382.36 212.07 383.76 214.02 383.77 206.7 377.44 203.04" style="fill:#37474f"></polygon><path d="M365,226.84l11.62,6.71a1.17,1.17,0,0,1,.52.91v8.07c0,.67-.47.94-1,.61l-11.62-6.71a1.18,1.18,0,0,1-.53-.91v-8.07C364,226.78,364.47,226.51,365,226.84Z" style="fill:#fafafa"></path><polygon points="365.48 228.93 365.82 229.13 365.82 235.37 365.48 235.17 365.48 228.93" style="fill:#455a64"></polygon><polygon points="366.89 229.74 367.48 230.09 367.48 236.33 366.89 235.98 366.89 229.74" style="fill:#455a64"></polygon><polygon points="368.3 230.55 368.64 230.75 368.64 236.99 368.3 236.79 368.3 230.55" style="fill:#455a64"></polygon><polygon points="369.36 231.16 370.05 231.56 370.05 237.8 369.36 237.39 369.36 231.16" style="fill:#455a64"></polygon><polygon points="371.11 232.18 371.46 232.38 371.46 238.62 371.11 238.42 371.11 232.18" style="fill:#455a64"></polygon><polygon points="372.13 232.75 372.87 233.19 372.87 239.43 372.13 238.99 372.13 232.75" style="fill:#455a64"></polygon><polygon points="373.93 233.8 374.27 234 374.27 240.24 373.93 240.04 373.93 233.8" style="fill:#455a64"></polygon><polygon points="374.73 234.26 374.9 234.36 374.9 240.6 374.73 240.5 374.73 234.26" style="fill:#455a64"></polygon><polygon points="373.29 233.46 373.46 233.56 373.46 239.8 373.29 239.7 373.29 233.46" style="fill:#455a64"></polygon><polygon points="370.45 231.8 370.62 231.9 370.62 238.14 370.45 238.04 370.45 231.8" style="fill:#455a64"></polygon><polygon points="368.9 230.91 369.07 231.01 369.07 237.25 368.9 237.15 368.9 230.91" style="fill:#455a64"></polygon><polygon points="367.78 230.29 367.95 230.39 367.95 236.63 367.78 236.53 367.78 230.29" style="fill:#455a64"></polygon><polygon points="366.27 229.38 366.44 229.48 366.44 235.71 366.27 235.61 366.27 229.38" style="fill:#455a64"></polygon><polygon points="375.34 234.62 375.68 234.81 375.68 241.05 375.34 240.85 375.34 234.62" style="fill:#455a64"></polygon></g><g id="freepik--box--inject-34"><polygon points="429.81 164.96 397.67 146.4 363.55 166.14 395.7 184.7 429.81 164.96" style="fill:#BA68C8"></polygon><g style="opacity:0.8"><polygon points="429.81 164.96 397.67 146.4 363.55 166.14 395.7 184.7 429.81 164.96" style="fill:#fff"></polygon></g><polygon points="395.7 209.44 429.81 189.7 429.81 164.96 395.7 184.7 395.7 209.44" style="fill:#BA68C8"></polygon><g style="opacity:0.6000000000000001"><polygon points="395.7 209.44 429.81 189.7 429.81 164.96 395.7 184.7 395.7 209.44" style="fill:#fff"></polygon></g><path d="M399.4,201a.86.86,0,0,1-.44-.12,1.34,1.34,0,0,1-.55-1.22v-3.61h0v-.27l.18,0,2.83-1.66v4a3.26,3.26,0,0,1-1.39,2.63A1.34,1.34,0,0,1,399.4,201Zm-.54-4.68v3.34a.93.93,0,0,0,.33.83.66.66,0,0,0,.61-.07,2.86,2.86,0,0,0,1.16-2.24v-.29h-1l-.21-1.42Zm1.45,1.11H401V195l-1.68,1,.83.15Z" style="fill:#455a64"></path><path d="M399.91,203.88a.22.22,0,0,1-.22-.23v-3a.22.22,0,0,1,.22-.22.22.22,0,0,1,.23.22v3A.23.23,0,0,1,399.91,203.88Z" style="fill:#455a64"></path><path d="M398.6,204.64a.22.22,0,0,1-.2-.12.23.23,0,0,1,.08-.31l2.63-1.51a.23.23,0,1,1,.23.39l-2.63,1.52A.23.23,0,0,1,398.6,204.64Z" style="fill:#455a64"></path><path d="M408,199.42a.54.54,0,0,1-.25-.06.6.6,0,0,1-.27-.54v-.63a.22.22,0,0,1,.23-.22.22.22,0,0,1,.22.22v.63c0,.09,0,.14.05.15s.07,0,.15,0a1.38,1.38,0,0,0,.42-1v-4a.23.23,0,1,1,.45,0v4a1.76,1.76,0,0,1-.64,1.42A.73.73,0,0,1,408,199.42Z" style="fill:#455a64"></path><path d="M405.58,195.91v-.4a6.43,6.43,0,0,1,2.9-5,1.92,1.92,0,0,1,3.13,1.81v.13Zm4.26-5.38a2.25,2.25,0,0,0-1.13.36,6,6,0,0,0-2.65,4.22l5.09-2.94a1.69,1.69,0,0,0-.7-1.48A1.26,1.26,0,0,0,409.84,190.53Z" style="fill:#455a64"></path><path d="M416.11,194.79a.23.23,0,0,1-.23-.23v-7.71a.23.23,0,1,1,.45,0v7.71A.23.23,0,0,1,416.11,194.79Z" style="fill:#455a64"></path><path d="M415.44,188.61l-.09,0a.23.23,0,0,1-.11-.3l.8-1.86.9,1a.23.23,0,0,1,0,.32.22.22,0,0,1-.32,0l-.43-.49-.52,1.2A.23.23,0,0,1,415.44,188.61Z" style="fill:#455a64"></path><path d="M418.2,193.59a.23.23,0,0,1-.23-.23v-7.7a.23.23,0,0,1,.23-.23.23.23,0,0,1,.23.23v7.7A.23.23,0,0,1,418.2,193.59Z" style="fill:#455a64"></path><path d="M417.54,187.41a.15.15,0,0,1-.09,0,.21.21,0,0,1-.12-.29l.81-1.87.9,1a.22.22,0,0,1,0,.32.23.23,0,0,1-.32,0l-.42-.49-.52,1.2A.23.23,0,0,1,417.54,187.41Z" style="fill:#455a64"></path><polygon points="395.7 209.44 363.55 190.89 363.55 166.14 395.7 184.7 395.7 209.44" style="fill:#BA68C8"></polygon><g style="opacity:0.30000000000000004"><polygon points="395.7 209.44 363.55 190.89 363.55 166.14 395.7 184.7 395.7 209.44" style="fill:#fff"></polygon></g><polygon points="376.96 173.87 411.1 154.15 416.45 157.24 382.31 176.97 376.96 173.87" style="fill:#455a64"></polygon><polygon points="376.96 173.87 376.96 180.06 377.7 179.63 378.7 181.07 379.32 180.54 380.41 182.06 381.11 181.5 382.3 183.15 382.31 176.97 376.96 173.87" style="fill:#37474f"></polygon><path d="M366.07,182.57l9.26,5.35a.93.93,0,0,1,.42.72v6.45c0,.53-.38.74-.83.48l-9.27-5.35a.94.94,0,0,1-.42-.73v-6.44C365.23,182.52,365.61,182.3,366.07,182.57Z" style="fill:#fafafa"></path><polygon points="366.42 184.23 366.69 184.39 366.69 189.37 366.42 189.21 366.42 184.23" style="fill:#455a64"></polygon><polygon points="367.54 184.88 368.01 185.16 368.01 190.13 367.54 189.85 367.54 184.88" style="fill:#455a64"></polygon><polygon points="368.66 185.53 368.94 185.69 368.94 190.66 368.66 190.5 368.66 185.53" style="fill:#455a64"></polygon><polygon points="369.51 186.01 370.06 186.34 370.06 191.31 369.51 190.98 369.51 186.01" style="fill:#455a64"></polygon><polygon points="370.91 186.82 371.18 186.98 371.18 191.96 370.91 191.8 370.91 186.82" style="fill:#455a64"></polygon><polygon points="371.72 187.28 372.31 187.63 372.31 192.61 371.72 192.26 371.72 187.28" style="fill:#455a64"></polygon><polygon points="373.15 188.12 373.43 188.28 373.43 193.26 373.15 193.1 373.15 188.12" style="fill:#455a64"></polygon><polygon points="373.8 188.49 373.93 188.56 373.93 193.54 373.8 193.46 373.8 188.49" style="fill:#455a64"></polygon><polygon points="372.64 187.85 372.78 187.93 372.78 192.91 372.64 192.82 372.64 187.85" style="fill:#455a64"></polygon><polygon points="370.38 186.52 370.52 186.6 370.52 191.58 370.38 191.5 370.38 186.52" style="fill:#455a64"></polygon><polygon points="369.14 185.81 369.28 185.89 369.28 190.87 369.14 190.79 369.14 185.81" style="fill:#455a64"></polygon><polygon points="368.25 185.32 368.39 185.4 368.39 190.38 368.25 190.3 368.25 185.32" style="fill:#455a64"></polygon><polygon points="367.04 184.59 367.18 184.67 367.18 189.65 367.04 189.56 367.04 184.59" style="fill:#455a64"></polygon><polygon points="374.28 188.77 374.55 188.93 374.55 193.9 374.28 193.75 374.28 188.77" style="fill:#455a64"></polygon></g><g id="freepik--box--inject-34"><polygon points="464.31 232.04 443.49 220.02 421.39 232.81 442.21 244.83 464.31 232.04" style="fill:#BA68C8"></polygon><g style="opacity:0.8"><polygon points="464.31 232.04 443.49 220.02 421.39 232.81 442.21 244.83 464.31 232.04" style="fill:#fff"></polygon></g><polygon points="442.21 275 464.31 262.21 464.31 232.04 442.21 244.83 442.21 275" style="fill:#BA68C8"></polygon><g style="opacity:0.6000000000000001"><polygon points="442.21 275 464.31 262.21 464.31 232.04 442.21 244.83 442.21 275" style="fill:#fff"></polygon></g><path d="M444.61,269.54a.6.6,0,0,1-.29-.08.88.88,0,0,1-.35-.79v-2.34h0v-.17l.12,0,1.83-1.08v2.61a2.12,2.12,0,0,1-.91,1.71A.88.88,0,0,1,444.61,269.54Zm-.35-3v2.16a.62.62,0,0,0,.21.54.44.44,0,0,0,.4,0,1.85,1.85,0,0,0,.75-1.45v-.19h-.68l-.13-.91Zm.94.72h.42v-1.61l-1.09.64.54.09Z" style="fill:#455a64"></path><path d="M444.94,271.4a.15.15,0,0,1-.15-.15v-2a.15.15,0,1,1,.3,0v2A.15.15,0,0,1,444.94,271.4Z" style="fill:#455a64"></path><path d="M444.09,271.89a.16.16,0,0,1-.13-.08.15.15,0,0,1,.05-.2l1.71-1a.15.15,0,1,1,.15.25l-1.71,1Z" style="fill:#455a64"></path><path d="M450.16,268.51a.29.29,0,0,1-.16,0,.38.38,0,0,1-.18-.35v-.41a.15.15,0,0,1,.3,0v.41c0,.06,0,.09,0,.1a.17.17,0,0,0,.09,0,.87.87,0,0,0,.27-.66v-2.61a.15.15,0,1,1,.3,0v2.61a1.1,1.1,0,0,1-.42.91A.43.43,0,0,1,450.16,268.51Z" style="fill:#455a64"></path><path d="M448.61,266.23V266a4.15,4.15,0,0,1,1.88-3.25,1.24,1.24,0,0,1,2,1.16V264Zm2.76-3.48a1.51,1.51,0,0,0-.73.23,3.89,3.89,0,0,0-1.72,2.73l3.3-1.9a1.11,1.11,0,0,0-.45-1A.88.88,0,0,0,451.37,262.75Z" style="fill:#455a64"></path><path d="M455.43,265.51a.15.15,0,0,1-.15-.15v-5a.15.15,0,1,1,.3,0v5A.15.15,0,0,1,455.43,265.51Z" style="fill:#455a64"></path><path d="M455,261.5h-.06a.14.14,0,0,1-.07-.19l.52-1.21.58.68a.14.14,0,0,1,0,.2.14.14,0,0,1-.21,0l-.28-.32-.33.78A.16.16,0,0,1,455,261.5Z" style="fill:#455a64"></path><path d="M456.79,264.73a.15.15,0,0,1-.15-.14v-5a.15.15,0,0,1,.15-.15.15.15,0,0,1,.14.15v5A.14.14,0,0,1,456.79,264.73Z" style="fill:#455a64"></path><path d="M456.36,260.73h-.06a.15.15,0,0,1-.08-.19l.53-1.21.58.67a.16.16,0,0,1,0,.21.13.13,0,0,1-.2,0l-.28-.32-.34.78A.14.14,0,0,1,456.36,260.73Z" style="fill:#455a64"></path><polygon points="442.21 275 421.39 262.98 421.39 232.81 442.21 244.83 442.21 275" style="fill:#BA68C8"></polygon><g style="opacity:0.30000000000000004"><polygon points="442.21 275 421.39 262.98 421.39 232.81 442.21 244.83 442.21 275" style="fill:#fff"></polygon></g><polygon points="430.07 237.82 452.19 225.04 455.65 227.04 433.54 239.82 430.07 237.82" style="fill:#455a64"></polygon><polygon points="430.07 237.82 430.07 241.82 430.55 241.54 431.2 242.48 431.6 242.13 432.31 243.12 432.76 242.76 433.53 243.83 433.54 239.82 430.07 237.82" style="fill:#37474f"></polygon><path d="M424.11,256.5l6.28,3.63a.63.63,0,0,1,.28.5V265c0,.36-.26.51-.57.33l-6.29-3.63a.64.64,0,0,1-.28-.49v-4.37C423.54,256.47,423.79,256.32,424.11,256.5Z" style="fill:#fafafa"></path><polygon points="424.34 257.63 424.53 257.74 424.53 261.12 424.34 261.01 424.34 257.63" style="fill:#455a64"></polygon><polygon points="425.11 258.07 425.43 258.26 425.43 261.64 425.11 261.45 425.11 258.07" style="fill:#455a64"></polygon><polygon points="425.87 258.51 426.06 258.62 426.05 262 425.87 261.89 425.87 258.51" style="fill:#455a64"></polygon><polygon points="426.44 258.84 426.82 259.06 426.82 262.43 426.44 262.21 426.44 258.84" style="fill:#455a64"></polygon><polygon points="427.39 259.39 427.58 259.5 427.58 262.87 427.39 262.77 427.39 259.39" style="fill:#455a64"></polygon><polygon points="427.94 259.7 428.34 259.94 428.34 263.31 427.94 263.08 427.94 259.7" style="fill:#455a64"></polygon><polygon points="428.92 260.27 429.1 260.38 429.1 263.75 428.92 263.64 428.92 260.27" style="fill:#455a64"></polygon><polygon points="429.35 260.52 429.44 260.57 429.44 263.95 429.35 263.89 429.35 260.52" style="fill:#455a64"></polygon><polygon points="428.57 260.09 428.66 260.14 428.66 263.51 428.57 263.46 428.57 260.09" style="fill:#455a64"></polygon><polygon points="427.03 259.19 427.13 259.24 427.13 262.62 427.03 262.56 427.03 259.19" style="fill:#455a64"></polygon><polygon points="426.19 258.7 426.29 258.76 426.29 262.13 426.19 262.08 426.19 258.7" style="fill:#455a64"></polygon><polygon points="425.59 258.37 425.68 258.43 425.68 261.8 425.59 261.75 425.59 258.37" style="fill:#455a64"></polygon><polygon points="424.77 257.88 424.86 257.93 424.86 261.3 424.77 261.25 424.77 257.88" style="fill:#455a64"></polygon><polygon points="429.68 260.71 429.86 260.82 429.86 264.19 429.68 264.08 429.68 260.71" style="fill:#455a64"></polygon></g></g></g><g id="freepik--Device--inject-34"><g id="freepik--Laptop--inject-34"><g id="freepik--down-laptop--inject-34"><path d="M304.88,218.09l145.54,84a8.6,8.6,0,0,1,0,15.21L236.12,441.06a10.13,10.13,0,0,1-9.16,0L81.42,357a8.6,8.6,0,0,1,0-15.21l214.3-123.73A10.13,10.13,0,0,1,304.88,218.09Z" style="fill:#f0f0f0"></path><path d="M231.55,432.23v9.92a9.3,9.3,0,0,1-4.59-1.09L81.42,357A8.58,8.58,0,0,1,81,342.11c-2,1.48-1.89,3.63.47,5l145.54,84A9.49,9.49,0,0,0,231.55,432.23Z" style="fill:#e6e6e6"></path><path d="M231.55,432.23v9.92a9.3,9.3,0,0,1-4.59-1.09L81.42,357A8.58,8.58,0,0,1,81,342.11c-2,1.48-1.89,3.63.47,5l145.54,84A9.49,9.49,0,0,0,231.55,432.23Z" style="opacity:0.1"></path><polygon points="192.25 419.67 118.98 377.37 118.98 370.98 192.25 413.28 192.25 419.67" style="fill:#455a64"></polygon><path d="M236.12,431.14l214.3-123.73c2.53-1.46,2.53-3.83,0-5.29l-145.54-84a10.13,10.13,0,0,0-9.16,0L81.42,341.82c-2.53,1.46-2.53,3.83,0,5.29l145.54,84A10.13,10.13,0,0,0,236.12,431.14Z" style="fill:#fafafa"></path><path d="M231.54,432.76a9.86,9.86,0,0,1-4.85-1.16l-145.54-84a3.31,3.31,0,0,1,0-6.22l214.3-123.73a10.76,10.76,0,0,1,9.7,0l145.54,84a3.32,3.32,0,0,1,0,6.23L236.39,431.6A9.8,9.8,0,0,1,231.54,432.76ZM300.3,217.53a8.78,8.78,0,0,0-4.31,1L81.69,342.28a2.27,2.27,0,0,0,0,4.36l145.54,84a9.55,9.55,0,0,0,8.62,0l214.3-123.73a2.27,2.27,0,0,0,0-4.35l-145.54-84A8.78,8.78,0,0,0,300.3,217.53Z" style="fill:#e0e0e0"></path><polygon points="254.9 360.71 329.45 317.67 364.53 337.93 289.98 380.96 254.9 360.71" style="fill:#e0e0e0"></polygon><polygon points="256.78 361.79 289.98 380.96 362.65 339.01 329.45 319.84 256.78 361.79" style="fill:#ebebeb"></polygon></g><g id="freepik--top-laptop--inject-34"><path d="M299.85,210.39,275.28,38.54a10.15,10.15,0,0,0-5.65-7,12,12,0,0,0-9.54.55L45.79,155.82a8.17,8.17,0,0,0-3.88,7.53L66.48,335.21a10.18,10.18,0,0,0,5.65,7,12,12,0,0,0,9.54-.54L296,217.93A8.2,8.2,0,0,0,299.85,210.39Z" style="fill:#e6e6e6"></path><path d="M299.85,210.39,275.28,38.54a10.15,10.15,0,0,0-5.65-7,12,12,0,0,0-9.54.55L45.79,155.82a8.17,8.17,0,0,0-3.88,7.53L66.48,335.21a10.18,10.18,0,0,0,5.65,7,12,12,0,0,0,9.54-.54L296,217.93A8.2,8.2,0,0,0,299.85,210.39Z" style="opacity:0.1"></path><path d="M275,37.56c-.76-1.94-2.83-2.53-5-1.26L55.7,160a8.23,8.23,0,0,0-3,3.27l-9.92-4.19a8.13,8.13,0,0,1,3-3.29L260.09,32.1a12,12,0,0,1,9.54-.54A10.36,10.36,0,0,1,275,37.56Z" style="fill:#f0f0f0"></path><path d="M55.7,160,270,36.3c2.53-1.46,4.9-.46,5.28,2.24l24.57,171.85a8.2,8.2,0,0,1-3.88,7.54L81.67,341.65c-2.53,1.46-4.9.46-5.28-2.24L51.82,167.56A8.15,8.15,0,0,1,55.7,160Z" style="fill:#fafafa"></path><path d="M79.4,342.86a3.47,3.47,0,0,1-1.54-.34,3.82,3.82,0,0,1-2-3L51.29,167.63a8.74,8.74,0,0,1,4.14-8.07L269.73,35.83a4.39,4.39,0,0,1,4.08-.4,3.82,3.82,0,0,1,2,3l24.56,171.86a8.74,8.74,0,0,1-4.14,8.07L81.94,342.12A5.15,5.15,0,0,1,79.4,342.86ZM56,160.49h0a7.62,7.62,0,0,0-3.62,7L76.92,339.33a2.76,2.76,0,0,0,1.41,2.22,3.32,3.32,0,0,0,3.07-.37L295.7,217.46a7.59,7.59,0,0,0,3.61-7L274.75,38.62a2.73,2.73,0,0,0-1.41-2.21,3.31,3.31,0,0,0-3.07.36Z" style="fill:#e0e0e0"></path><polygon points="267.3 47.78 61.03 166.88 84.37 330.17 290.64 211.08 267.3 47.78" style="fill:#37474f"></polygon><polygon points="287.28 209.65 264.39 49.47 61.03 166.88 83.92 327.06 287.28 209.65" style="fill:#455a64"></polygon><path d="M165.06,106.81,80.54,303.38l3.83,26.79,52.37-30.24L237.85,64.79ZM87,151.89,65.9,200.94l6.59,46.14,49.66-115.5Zm197.85,18.57L259.69,229l30.95-17.87ZM267.78,51.12l-99,230.34,49.41-28.53L277,116Z" style="fill:#fff;opacity:0.05"></path></g><path d="M114,340.4l183.52-106a6,6,0,0,1,5.49,0l63.2,36.48c1.52.88,1.52,2.3,0,3.18l-183.52,106a6.06,6.06,0,0,1-5.5,0L114,343.57C112.52,342.69,112.52,341.27,114,340.4Z" style="fill:#e0e0e0"></path><path d="M190.12,371.25l-8.53-4.93a4,4,0,0,0-3.67,0l-8.27,4.78a1.11,1.11,0,0,0,0,2.11l8.53,4.93a4.09,4.09,0,0,0,3.67,0l8.27-4.78A1.11,1.11,0,0,0,190.12,371.25Z" style="fill:#fafafa"></path><path d="M208,361,199.42,356a4.07,4.07,0,0,0-3.66,0l-11.69,6.75a1.12,1.12,0,0,0,0,2.12l8.53,4.92a4,4,0,0,0,3.67,0L208,363.07A1.12,1.12,0,0,0,208,361Z" style="fill:#fafafa"></path><path d="M225.79,350.65l-8.54-4.92a4,4,0,0,0-3.66,0l-11.69,6.74a1.12,1.12,0,0,0,0,2.12l8.54,4.93a4.07,4.07,0,0,0,3.66,0l11.69-6.75A1.12,1.12,0,0,0,225.79,350.65Z" style="fill:#fafafa"></path><path d="M176.81,352.11l8.54,4.93a4.07,4.07,0,0,0,3.66,0l11.69-6.75a1.12,1.12,0,0,0,0-2.12l-8.54-4.93a4.07,4.07,0,0,0-3.66,0L176.81,350A1.12,1.12,0,0,0,176.81,352.11Z" style="fill:#fafafa"></path><path d="M291.38,312.79l-8.53-4.93a4,4,0,0,0-3.67,0l-59.44,34.32a1.11,1.11,0,0,0,0,2.11l8.53,4.93a4,4,0,0,0,3.67,0l6.22-3.61L241,344l50.35-29.07A1.11,1.11,0,0,0,291.38,312.79Z" style="fill:#fafafa"></path><path d="M182.87,358.47l-8.54-4.93a4.09,4.09,0,0,0-3.67,0L155,362.61a1.12,1.12,0,0,0,0,2.12l8.54,4.93a4.07,4.07,0,0,0,3.66,0l15.72-9.08A1.11,1.11,0,0,0,182.87,358.47Z" style="fill:#fafafa"></path><path d="M164.45,352.13l-8.53-4.93a4.09,4.09,0,0,0-3.67,0l-12,6.93a1.11,1.11,0,0,0,0,2.11l8.53,4.93a4,4,0,0,0,3.67,0l12-6.92A1.12,1.12,0,0,0,164.45,352.13Z" style="fill:#fafafa"></path><path d="M143.62,347.19l-8.54-4.93a4.07,4.07,0,0,0-3.66,0l-5.86,3.38a1.12,1.12,0,0,0,0,2.12l8.54,4.93a4.07,4.07,0,0,0,3.66,0l5.86-3.38A1.12,1.12,0,0,0,143.62,347.19Z" style="fill:#fafafa"></path><path d="M131.33,337.32l-2-1.16a4,4,0,0,0-3.66,0l-8.26,4.76a1.12,1.12,0,0,0,0,2.12l2,1.16a4,4,0,0,0,3.67,0l8.26-4.76A1.12,1.12,0,0,0,131.33,337.32Z" style="fill:#fafafa"></path><path d="M131.85,334.69l2,1.16a4,4,0,0,0,3.66,0l8.26-4.76a1.12,1.12,0,0,0,0-2.12l-2-1.16a4,4,0,0,0-3.66,0l-8.26,4.76A1.12,1.12,0,0,0,131.85,334.69Z" style="fill:#fafafa"></path><path d="M146.25,326.38l2,1.16a4.07,4.07,0,0,0,3.66,0l8.26-4.77a1.11,1.11,0,0,0,0-2.11l-2-1.17a4.07,4.07,0,0,0-3.66,0l-8.26,4.77A1.12,1.12,0,0,0,146.25,326.38Z" style="fill:#fafafa"></path><path d="M160.65,318.06l2,1.17a4.07,4.07,0,0,0,3.66,0l8.26-4.77a1.12,1.12,0,0,0,0-2.12l-2-1.16a4,4,0,0,0-3.66,0L160.65,316A1.11,1.11,0,0,0,160.65,318.06Z" style="fill:#fafafa"></path><path d="M175.05,309.75l2,1.16a4,4,0,0,0,3.66,0l8.26-4.77a1.11,1.11,0,0,0,0-2.11l-2-1.16a4,4,0,0,0-3.66,0l-8.26,4.76A1.12,1.12,0,0,0,175.05,309.75Z" style="fill:#fafafa"></path><path d="M189.45,301.43l2,1.17a4.07,4.07,0,0,0,3.66,0l8.26-4.77a1.11,1.11,0,0,0,0-2.11l-2-1.17a4.07,4.07,0,0,0-3.66,0l-8.26,4.77A1.11,1.11,0,0,0,189.45,301.43Z" style="fill:#fafafa"></path><path d="M203.85,293.12l2,1.16a4,4,0,0,0,3.66,0l8.26-4.76a1.12,1.12,0,0,0,0-2.12l-2-1.16a4,4,0,0,0-3.66,0L203.85,291A1.12,1.12,0,0,0,203.85,293.12Z" style="fill:#fafafa"></path><path d="M218.25,284.81l2,1.16a4.07,4.07,0,0,0,3.66,0l8.26-4.77a1.11,1.11,0,0,0,0-2.11l-2-1.17a4.07,4.07,0,0,0-3.66,0l-8.26,4.77A1.12,1.12,0,0,0,218.25,284.81Z" style="fill:#fafafa"></path><path d="M232.65,276.49l2,1.17a4.07,4.07,0,0,0,3.66,0l8.26-4.77a1.12,1.12,0,0,0,0-2.12l-2-1.16a4.07,4.07,0,0,0-3.66,0l-8.26,4.77A1.11,1.11,0,0,0,232.65,276.49Z" style="fill:#fafafa"></path><path d="M247.05,268.18l2,1.16a4,4,0,0,0,3.66,0l8.26-4.76a1.12,1.12,0,0,0,0-2.12l-2-1.16a4,4,0,0,0-3.66,0l-8.26,4.76A1.12,1.12,0,0,0,247.05,268.18Z" style="fill:#fafafa"></path><path d="M261.45,259.86l2,1.17a4.07,4.07,0,0,0,3.66,0l8.26-4.77a1.11,1.11,0,0,0,0-2.11l-2-1.17a4.07,4.07,0,0,0-3.66,0l-8.26,4.77A1.11,1.11,0,0,0,261.45,259.86Z" style="fill:#fafafa"></path><path d="M275.85,251.55l2,1.16a4,4,0,0,0,3.66,0l8.26-4.76a1.12,1.12,0,0,0,0-2.12l-2-1.16a4,4,0,0,0-3.66,0l-8.26,4.76A1.12,1.12,0,0,0,275.85,251.55Z" style="fill:#fafafa"></path><path d="M290.25,243.24l2,1.16a4,4,0,0,0,3.66,0l8.26-4.77a1.11,1.11,0,0,0,0-2.11l-2-1.17a4.07,4.07,0,0,0-3.66,0l-8.26,4.77A1.12,1.12,0,0,0,290.25,243.24Z" style="fill:#fafafa"></path><path d="M206.93,346.69l8.66-5a1.12,1.12,0,0,0,0-2.12l-8.53-4.92a4,4,0,0,0-3.67,0l-8.66,5a1.11,1.11,0,0,0,0,2.11l8.53,4.93A4,4,0,0,0,206.93,346.69Z" style="fill:#fafafa"></path><path d="M158.4,345.77l8.54,4.93a4.07,4.07,0,0,0,3.66,0l8.67-5a1.11,1.11,0,0,0,0-2.11l-8.54-4.93a4.07,4.07,0,0,0-3.66,0l-8.67,5A1.12,1.12,0,0,0,158.4,345.77Z" style="fill:#fafafa"></path><path d="M146.23,333.71l-8.66,5a1.12,1.12,0,0,0,0,2.12l8.53,4.93a4.09,4.09,0,0,0,3.67,0l8.66-5a1.12,1.12,0,0,0,0-2.12l-8.54-4.93A4.07,4.07,0,0,0,146.23,333.71Z" style="fill:#fafafa"></path><path d="M161,325.16l-8.66,5a1.12,1.12,0,0,0,0,2.12l8.53,4.93a4.09,4.09,0,0,0,3.67,0l8.66-5a1.11,1.11,0,0,0,0-2.11l-8.53-4.93A4.09,4.09,0,0,0,161,325.16Z" style="fill:#fafafa"></path><path d="M175.85,316.61l-8.66,5a1.12,1.12,0,0,0,0,2.12l8.53,4.93a4.09,4.09,0,0,0,3.67,0l8.66-5a1.11,1.11,0,0,0,0-2.11l-8.53-4.93A4.09,4.09,0,0,0,175.85,316.61Z" style="fill:#fafafa"></path><path d="M190.66,308.06l-8.66,5a1.12,1.12,0,0,0,0,2.12l8.53,4.93a4.09,4.09,0,0,0,3.67,0l8.66-5a1.11,1.11,0,0,0,0-2.11l-8.53-4.93A4,4,0,0,0,190.66,308.06Z" style="fill:#fafafa"></path><path d="M205.47,299.51l-8.66,5a1.12,1.12,0,0,0,0,2.12l8.54,4.92a4,4,0,0,0,3.66,0l8.66-5a1.11,1.11,0,0,0,0-2.11l-8.53-4.93A4,4,0,0,0,205.47,299.51Z" style="fill:#fafafa"></path><path d="M220.29,291l-8.67,5a1.11,1.11,0,0,0,0,2.11l8.54,4.93a4,4,0,0,0,3.66,0l8.67-5a1.12,1.12,0,0,0,0-2.12L224,291A4,4,0,0,0,220.29,291Z" style="fill:#fafafa"></path><path d="M235.1,282.41l-8.67,5a1.11,1.11,0,0,0,0,2.11l8.54,4.93a4,4,0,0,0,3.66,0l8.67-5a1.12,1.12,0,0,0,0-2.12l-8.54-4.92A4,4,0,0,0,235.1,282.41Z" style="fill:#fafafa"></path><path d="M249.91,273.85l-8.67,5a1.11,1.11,0,0,0,0,2.11l8.54,4.93a4.07,4.07,0,0,0,3.66,0l8.67-5a1.12,1.12,0,0,0,0-2.12l-8.54-4.93A4.07,4.07,0,0,0,249.91,273.85Z" style="fill:#fafafa"></path><path d="M264.72,265.3l-8.67,5a1.11,1.11,0,0,0,0,2.11l8.54,4.93a4.07,4.07,0,0,0,3.66,0l8.67-5a1.12,1.12,0,0,0,0-2.12l-8.54-4.93A4.07,4.07,0,0,0,264.72,265.3Z" style="fill:#fafafa"></path><path d="M279.53,256.75l-8.67,5a1.12,1.12,0,0,0,0,2.12l8.54,4.93a4.09,4.09,0,0,0,3.67,0l8.66-5a1.12,1.12,0,0,0,0-2.12l-8.54-4.93A4.07,4.07,0,0,0,279.53,256.75Z" style="fill:#fafafa"></path><path d="M306.54,253.13,298,248.2a4.09,4.09,0,0,0-3.67,0l-8.66,5a1.12,1.12,0,0,0,0,2.12l8.53,4.93a4.09,4.09,0,0,0,3.67,0l8.66-5A1.11,1.11,0,0,0,306.54,253.13Z" style="fill:#fafafa"></path><path d="M300.49,246.77,309,251.7a4.09,4.09,0,0,0,3.67,0l6.19-3.58a1.12,1.12,0,0,0,0-2.12l-8.53-4.93a4.09,4.09,0,0,0-3.67,0l-6.19,3.58A1.12,1.12,0,0,0,300.49,246.77Z" style="fill:#fafafa"></path><path d="M185.54,330.1a4.07,4.07,0,0,0-3.66,0l-8.67,5a1.12,1.12,0,0,0,0,2.12l8.54,4.93a4.07,4.07,0,0,0,3.66,0l8.67-5a1.11,1.11,0,0,0,0-2.11Z" style="fill:#fafafa"></path><path d="M200.22,333.59l8.67-5a1.11,1.11,0,0,0,0-2.11l-8.54-4.93a4,4,0,0,0-3.66,0l-8.67,5a1.12,1.12,0,0,0,0,2.12l8.54,4.92A4,4,0,0,0,200.22,333.59Z" style="fill:#fafafa"></path><path d="M215,325l8.67-5a1.11,1.11,0,0,0,0-2.11L215.16,313a4,4,0,0,0-3.66,0l-8.67,5a1.12,1.12,0,0,0,0,2.12l8.54,4.92A4,4,0,0,0,215,325Z" style="fill:#fafafa"></path><path d="M229.85,316.49l8.66-5a1.12,1.12,0,0,0,0-2.12L230,304.45a4,4,0,0,0-3.66,0l-8.66,5a1.11,1.11,0,0,0,0,2.11l8.53,4.93A4,4,0,0,0,229.85,316.49Z" style="fill:#fafafa"></path><path d="M244.66,307.94l8.66-5a1.12,1.12,0,0,0,0-2.12l-8.53-4.92a4,4,0,0,0-3.67,0l-8.66,5a1.11,1.11,0,0,0,0,2.11l8.53,4.93A4,4,0,0,0,244.66,307.94Z" style="fill:#fafafa"></path><path d="M259.47,299.39l8.66-5a1.12,1.12,0,0,0,0-2.12l-8.53-4.93a4.09,4.09,0,0,0-3.67,0l-8.66,5a1.11,1.11,0,0,0,0,2.11l8.53,4.93A4.09,4.09,0,0,0,259.47,299.39Z" style="fill:#fafafa"></path><path d="M274.28,290.84l8.66-5a1.12,1.12,0,0,0,0-2.12l-8.53-4.93a4.09,4.09,0,0,0-3.67,0l-8.66,5a1.11,1.11,0,0,0,0,2.11l8.53,4.93A4.09,4.09,0,0,0,274.28,290.84Z" style="fill:#fafafa"></path><path d="M289.09,282.29l8.66-5a1.12,1.12,0,0,0,0-2.12l-8.53-4.93a4.09,4.09,0,0,0-3.67,0l-8.66,5a1.12,1.12,0,0,0,0,2.12l8.53,4.93A4.09,4.09,0,0,0,289.09,282.29Z" style="fill:#fafafa"></path><path d="M303.9,273.74l8.67-5a1.11,1.11,0,0,0,0-2.11L304,261.69a4.09,4.09,0,0,0-3.67,0l-8.66,5a1.12,1.12,0,0,0,0,2.12l8.54,4.93A4.07,4.07,0,0,0,303.9,273.74Z" style="fill:#fafafa"></path><path d="M306.51,260.26l8.54,4.93a4.07,4.07,0,0,0,3.66,0l14.87-8.59a1.11,1.11,0,0,0,0-2.11L325,249.56a4,4,0,0,0-3.66,0l-14.87,8.58A1.12,1.12,0,0,0,306.51,260.26Z" style="fill:#fafafa"></path><path d="M221.78,338.12l8.66-5a1.12,1.12,0,0,0,0-2.12l-8.54-4.93a4.07,4.07,0,0,0-3.66,0l-8.67,5a1.11,1.11,0,0,0,0,2.11l8.54,4.93A4.09,4.09,0,0,0,221.78,338.12Z" style="fill:#fafafa"></path><path d="M236.62,329.55l8.67-5a1.11,1.11,0,0,0,0-2.11l-8.54-4.93a4.07,4.07,0,0,0-3.66,0l-8.67,5a1.12,1.12,0,0,0,0,2.12l8.54,4.93A4.07,4.07,0,0,0,236.62,329.55Z" style="fill:#fafafa"></path><path d="M251.47,321l8.67-5a1.11,1.11,0,0,0,0-2.11l-8.54-4.93a4,4,0,0,0-3.66,0l-8.67,5a1.12,1.12,0,0,0,0,2.12l8.54,4.92A4,4,0,0,0,251.47,321Z" style="fill:#fafafa"></path><path d="M266.32,312.4l8.67-5a1.12,1.12,0,0,0,0-2.12l-8.54-4.93a4.07,4.07,0,0,0-3.66,0l-8.67,5a1.11,1.11,0,0,0,0,2.11l8.54,4.93A4,4,0,0,0,266.32,312.4Z" style="fill:#fafafa"></path><path d="M281.17,303.83l8.66-5a1.12,1.12,0,0,0,0-2.12l-8.53-4.93a4.09,4.09,0,0,0-3.67,0l-8.66,5a1.12,1.12,0,0,0,0,2.12l8.54,4.93A4.07,4.07,0,0,0,281.17,303.83Z" style="fill:#fafafa"></path><path d="M296,295.26l8.66-5a1.11,1.11,0,0,0,0-2.11l-8.53-4.93a4,4,0,0,0-3.67,0l-8.66,5a1.12,1.12,0,0,0,0,2.12l8.53,4.93A4.09,4.09,0,0,0,296,295.26Z" style="fill:#fafafa"></path><path d="M310.87,286.68l8.66-5a1.12,1.12,0,0,0,0-2.12L311,274.64a4,4,0,0,0-3.67,0l-8.66,5a1.11,1.11,0,0,0,0,2.11l8.53,4.93A4,4,0,0,0,310.87,286.68Z" style="fill:#fafafa"></path><path d="M313.52,273.18l8.53,4.93a4.09,4.09,0,0,0,3.67,0l1-.6,2.76-1.59,18.76-10.83a1.12,1.12,0,0,0,0-2.12L339.74,258a4.09,4.09,0,0,0-3.67,0l-22.55,13A1.11,1.11,0,0,0,313.52,273.18Z" style="fill:#fafafa"></path><path d="M309.21,302.49l-8.53-4.93a4.09,4.09,0,0,0-3.67,0l-11.68,6.75a1.11,1.11,0,0,0,0,2.11l8.53,4.93a4,4,0,0,0,3.67,0l11.68-6.75A1.11,1.11,0,0,0,309.21,302.49Z" style="fill:#fafafa"></path><path d="M327.05,292.19l-8.54-4.93a4.07,4.07,0,0,0-3.66,0L303.16,294a1.12,1.12,0,0,0,0,2.12l8.54,4.93a4.07,4.07,0,0,0,3.66,0l11.69-6.75A1.12,1.12,0,0,0,327.05,292.19Z" style="fill:#fafafa"></path><path d="M339,285.28l-1.53-.88a4.07,4.07,0,0,0-3.66,0L328,287.77a1.11,1.11,0,0,0,0,2.11l1.52.88a4.07,4.07,0,0,0,3.66,0L339,287.4A1.12,1.12,0,0,0,339,285.28Z" style="fill:#fafafa"></path><path d="M351,278.37l-1.52-.88a4.07,4.07,0,0,0-3.66,0L340,280.85a1.12,1.12,0,0,0,0,2.12l1.53.88a4.07,4.07,0,0,0,3.66,0l5.82-3.37A1.11,1.11,0,0,0,351,278.37Z" style="fill:#fafafa"></path><path d="M363,271.45l-1.52-.87a4,4,0,0,0-3.67,0L352,273.94a1.11,1.11,0,0,0,0,2.11l1.52.88a4,4,0,0,0,3.67,0l5.82-3.36A1.12,1.12,0,0,0,363,271.45Z" style="fill:#fafafa"></path><path d="M342.46,273.44a4.09,4.09,0,0,0-3.67,0L333,276.8a1.12,1.12,0,0,0,0,2.12l1.52.88a4.09,4.09,0,0,0,3.67,0l5.82-3.37a1.11,1.11,0,0,0,0-2.11Z" style="fill:#fafafa"></path></g><g id="freepik--Awning--inject-34"><polygon points="61.03 166.87 251.42 56.95 294.95 85.08 260.56 104.94 257.51 106.7 104.57 195 61.03 166.87" style="fill:#fff"></polygon><polygon points="61.03 166.87 104.57 195 120.44 185.84 76.9 157.71 61.03 166.87" style="fill:#BA68C8"></polygon><polygon points="92.76 148.55 136.3 176.68 152.17 167.52 108.63 139.39 92.76 148.55" style="fill:#BA68C8"></polygon><polygon points="124.49 130.23 168.03 158.36 183.9 149.2 140.36 121.07 124.49 130.23" style="fill:#BA68C8"></polygon><polygon points="156.22 111.91 199.76 140.04 215.63 130.88 172.09 102.75 156.22 111.91" style="fill:#BA68C8"></polygon><polygon points="187.95 93.59 231.49 121.72 247.36 112.56 203.82 84.43 187.95 93.59" style="fill:#BA68C8"></polygon><polygon points="219.68 75.27 263.22 103.4 279.09 94.24 235.55 66.11 219.68 75.27" style="fill:#BA68C8"></polygon><polygon points="251.42 56.95 294.96 85.08 310.83 75.92 267.29 47.79 251.42 56.95" style="fill:#BA68C8"></polygon><path d="M104.57,195c0,5.06,3.55,7.11,7.93,4.58s7.94-8.68,7.94-13.74Z" style="fill:#BA68C8"></path><path d="M136.3,176.68c0,5.06,3.55,7.11,7.93,4.58a17.52,17.52,0,0,0,7.94-13.74Z" style="fill:#BA68C8"></path><path d="M168,158.36c0,5.06,3.56,7.11,7.94,4.58a17.53,17.53,0,0,0,7.93-13.74Z" style="fill:#BA68C8"></path><path d="M199.77,140c0,5.06,3.55,7.11,7.93,4.58a17.53,17.53,0,0,0,7.93-13.74Z" style="fill:#BA68C8"></path><path d="M231.5,121.72c0,5.06,3.55,7.11,7.93,4.58a17.53,17.53,0,0,0,7.93-13.74Z" style="fill:#BA68C8"></path><path d="M263.23,103.4c0,5.06,3.55,7.11,7.93,4.58s7.94-8.68,7.94-13.74Z" style="fill:#BA68C8"></path><path d="M295,85.22c0,5.06,3.55,7.11,7.93,4.58s7.94-8.68,7.94-13.74Z" style="fill:#BA68C8"></path><g style="opacity:0.30000000000000004"><path d="M104.57,195c0,5.06,3.55,7.11,7.93,4.58s7.94-8.68,7.94-13.74Z"></path><path d="M136.3,176.68c0,5.06,3.55,7.11,7.93,4.58a17.52,17.52,0,0,0,7.94-13.74Z"></path><path d="M168,158.36c0,5.06,3.56,7.11,7.94,4.58a17.53,17.53,0,0,0,7.93-13.74Z"></path><path d="M199.77,140c0,5.06,3.55,7.11,7.93,4.58a17.53,17.53,0,0,0,7.93-13.74Z"></path><path d="M231.5,121.72c0,5.06,3.55,7.11,7.93,4.58a17.53,17.53,0,0,0,7.93-13.74Z"></path><path d="M263.23,103.4c0,5.06,3.55,7.11,7.93,4.58s7.94-8.68,7.94-13.74Z"></path><path d="M295,85.22c0,5.06,3.55,7.11,7.93,4.58s7.94-8.68,7.94-13.74Z"></path></g><path d="M120.43,185.84c0,5.06,3.56,7.11,7.94,4.58a17.53,17.53,0,0,0,7.93-13.74Z" style="fill:#e0e0e0"></path><path d="M152.17,167.52c0,5.06,3.55,7.11,7.93,4.58A17.53,17.53,0,0,0,168,158.36Z" style="fill:#e0e0e0"></path><path d="M183.9,149.2c0,5.06,3.55,7.11,7.93,4.58A17.53,17.53,0,0,0,199.76,140Z" style="fill:#e0e0e0"></path><path d="M215.63,130.88c0,5.06,3.55,7.11,7.93,4.58s7.94-8.68,7.94-13.74Z" style="fill:#e0e0e0"></path><path d="M247.36,112.56c0,5.06,3.55,7.11,7.94,4.58a17.53,17.53,0,0,0,7.93-13.74Z" style="fill:#e0e0e0"></path><path d="M279.09,94.24c0,5.06,3.56,7.11,7.94,4.58A17.53,17.53,0,0,0,295,85.08Z" style="fill:#e0e0e0"></path></g></g><g id="freepik--credit-card--inject-34"><g id="freepik--Card--inject-34"><g id="freepik--card--inject-34"><path d="M117.59,456.39h0l-1.68,1a3.25,3.25,0,0,1-.56.28c-.16.08-.34.15-.52.22l-.16,0a5.18,5.18,0,0,1-.56.17l-.34.08a7.9,7.9,0,0,1-.87.14l-.31,0-.37,0a.4.4,0,0,0-.11,0h-.32a5,5,0,0,1-.55,0l-.56,0-.41-.06-.47-.08q-.41-.09-.78-.21a3.66,3.66,0,0,1-.43-.15l-.29-.11-.24-.12c-.13-.07-.26-.12-.39-.2l-15.2-8.77L45.05,421.24s-1.68-2.39-1.7-2.41,0,3.47,0,4.44a3,3,0,0,0,1.7,2.58L107.65,462l.45.23.47.2a7.72,7.72,0,0,0,.89.28l.39.09a6.86,6.86,0,0,0,.81.12,10.73,10.73,0,0,0,1.14.07h.41l.31,0,.36,0a9.53,9.53,0,0,0,1.09-.18,3.81,3.81,0,0,0,.45-.13l.09,0a3.45,3.45,0,0,0,.42-.14,2.83,2.83,0,0,0,.4-.17,3.25,3.25,0,0,0,.56-.28l1.7-1Z" style="fill:#BA68C8"></path><path d="M117.59,456.39h0l-1.68,1a3.25,3.25,0,0,1-.56.28c-.16.08-.34.15-.52.22l-.16,0a5.18,5.18,0,0,1-.56.17l-.34.08a7.9,7.9,0,0,1-.87.14l-.31,0-.37,0a.4.4,0,0,0-.11,0h-.32a5,5,0,0,1-.55,0l-.56,0-.41-.06-.47-.08q-.41-.09-.78-.21a3.66,3.66,0,0,1-.43-.15l-.29-.11-.24-.12c-.13-.07-.26-.12-.39-.2l-15.2-8.77L45.05,421.24s-1.68-2.39-1.7-2.41,0,3.47,0,4.44a3,3,0,0,0,1.7,2.58L107.65,462l.45.23.47.2a7.72,7.72,0,0,0,.89.28l.39.09a6.86,6.86,0,0,0,.81.12,10.73,10.73,0,0,0,1.14.07h.41l.31,0,.36,0a9.53,9.53,0,0,0,1.09-.18,3.81,3.81,0,0,0,.45-.13l.09,0a3.45,3.45,0,0,0,.42-.14,2.83,2.83,0,0,0,.4-.17,3.25,3.25,0,0,0,.56-.28l1.7-1Z" style="opacity:0.2"></path><path d="M192.26,413.28l-74.67,43.11h0l-1.68,1a8.94,8.94,0,0,1-5.23.94v4.61a8.77,8.77,0,0,0,5.23-.92l1.7-1,74.67-43.09Z" style="fill:#BA68C8"></path><g style="opacity:0.30000000000000004"><path d="M192.26,413.28l-74.67,43.11h0l-1.68,1a8.94,8.94,0,0,1-5.23.94v4.61a8.77,8.77,0,0,0,5.23-.92l1.7-1,74.67-43.09Z"></path></g><path d="M192.26,413.28l-76.37,44.09a6.77,6.77,0,0,1-1.4.59l-.39.11a9.47,9.47,0,0,1-2.33.28c-.34,0-.68,0-1-.05s-.44-.05-.65-.09a7.67,7.67,0,0,1-2-.62l-.44-.23-15.2-8.77-19-11L60.27,430l-15.22-8.77a.2.2,0,0,1-.09-.07,3.27,3.27,0,0,1-.41-.28,2.3,2.3,0,0,1-.28-.23,3,3,0,0,1-.49-.54.76.76,0,0,1-.12-.19,2.76,2.76,0,0,1-.2-.43,1.16,1.16,0,0,1-.08-.32,2.37,2.37,0,0,1,.94-2.17,4.16,4.16,0,0,1,.73-.53L118.59,374l2.82-1.63,19.32,11.15Z" style="fill:#BA68C8"></path><path d="M117.59,455.52l-1.29.74c-.42.25-.86.52-1.23.69a7.75,7.75,0,0,1-2.62.64,9.23,9.23,0,0,1-2.73-.2,7.42,7.42,0,0,1-1.28-.44c-.37-.18-.81-.45-1.24-.68-4.7-2.69-9.37-5.39-14.06-8.06l-38-21.15,52.48,30.3a8.43,8.43,0,0,0,4.12,1h.56a9.55,9.55,0,0,0,1.63-.23,6.87,6.87,0,0,0,1.93-.75l1.7-1Z" style="fill:#fff;opacity:0.6000000000000001"></path><path d="M111.78,458.35a8.51,8.51,0,0,1-4.12-1l-15.19-8.78h0l15.19,8.78A8.51,8.51,0,0,0,111.78,458.35Z" style="fill:#BA68C8"></path><path d="M148.65,438.46l-32.75,18.9a7.18,7.18,0,0,1-1.93.75,7.18,7.18,0,0,0,1.93-.75Z" style="fill:#fff;opacity:0.5"></path><path d="M192,413.15l-22.81,12.73c-13.82,7.83-27.56,15.77-41.34,23.66l-10.29,6v.86l31.05-17.93,43.61-25.17Z" style="fill:#fff"></path><path d="M192.26,413.28l-76.37,44.09a6.77,6.77,0,0,1-1.4.59l-.39.11a9.47,9.47,0,0,1-2.33.28c-.34,0-.68,0-1-.05s-.44-.05-.65-.09a7.56,7.56,0,0,1-2-.62,2.55,2.55,0,0,1-.33-.17.32.32,0,0,1-.13-.05L73.43,437.61,60.27,430l-15.21-8.78-.1-.06a3.27,3.27,0,0,1-.41-.28,2.3,2.3,0,0,1-.28-.23,3,3,0,0,1-.49-.54.76.76,0,0,1-.12-.19,2.76,2.76,0,0,1-.2-.43,1.16,1.16,0,0,1-.08-.32,2.37,2.37,0,0,1,.94-2.17,4,4,0,0,1,.75-.53L118.59,374l2.82-1.63,19.32,11.15Z" style="fill:#fff;opacity:0.1"></path><path d="M140.73,383.54,60.27,430l-15.21-8.78c-2.28-1.31-2.28-3.44,0-4.75l76.34-44.08Z" style="fill:#fafafa"></path><path d="M48.27,415.49,118.35,456l-2.45,1.41a9.13,9.13,0,0,1-8.12.06.44.44,0,0,1-.13-.05L60.27,430l-15.19-8.77a2.86,2.86,0,0,1-1.71-2.38c0-.11,0-.22,0-.33a4.14,4.14,0,0,1,.13-.43l0-.08a4.49,4.49,0,0,1,.24-.42,3.9,3.9,0,0,1,1.29-1.12l1.68-1h1.52Z" style="fill:#BA68C8"></path><polygon points="118.35 455.95 121.75 453.99 70.23 424.25 66.83 426.21 118.35 455.95" style="fill:#fafafa"></polygon><path d="M67.67,420.11a.9.9,0,0,1-.34.09.61.61,0,0,1-.32-.07l-7.31-4.22a.18.18,0,0,1-.11-.18.28.28,0,0,1,.16-.2l3.85-2.22a6.46,6.46,0,0,1,1.62-.68,6.08,6.08,0,0,1,1.46-.2,5,5,0,0,1,1.21.13,4,4,0,0,1,.88.34,1.66,1.66,0,0,1,.5.41,1,1,0,0,1,.21.76.87.87,0,0,1-.07.24,6,6,0,0,1,1.42,0,3.23,3.23,0,0,1,1.44.44,1.87,1.87,0,0,1,.67.6,1.21,1.21,0,0,1,.23.75,1.49,1.49,0,0,1-.33.82,3.32,3.32,0,0,1-1,.83ZM67.06,414a1.55,1.55,0,0,0-1-.2,3.18,3.18,0,0,0-1.21.45l-2.32,1.34,1.75,1,2.31-1.33c.45-.27.71-.5.77-.7S67.35,414.11,67.06,414Zm.6,4.53,2.42-1.4c.48-.28.74-.53.79-.76s-.08-.43-.36-.6a1.85,1.85,0,0,0-1.05-.2,3.17,3.17,0,0,0-1.31.44l-2.42,1.4Z" style="fill:#455a64"></path><path d="M72.51,408.16a.83.83,0,0,1,.41-.12,1.38,1.38,0,0,1,.47.06l10.36,2.28.09,0a.18.18,0,0,1,.11.18.28.28,0,0,1-.16.2l-.94.54a1.1,1.1,0,0,1-.46.16,1.55,1.55,0,0,1-.33,0l-1.82-.4-4.13,2.38.7,1.05a.38.38,0,0,1,0,.19c0,.08-.1.17-.27.27l-.94.54a.75.75,0,0,1-.34.1.61.61,0,0,1-.32-.07l-.07,0-4-6a.41.41,0,0,1-.1-.27c0-.08.08-.16.22-.24Zm5.69,2.46-4.66-1,1.79,2.7Z" style="fill:#455a64"></path><path d="M91.27,406.48a1,1,0,0,1-.45.14H90.5L82.13,406l4.66,2.69a.19.19,0,0,1,.11.19.27.27,0,0,1-.15.19l-1.06.61a.64.64,0,0,1-.34.09.53.53,0,0,1-.32-.06l-7.31-4.22a.18.18,0,0,1-.11-.18.28.28,0,0,1,.16-.2l.91-.53a1,1,0,0,1,.44-.13h.33l8.37.6-4.67-2.69a.18.18,0,0,1-.11-.18.28.28,0,0,1,.16-.2l1.06-.61a.9.9,0,0,1,.34-.09.73.73,0,0,1,.32.06l7.31,4.22a.19.19,0,0,1,.11.19.26.26,0,0,1-.16.19Z" style="fill:#455a64"></path><path d="M101,400.29l.18,0,.08,0a.17.17,0,0,1,.11.18c0,.08-.06.14-.15.2l-1.24.72a1.41,1.41,0,0,1-.54.17l-.33,0-6.06,0,3,1.71a.18.18,0,0,1,.11.18.28.28,0,0,1-.16.2l-1.06.61a.58.58,0,0,1-.33.09.56.56,0,0,1-.33-.06L87,400.18a.18.18,0,0,1-.11-.19.25.25,0,0,1,.15-.19l1.06-.61a.64.64,0,0,1,.34-.09.53.53,0,0,1,.32.06l2.66,1.53.13-3.21a.55.55,0,0,1,.07-.25.72.72,0,0,1,.27-.23l1.2-.7a.9.9,0,0,1,.34-.09.61.61,0,0,1,.32.07.15.15,0,0,1,.09.14l-.2,3.94Z" style="fill:#455a64"></path><path d="M107.32,435.75l-1.68,1a.53.53,0,0,1-.26.07.42.42,0,0,1-.26-.05.18.18,0,0,1-.09-.15.21.21,0,0,1,.13-.15l.56-.32-2.43-1.4a.86.86,0,0,0-.5-.11,1.26,1.26,0,0,0-.53.14h0a.6.6,0,0,1-.27.07.4.4,0,0,1-.25-.05c-.07,0-.1-.09-.09-.14a.21.21,0,0,1,.12-.16h0a2.23,2.23,0,0,1,1.08-.29,1.83,1.83,0,0,1,1,.2l2.43,1.4.56-.32a.47.47,0,0,1,.27-.07.4.4,0,0,1,.25.05c.07,0,.1.09.09.14A.24.24,0,0,1,107.32,435.75Z" style="fill:#fff"></path><path d="M109.51,432.81l-1.12.64a.45.45,0,0,0-.25.31.29.29,0,0,0,.18.3l.36.21.13,0a.2.2,0,0,0,.13,0l2.38-1.37a.6.6,0,0,1,.27-.07.42.42,0,0,1,.26.05.14.14,0,0,1,.09.14.27.27,0,0,1-.13.16L109,434.78a.59.59,0,0,1-.52,0l-.72-.42a.59.59,0,0,1-.36-.59.91.91,0,0,1,.5-.62l1.13-.64a.45.45,0,0,0,.25-.32.29.29,0,0,0-.17-.29l-.49-.28a.88.88,0,0,0-.51-.1,1.21,1.21,0,0,0-.54.15l-1.12.64a.45.45,0,0,0-.25.31.29.29,0,0,0,.18.3c.07,0,.1.08.09.14a.24.24,0,0,1-.13.16.6.6,0,0,1-.27.07.4.4,0,0,1-.25-.05.59.59,0,0,1-.36-.59.9.9,0,0,1,.51-.62l1.12-.64a2.35,2.35,0,0,1,1.08-.3,1.78,1.78,0,0,1,1,.21l.49.28a.58.58,0,0,1,.35.58A.89.89,0,0,1,109.51,432.81Z" style="fill:#fff"></path><path d="M115.35,429.71l.24.14a.59.59,0,0,1,.36.59.88.88,0,0,1-.51.62l-1.12.65a2.33,2.33,0,0,1-1.07.29,1.8,1.8,0,0,1-1-.21.15.15,0,0,1-.09-.14.24.24,0,0,1,.13-.16.6.6,0,0,1,.27-.07.53.53,0,0,1,.26.05.86.86,0,0,0,.5.1,1.2,1.2,0,0,0,.54-.14l1.12-.65a.43.43,0,0,0,.25-.31.27.27,0,0,0-.18-.29l-.24-.14a1,1,0,0,0-.51-.11,1.21,1.21,0,0,0-.54.15l-.27.16a.61.61,0,0,1-.27.08.67.67,0,0,1-.26-.05.18.18,0,0,1-.09-.15A.24.24,0,0,1,113,430l.28-.16a.48.48,0,0,0,.26-.31.3.3,0,0,0-.18-.29l-.25-.14a1,1,0,0,0-.5-.11,1.14,1.14,0,0,0-.54.15l-1.12.65a.43.43,0,0,0-.25.31c0,.12,0,.21.18.29a.15.15,0,0,1,.08.15.22.22,0,0,1-.12.15.61.61,0,0,1-.27.08.53.53,0,0,1-.26-.06.58.58,0,0,1-.35-.58.86.86,0,0,1,.5-.62l1.12-.65a2.34,2.34,0,0,1,1.08-.29,1.85,1.85,0,0,1,1,.2l.24.14a.67.67,0,0,1,.3.3.45.45,0,0,1,0,.34,3.08,3.08,0,0,1,.61,0A1.73,1.73,0,0,1,115.35,429.71Z" style="fill:#fff"></path><path d="M120.89,427.83a.21.21,0,0,1-.13.16.5.5,0,0,1-.27.07.4.4,0,0,1-.25-.05l-1.35-.77a1.09,1.09,0,0,1-.42.4l-1.12.64a2.23,2.23,0,0,1-1.08.29,1.85,1.85,0,0,1-1-.2l-1.21-.7a.14.14,0,0,1-.09-.15q0-.09.12-.15a.61.61,0,0,1,.27-.08.5.5,0,0,1,.26.06l1.21.69a.86.86,0,0,0,.5.11,1.14,1.14,0,0,0,.54-.15l1.12-.64a.46.46,0,0,0,.26-.32.31.31,0,0,0-.18-.29l-1.21-.7c-.07,0-.1-.08-.1-.14a.24.24,0,0,1,.13-.16.6.6,0,0,1,.27-.07.42.42,0,0,1,.26.05l3.39,2A.16.16,0,0,1,120.89,427.83Z" style="fill:#fff"></path><path d="M124.65,422.8a.28.28,0,0,0,.13,0,.2.2,0,0,0,.13,0l1.54-.89a2.47,2.47,0,0,1,1.08-.29,1.83,1.83,0,0,1,1,.21l.49.28a.57.57,0,0,1,.35.58.82.82,0,0,1-.5.62l-1.12.65a2.23,2.23,0,0,1-1.08.29,1.85,1.85,0,0,1-1-.2.14.14,0,0,1-.09-.15.24.24,0,0,1,.13-.16.66.66,0,0,1,.26-.07.5.5,0,0,1,.26,0,.86.86,0,0,0,.5.11,1.14,1.14,0,0,0,.54-.15l1.12-.65a.45.45,0,0,0,.26-.31.31.31,0,0,0-.18-.29l-.49-.28a.86.86,0,0,0-.5-.1,1.26,1.26,0,0,0-.54.14l-1.68,1a1.21,1.21,0,0,1-.54.15,1,1,0,0,1-.51-.1l-1.21-.7a.14.14,0,0,1-.09-.15.21.21,0,0,1,.13-.15l2.8-1.62a.54.54,0,0,1,.27-.07.4.4,0,0,1,.25.05c.07,0,.1.08.09.14a.27.27,0,0,1-.13.16l-2.38,1.37a.09.09,0,0,0-.06.08s0,.05.05.07Z" style="fill:#fff"></path><path d="M129.81,420l1.12-.65A2.35,2.35,0,0,1,132,419a1.92,1.92,0,0,1,1,.21l.49.28a.59.59,0,0,1,.36.59.89.89,0,0,1-.52.62l-1.12.65a2.43,2.43,0,0,1-1.07.29,1.74,1.74,0,0,1-1-.21l-1.94-1.12a.57.57,0,0,1-.36-.58.86.86,0,0,1,.51-.62l1.12-.65a2.35,2.35,0,0,1,1.08-.3,2,2,0,0,1,1,.21.14.14,0,0,1,.09.15.21.21,0,0,1-.13.15.61.61,0,0,1-.27.08.49.49,0,0,1-.25-.06,1,1,0,0,0-.51-.1,1.21,1.21,0,0,0-.54.15l-1.12.65a.42.42,0,0,0-.25.31c0,.11,0,.21.18.29l.62.36A1,1,0,0,1,129.81,420Zm.9,1.16a.86.86,0,0,0,.5.1,1.26,1.26,0,0,0,.54-.14l1.12-.65a.47.47,0,0,0,.26-.31.31.31,0,0,0-.18-.3l-.49-.28a1,1,0,0,0-.5-.1,1.21,1.21,0,0,0-.55.15l-1.12.65a.44.44,0,0,0-.25.31.31.31,0,0,0,.18.29Z" style="fill:#fff"></path><path d="M136.51,416.24l.8,1.91a0,0,0,0,0,0,0,0,0,0,0,1,0,0l0,0s0,0,0,0v0a.06.06,0,0,0,0,0l0,0,0,0a.73.73,0,0,1-.25.08.45.45,0,0,1-.27-.06c-.05,0-.08-.1-.1-.22-.26-.62-.52-1.21-.8-1.78a.59.59,0,0,0-.13-.17,1.31,1.31,0,0,0-.16-.13l-.08-.05a.86.86,0,0,0-.5-.1,1.14,1.14,0,0,0-.54.14l-.56.33-.28.16-1.12.65a.6.6,0,0,1-.27.07.49.49,0,0,1-.25-.05.14.14,0,0,1-.09-.15c0-.06,0-.11.13-.15l1.12-.65.28-.16.56-.33a2.39,2.39,0,0,1,1.07-.29,1.74,1.74,0,0,1,1,.21,1.54,1.54,0,0,1,.3.22A.8.8,0,0,1,136.51,416.24Z" style="fill:#fff"></path><path d="M142.22,414.2l.24.14a.59.59,0,0,1,.36.59.9.9,0,0,1-.51.62l-1.12.64a2.35,2.35,0,0,1-1.08.3,1.87,1.87,0,0,1-1-.21l-.24-.14a.76.76,0,0,1-.3-.29.48.48,0,0,1-.05-.35,2.38,2.38,0,0,1-.6,0,1.8,1.8,0,0,1-.51-.18l-.24-.14a.57.57,0,0,1-.36-.58.86.86,0,0,1,.51-.62l1.12-.65a2.23,2.23,0,0,1,1.08-.29,1.87,1.87,0,0,1,1,.2l.24.14a.7.7,0,0,1,.3.29.48.48,0,0,1,.05.35,2.94,2.94,0,0,1,.6,0A1.46,1.46,0,0,1,142.22,414.2Zm-2.26-.65a.88.88,0,0,0-.51-.11,1.13,1.13,0,0,0-.53.15l-1.12.65a.43.43,0,0,0-.26.31.31.31,0,0,0,.18.29l.25.14a.86.86,0,0,0,.5.1,1.26,1.26,0,0,0,.54-.14l1.12-.65a.43.43,0,0,0,.25-.31.27.27,0,0,0-.18-.29Zm1.7,1a.9.9,0,0,0-.51-.11,1.21,1.21,0,0,0-.54.15l-1.12.65a.44.44,0,0,0-.25.31.31.31,0,0,0,.18.29l.24.14a1,1,0,0,0,.51.1,1.21,1.21,0,0,0,.54-.15l1.11-.64a.45.45,0,0,0,.26-.31.29.29,0,0,0-.18-.29Z" style="fill:#fff"></path><path d="M151.27,410.38l-1.12.64a2.35,2.35,0,0,1-1.08.3,1.83,1.83,0,0,1-1-.21A.14.14,0,0,1,148,411a.21.21,0,0,1,.13-.15.45.45,0,0,1,.27-.07.4.4,0,0,1,.25.05,1,1,0,0,0,.5.1,1.14,1.14,0,0,0,.54-.15l1.12-.64a.47.47,0,0,0,.26-.31.3.3,0,0,0-.18-.3l-.62-.35a1.12,1.12,0,0,1-.43.4l-1.12.64a2.34,2.34,0,0,1-1.07.3,1.88,1.88,0,0,1-1-.21l-.48-.28a.57.57,0,0,1-.36-.58.86.86,0,0,1,.51-.62l1.12-.65a2.35,2.35,0,0,1,1.08-.3,1.83,1.83,0,0,1,1,.21l1.94,1.12a.57.57,0,0,1,.36.58A.89.89,0,0,1,151.27,410.38Zm-2.35-2a1,1,0,0,0-.5-.1,1.21,1.21,0,0,0-.55.15l-1.12.65a.42.42,0,0,0-.25.31.31.31,0,0,0,.18.29l.48.28a1,1,0,0,0,.51.1,1.21,1.21,0,0,0,.54-.15l1.12-.64a.43.43,0,0,0,.25-.31.29.29,0,0,0-.17-.3Z" style="fill:#fff"></path><path d="M155.46,408l-1.68,1a.67.67,0,0,1-.27.07.49.49,0,0,1-.25-.05.14.14,0,0,1-.09-.15.21.21,0,0,1,.13-.15l.56-.33-2.43-1.4a1,1,0,0,0-.5-.1,1.26,1.26,0,0,0-.53.14h0a.6.6,0,0,1-.27.07.39.39,0,0,1-.25-.05.14.14,0,0,1-.09-.15q0-.09.12-.15h0a2.35,2.35,0,0,1,1.08-.3,1.92,1.92,0,0,1,1,.21l2.43,1.4.56-.32a.54.54,0,0,1,.27-.08.49.49,0,0,1,.25.06.13.13,0,0,1,.09.14A.24.24,0,0,1,155.46,408Z" style="fill:#fff"></path><path d="M159.1,405.85l-1.12.65a2.16,2.16,0,0,1-1.07.29,1.83,1.83,0,0,1-1-.2L154,405.47a.59.59,0,0,1-.36-.59.9.9,0,0,1,.51-.62l1.12-.65a2.39,2.39,0,0,1,1.07-.29,1.74,1.74,0,0,1,1,.21l1.94,1.12a.57.57,0,0,1,.36.58A.88.88,0,0,1,159.1,405.85Zm-1.6.37,1.12-.65a.46.46,0,0,0,.2-.19l-4.26-.21,1.89,1.09a1,1,0,0,0,.51.11A1.21,1.21,0,0,0,157.5,406.22Zm-1.79-2.33-1.12.65a.65.65,0,0,0-.21.19l4.27.22-1.9-1.1a.86.86,0,0,0-.5-.1A1.14,1.14,0,0,0,155.71,403.89Z" style="fill:#fff"></path><path d="M163.3,403.43l-1.68,1a.5.5,0,0,1-.27.07.39.39,0,0,1-.25-.05.13.13,0,0,1-.09-.14c0-.06.05-.11.12-.16l.56-.32-2.42-1.4a.88.88,0,0,0-.5-.1,1.09,1.09,0,0,0-.54.14h0a.54.54,0,0,1-.27.08.49.49,0,0,1-.25-.06.15.15,0,0,1-.09-.14.24.24,0,0,1,.13-.16h0a2.33,2.33,0,0,1,1.07-.29,1.8,1.8,0,0,1,1,.21l2.42,1.39.56-.32a.6.6,0,0,1,.27-.07.47.47,0,0,1,.25.05.14.14,0,0,1,.09.15C163.42,403.34,163.37,403.39,163.3,403.43Z" style="fill:#fff"></path><path d="M157.78,418.14l-1.71,1a.6.6,0,0,1-.27.07.44.44,0,0,1-.26-.05.16.16,0,0,1-.09-.15.21.21,0,0,1,.13-.15l.57-.33-2.46-1.42a.92.92,0,0,0-.51-.11,1.14,1.14,0,0,0-.54.15h0a.61.61,0,0,1-.28.08.49.49,0,0,1-.25-.06A.13.13,0,0,1,152,417a.2.2,0,0,1,.13-.16h0a2.35,2.35,0,0,1,1.09-.3,1.85,1.85,0,0,1,1,.21l2.45,1.42.57-.33a.61.61,0,0,1,.28-.07.39.39,0,0,1,.25.05.14.14,0,0,1,.09.15C157.9,418,157.85,418.09,157.78,418.14Z" style="fill:#fff"></path><path d="M160,415.15l-1.13.66a.45.45,0,0,0-.26.31.31.31,0,0,0,.18.3l.37.21a.28.28,0,0,0,.13,0l.14,0,2.42-1.4a.54.54,0,0,1,.27-.07.53.53,0,0,1,.26.05.14.14,0,0,1,.09.15.27.27,0,0,1-.13.16l-2.85,1.64a.54.54,0,0,1-.27.07.44.44,0,0,1-.26-.05l-.73-.42a.59.59,0,0,1-.37-.6.89.89,0,0,1,.52-.63l1.13-.65a.44.44,0,0,0,.26-.32.29.29,0,0,0-.18-.3l-.49-.28a.9.9,0,0,0-.51-.11,1.21,1.21,0,0,0-.55.15l-1.14.66a.49.49,0,0,0-.26.32.31.31,0,0,0,.19.29.14.14,0,0,1,.09.15.24.24,0,0,1-.13.16.6.6,0,0,1-.27.07.42.42,0,0,1-.26-.05.61.61,0,0,1-.37-.59.94.94,0,0,1,.52-.63l1.14-.66a2.39,2.39,0,0,1,1.09-.3,1.81,1.81,0,0,1,1,.21l.49.28a.6.6,0,0,1,.36.6A.86.86,0,0,1,160,415.15Z" style="fill:#fff"></path><path d="M166.81,411.22l-1.14.65a.45.45,0,0,0-.25.32c0,.12,0,.21.18.29l.37.22a.24.24,0,0,0,.13,0,.28.28,0,0,0,.13,0l2.42-1.4a.5.5,0,0,1,.27-.07.42.42,0,0,1,.26,0,.14.14,0,0,1,.09.15.21.21,0,0,1-.13.15l-2.84,1.65a.77.77,0,0,1-.27.07.5.5,0,0,1-.26-.05l-.74-.43a.59.59,0,0,1-.36-.59.89.89,0,0,1,.51-.63l1.14-.66a.44.44,0,0,0,.26-.32c0-.12,0-.21-.18-.29l-.49-.29a.93.93,0,0,0-.52-.1,1.25,1.25,0,0,0-.55.15l-1.13.66a.45.45,0,0,0-.26.31.3.3,0,0,0,.18.3.14.14,0,0,1,.09.15.21.21,0,0,1-.12.15.61.61,0,0,1-.28.08.53.53,0,0,1-.26-.06.58.58,0,0,1-.36-.59.89.89,0,0,1,.52-.63l1.13-.65a2.2,2.2,0,0,1,1.1-.3,1.94,1.94,0,0,1,1,.2l.49.29a.59.59,0,0,1,.36.59A.92.92,0,0,1,166.81,411.22Z" style="fill:#fff"></path><path d="M172.74,408.08l.24.14a.59.59,0,0,1,.36.59.87.87,0,0,1-.51.63l-1.14.66a2.35,2.35,0,0,1-1.09.3,2,2,0,0,1-1-.21.18.18,0,0,1-.09-.15.24.24,0,0,1,.13-.16.6.6,0,0,1,.27-.07.41.41,0,0,1,.26.05.93.93,0,0,0,.52.1,1.06,1.06,0,0,0,.54-.14l1.14-.66a.45.45,0,0,0,.25-.31.29.29,0,0,0-.18-.3l-.24-.14a.93.93,0,0,0-.52-.11,1.17,1.17,0,0,0-.54.15l-.29.16a.5.5,0,0,1-.27.08.47.47,0,0,1-.25-.05.17.17,0,0,1-.1-.15.24.24,0,0,1,.13-.16l.29-.16a.45.45,0,0,0,.25-.32.29.29,0,0,0-.18-.3l-.24-.14a.93.93,0,0,0-.52-.1,1.14,1.14,0,0,0-.54.15l-1.14.65a.46.46,0,0,0-.26.32.29.29,0,0,0,.19.29.15.15,0,0,1,.08.15.2.2,0,0,1-.13.16.54.54,0,0,1-.27.08.49.49,0,0,1-.25-.06.58.58,0,0,1-.37-.59.89.89,0,0,1,.52-.63l1.13-.66a2.3,2.3,0,0,1,1.1-.29,1.88,1.88,0,0,1,1,.2l.25.15a.76.76,0,0,1,.3.29.5.5,0,0,1,.05.36,2.46,2.46,0,0,1,.61,0A1.87,1.87,0,0,1,172.74,408.08Z" style="fill:#fff"></path><path d="M164.52,414.93h0a.68.68,0,0,1-.43-.06L160.5,412c-.07-.06,0-.12.17-.14a.62.62,0,0,1,.43.06l3.56,2.85C164.72,414.85,164.66,414.91,164.52,414.93Z" style="fill:#fff"></path><path d="M97.09,415l10.37,6a.86.86,0,0,1,0,1.62L95,429.94a3.09,3.09,0,0,1-2.81,0L81.8,424a.85.85,0,0,1,0-1.62c3.43-2,9-5.33,12.48-7.31A3.12,3.12,0,0,1,97.09,415Z" style="fill:#BA68C8"></path><path d="M97.09,415l10.37,6a.86.86,0,0,1,0,1.62L95,429.94a3.09,3.09,0,0,1-2.81,0L81.8,424a.85.85,0,0,1,0-1.62c3.43-2,9-5.33,12.48-7.31A3.12,3.12,0,0,1,97.09,415Z" style="fill:#fff;opacity:0.7000000000000001"></path><path d="M104.63,419.38l-4.94,2.87L95,419.56l4.93-2.87-.64-.36L84,425.24l.63.37,4.93-2.87,4.66,2.69-4.93,2.87.63.36,15.32-8.91Zm-5.57,3.24-4.18,2.44-4.66-2.69,4.18-2.44Z" style="fill:#455a64"></path></g></g></g><g id="freepik--Plant--inject-34"><g id="freepik--plant--inject-34"><g id="freepik--Pot--inject-34"><path d="M78,357.84H30.88l4.88,20.31h0c.37,2.45,2.18,4.84,5.42,6.72,7.34,4.23,19.23,4.23,26.56,0,3.5-2,5.31-4.64,5.47-7.28Z" style="fill:#37474f"></path><path d="M72.29,371.76a19.59,19.59,0,0,0,2.83-2l2.65-10.85A18.84,18.84,0,0,1,73,362.72c-10,5.74-25.89,5.89-36.18.47l1.2-4.84-.37-.51H30.88l4.88,20.3h0c.37,2.45,2.18,4.84,5.42,6.72,5.23,3,12.76,3.87,19.32,2.59-11.75.87-19.82-4.26-21-9-.48-1.89-1.32-6.07-1.32-6.07C48,377.36,62.91,377.17,72.29,371.76Z" style="fill:#263238"></path><path d="M80.49,351.83a9.75,9.75,0,0,1-1.57,3.66A17.46,17.46,0,0,1,73,360.75c-10.23,5.91-26.84,5.91-37.08,0A17.51,17.51,0,0,1,30,355.49a9.91,9.91,0,0,1-1.57-3.66h0c-.91-4.45,1.59-9.08,7.49-12.49,10.24-5.91,26.85-5.91,37.08,0C78.9,342.75,81.41,347.38,80.49,351.83Z" style="fill:#455a64"></path><path d="M78.92,355.49A17.46,17.46,0,0,1,73,360.75c-10.23,5.91-26.84,5.91-37.08,0A17.51,17.51,0,0,1,30,355.49a9.91,9.91,0,0,1-1.57-3.66h0l1.17,8c.53,3.22,2.92,6.35,7.2,8.81,9.76,5.63,25.57,5.63,35.33,0,4.21-2.43,6.61-5.52,7.18-8.7l.06-.41,1.12-7.69A9.75,9.75,0,0,1,78.92,355.49Z" style="fill:#37474f"></path><path d="M69.91,341.12c-8.53-4.92-22.36-4.92-30.89,0-4.83,2.8-6.92,6.56-6.29,10.2.49,2.79,2.59,5.5,6.29,7.64,8.53,4.93,22.36,4.93,30.89,0,3.7-2.14,5.8-4.85,6.29-7.64C76.84,347.68,74.74,343.92,69.91,341.12Z" style="fill:#263238"></path><path d="M34.17,354.69A14.62,14.62,0,0,0,39,359c8.53,4.93,22.36,4.93,30.89,0a14.62,14.62,0,0,0,4.85-4.27c-.07-2.95-2-5.88-5.94-8.14C60.89,342,48,342,40.11,346.55,36.21,348.81,34.24,351.75,34.17,354.69Z" style="fill:#fafafa"></path></g><path d="M56.1,345.52c-3.92-1.06-4.59-9.55-2.39-18.52,2.14-8.72,9-21.79,10.43-21.51s3.27,14.5,2.25,23.89C65.15,340.75,60,346.59,56.1,345.52Z" style="fill:#BA68C8"></path><path d="M56.1,345.52c-3.92-1.06-4.59-9.55-2.39-18.52,2.14-8.72,9-21.79,10.43-21.51s3.27,14.5,2.25,23.89C65.15,340.75,60,346.59,56.1,345.52Z" style="opacity:0.30000000000000004"></path><path d="M58,318.07c.7,1.11,1.13,3,2.78,3,1.32,0,2-1.39,3.21-1.71a3.23,3.23,0,0,1,2.63.79c0-.34,0-.68,0-1a4,4,0,0,0-2.27-.81,3.42,3.42,0,0,0-1.9.86c-.61.48-1.36,1.19-2.2.85s-1.23-1.59-1.72-2.39a3.08,3.08,0,0,0-1-1.08c-.11.24-.21.48-.32.73A2.15,2.15,0,0,1,58,318.07Zm4.65-3.51A5.59,5.59,0,0,0,64,313.31a1.92,1.92,0,0,1,2-.39l.07,0c0-.3-.07-.6-.11-.89a2.34,2.34,0,0,0-.38-.09,2.19,2.19,0,0,0-1.63.35c-.55.39-.85,1.06-1.42,1.4-1,.62-1.84-.5-2.14-1.34-.14-.38-.25-.77-.37-1.14-.11.19-.21.39-.32.6.07.27.14.53.22.79C60.27,313.74,61.31,315.2,62.66,314.56Zm-.13,11.34a9.9,9.9,0,0,1-2.14,1.41c-2,.57-2.49-2.55-3.78-3.47a2.68,2.68,0,0,0-1.83-.48c-.08.24-.16.48-.23.72a2.51,2.51,0,0,1,1,0,2.76,2.76,0,0,1,1.77,1.57c.64,1.16,1.47,2.81,3.08,2.49a5,5,0,0,0,1.88-1.06,3.42,3.42,0,0,1,2.73-.73,3.65,3.65,0,0,1,1.54.82c0-.31,0-.62.05-.93a3.92,3.92,0,0,0-1.87-.83A3.52,3.52,0,0,0,62.53,325.9Zm1.23,6.86a3.93,3.93,0,0,0-2.67.35c-.94.46-1.62,1.36-2.6,1.73-2.13.81-2.46-2.28-4-3a3.14,3.14,0,0,0-1.61-.31c0,.24-.07.48-.1.72a3.22,3.22,0,0,1,.62,0,2.85,2.85,0,0,1,2.2,1.7c.76,1.41,1.75,2.55,3.48,1.71.92-.45,1.58-1.29,2.53-1.7a3,3,0,0,1,3.19.29,5.78,5.78,0,0,1,.6.74c.08-.3.15-.62.22-.93A3.4,3.4,0,0,0,63.76,332.76Z" style="fill:#BA68C8;opacity:0.5"></path><path d="M56.1,345.52c3.92,1.07,9.05-4.77,10.29-16.14a67.71,67.71,0,0,0,.22-9.75c-3.21,2.63-6.42,8-6.42,8a89.28,89.28,0,0,0-3.8-8.58A59.56,59.56,0,0,0,53.71,327C51.51,336,52.18,344.46,56.1,345.52Z" style="opacity:0.1"></path><path d="M52.9,350.23c-5.16,3.31-10-8.46-12.53-17.35s-.89-32.11,1.71-33.38c1.84-.9,11.58,19.91,13.49,30.05C57,336.87,57,347.6,52.9,350.23Z" style="fill:#BA68C8"></path><path d="M52.9,350.23c-5.16,3.31-10-8.46-12.53-17.35s-.89-32.11,1.71-33.38c1.84-.9,11.58,19.91,13.49,30.05C57,336.87,57,347.6,52.9,350.23Z" style="opacity:0.1"></path><path d="M41.77,315.9c1.62.8,2.91.8,4.17-.56s2-2.88,3.87-2.67c-.17-.41-.35-.82-.53-1.22a3,3,0,0,0-.89.09c-1.6.43-2.32,2.1-3.44,3.15-1.73,1.62-3.58-.51-5.54-.39l-.18,0c0,.36,0,.71,0,1.07A4.92,4.92,0,0,1,41.77,315.9Zm14.18,16a7,7,0,0,0-.85-.24,3.17,3.17,0,0,0-2.44.55c-1.56,1.15-1.63,3.69-4.15,3-1.92-.51-3.36-1.77-5.38-.76a7.07,7.07,0,0,0-1.85,1.39l.29.89a5.71,5.71,0,0,1,2.51-1.56c2.18-.56,3.82,1.64,6,1.28,1.76-.3,1.95-2.23,3.18-3.19a2.75,2.75,0,0,1,2.86-.18ZM41.86,307.47c.61.83,1.45,1.74,2.57,1.17s1.29-2.07,2.06-3l-.42-.8c-.75,1-1.12,3.18-2.55,3.1-1.12-.06-1.56-1.72-2.5-2.2a1.67,1.67,0,0,0-.93-.18c0,.22-.07.45-.1.68a1.55,1.55,0,0,1,.22,0C41,306.23,41.45,306.89,41.86,307.47Zm3.89,17.63c2,.44,3-2,4-3.33a6,6,0,0,1,2.82-2.39c-.13-.37-.27-.73-.41-1.1a4.08,4.08,0,0,0-1.06.4,7,7,0,0,0-2.21,2.24c-.62.92-1.12,2.15-2.07,2.76s-2.37-.39-3.5-.6a6.09,6.09,0,0,0-3.14.25,4.94,4.94,0,0,0-1,.47c0,.5,0,1,.08,1.49a4.78,4.78,0,0,1,3.3-1.11C43.75,324.2,44.63,324.86,45.75,325.1Z" style="fill:#BA68C8"></path><path d="M52.87,320.32a29,29,0,0,0-4.18,6.84s-5.6-7.59-9.53-11c-.22,6.3.09,12.89,1.21,16.75,2.56,8.89,7.37,20.66,12.53,17.35,4.1-2.63,4.06-13.36,2.67-20.68A63.39,63.39,0,0,0,52.87,320.32Z" style="opacity:0.1"></path><path d="M52.55,356.29c-9.43.51-18.25-5.2-24-12.4s-10.18-22.08-8.89-23,16.51,8.47,22.22,15.24C49.41,345,52.55,356.29,52.55,356.29Z" style="fill:#BA68C8"></path><path d="M52.55,356.29c-9.43.51-18.25-5.2-24-12.4s-10.18-22.08-8.89-23,16.51,8.47,22.22,15.24C49.41,345,52.55,356.29,52.55,356.29Z" style="opacity:0.2"></path><path d="M32,332.66c.55-.88.24-2,.12-2.91a2.66,2.66,0,0,1,.38-1.83l-1.06-.76a3.84,3.84,0,0,0-.39,2.56c.16,1.09.42,2.44-1,2.64s-3.78-1.2-5,.37c-.62.76-.38,1.73-.4,2.63a2.58,2.58,0,0,1-.34,1.14c.17.36.34.72.52,1.07a3.17,3.17,0,0,0,.7-1.6c.14-1.1-.29-2.51,1.19-2.75,1-.16,2,.32,3,.39A2.41,2.41,0,0,0,32,332.66Zm-5.26-7.87a2,2,0,0,1,.42-.45l-.85-.52c-.7.91-.69,2.16-1.39,3.07a1.6,1.6,0,0,1-1.78.5,3,3,0,0,0-2,.07,2.46,2.46,0,0,0-.39.22l.21.69a2.15,2.15,0,0,1,1-.28c.71,0,1.38.36,2.1.31a1.86,1.86,0,0,0,1.25-.64C26.06,326.91,26.1,325.72,26.7,324.79Zm10.45,12.64A4.65,4.65,0,0,0,38.58,335a16.56,16.56,0,0,0,.25-2c-.3-.26-.59-.53-.9-.79a9.67,9.67,0,0,1-.66,3.26A2.92,2.92,0,0,1,34.34,337a3.1,3.1,0,0,0-2.53.81,4.77,4.77,0,0,0-.94,2.53c-.19,1.31-.39,2.53-1.61,3.27a4.29,4.29,0,0,1-.65.31l.68.81a3.87,3.87,0,0,0,1.36-1c1.57-1.87.29-5.59,3.65-5.59A4.1,4.1,0,0,0,37.15,337.43Zm5.07.95a4.7,4.7,0,0,1,.71-1c-.27-.34-.54-.68-.82-1a6.08,6.08,0,0,0-1.51,3,8.67,8.67,0,0,1-1.23,3.51c-.82,1.06-2.12.95-3.21,1.55a4.59,4.59,0,0,0-2,2.35,11.19,11.19,0,0,0-.5,2.38l1,.82a.77.77,0,0,1,0-.15c.22-1.33.37-2.7,1.41-3.68s2.37-.8,3.44-1.55C41.55,343.14,41.2,340.38,42.22,338.38Zm4.09,3.93a7.26,7.26,0,0,0-.77.7c-1.61,1.77-1.41,4.06-2,6.23a3.8,3.8,0,0,1-2,2.69c-.9.37-1.92,0-2.7.72l-.07.09c.46.26.93.52,1.41.76a4.06,4.06,0,0,1,.78-.1,3.57,3.57,0,0,0,1.47-.35,4.16,4.16,0,0,0,1.79-2c1-2,.55-4.49,1.77-6.41a5.08,5.08,0,0,1,1-1.18Z" style="fill:#BA68C8"></path><path d="M31.31,327.1c.89,7.81,5.05,28.82,21.24,29.19,0,0-3.14-11.27-10.63-20.15A59.5,59.5,0,0,0,31.31,327.1Z" style="opacity:0.2"></path><path d="M52.55,356.29c-7.42-1.09-13.79-5.78-17.06-19.76S31.72,316.25,34,314.86c2.59-1.6,12.71,12.49,16,18.69C58.12,349.11,52.55,356.29,52.55,356.29Z" style="fill:#BA68C8"></path><path d="M38.78,330.47c1.85.58,4.26,1.19,5.65-.63a18.19,18.19,0,0,0,1.33-3c-.32-.47-.66-1-1-1.42-.82,1.31-.8,3.26-2.23,4a4.54,4.54,0,0,1-3.43-.13,8,8,0,0,0-3.41-.51,4.66,4.66,0,0,0-1.78.62c.08.41.18.84.26,1.27a5.12,5.12,0,0,1,.75-.35A5.61,5.61,0,0,1,38.78,330.47Zm-2.19-7.24a2.9,2.9,0,0,0,1.73.33c1.12-.23,1.71-1.32,2.29-2.2a4.09,4.09,0,0,1,.57-.73l-.7-.85a1,1,0,0,0-.14.15c-.7.85-1.29,2.58-2.6,2.6a8.3,8.3,0,0,1-1.85-.54,4.52,4.52,0,0,0-1.6,0,4,4,0,0,0-1.48.57c0,.32.08.66.12,1a4.41,4.41,0,0,1,2-.61A4,4,0,0,1,36.59,323.23Zm8.1,15.52A10.57,10.57,0,0,1,47,335.8a5,5,0,0,1,3.78-.67c-.25-.52-.52-1-.8-1.58a6.19,6.19,0,0,0-2.56.16,5.45,5.45,0,0,0-2.83,2.07,15.92,15.92,0,0,1-1.9,2.74c-1.51,1.38-3.55.17-5.24-.16a6.17,6.17,0,0,0-1.48-.12c.13.49.27,1,.41,1.43a6.35,6.35,0,0,1,1.95.3C40.8,340.75,43,341.22,44.69,338.75Zm8.54,2.72c-.12,0-.25.06-.37.11a5.73,5.73,0,0,0-2.51,1.89c-.72.93-1.1,2-1.78,3a2.34,2.34,0,0,1-3,1,5,5,0,0,0-3.26-.24,5.25,5.25,0,0,0-2.06,1.29c.25.37.51.72.77,1.07a4.31,4.31,0,0,1,1.6-.93,3.49,3.49,0,0,1,2.55.32,4,4,0,0,0,5.25-1.6c.64-.93,1-2,1.72-2.91a4.13,4.13,0,0,1,1.53-1.17C53.57,342.7,53.42,342.1,53.23,341.47Z" style="fill:#fff;opacity:0.2"></path><path d="M49.94,333.55c-.59-1.12-1.4-2.51-2.36-4-3.21,9.92-4.24,24.38,5,26.74C52.55,356.29,58.12,349.11,49.94,333.55Z" style="opacity:0.15"></path><path d="M56.38,356.29c9.43.51,18.25-5.2,24-12.4s10.18-22.08,8.89-23S72.72,329.37,67,336.14C59.52,345,56.38,356.29,56.38,356.29Z" style="fill:#BA68C8"></path><path d="M56.38,356.29c9.43.51,18.25-5.2,24-12.4s10.18-22.08,8.89-23S72.72,329.37,67,336.14C59.52,345,56.38,356.29,56.38,356.29Z" style="opacity:0.2"></path><path d="M79.32,333.61c1-.07,2-.55,3-.39,1.48.24,1,1.65,1.19,2.75a3.17,3.17,0,0,0,.7,1.6c.18-.35.35-.71.52-1.07a2.58,2.58,0,0,1-.34-1.14c0-.9.22-1.87-.4-2.63-1.27-1.57-3.47-.15-5.05-.37s-1.2-1.55-1-2.64a3.84,3.84,0,0,0-.39-2.56l-1.06.76a2.66,2.66,0,0,1,.38,1.83c-.12.95-.43,2,.12,2.91A2.41,2.41,0,0,0,79.32,333.61Zm4.32-5.85a1.86,1.86,0,0,0,1.25.64c.72.05,1.38-.33,2.1-.31a2.15,2.15,0,0,1,1,.28l.21-.69a2.46,2.46,0,0,0-.39-.22,3,3,0,0,0-2-.07,1.6,1.6,0,0,1-1.78-.5c-.7-.91-.69-2.16-1.39-3.07l-.85.52a2,2,0,0,1,.42.45C82.83,325.72,82.87,326.91,83.64,327.76Zm-9,10.38c3.36,0,2.07,3.72,3.65,5.59a3.87,3.87,0,0,0,1.36,1l.68-.81a4.29,4.29,0,0,1-.65-.31c-1.22-.74-1.42-2-1.61-3.27a4.77,4.77,0,0,0-.94-2.53,3.1,3.1,0,0,0-2.53-.81,2.92,2.92,0,0,1-2.93-1.53,9.67,9.67,0,0,1-.66-3.26c-.31.26-.6.53-.9.79a16.56,16.56,0,0,0,.25,2,4.65,4.65,0,0,0,1.43,2.43A4.1,4.1,0,0,0,74.63,338.14Zm-5.22,6.43c1.07.75,2.44.61,3.44,1.55s1.19,2.35,1.41,3.68c0,.05,0,.1,0,.15l1-.82a11.19,11.19,0,0,0-.5-2.38,4.59,4.59,0,0,0-2-2.35c-1.09-.6-2.39-.49-3.21-1.55a8.67,8.67,0,0,1-1.23-3.51,6.08,6.08,0,0,0-1.51-3c-.28.33-.55.67-.82,1a4.7,4.7,0,0,1,.71,1C67.73,340.38,67.38,343.14,69.41,344.57Zm-7.49-1.07a5.08,5.08,0,0,1,1,1.18c1.22,1.92.79,4.39,1.77,6.41a4.16,4.16,0,0,0,1.79,2,3.53,3.53,0,0,0,1.47.35,4.06,4.06,0,0,1,.78.1c.48-.24,1-.5,1.41-.76l-.07-.09c-.78-.71-1.8-.35-2.7-.72a3.8,3.8,0,0,1-2-2.69c-.59-2.17-.39-4.46-2-6.23a7.26,7.26,0,0,0-.77-.7Z" style="fill:#BA68C8"></path><path d="M77.62,327.1c-.89,7.81-5.05,28.82-21.24,29.19,0,0,3.14-11.27,10.63-20.15A59.5,59.5,0,0,1,77.62,327.1Z" style="opacity:0.2"></path><path d="M56.38,356.29c7.42-1.09,13.79-5.78,17.06-19.76s3.77-20.28,1.52-21.67c-2.59-1.6-12.71,12.49-16,18.69C50.81,349.11,56.38,356.29,56.38,356.29Z" style="fill:#BA68C8"></path><path d="M74,330.28a5.12,5.12,0,0,1,.75.35c.08-.43.18-.86.26-1.27a4.66,4.66,0,0,0-1.78-.62,8,8,0,0,0-3.41.51,4.54,4.54,0,0,1-3.43.13c-1.43-.75-1.41-2.7-2.23-4-.34.47-.67.95-1,1.42a18.19,18.19,0,0,0,1.33,3c1.39,1.82,3.8,1.21,5.64.63A5.64,5.64,0,0,1,74,330.28Zm0-7.36a4.41,4.41,0,0,1,2,.61c0-.34.09-.68.12-1a4,4,0,0,0-1.48-.57,4.52,4.52,0,0,0-1.6,0,8.3,8.3,0,0,1-1.85.54c-1.31,0-1.9-1.75-2.6-2.6a1,1,0,0,0-.14-.15l-.7.85a4.09,4.09,0,0,1,.57.73c.58.88,1.17,2,2.29,2.2a2.9,2.9,0,0,0,1.73-.33A4,4,0,0,1,74,322.92ZM70.64,340a6.35,6.35,0,0,1,2-.3c.14-.46.28-.94.41-1.43a6.17,6.17,0,0,0-1.48.12c-1.69.33-3.73,1.54-5.24.16a15.38,15.38,0,0,1-1.9-2.74,5.45,5.45,0,0,0-2.83-2.07,6.19,6.19,0,0,0-2.56-.16c-.28.54-.55,1.06-.8,1.58a5,5,0,0,1,3.78.67,10.57,10.57,0,0,1,2.27,2.95C65.93,341.22,68.13,340.75,70.64,340Zm-15.42,3.32a4.13,4.13,0,0,1,1.53,1.17c.72.88,1.08,2,1.72,2.91a4,4,0,0,0,5.25,1.6,3.49,3.49,0,0,1,2.55-.32,4.31,4.31,0,0,1,1.6.93c.26-.35.52-.7.77-1.07a5.25,5.25,0,0,0-2.06-1.29,5,5,0,0,0-3.26.24,2.34,2.34,0,0,1-3-1c-.68-1-1.06-2.07-1.78-3a5.73,5.73,0,0,0-2.51-1.89c-.12-.05-.25-.07-.37-.11C55.51,342.1,55.36,342.7,55.22,343.29Z" style="fill:#fff;opacity:0.2"></path><path d="M59,333.55c.59-1.12,1.4-2.51,2.36-4,3.21,9.92,4.24,24.38-5,26.74C56.38,356.29,50.81,349.11,59,333.55Z" style="opacity:0.15"></path><path d="M54.46,357.83c6.26,0,8.34-8.52,7.72-15.37s-5-19.9-7.72-19.9-7.08,13-7.71,19.9S48.21,357.83,54.46,357.83Z" style="fill:#BA68C8"></path><path d="M54.46,357.83c6.26,0,8.34-8.52,7.72-15.37s-5-19.9-7.72-19.9-7.08,13-7.71,19.9S48.21,357.83,54.46,357.83Z" style="fill:#fff;opacity:0.30000000000000004"></path><path d="M54.43,331.48a5.15,5.15,0,0,0,2.33-1.67,4,4,0,0,1,1.93-1c-.16-.4-.32-.8-.49-1.18a5.92,5.92,0,0,0-2.64,1.62,3.55,3.55,0,0,1-1.3,1c-.76.27-1.22-.14-1.72-.64a4.16,4.16,0,0,0-2.06-1.23h-.06l-.39,1a3.88,3.88,0,0,1,2.18,1.23A2.35,2.35,0,0,0,54.43,331.48ZM49.76,339c2.08,1.63,3.81-.68,5.14-2.06,1.11-1.15,2.29-1.39,3.56-.33a8.08,8.08,0,0,0,2.38,1.73,3.79,3.79,0,0,0,.72.18c-.08-.39-.17-.79-.26-1.19a7,7,0,0,1-2.54-1.69c-1.86-1.53-3.54-.89-5,.81-.85,1-2.23,2.65-3.63,1.6-.82-.61-1.22-1.66-2.08-2.26l0,0c-.09.35-.17.69-.25,1C48.57,337.34,49,338.38,49.76,339Zm2.34,7.5c1.18,1.56,2.65,1.95,4.25.61a27.39,27.39,0,0,1,2.15-2.16c1.19-.81,2.55-.39,3.78.09,0-.37,0-.74,0-1.11a8.07,8.07,0,0,0-1.73-.54,3.52,3.52,0,0,0-2.7.54c-.88.63-1.43,1.61-2.28,2.27a2.1,2.1,0,0,1-1.81.58c-.71-.26-1.14-1.16-1.66-1.68a5.23,5.23,0,0,0-2.42-1.39,4.45,4.45,0,0,0-3,.3c0,.35,0,.71,0,1.07A4.41,4.41,0,0,1,52.1,346.49ZM58,352.87a5,5,0,0,1-3.53,1.06,2.85,2.85,0,0,1-1.78-.78c-.34-.36-.59-.8-.95-1.15a4.11,4.11,0,0,0-2.35-1.16,4.51,4.51,0,0,0-2,.16c.11.38.23.76.37,1.12a3.27,3.27,0,0,1,3.11.43c.75.56,1.11,1.48,1.91,2a4.45,4.45,0,0,0,2.44.63,5.55,5.55,0,0,0,2.59-.64c.9-.47,1.54-1.29,2.42-1.79a3.9,3.9,0,0,1,.72-.33c.17-.46.33-.93.46-1.42a4.13,4.13,0,0,0-.87.19A8.59,8.59,0,0,0,58,352.87Z" style="fill:#fff;opacity:0.2"></path></g></g><g id="freepik--Shield--inject-34"><g id="freepik--shield--inject-34"><path d="M334.64,413.09a2.34,2.34,0,0,0-1.3-.37s0,0,0,0a2.09,2.09,0,0,0-1.32.45c-4.72,3.78-17.37,6.2-28.12,4.91h0a8.51,8.51,0,0,0-1.09-.06h0c-.78,0-1.22.2-1.22.52V424a.39.39,0,0,0,0,.18,9.59,9.59,0,0,1,.45,1.34,15.12,15.12,0,0,1-8.28,9.83c-.65.29-1.06.68-1.05,1.06v5.42c0,.24.17.48.55.68l20.64,11c5.61,3.23,15.62,5.86,26.87,5.92h.45c6.32-.06,12.28-.54,18.56-3.25a2.54,2.54,0,0,0,1.12-.93c2.28-3.4,3.27-6.47,3.25-9.31,0-.9,0-4.47,0-5.36C364.16,429.68,349.45,422.25,334.64,413.09Z" style="fill:#BA68C8"></path><path d="M334.64,413.09a2.34,2.34,0,0,0-1.3-.37s0,0,0,0a2.09,2.09,0,0,0-1.32.45c-4.72,3.78-17.37,6.2-28.12,4.91h0a8.51,8.51,0,0,0-1.09-.06h0c-.78,0-1.22.2-1.22.52V424a.39.39,0,0,0,0,.18,9.59,9.59,0,0,1,.45,1.34,15.12,15.12,0,0,1-8.28,9.83c-.65.29-1.06.68-1.05,1.06v5.42c0,.24.17.48.55.68l20.64,11c5.61,3.23,15.62,5.86,26.87,5.92h.45c6.32-.06,12.28-.54,18.56-3.25a2.54,2.54,0,0,0,1.12-.93c2.28-3.4,3.27-6.47,3.25-9.31,0-.9,0-4.47,0-5.36C364.16,429.68,349.45,422.25,334.64,413.09Z" style="opacity:0.2"></path><path d="M334.64,413.09c18.68,11.55,37.21,20.35,26.29,36.65a2.5,2.5,0,0,1-1.12.94c-6.28,2.71-12.24,3.19-18.56,3.25h-.45c-11.25-.06-21.26-2.69-26.87-5.92l-20.64-11c-1-.52-.56-1.26.5-1.74,6.36-2.91,10.45-10.44,7.83-16.59-.18-.43.27-.67,1.18-.69h0a8.51,8.51,0,0,1,1.09.06h0c10.75,1.29,23.4-1.13,28.12-4.91a2.09,2.09,0,0,1,1.32-.45s0,0,0,0A2.34,2.34,0,0,1,334.64,413.09Z" style="fill:#BA68C8"></path><g id="freepik--Check--inject-34"><polygon points="338.67 445.23 323.15 445.15 323.21 440.05 332.7 440.08 332.95 419.88 338.97 419.86 338.67 445.23" style="fill:#fafafa"></polygon></g></g></g><g id="freepik--Stars--inject-34"><g id="freepik--stars--inject-34"><path d="M469.86,372.79a6,6,0,0,1-2.77,4.6l-82.76,47.78a6.14,6.14,0,0,1-5.54,0l-20.43-11.8a5.2,5.2,0,0,1,0-9.19l82.76-47.78a6.08,6.08,0,0,1,5.54,0l20.43,11.79A5.93,5.93,0,0,1,469.86,372.79Z" style="fill:#BA68C8"></path><path d="M469.86,372.79a6,6,0,0,1-2.77,4.6l-82.76,47.78a6.14,6.14,0,0,1-5.54,0l-20.43-11.8a5.2,5.2,0,0,1,0-9.19l82.76-47.78a6.08,6.08,0,0,1,5.54,0l20.43,11.79A5.93,5.93,0,0,1,469.86,372.79Z" style="opacity:0.2"></path><path d="M467.51,368.47c1.1.89.95,2.12-.42,2.92l-34.5,19.92-48.26,27.86a5.79,5.79,0,0,1-2.77.67v6a5.67,5.67,0,0,0,2.77-.66l82.76-47.79a5.17,5.17,0,0,0,.42-8.91Z" style="fill:#BA68C8"></path><path d="M378.79,419.17l-20.43-11.79c-1.53-.89-1.53-2.32,0-3.2l82.76-47.78a6.08,6.08,0,0,1,5.54,0l20.43,11.79c1.53.89,1.53,2.32,0,3.2l-34.5,19.92-48.26,27.86A6.08,6.08,0,0,1,378.79,419.17Z" style="fill:#fafafa"></path><path d="M443.89,356.73h0a4.76,4.76,0,0,1,2.27.53l20.43,11.8c.4.23.65.51.65.73s-.25.5-.65.73l-34.5,19.92-48.26,27.87a5.21,5.21,0,0,1-4.54,0l-20.43-11.8c-.4-.23-.65-.51-.65-.73s.25-.51.65-.74l82.76-47.78a4.76,4.76,0,0,1,2.27-.53m0-1a5.6,5.6,0,0,0-2.77.67l-82.76,47.78c-1.53.88-1.53,2.31,0,3.2l20.43,11.79a6.14,6.14,0,0,0,5.54,0l48.26-27.86,34.5-19.92c1.53-.88,1.53-2.31,0-3.2L446.66,356.4a5.6,5.6,0,0,0-2.77-.67Z" style="fill:#BA68C8"></path><path d="M391.5,406.68l-4-1.71c-.25-.11-.41-.27-.43-.44l-.27-2.69c-.05-.42-.92-.7-1.48-.47l-3.53,1.45a1.37,1.37,0,0,1-.81,0l-4.52-1.05c-.71-.16-1.33.2-1.05.61l1.81,2.61a.31.31,0,0,1-.07.46l-2.51,2c-.4.33.09.83.83.86l4.65.15a1.38,1.38,0,0,1,.76.25l3,2.31c.47.36,1.4.32,1.56-.08l1.07-2.51a.63.63,0,0,1,.54-.31l4.35-.62C392.06,407.48,392.14,407,391.5,406.68Zm15.24-8.87-4-1.71c-.25-.11-.41-.27-.43-.44L402,393c0-.42-.91-.71-1.47-.48L397,394a1.47,1.47,0,0,1-.81,0l-4.52-1.05c-.72-.16-1.34.19-1,.61l1.81,2.61a.31.31,0,0,1-.07.46l-2.51,2c-.4.32.09.83.82.85l4.65.16a1.41,1.41,0,0,1,.77.25l3,2.31c.47.36,1.39.32,1.56-.08l1.07-2.51a.65.65,0,0,1,.54-.32l4.34-.61C407.3,398.61,407.38,398.08,406.74,397.81ZM422,388.94l-4-1.71a.66.66,0,0,1-.43-.44l-.28-2.69c0-.42-.91-.71-1.47-.48l-3.53,1.46a1.47,1.47,0,0,1-.81,0L407,384.07c-.72-.17-1.34.19-1.05.61l1.81,2.6a.32.32,0,0,1-.07.47l-2.52,2c-.39.32.09.83.83.85l4.65.16a1.33,1.33,0,0,1,.77.25l3,2.3c.47.37,1.39.32,1.56-.07l1.06-2.51a.67.67,0,0,1,.55-.32l4.34-.61C422.53,389.74,422.61,389.21,422,388.94Zm30.48-17.75-4-1.7c-.26-.11-.42-.28-.43-.45l-.28-2.68c0-.43-.92-.71-1.48-.48l-3.53,1.45a1.37,1.37,0,0,1-.81,0l-4.51-1c-.72-.17-1.34.19-1.05.6l1.81,2.61a.33.33,0,0,1-.07.47l-2.52,2c-.4.32.09.82.83.85l4.65.16a1.36,1.36,0,0,1,.77.25l3,2.3c.47.37,1.39.32,1.56-.08l1.06-2.51a.69.69,0,0,1,.55-.31l4.34-.61C453,372,453.09,371.47,452.46,371.19Zm-15.24,8.88-4-1.71c-.26-.11-.42-.28-.43-.45l-.28-2.68c0-.43-.92-.71-1.48-.48l-3.53,1.45a1.37,1.37,0,0,1-.81.05l-4.51-1.05c-.72-.17-1.34.19-1.05.61l1.81,2.6a.33.33,0,0,1-.07.47l-2.52,2c-.4.32.09.83.83.85l4.65.16a1.36,1.36,0,0,1,.77.25l3,2.3c.47.37,1.39.32,1.56-.08l1.06-2.5a.67.67,0,0,1,.55-.32l4.34-.61C437.77,380.87,437.85,380.34,437.22,380.07Z" style="fill:#BA68C8"></path></g></g><g id="freepik--Character--inject-34"><g id="freepik--character--inject-34"><g id="freepik--Bottom--inject-34"><path d="M196.11,311.69a13.66,13.66,0,0,1-1.59-4.34,26.49,26.49,0,0,0-1.67-6.3c-.51-1.06-1.22-2-1.8-3a6.42,6.42,0,0,1-1-3.35c.09-2,1.74-3,3.21-4.13a10.67,10.67,0,0,0,3.23-2.91c1-1.5,3.62-9.62,3.62-9.62l9.56,7.63s-5.07,7.05-6.09,9.54a12.35,12.35,0,0,0-1.19,4.11,11.81,11.81,0,0,0,.84,3.84,8.69,8.69,0,0,0,1.33,2.45c.7.75,2,1.07,2.85,1.65a7.4,7.4,0,0,1,2.37,2.45,1.43,1.43,0,0,1,0,1.64c-.19.25-.47.42-.66.67a6,6,0,0,1-.63.89,7.34,7.34,0,0,1-2.49,1.45,9.94,9.94,0,0,1-5.44.57A6.66,6.66,0,0,1,196.11,311.69Z" style="fill:#ffbda7"></path><path d="M189.52,292.39c-1.82.86-1.75,2.46-1.47,4.14s2.25,4,3.11,5.28a6,6,0,0,1,1.44,4.3c.1,2.62.55,5.45,3.26,7.26,2.52,1.68,5.45,2.5,9.76,2,2.84-.33,5.34-1.47,5.55-2.47a7,7,0,0,0-1-3.84c-.44-.48-7-2.59-9.49-4.74S189.52,292.39,189.52,292.39Z" style="fill:#263238"></path><path d="M196.74,287.14c-.5-.23-.79-.15-1.58.68a12.16,12.16,0,0,1-2.43,1.92c-1.53,1-4.07,1.89-3.64,5.42.27,2.14,1.48,3.93,2.63,5.69a12.87,12.87,0,0,1,1.17,2.2,13.54,13.54,0,0,1,.55,3.64,10.35,10.35,0,0,0,.66,2.33,7.32,7.32,0,0,0,1,2,6.11,6.11,0,0,0,1.66,1.46c2.35,1.54,5.46,1.69,8.18,1.48a10.67,10.67,0,0,0,1.49-.2,8.08,8.08,0,0,0,2.21-.87,5.24,5.24,0,0,0,1.79-1.39c.79-1.38-.39-2.87-1.26-3.84a6.5,6.5,0,0,0-3-1.76c-2.52-.74-3.17-6.64-3.15-7.36a5.55,5.55,0,0,1,1-3c.67-1.21.92-1.56-1.08-1.6-1.77,0-5.41-.16-6.31,2.38,0,0,.67-2.65.24-3.55s-1.67-2.8-.85-4.4A3.81,3.81,0,0,0,196.74,287.14Z" style="fill:#37474f"></path><path d="M196.53,312.47c.08-1.65,1.78-4.14,4.55-5.6a7.9,7.9,0,0,1,5.79-1,5.9,5.9,0,0,1,4.31,5.15C210.29,314.1,200.83,316.07,196.53,312.47Z" style="fill:#fafafa"></path><path d="M217.11,245.66s-3.17-5.24-3-10.12,2.59-16.37,2.59-16.37h26.72c1.31,10.11-.8,18.75-1.94,25.86-1.55,8.3-2.33,11.35-4.54,15.11-2.3,3.92-4.59,7-13.79,15.45-8.25,7.62-15.33,14.09-15.33,14.09s-2.89.49-6-3.28a14,14,0,0,1-2.4-5.46s7-14.28,10.76-18.73a61.78,61.78,0,0,1,6.78-7Z" style="fill:#263238"></path><path d="M220.69,312.28l1.67,10.18s1.16,3.66,4.3,4.22,6.78-5.11,6.78-5.11l-.15-10.75Z" style="fill:#ffbda7"></path><path d="M220.69,329.1a3.26,3.26,0,0,0,1.13,2.7,20.92,20.92,0,0,0,4.16,2.36,6.77,6.77,0,0,1,3.13,2.91c.57,1.29,1.54,4.12,6.42,5.55a15.56,15.56,0,0,0,10.35-.4c1.7-.7,3.2-2.18,3-3.64C248.68,337,220.69,329.1,220.69,329.1Z" style="fill:#263238"></path><path d="M223.07,321.47a1.9,1.9,0,0,1-1-.82l-.17-1c-.33-.09-.88.58-.89.93,0,3.13-1.45,6-.2,9.09,1,2.53,5.13,2.75,7,4.55,2.1,2,2.59,6.11,8.8,7.4,5.6,1.15,10.75-1.46,12.26-3.05,0,0,.33-3.82-2.23-4.63-1.79-.57-3.38-1.09-6.27-3.92a30.84,30.84,0,0,1-3.09-3.74,11.66,11.66,0,0,1-2.51-4.89,2,2,0,0,0-.58-1.35,1.82,1.82,0,0,0-1.56.05,17.22,17.22,0,0,1-4.83.82,2,2,0,0,0-1.16.24c-.58.4-.54,1.28-.32,1.95a3.66,3.66,0,0,1,.37,2.06c-1.24-.76-1.56-2.54-2.8-3.3A8.09,8.09,0,0,0,223.07,321.47Z" style="fill:#37474f"></path><path d="M234.06,340.81c-.14-2.68,1-5,4.07-6.85,2.13-1.29,4.93-1.66,6.09-1.3s3.85,1.07,4.35,2.88a8.11,8.11,0,0,1,.32,3s-2.22,2.83-7.76,3.33C236.35,342.35,234.06,340.81,234.06,340.81Z" style="fill:#fafafa"></path><path d="M216.12,276.87c-2.4,6.76.85,19.06,1.79,24.84.5,3.05,2.58,12.49,2.58,12.49s1.91,2,6.84,1.73,6.16-1.61,6.16-1.61.4-19.56.56-29a79.83,79.83,0,0,0-.76-13.84c-.2-4.05-2.6-17.3-4.45-25.25l-1.54-7.66s10.43-2.57,12.59-13.52l-31.64-12.33a35.92,35.92,0,0,0-5,9.06c-1.45,4.15-2.94,7.63-2.71,14.63.16,5.2,2.2,9.59,3.31,13.32C204.86,253.25,214.79,273.84,216.12,276.87Z" style="fill:#37474f"></path><path d="M223.5,248a114.72,114.72,0,0,1,4.29,14.45c.56,2.46,1,4.94,1.37,7.44.18,1.25.32,2.5.44,3.76.05.64.13,1.27.16,1.9s.05,1.28.05,1.91c0,5.05.66,25.92,0,30.9.12-5-1.38-28.4-1.41-30.88,0-.63,0-1.24,0-1.85s-.09-1.24-.14-1.85c-.11-1.24-.25-2.48-.39-3.72-.29-2.47-.69-4.93-1.13-7.39C225.81,257.75,224.69,252.87,223.5,248Z" style="fill:#263238"></path></g><g id="freepik--Top--inject-34"><path d="M228.34,165.37c-.44,4.38-1.49,8.94-4.47,12.18a18.23,18.23,0,0,1-7.34,4.94,15.41,15.41,0,0,1-8.55.25c-1.64-.54-2.17-1.12-2.08-1.74a2.83,2.83,0,0,0,2.19-.8,5.65,5.65,0,0,1-3.43-.21,3.56,3.56,0,0,1-2.15-2.57,5.81,5.81,0,0,0,4.61-1.91,10.42,10.42,0,0,0,2.34-4.55c.87-3.33.73-6.83.67-10.27s0-7,1.19-10.21,3.82-6.12,7.21-6.75a5,5,0,0,1,4.15.89c1.45,1.25,2.81,2.24,3.65,4a21.42,21.42,0,0,1,1.66,6c.3,1.88.42,3.76.64,5.65A23.21,23.21,0,0,1,228.34,165.37Z" style="fill:#263238"></path><g id="freepik--Arm--inject-34"><path d="M238.82,173.37c-1.18,1.5-4.69,7.18-2.27,16.64a163.2,163.2,0,0,0,4.82,16.74c1.95,5.62,2.55,7,6.85,9.37a114.63,114.63,0,0,0,20.6,8.56,6.32,6.32,0,0,0,3.86-.3,9.18,9.18,0,0,0,2.63-1.38c1.06-.78,1.08-2.21,1.44-3.34.64-2,1.35-4.07,2-6.12.28-.93.85-1.91.53-2.9-.06-.2-.28-.47-.47-.48,0,0,.27-.87.4-1.27.24-.72.55-2.11-.23-2.64s-1.71,1.08-1.71,1.08a5.7,5.7,0,0,0,.91-2.32c0-1.06-.64-1.86-1.35-1.44a4.56,4.56,0,0,0-1.22,1.19,1.17,1.17,0,0,0-1-.16,4,4,0,0,0-2.17,2,16.7,16.7,0,0,0-1.57,3,15.13,15.13,0,0,1-1.41,3.12,3.63,3.63,0,0,1-1.79,1.37c-.87.28-9.21-7.05-12.47-9.74,0,0-3.72-14-5.39-19.07C248,179.85,245.37,173.68,238.82,173.37Z" style="fill:#ffbda7"></path><path d="M276.75,219.66l1.48-4.85c.25-.8.5-1.62.79-2.41a3.6,3.6,0,0,0,.23-1.2,1.81,1.81,0,0,0-.12-.58c-.07-.16-.23-.34-.35-.35a.11.11,0,0,1-.1-.12v0a8,8,0,0,0,.61-3c-.06-.47-.43-1-.85-.73a3.55,3.55,0,0,0-1.09,1,.13.13,0,0,1-.19,0,.13.13,0,0,1,0-.18,8.21,8.21,0,0,0,.73-1.45,2.1,2.1,0,0,0,0-1.54,1.2,1.2,0,0,0-.43-.61.56.56,0,0,0-.66,0,4.26,4.26,0,0,0-1.15,1.13.09.09,0,0,1-.13,0h0a1.51,1.51,0,0,0-1.63.16,5.09,5.09,0,0,0-1.24,1.33,16.42,16.42,0,0,0-1.81,3.22,16.35,16.35,0,0,1,1.7-3.3,4.74,4.74,0,0,1,1.26-1.38,1.63,1.63,0,0,1,1.85-.16h-.14a4.53,4.53,0,0,1,1.19-1.2.78.78,0,0,1,.89,0,1.42,1.42,0,0,1,.52.72,2.27,2.27,0,0,1,0,1.7,8,8,0,0,1-.75,1.52l-.22-.16a3.46,3.46,0,0,1,1.19-1.12.72.72,0,0,1,.87.15,1.43,1.43,0,0,1,.36.79,4.12,4.12,0,0,1-.18,1.61l-.48,1.51-.1-.14c.58.17.63.73.66,1.14a3.59,3.59,0,0,1-.25,1.27c-.31.8-.56,1.59-.82,2.4Z" style="fill:#f0997a"></path><path d="M275.68,204.65a1.19,1.19,0,0,1,.25,1.22,4.23,4.23,0,0,1-.47,1.09,17.16,17.16,0,0,0-1.12,2,18.81,18.81,0,0,0-.87,2.14l-.7,2.2.63-2.23a18.88,18.88,0,0,1,.81-2.17,16.67,16.67,0,0,1,1.06-2.06,4.05,4.05,0,0,0,.42-1,.93.93,0,0,0-.2-.94Z" style="fill:#f0997a"></path><path d="M277.37,207.39c-.44,1-.84,2-1.21,3s-.74,2-1,3.09c.23-1.06.56-2.1.88-3.13s.68-2.07,1.09-3.08Z" style="fill:#f0997a"></path><path d="M273.39,217.85a4.57,4.57,0,0,0-2.12-2.07c-.07,0-.07.1,0,.12a5.13,5.13,0,0,1,1.7,2,7,7,0,0,1,.57,2.5c0,.3,0,.62.06.92a.17.17,0,0,0,.14-.16,10,10,0,0,0,.14-1.81A3.68,3.68,0,0,0,273.39,217.85Z" style="fill:#f0997a"></path><path d="M278.92,210.22a37.1,37.1,0,0,0-1.54,3.68,39.38,39.38,0,0,1,1.27-3.8Z" style="fill:#f0997a"></path><path d="M269.67,211.52c.11-1.88-.92-2.82-1.69-2.56s-.72,2.54-1.15,4-2.83,8,.05,10l2.94-7.43C269.4,214.93,269.59,213,269.67,211.52Z" style="fill:#ffbda7"></path><path d="M269.82,215.47a2.72,2.72,0,0,1-.29-1.35c0-.47,0-.93,0-1.4a6.35,6.35,0,0,0-.17-2.72,1.58,1.58,0,0,0-.86-.93.66.66,0,0,0-.57.05,1,1,0,0,0-.32.53c-.26.86-.3,1.8-.49,2.72a38.54,38.54,0,0,0-1.41,5.39,9.39,9.39,0,0,0-.06,2.75,3.42,3.42,0,0,0,1.23,2.39,3.49,3.49,0,0,1-1.37-2.36,9.45,9.45,0,0,1,0-2.81,38.25,38.25,0,0,1,1.32-5.42,27.68,27.68,0,0,1,.55-2.74,1.24,1.24,0,0,1,.41-.64.91.91,0,0,1,.77-.06,1.78,1.78,0,0,1,1,1.06C270.16,211.79,269.18,213.69,269.82,215.47Z" style="fill:#f0997a"></path></g><path d="M228,174a59.88,59.88,0,0,1,10.86-.58c1.44.24,7.54,7.68,10.91,15.89s-5,13-5,13-1.14,9.07-1.16,11,1.2,4.92,0,7c-1.52,2.54-9.14,8.15-20.77,6.25-8.73-1.42-19.25-8.34-16.59-12.87,4.45-7.26,4.6-7.69,4.3-14.37-.21-4.51-.83-8.57,0-12.67,1.14-5.8,3.23-6.39,5.38-8.07C223,175.12,225.08,174.56,228,174Z" style="fill:#BA68C8"></path><g id="freepik--Head--inject-34"><path d="M224.34,169.11s-2.75-4-4.26-6.6-5.85-11.41.39-15.07c.21-2.93,3.19-5.7,8.83-6.85a16.06,16.06,0,0,1,13.41,2.88c3.89,3.1,6.52,11.05,1.34,15.41Z" style="fill:#263238"></path><path d="M243.24,148.56s1.9,2.07,1.54,7.88c-.07,1,.61,2.81.57,5.37-.09,5.83-2.52,8.69-5.44,9.74a9.52,9.52,0,0,1-4.26.22l-.25,3.33a30.79,30.79,0,0,1,3.84,14.18,103.74,103.74,0,0,0-15.93-13.47l1.13-9.45s-1.66,1.29-3.64-.71c-2.19-2.19-2.05-5.62-.24-6.81,2.65-1.75,4.42.29,5,1.53s2.74.45,1.51-3.3c1.33-.29,3.23-4.46,3-7.48C234.71,151.58,240.45,151.26,243.24,148.56Z" style="fill:#ffbda7"></path><path d="M233.77,154.08l-2.57,1.15a1.34,1.34,0,0,1,.65-1.84A1.49,1.49,0,0,1,233.77,154.08Z" style="fill:#263238"></path><path d="M240.57,154.63l2.7.77a1.35,1.35,0,0,0-.92-1.73A1.47,1.47,0,0,0,240.57,154.63Z" style="fill:#263238"></path><polygon points="237.02 156.63 237.37 162.98 241.03 161.82 237.02 156.63" style="fill:#f0997a"></polygon><path d="M235.65,171.77a24,24,0,0,1-7.66-2.7,7.23,7.23,0,0,1-2.18-3s.24,2.87,1.81,4.14c2.48,2,7.9,3.31,7.9,3.31Z" style="fill:#f0997a"></path><path d="M240.57,157.68a1.22,1.22,0,0,0,1.29,1.11,1.15,1.15,0,0,0,1.1-1.24,1.23,1.23,0,0,0-1.29-1.11A1.15,1.15,0,0,0,240.57,157.68Z" style="fill:#263238"></path><path d="M231.87,157.51A1.24,1.24,0,0,0,233,158.8a1.15,1.15,0,0,0,1.26-1.07,1.22,1.22,0,0,0-1.11-1.29A1.15,1.15,0,0,0,231.87,157.51Z" style="fill:#263238"></path><path d="M234.41,164.07a2,2,0,0,0,3.73,1.56Z" style="fill:#b16668"></path><path d="M234.27,164.69a2,2,0,0,0,2,2.18,2.23,2.23,0,0,0-2-2.18Z" style="fill:#f28f8f"></path></g><g id="freepik--arm--inject-34"><path d="M215.82,178.55c-3.9,1.7-7.23,6.06-4.72,13.18A164.76,164.76,0,0,0,220.2,212a23,23,0,0,0,7.63,8.77c10.7,7.62,21.06,13.43,22.42,13.94s2.84.17,5.29-.62,3.1-2.61,4.6-4.21,3.78-3.21,3.2-3.82c-.71-.77-1.87-.82-3.77.34s-2.24,1.72-1-1.69a27.86,27.86,0,0,1,2.67-5.39c.64-1.33.33-2.26-.3-2.71s-1.74,1-1.74,1a5.8,5.8,0,0,0,1-2.3c0-1.05-.59-1.88-1.3-1.48a4.48,4.48,0,0,0-1.26,1.16c-.37-.36-1.75-.52-3,1.41,0,0-.64-1-2.58.88-1.59,1.57-2.8,5-3.42,6.61-.47,1.23-15.3-15.9-15.3-15.9L226,190.42S220.75,179.25,215.82,178.55Z" style="fill:#ffbda7"></path><path d="M258.58,224.71a26.33,26.33,0,0,1,1-2.59,24.3,24.3,0,0,1,1.36-2.45,2.62,2.62,0,0,0,.32-2.56,1.26,1.26,0,0,0-.45-.44.61.61,0,0,0-.57.1,4.07,4.07,0,0,0-1,.93.11.11,0,0,1-.16,0,.12.12,0,0,1,0-.15,8,8,0,0,0,.77-1.44,2.07,2.07,0,0,0,.06-1.53c-.14-.5-.6-.91-1-.59a4.3,4.3,0,0,0-1.17,1.08.15.15,0,0,1-.2,0h0a1,1,0,0,0-.77-.18,2,2,0,0,0-.81.29,4.18,4.18,0,0,0-1.24,1.27.1.1,0,0,1-.15,0l0,0h0a.9.9,0,0,0-1.08-.1,4.09,4.09,0,0,0-1.05.72,7.61,7.61,0,0,0-1.6,2,35.44,35.44,0,0,0-2.18,4.77,31.14,31.14,0,0,1,2-4.85,7.84,7.84,0,0,1,1.61-2.1,4.27,4.27,0,0,1,1.1-.77,1.07,1.07,0,0,1,1.34.17h-.18a4.32,4.32,0,0,1,1.3-1.36,2.23,2.23,0,0,1,.9-.33,1.26,1.26,0,0,1,1,.24l-.2,0a4.46,4.46,0,0,1,1.24-1.17.83.83,0,0,1,.93,0,1.45,1.45,0,0,1,.5.76,2.27,2.27,0,0,1-.08,1.7,8.83,8.83,0,0,1-.81,1.48l-.19-.13a3.78,3.78,0,0,1,1.05-1,.81.81,0,0,1,.76-.11,1.55,1.55,0,0,1,.52.53,2.76,2.76,0,0,1-.34,2.74c-.5.79-1,1.58-1.41,2.41A26.27,26.27,0,0,0,258.58,224.71Z" style="fill:#f0997a"></path><path d="M254.77,216.36a2.05,2.05,0,0,1-.14,1.9,4.29,4.29,0,0,1-.55.77,4.61,4.61,0,0,0-.44.79,28.26,28.26,0,0,0-1.25,3.48,29.1,29.1,0,0,1,1.12-3.54,4.76,4.76,0,0,1,.43-.84,4.52,4.52,0,0,0,.5-.76,1.81,1.81,0,0,0,.08-1.66Z" style="fill:#f0997a"></path><path d="M257.73,214.91a1.18,1.18,0,0,1,.22,1.22,4.37,4.37,0,0,1-.5,1.07,16.75,16.75,0,0,0-1.19,2c-.34.69-.67,1.39-.94,2.11l-.77,2.18.7-2.21a21,21,0,0,1,.89-2.14,16.64,16.64,0,0,1,1.12-2,4.08,4.08,0,0,0,.45-1,.91.91,0,0,0-.17-.94Z" style="fill:#f0997a"></path><path d="M259.34,217.7c-.47,1-.9,2-1.31,3s-.8,2-1.11,3.06c.27-1.06.62-2.09,1-3.11s.74-2,1.18-3.05Z" style="fill:#f0997a"></path><path d="M259.57,226.4c-1.23.75-1.8,1.24-1.72.58h0c-.39,1.46-.23,2,.24,1.43a17.87,17.87,0,0,1,1.41-1.7,5.22,5.22,0,0,1,1.45-1A7.15,7.15,0,0,0,259.57,226.4Z" style="fill:#f0997a"></path><path d="M254.51,228.57a4.6,4.6,0,0,0-2.06-2.14c-.06,0-.07.1,0,.13a5,5,0,0,1,1.64,2.06,9.63,9.63,0,0,1,.41,1.36,4.53,4.53,0,0,1,.16.88,2.72,2.72,0,0,0,0,.57s0,0,0,0a1.22,1.22,0,0,0,.16-.6,4.41,4.41,0,0,0,.08-.73A3.61,3.61,0,0,0,254.51,228.57Z" style="fill:#f0997a"></path><path d="M248.58,224c-.34.13-2-1.45-4.16-3.67.91,1.78,3.43,6.64,3.59,6.4a25.93,25.93,0,0,0,.63-2.78A.06.06,0,0,1,248.58,224Z" style="fill:#f0997a"></path></g></g></g></g><g id="freepik--Cart--inject-34"><g id="freepik--cart--inject-34"><path id="freepik--shadow--inject-34" d="M298.29,316.37,249.2,344.8c-1.66,1-1.66,2.52,0,3.48l56.27,32.51a6.63,6.63,0,0,0,6,0l49.09-28.43c1.66-1,1.66-2.52,0-3.48l-56.27-32.51A6.65,6.65,0,0,0,298.29,316.37Z" style="opacity:0.1"></path><path d="M318.33,363.82a11.17,11.17,0,0,1-5.54-1l-49.08-28.27c-3-1.49-6.3-5.37-6.51-9l-1.51-35,2.74-.16,1.51,35c.14,2.5,2.75,5.62,5,6.75L314,360.38a9.4,9.4,0,0,0,8.24-.48L355,341c.79-.51,1.24-1.13,1.21-1.64s-.52-1-1.35-1.46L302.3,307.43c-3-1.49-6.28-5.37-6.49-9l-.73-19.4,2.73-.15.74,19.39c.14,2.5,2.74,5.63,5,6.75l52.55,30.51a4.59,4.59,0,0,1,2.86,3.75,4.71,4.71,0,0,1-2.43,4.09l-32.74,18.86A11.22,11.22,0,0,1,318.33,363.82Z" style="fill:#455a64"></path><path d="M312.8,362.82l.09.05c-3.2,4.15-8.41,5.33-9.58,4.79-.95-.44-1.5-1.56-.79-2.23.33-.31.9-.63,1.44-1.08,1.57-1.3,2.08-3.56,2.23-5.33Z" style="fill:#e0e0e0"></path><path d="M309.51,369.23a11.58,11.58,0,0,0-5.19-9.11c-1.51-.88-2.87-.93-3.83-.29h0l-3.55,2,7.43,12.82,3.52-2h0A3.64,3.64,0,0,0,309.51,369.23Z" style="fill:#37474f"></path><path d="M300.64,362.22a11.54,11.54,0,0,1,5.18,9.11c0,3.34-2.37,4.68-5.26,3a11.6,11.6,0,0,1-5.18-9.11C295.4,361.87,297.76,360.53,300.64,362.22Z" style="fill:#455a64"></path><path d="M298.84,367.23c0-1.31.8-1.9,1.78-1.33a4.26,4.26,0,0,1,1.75,3.4c0,1.31-.81,1.9-1.78,1.33A4.22,4.22,0,0,1,298.84,367.23Z" style="fill:#263238"></path><path d="M303.72,357.6s.35,6.17-2.48,8.53c-.53.44-1.11.76-1.44,1.07-.72.67-.15,1.79.79,2.23,1.37.64,8.39-1.17,11.13-7.23Z" style="fill:#f5f5f5"></path><path d="M300.73,367.6a1.17,1.17,0,0,1,.57.87c0,.34-.21.48-.5.33a1.16,1.16,0,0,1-.58-.87C300.21,367.6,300.43,367.45,300.73,367.6Z" style="fill:#263238"></path><path d="M274,340.5l.09.05c-3.2,4.15-8.4,5.33-9.58,4.78-.94-.43-1.5-1.56-.78-2.23.33-.31.9-.62,1.44-1.07,1.56-1.3,2.08-3.57,2.23-5.33Z" style="fill:#e0e0e0"></path><path d="M270.74,346.91a11.57,11.57,0,0,0-5.18-9.11c-1.51-.89-2.87-.93-3.84-.3h0l-3.54,2,7.43,12.82,3.52-2h0A3.63,3.63,0,0,0,270.74,346.91Z" style="fill:#37474f"></path><path d="M261.88,339.89a11.6,11.6,0,0,1,5.18,9.11c0,3.34-2.37,4.68-5.26,3a11.6,11.6,0,0,1-5.18-9.11C256.64,339.54,259,338.2,261.88,339.89Z" style="fill:#455a64"></path><path d="M260.07,344.91c0-1.31.81-1.91,1.79-1.33a4.25,4.25,0,0,1,1.75,3.4c0,1.3-.81,1.9-1.78,1.33A4.24,4.24,0,0,1,260.07,344.91Z" style="fill:#263238"></path><path d="M265,335.28s.34,6.17-2.48,8.52c-.54.45-1.11.77-1.44,1.08-.72.66-.15,1.79.79,2.23,1.37.63,8.39-1.17,11.12-7.23Z" style="fill:#f5f5f5"></path><path d="M262,345.28a1.17,1.17,0,0,1,.57.87c0,.33-.21.48-.51.33a1.17,1.17,0,0,1-.57-.87C261.44,345.27,261.67,345.13,262,345.28Z" style="fill:#263238"></path><path d="M351.64,336.07c-3.21,4.14-8.41,5.33-9.58,4.78-.94-.43-1.5-1.56-.78-2.23.33-.3.9-.62,1.43-1.07,1.57-1.3,2.09-3.57,2.23-5.33l6.21,3.57.4.23Z" style="fill:#e0e0e0"></path><path d="M348.26,342.43a11.58,11.58,0,0,0-5.19-9.11c-1.51-.88-2.87-.93-3.83-.29h0l-3.55,2,7.44,12.82,3.51-2h0A3.65,3.65,0,0,0,348.26,342.43Z" style="fill:#37474f"></path><path d="M339.39,335.41a11.54,11.54,0,0,1,5.18,9.11c0,3.34-2.37,4.68-5.26,3a11.6,11.6,0,0,1-5.18-9.12C334.15,335.06,336.51,333.72,339.39,335.41Z" style="fill:#455a64"></path><path d="M337.59,340.43c0-1.31.8-1.9,1.78-1.33a4.25,4.25,0,0,1,1.75,3.4c0,1.31-.81,1.9-1.78,1.33A4.24,4.24,0,0,1,337.59,340.43Z" style="fill:#263238"></path><path d="M342.47,330.8s.35,6.17-2.48,8.53c-.53.44-1.11.76-1.44,1.07-.72.67-.15,1.79.79,2.23,1.37.64,8.39-1.17,11.13-7.23Z" style="fill:#f5f5f5"></path><path d="M339.48,340.8a1.17,1.17,0,0,1,.57.87c0,.33-.21.48-.5.33a1.16,1.16,0,0,1-.58-.87C339,340.8,339.18,340.65,339.48,340.8Z" style="fill:#263238"></path><path d="M312.89,313.59l.09.05c-3.2,4.15-8.41,5.33-9.58,4.79-.94-.44-1.5-1.56-.78-2.23.33-.31.9-.63,1.44-1.08,1.56-1.3,2.08-3.56,2.23-5.33Z" style="fill:#e0e0e0"></path><path d="M309.6,320a11.57,11.57,0,0,0-5.18-9.11c-1.51-.89-2.88-.93-3.84-.3h0l-3.54,2,7.43,12.82,3.52-2h0A3.61,3.61,0,0,0,309.6,320Z" style="fill:#37474f"></path><path d="M300.74,313a11.58,11.58,0,0,1,5.18,9.11c0,3.34-2.38,4.68-5.26,3a11.6,11.6,0,0,1-5.18-9.11C295.5,312.64,297.85,311.3,300.74,313Z" style="fill:#455a64"></path><path d="M298.93,318c0-1.3.81-1.9,1.78-1.33a4.27,4.27,0,0,1,1.76,3.4c0,1.31-.81,1.9-1.79,1.33A4.25,4.25,0,0,1,298.93,318Z" style="fill:#263238"></path><path d="M303.82,308.37s.34,6.17-2.48,8.53c-.54.44-1.11.76-1.44,1.07-.72.67-.16,1.79.78,2.23,1.37.64,8.4-1.17,11.13-7.23Z" style="fill:#f5f5f5"></path><path d="M300.82,318.37a1.12,1.12,0,0,1,.57.87c0,.34-.2.48-.5.33a1.15,1.15,0,0,1-.57-.87C300.3,318.37,300.53,318.22,300.82,318.37Z" style="fill:#263238"></path><path d="M295.36,226.54l-1.46.84-1.13-4.58a14.38,14.38,0,0,0-5.83-7.74l-1.34-.78a2.93,2.93,0,0,0-2.55,0l-9.1,5.23a.8.8,0,0,1-1.1-.3.81.81,0,0,1,.29-1.1l9.1-5.23a4.56,4.56,0,0,1,4.16,0l1.35.77a16.1,16.1,0,0,1,6.59,8.76Z" style="fill:#37474f"></path><path d="M254.4,233.22l-2.63-4.56,22-12.67h0a1.25,1.25,0,0,1,1.43.06,4.15,4.15,0,0,1,1.86,3.22,1.26,1.26,0,0,1-.66,1.27h0Z" style="fill:#BA68C8"></path><path d="M254.4,233.22l-2.63-4.56,22-12.67h0a1.25,1.25,0,0,1,1.43.06,4.15,4.15,0,0,1,1.86,3.22,1.26,1.26,0,0,1-.66,1.27h0Z" style="opacity:0.25"></path><path d="M251.77,228.66c.69-.4,1.84.3,2.56,1.56s.76,2.6.07,3-1.84-.3-2.57-1.56S251.08,229.06,251.77,228.66Z" style="fill:#BA68C8"></path><path d="M253.43,251l-1.46.84-1.13-4.58a14.33,14.33,0,0,0-5.83-7.74l-1.34-.78a1.82,1.82,0,0,1,0-3.34l8.68-5c.22-.13.57.09.79.47s.24.81,0,.93h0l-8.68,5c-.24.13-.29.25-.29.27s.05.13.29.27l1.34.78a16,16,0,0,1,6.59,8.75Z" style="fill:#37474f"></path><polygon points="300.16 279.92 256.33 305.23 320.39 342.22 364.23 316.9 300.16 279.92" style="fill:#BA68C8"></polygon><polygon points="300.16 279.92 256.33 305.23 320.39 342.22 364.23 316.9 300.16 279.92" style="opacity:0.4"></polygon><polygon points="251.97 251.88 295.36 226.53 300.16 279.92 256.33 305.23 251.97 251.88" style="fill:#BA68C8"></polygon><polygon points="251.97 251.88 295.36 226.53 300.16 279.92 256.33 305.23 251.97 251.88" style="opacity:0.2"></polygon><path d="M295.36,226.53l4.8,53.39,64.07,37,10.11-44.77Zm22.4,51.33a3.68,3.68,0,0,1-4.6-2.38L302.58,248a3.45,3.45,0,1,1,6.4-2.46L319.56,273A3.67,3.67,0,0,1,317.76,277.86Zm20,9.41a3.66,3.66,0,0,1-4.59-2.38l-10.59-27.47A3.46,3.46,0,1,1,329,255l10.59,27.48A3.66,3.66,0,0,1,337.76,287.27Zm20,9.41a3.67,3.67,0,0,1-4.59-2.37l-10.58-27.48a3.46,3.46,0,1,1,6.4-2.47l10.58,27.48A3.66,3.66,0,0,1,357.76,296.68Z" style="fill:#BA68C8"></path><path d="M295.36,226.53l4.8,53.39,64.07,37,10.11-44.77Zm22.4,51.33a3.68,3.68,0,0,1-4.6-2.38L302.58,248a3.45,3.45,0,1,1,6.4-2.46L319.56,273A3.67,3.67,0,0,1,317.76,277.86Zm20,9.41a3.66,3.66,0,0,1-4.59-2.38l-10.59-27.47A3.46,3.46,0,1,1,329,255l10.59,27.48A3.66,3.66,0,0,1,337.76,287.27Zm20,9.41a3.67,3.67,0,0,1-4.59-2.37l-10.58-27.48a3.46,3.46,0,1,1,6.4-2.47l10.58,27.48A3.66,3.66,0,0,1,357.76,296.68Z" style="opacity:0.1"></path><g id="freepik--light-bag--inject-34"><path d="M313.54,219.45a5.11,5.11,0,0,0-5.2.31c-4.27,2.47-7.73,9.58-7.73,15.86v14.81a.67.67,0,1,0,1.34,0V235.62c0-5.85,3.17-12.44,7.06-14.69a3.75,3.75,0,0,1,3.86-.31c1.6.93,2.52,3.28,2.52,6.46v14.75a.68.68,0,0,0,.68.67.67.67,0,0,0,.67-.67V227.08C316.74,223.41,315.57,220.63,313.54,219.45Z" style="fill:#263238"></path><polygon points="340.96 300.33 336.82 232.4 328.46 227.6 324.57 290.87 340.96 300.33" style="fill:#BA68C8"></polygon><polygon points="340.96 300.33 336.82 232.4 328.46 227.6 324.57 290.87 340.96 300.33" style="fill:#fff;opacity:0.4"></polygon><polygon points="288.88 250.43 284.99 313.7 324.57 290.87 328.46 227.6 288.88 250.43" style="fill:#BA68C8"></polygon><polygon points="288.88 250.43 284.99 313.7 324.57 290.87 328.46 227.6 288.88 250.43" style="fill:#fff;opacity:0.30000000000000004"></polygon><polygon points="288.88 250.43 284.99 313.7 324.57 290.87 328.46 227.6 288.88 250.43" style="opacity:0.05"></polygon><polygon points="288.88 250.43 297.24 255.24 301.38 323.17 284.99 313.7 288.88 250.43" style="fill:#BA68C8"></polygon><polygon points="288.88 250.43 297.24 255.24 301.38 323.17 284.99 313.7 288.88 250.43" style="fill:#fff;opacity:0.55"></polygon><polygon points="301.38 323.17 294.11 312.39 293.19 282.67 292.45 311.44 284.99 313.7 301.38 323.17" style="fill:#BA68C8;opacity:0.5"></polygon><path d="M336.82,232.4l-39.58,22.84,4.14,67.93L341,300.34Zm-27.16,24.5c-.82.47-1.49.08-1.49-.87a3.31,3.31,0,0,1,1.49-2.58c.82-.48,1.49-.08,1.49.87A3.26,3.26,0,0,1,309.66,256.9Zm14.79-8.6c-.83.47-1.49.08-1.49-.87a3.27,3.27,0,0,1,1.49-2.58c.82-.48,1.49-.09,1.49.87A3.28,3.28,0,0,1,324.45,248.3Z" style="fill:#BA68C8"></path><path d="M336.82,232.4l-39.58,22.84,4.14,67.93L341,300.34Zm-27.16,24.5c-.82.47-1.49.08-1.49-.87a3.31,3.31,0,0,1,1.49-2.58c.82-.48,1.49-.08,1.49.87A3.26,3.26,0,0,1,309.66,256.9Zm14.79-8.6c-.83.47-1.49.08-1.49-.87a3.27,3.27,0,0,1,1.49-2.58c.82-.48,1.49-.09,1.49.87A3.28,3.28,0,0,1,324.45,248.3Z" style="fill:#fff;opacity:0.7000000000000001"></path><path d="M321.92,224.2a5.06,5.06,0,0,0-5.2.31c-4.27,2.46-7.73,9.57-7.73,15.85v14.81a.67.67,0,1,0,1.34,0V240.36c0-5.85,3.17-12.44,7.06-14.69a3.75,3.75,0,0,1,3.85-.31c1.61.93,2.53,3.29,2.53,6.47v14.74a.68.68,0,0,0,.68.67.67.67,0,0,0,.67-.67V231.83C325.12,228.15,324,225.37,321.92,224.2Z" style="fill:#37474f"></path></g><path d="M252,251.88l4.36,53.35,64.06,37,10.12-44.78Zm25.29,52.52a3.68,3.68,0,0,1-4.59-2.38l-10.59-27.48a3.45,3.45,0,1,1,6.4-2.47l10.59,27.48A3.67,3.67,0,0,1,277.26,304.4Zm20,9.41a3.67,3.67,0,0,1-4.59-2.38L282.09,284a3.45,3.45,0,1,1,6.4-2.46L299.08,309A3.69,3.69,0,0,1,297.27,313.81Zm20,9.41a3.66,3.66,0,0,1-4.59-2.38l-10.59-27.48a3.45,3.45,0,1,1,6.4-2.46l10.59,27.48A3.66,3.66,0,0,1,317.27,323.22Z" style="fill:#BA68C8"></path><polygon points="330.51 297.44 374.34 272.13 364.23 316.91 320.39 342.22 330.51 297.44" style="fill:#BA68C8"></polygon><polygon points="330.51 297.44 374.34 272.13 364.23 316.91 320.39 342.22 330.51 297.44" style="opacity:0.2"></polygon></g></g><g id="freepik--speech-bubble--inject-34"><g id="freepik--speech-bubble--inject-34"><g id="freepik--speech-bubble--inject-34"><path d="M309.11,181.71a25.36,25.36,0,0,1-18.63,1.34l-2.71-1a25.41,25.41,0,0,1,16.72-47.81l2.77.9a25.4,25.4,0,0,1,1.85,46.6Z" style="fill:#fff"></path><path d="M322.93,146.83a27.58,27.58,0,0,0-51.34,19.63l-5.86,6.26a1.6,1.6,0,0,0,1.3,2.69l8.54-.68a27.58,27.58,0,0,0,47.36-27.9Zm-13.82,34.88a25.36,25.36,0,0,1-18.63,1.34l-2.71-1a25.41,25.41,0,0,1,16.72-47.81l2.77.9a25.4,25.4,0,0,1,1.85,46.6Z" style="fill:#BA68C8"></path><path d="M309.11,181.71a25.36,25.36,0,0,1-18.63,1.34l-2.71-1a25.41,25.41,0,0,1,16.72-47.81l2.77.9a25.4,25.4,0,0,1,1.85,46.6Z" style="fill:#fff"></path></g><path d="M286.07,151.9a.61.61,0,1,1,0-1.21l6.11,0h0a.62.62,0,0,1,.61.6.61.61,0,0,1-.61.61l-6.12,0Z" style="fill:#455a64"></path><path d="M307.62,165.63H289.8a.61.61,0,0,1-.59-.45l-4.58-16.88-2.93-1.69a.61.61,0,0,1,.61-1.05l3.14,1.81a.58.58,0,0,1,.28.37l4.53,16.67h16.9l3.56-12.63-5.26,0h0a.61.61,0,0,1,0-1.22l6.07,0a.63.63,0,0,1,.49.24.65.65,0,0,1,.1.54l-3.91,13.84A.6.6,0,0,1,307.62,165.63Z" style="fill:#455a64"></path><path d="M307.43,169.84H290.22a2.72,2.72,0,1,1,0-5.43H298a.61.61,0,0,1,.61.61.61.61,0,0,1-.61.61h-7.76a1.5,1.5,0,1,0,0,3h17.21a.61.61,0,1,1,0,1.21Z" style="fill:#455a64"></path><path d="M292.2,176.21a2.74,2.74,0,1,1,2.74-2.74A2.74,2.74,0,0,1,292.2,176.21Zm0-4.27a1.53,1.53,0,1,0,1.52,1.53A1.53,1.53,0,0,0,292.2,171.94Z" style="fill:#455a64"></path><path d="M304.4,176.21a2.74,2.74,0,1,1,2.74-2.74A2.74,2.74,0,0,1,304.4,176.21Zm0-4.27a1.53,1.53,0,1,0,0,3.05,1.53,1.53,0,0,0,0-3.05Z" style="fill:#455a64"></path><path d="M298.82,158.47a7.24,7.24,0,1,1,7.24-7.24A7.24,7.24,0,0,1,298.82,158.47Zm0-13.26a6,6,0,1,0,6,6A6,6,0,0,0,298.82,145.21Z" style="fill:#455a64"></path><path d="M298,154.53a.6.6,0,0,1-.43-.18l-2.62-2.6a.61.61,0,0,1,0-.86.6.6,0,0,1,.86,0L297.9,153l3.7-4.94a.61.61,0,0,1,.85-.13.6.6,0,0,1,.12.85l-4.11,5.51a.61.61,0,0,1-.45.24Z" style="fill:#455a64"></path><path d="M300.25,174.07h-3.9a.61.61,0,1,1,0-1.21h3.9a.61.61,0,1,1,0,1.21Z" style="fill:#455a64"></path></g></g></svg>