<svg class="animated" id="freepik_stories-dressing-room" xmlns="http://www.w3.org/2000/svg" viewBox="0 0 750 500" version="1.1" xmlns:xlink="http://www.w3.org/1999/xlink" xmlns:svgjs="http://svgjs.com/svgjs"><style>svg#freepik_stories-dressing-room:not(.animated) .animable {opacity: 0;}svg#freepik_stories-dressing-room.animated #freepik--background-complete--inject-86 {animation: 1.5s 1 forwards cubic-bezier(.36,-0.01,.5,1.38) slideUp,3s Infinite  linear floating;animation-delay: 0s,1.5s;}svg#freepik_stories-dressing-room.animated #freepik--Shadow--inject-86 {animation: 1.5s 1 forwards cubic-bezier(.36,-0.01,.5,1.38) slideUp,3s Infinite  linear floating;animation-delay: 0s,1.5s;}svg#freepik_stories-dressing-room.animated #freepik--Closet--inject-86 {animation: 1.5s 1 forwards cubic-bezier(.36,-0.01,.5,1.38) slideUp,3s Infinite  linear floating;animation-delay: 0s,1.5s;}svg#freepik_stories-dressing-room.animated #freepik--Floor--inject-86 {animation: 1.5s 1 forwards cubic-bezier(.36,-0.01,.5,1.38) slideUp,3s Infinite  linear floating;animation-delay: 0s,1.5s;}svg#freepik_stories-dressing-room.animated #freepik--Plant--inject-86 {animation: 1.5s 1 forwards cubic-bezier(.36,-0.01,.5,1.38) slideUp,3s Infinite  linear floating;animation-delay: 0s,1.5s;}svg#freepik_stories-dressing-room.animated #freepik--Mirror--inject-86 {animation: 1.5s 1 forwards cubic-bezier(.36,-0.01,.5,1.38) slideUp,3s Infinite  linear floating;animation-delay: 0s,1.5s;}svg#freepik_stories-dressing-room.animated #freepik--Character--inject-86 {animation: 1.5s 1 forwards cubic-bezier(.36,-0.01,.5,1.38) slideUp,3s Infinite  linear floating;animation-delay: 0s,1.5s;}            @keyframes slideUp {                0% {                    opacity: 0;                    transform: translateY(30px);                }                100% {                    opacity: 1;                    transform: inherit;                }            }                    @keyframes floating {                0% {                    opacity: 1;                    transform: translateY(0px);                }                50% {                    transform: translateY(-10px);                }                100% {                    opacity: 1;                    transform: translateY(0px);                }            }        </style><g id="freepik--background-complete--inject-86" class="animable animator-active" style="transform-origin: 376.105px 227.59px;"><rect x="99.12" y="335.62" width="26.48" height="11.19" style="fill: rgb(235, 235, 235); transform-origin: 112.36px 341.215px;" id="elu5n0bkvimi" class="animable"></rect><rect x="84.34" y="349.73" width="26.48" height="11.19" style="fill: rgb(235, 235, 235); transform-origin: 97.58px 355.325px;" id="elobt6alvfei" class="animable"></rect><rect x="672.38" y="216.81" width="26.48" height="11.19" style="fill: rgb(235, 235, 235); transform-origin: 685.62px 222.405px;" id="el3lzfog9h8nm" class="animable"></rect><rect x="657.61" y="230.92" width="26.48" height="11.19" style="fill: rgb(235, 235, 235); transform-origin: 670.85px 236.515px;" id="eleu0hjyz1q4l" class="animable"></rect><rect x="381.01" y="151.47" width="26.48" height="11.19" style="fill: rgb(235, 235, 235); transform-origin: 394.25px 157.065px;" id="el8eb35frw8wg" class="animable"></rect><rect x="366.24" y="165.58" width="26.48" height="11.19" style="fill: rgb(235, 235, 235); transform-origin: 379.48px 171.175px;" id="elmuq2dxdqnn" class="animable"></rect><rect x="351.53" y="151.47" width="26.48" height="11.19" style="fill: rgb(235, 235, 235); transform-origin: 364.77px 157.065px;" id="el5d1943ezf54" class="animable"></rect><rect x="80.62" y="175.37" width="26.48" height="11.19" style="fill: rgb(235, 235, 235); transform-origin: 93.86px 180.965px;" id="elhuo8eq9psv" class="animable"></rect><rect x="65.85" y="189.48" width="26.48" height="11.19" style="fill: rgb(235, 235, 235); transform-origin: 79.09px 195.075px;" id="eledgatonri8i" class="animable"></rect><rect x="51.14" y="175.37" width="26.48" height="11.19" style="fill: rgb(235, 235, 235); transform-origin: 64.38px 180.965px;" id="eldqlv9yki4ds" class="animable"></rect><rect x="564.98" y="349.73" width="26.48" height="11.19" style="fill: rgb(235, 235, 235); transform-origin: 578.22px 355.325px;" id="elyvdx0snuorl" class="animable"></rect><rect x="550.21" y="34.33" width="26.48" height="11.19" style="fill: rgb(235, 235, 235); transform-origin: 563.45px 39.925px;" id="el485y4pdvcpb" class="animable"></rect><rect x="564.98" y="48.44" width="26.48" height="11.19" style="fill: rgb(235, 235, 235); transform-origin: 578.22px 54.035px;" id="eldb6brncjr4h" class="animable"></rect><rect x="259.62" y="34.33" width="26.48" height="11.19" style="fill: rgb(235, 235, 235); transform-origin: 272.86px 39.925px;" id="el9en37bpwdbp" class="animable"></rect><rect x="58.71" y="50.1" width="60.15" height="72.96" style="fill: rgb(219, 219, 219); transform-origin: 88.785px 86.58px;" id="el9krt16afadd" class="animable"></rect><rect x="65.58" y="56.76" width="46.41" height="59.65" style="fill: rgb(255, 255, 255); transform-origin: 88.785px 86.585px;" id="elx9tyadhpuq" class="animable"></rect><rect x="65.58" y="56.76" width="1.81" height="59.65" style="fill: rgb(199, 199, 199); transform-origin: 66.485px 86.585px;" id="elqlsf1m69yje" class="animable"></rect><rect x="118.86" y="50.1" width="1.81" height="72.96" style="fill: rgb(199, 199, 199); transform-origin: 119.765px 86.58px;" id="ellktiuukcq9" class="animable"></rect><g id="el3cysuzmycvk"><rect x="89.82" y="70.55" width="10.94" height="32.6" style="fill: rgb(219, 219, 219); transform-origin: 95.29px 86.85px; transform: rotate(180deg);" class="animable"></rect></g><path d="M106,81.45H75.86v-17H106Zm-29.18-1H105v-15H76.86Z" style="fill: rgb(235, 235, 235); transform-origin: 90.93px 72.95px;" id="elw9oor4eewk8" class="animable"></path><rect x="147.63" y="84.63" width="60.15" height="72.96" style="fill: rgb(219, 219, 219); transform-origin: 177.705px 121.11px;" id="el16l91usgkgm" class="animable"></rect><rect x="154.5" y="91.29" width="46.41" height="59.65" style="fill: rgb(255, 255, 255); transform-origin: 177.705px 121.115px;" id="el6wbbqno7fjw" class="animable"></rect><rect x="154.5" y="91.29" width="1.81" height="59.65" style="fill: rgb(199, 199, 199); transform-origin: 155.405px 121.115px;" id="elsbcieaepb9" class="animable"></rect><rect x="207.78" y="84.63" width="1.81" height="72.96" style="fill: rgb(199, 199, 199); transform-origin: 208.685px 121.11px;" id="elavzcigd4d6" class="animable"></rect><rect x="173.21" y="106.71" width="9.37" height="23.7" style="fill: rgb(235, 235, 235); transform-origin: 177.895px 118.56px;" id="elqt7tqbyu0a" class="animable"></rect><path d="M193,138H166.77V120.62H193Zm-25.18-1H192V121.62H167.77Z" style="fill: rgb(219, 219, 219); transform-origin: 179.885px 129.31px;" id="eldyyqb6u3jko" class="animable"></path><rect x="643.49" y="415.04" width="51.08" height="5.81" style="fill: rgb(219, 219, 219); transform-origin: 669.03px 417.945px;" id="elwgsg3lolii" class="animable"></rect><rect x="666.01" y="151.31" width="6.05" height="263.72" style="fill: rgb(219, 219, 219); transform-origin: 669.035px 283.17px;" id="elqca7zdihna" class="animable"></rect><rect x="666.01" y="151.31" width="6.05" height="24" style="fill: rgb(166, 166, 166); transform-origin: 669.035px 163.31px;" id="eluwgo8217ybt" class="animable"></rect><polygon points="701.07 169.07 636.99 169.07 641.64 153.76 641.81 153.22 655.36 108.69 682.7 108.69 696.25 153.23 696.25 153.24 696.4 153.74 701.07 169.07" style="fill: rgb(235, 235, 235); transform-origin: 669.03px 138.88px;" id="el7h7ks2d3bem" class="animable"></polygon><path d="M657.63,119a.43.43,0,1,1-.43-.43A.43.43,0,0,1,657.63,119Zm7.46-.43a.43.43,0,1,0,.43.43A.43.43,0,0,0,665.09,118.55Zm7.89,0a.43.43,0,1,0,.43.43A.43.43,0,0,0,673,118.55Zm7.89,0a.43.43,0,1,0,.43.43A.43.43,0,0,0,680.87,118.55ZM661.14,113a.43.43,0,0,0-.43.43.44.44,0,0,0,.87,0A.44.44,0,0,0,661.14,113Zm7.9,0a.44.44,0,0,0-.44.43.44.44,0,0,0,.87,0A.43.43,0,0,0,669,113Zm7.89,0a.44.44,0,0,0-.44.43.44.44,0,0,0,.87,0A.43.43,0,0,0,676.93,113Zm-27.62,17a.44.44,0,1,0,.43.44A.44.44,0,0,0,649.31,130Zm7.89,0a.44.44,0,1,0,.43.44A.44.44,0,0,0,657.2,130Zm7.89,0a.44.44,0,1,0,.43.44A.44.44,0,0,0,665.09,130Zm7.89,0a.44.44,0,1,0,.43.44A.44.44,0,0,0,673,130Zm7.89,0a.44.44,0,1,0,.43.44A.44.44,0,0,0,680.87,130Zm7.89,0a.44.44,0,1,0,.43.44A.44.44,0,0,0,688.76,130Zm-35.51-5.52a.43.43,0,1,0,.44.43A.43.43,0,0,0,653.25,124.5Zm7.89,0a.43.43,0,1,0,.44.43A.43.43,0,0,0,661.14,124.5Zm7.9,0a.43.43,0,1,0,.43.43A.44.44,0,0,0,669,124.5Zm7.89,0a.43.43,0,1,0,.43.43A.44.44,0,0,0,676.93,124.5Zm7.89,0a.43.43,0,0,0,0,.86.43.43,0,0,0,0-.86Zm-35.51,17a.43.43,0,1,0,.43.43A.43.43,0,0,0,649.31,141.5Zm7.89,0a.43.43,0,1,0,.43.43A.43.43,0,0,0,657.2,141.5Zm7.89,0a.43.43,0,1,0,.43.43A.43.43,0,0,0,665.09,141.5Zm7.89,0a.43.43,0,1,0,.43.43A.43.43,0,0,0,673,141.5Zm7.89,0a.43.43,0,1,0,.43.43A.43.43,0,0,0,680.87,141.5Zm7.89,0a.43.43,0,1,0,.43.43A.43.43,0,0,0,688.76,141.5ZM653.25,136a.44.44,0,0,0-.43.43.44.44,0,0,0,.87,0A.44.44,0,0,0,653.25,136Zm7.89,0a.44.44,0,0,0-.43.43.44.44,0,0,0,.87,0A.44.44,0,0,0,661.14,136Zm7.9,0a.44.44,0,0,0-.44.43.44.44,0,0,0,.87,0A.44.44,0,0,0,669,136Zm7.89,0a.44.44,0,0,0-.44.43.44.44,0,0,0,.87,0A.44.44,0,0,0,676.93,136Zm7.89,0a.43.43,0,0,0-.43.43.43.43,0,0,0,.43.43.43.43,0,0,0,.43-.43A.44.44,0,0,0,684.82,136Zm-43,17.25-.17.54a.4.4,0,0,0,.21-.36A.39.39,0,0,0,641.81,153.22Zm7.5-.25a.43.43,0,1,0,.43.43A.43.43,0,0,0,649.31,153Zm7.89,0a.43.43,0,1,0,.43.43A.43.43,0,0,0,657.2,153Zm7.89,0a.43.43,0,1,0,.43.43A.43.43,0,0,0,665.09,153Zm7.89,0a.43.43,0,1,0,.43.43A.43.43,0,0,0,673,153Zm7.89,0a.43.43,0,1,0,.43.43A.43.43,0,0,0,680.87,153Zm7.89,0a.43.43,0,1,0,.43.43A.43.43,0,0,0,688.76,153Zm7.49.27a.41.41,0,0,0,0,.16.38.38,0,0,0,.18.34Zm-50.89-5.79a.43.43,0,0,0-.43.43.44.44,0,0,0,.43.43.43.43,0,0,0,.43-.43A.43.43,0,0,0,645.36,147.45Zm7.89,0a.43.43,0,0,0-.43.43.44.44,0,0,0,.87,0A.44.44,0,0,0,653.25,147.45Zm7.89,0a.43.43,0,0,0-.43.43.44.44,0,0,0,.87,0A.44.44,0,0,0,661.14,147.45Zm7.9,0a.44.44,0,0,0-.44.43.44.44,0,0,0,.87,0A.43.43,0,0,0,669,147.45Zm7.89,0a.44.44,0,0,0-.44.43.44.44,0,0,0,.87,0A.43.43,0,0,0,676.93,147.45Zm7.89,0a.43.43,0,0,0-.43.43.43.43,0,0,0,.43.43.44.44,0,0,0,.43-.43A.43.43,0,0,0,684.82,147.45Zm7.89,0a.43.43,0,0,0-.43.43.43.43,0,0,0,.43.43.44.44,0,0,0,.43-.43A.43.43,0,0,0,692.71,147.45Zm-51.29,17a.43.43,0,0,0-.43.43.43.43,0,0,0,.86,0A.43.43,0,0,0,641.42,164.45Zm7.89,0a.43.43,0,0,0-.43.43.43.43,0,0,0,.86,0A.43.43,0,0,0,649.31,164.45Zm7.89,0a.43.43,0,0,0-.43.43.43.43,0,1,0,.86,0A.43.43,0,0,0,657.2,164.45Zm7.89,0a.43.43,0,0,0-.43.43.43.43,0,1,0,.86,0A.43.43,0,0,0,665.09,164.45Zm7.89,0a.43.43,0,0,0-.43.43.43.43,0,1,0,.86,0A.43.43,0,0,0,673,164.45Zm7.89,0a.43.43,0,0,0-.43.43.43.43,0,0,0,.86,0A.43.43,0,0,0,680.87,164.45Zm7.89,0a.43.43,0,0,0-.43.43.43.43,0,0,0,.86,0A.43.43,0,0,0,688.76,164.45Zm7.89,0a.43.43,0,0,0-.43.43.43.43,0,0,0,.86,0A.43.43,0,0,0,696.65,164.45Zm-51.29-5.53a.43.43,0,0,0,0,.86.43.43,0,0,0,0-.86Zm7.89,0a.43.43,0,1,0,.44.43A.43.43,0,0,0,653.25,158.92Zm7.89,0a.43.43,0,1,0,.44.43A.43.43,0,0,0,661.14,158.92Zm7.9,0a.43.43,0,1,0,.43.43A.44.44,0,0,0,669,158.92Zm7.89,0a.43.43,0,1,0,.43.43A.44.44,0,0,0,676.93,158.92Zm7.89,0a.43.43,0,0,0,0,.86.43.43,0,0,0,0-.86Zm7.89,0a.43.43,0,0,0,0,.86.43.43,0,0,0,0-.86Z" style="fill: rgb(255, 255, 255); transform-origin: 669.046px 139.169px;" id="el9tjawodrfk" class="animable"></path></g><g id="freepik--Shadow--inject-86" class="animable animator-active" style="transform-origin: 437.64px 462.71px;"><ellipse cx="437.64" cy="462.71" rx="112.27" ry="10.43" style="fill: rgb(235, 235, 235); transform-origin: 437.64px 462.71px;" id="elz102r0h7j3g" class="animable"></ellipse></g><g id="freepik--Closet--inject-86" class="animable animator-active" style="transform-origin: 441.49px 230.39px;"><rect x="228.63" y="39.93" width="425.72" height="380.92" style="fill: rgb(69, 90, 100); transform-origin: 441.49px 230.39px;" id="elrurbggap02" class="animable"></rect><rect x="237.56" y="48.86" width="407.86" height="363.05" style="fill: rgb(235, 235, 235); transform-origin: 441.49px 230.385px;" id="el11ofbihhuy9" class="animable"></rect><rect x="237.56" y="122.68" width="407.86" height="8.93" style="fill: rgb(69, 90, 100); transform-origin: 441.49px 127.145px;" id="el6ks3anadjpr" class="animable"></rect><rect x="351.24" y="360.03" width="180.51" height="8.93" style="fill: rgb(69, 90, 100); transform-origin: 441.495px 364.495px;" id="el1y2zgxxr5wg" class="animable"></rect><rect x="540.68" y="193.17" width="104.74" height="8.93" style="fill: rgb(69, 90, 100); transform-origin: 593.05px 197.635px;" id="eltfxxc4ztp2b" class="animable"></rect><rect x="540.68" y="260.6" width="104.74" height="8.93" style="fill: rgb(69, 90, 100); transform-origin: 593.05px 265.065px;" id="el4yhaaf04rgh" class="animable"></rect><rect x="540.68" y="332.43" width="104.74" height="8.93" style="fill: rgb(69, 90, 100); transform-origin: 593.05px 336.895px;" id="elua2171kjwem" class="animable"></rect><g id="elh95anr4195p"><rect x="396.06" y="267.3" width="280.29" height="8.93" style="fill: rgb(69, 90, 100); transform-origin: 536.205px 271.765px; transform: rotate(90deg);" class="animable"></rect></g><g id="el7n98veniaey"><rect x="206.62" y="267.3" width="280.29" height="8.93" style="fill: rgb(69, 90, 100); transform-origin: 346.765px 271.765px; transform: rotate(90deg);" class="animable"></rect></g><rect x="351.24" y="151.38" width="180.51" height="5.75" style="fill: rgb(199, 199, 199); transform-origin: 441.495px 154.255px;" id="elv8wif150e9e" class="animable"></rect><rect x="540.68" y="269.53" width="104.74" height="62.9" style="fill: rgb(38, 50, 56); transform-origin: 593.05px 300.98px;" id="elocd7gq3w6jp" class="animable"></rect><rect x="541.59" y="270.52" width="102.9" height="19.48" style="fill: rgb(69, 90, 100); transform-origin: 593.04px 280.26px;" id="elozhmt0pmi89" class="animable"></rect><rect x="541.59" y="291.16" width="102.9" height="19.48" style="fill: rgb(69, 90, 100); transform-origin: 593.04px 300.9px;" id="elyi9lfiyrn3f" class="animable"></rect><rect x="541.59" y="311.8" width="102.9" height="19.48" style="fill: rgb(69, 90, 100); transform-origin: 593.04px 321.54px;" id="el7082rwexbnp" class="animable"></rect><rect x="578.08" y="278.02" width="29.93" height="4.48" style="fill: rgb(235, 235, 235); transform-origin: 593.045px 280.26px;" id="elj0n6ezadlc" class="animable"></rect><rect x="578.08" y="298.66" width="29.93" height="4.48" style="fill: rgb(235, 235, 235); transform-origin: 593.045px 300.9px;" id="ely9y8cscpge" class="animable"></rect><rect x="578.08" y="319.3" width="29.93" height="4.48" style="fill: rgb(235, 235, 235); transform-origin: 593.045px 321.54px;" id="elm6jimtmih4" class="animable"></rect><rect x="237.56" y="193.17" width="104.74" height="8.93" style="fill: rgb(69, 90, 100); transform-origin: 289.93px 197.635px;" id="el45zlqemimji" class="animable"></rect><rect x="237.56" y="260.6" width="104.74" height="8.93" style="fill: rgb(69, 90, 100); transform-origin: 289.93px 265.065px;" id="el00svh0fp331q" class="animable"></rect><rect x="237.56" y="332.43" width="104.74" height="8.93" style="fill: rgb(69, 90, 100); transform-origin: 289.93px 336.895px;" id="ela5fbmbfvvzl" class="animable"></rect><rect x="237.56" y="269.53" width="104.74" height="62.9" style="fill: rgb(38, 50, 56); transform-origin: 289.93px 300.98px;" id="elwd72qj4cmeb" class="animable"></rect><rect x="238.48" y="270.52" width="102.9" height="19.48" style="fill: rgb(69, 90, 100); transform-origin: 289.93px 280.26px;" id="eleoul6trjkbm" class="animable"></rect><rect x="238.48" y="291.16" width="102.9" height="19.48" style="fill: rgb(69, 90, 100); transform-origin: 289.93px 300.9px;" id="el2kbzacrh3om" class="animable"></rect><rect x="238.48" y="311.8" width="102.9" height="19.48" style="fill: rgb(69, 90, 100); transform-origin: 289.93px 321.54px;" id="elwk0mhsn1p8" class="animable"></rect><rect x="274.97" y="278.02" width="29.93" height="4.48" style="fill: rgb(235, 235, 235); transform-origin: 289.935px 280.26px;" id="elaflvdw3gntm" class="animable"></rect><rect x="274.97" y="298.66" width="29.93" height="4.48" style="fill: rgb(235, 235, 235); transform-origin: 289.935px 300.9px;" id="elhwr60r58aag" class="animable"></rect><rect x="274.97" y="319.3" width="29.93" height="4.48" style="fill: rgb(235, 235, 235); transform-origin: 289.935px 321.54px;" id="elesoewi6xmuo" class="animable"></rect><rect x="351.24" y="368.96" width="180.51" height="42.95" style="fill: rgb(38, 50, 56); transform-origin: 441.495px 390.435px;" id="elj7ob5yefay" class="animable"></rect><rect x="352.72" y="370.43" width="88.08" height="19.48" style="fill: rgb(69, 90, 100); transform-origin: 396.76px 380.17px;" id="elt8kglsjmvn9" class="animable"></rect><rect x="387.19" y="377.93" width="19.15" height="4.48" style="fill: rgb(235, 235, 235); transform-origin: 396.765px 380.17px;" id="el472d35q1dzd" class="animable"></rect><rect x="352.72" y="391.07" width="88.08" height="19.48" style="fill: rgb(69, 90, 100); transform-origin: 396.76px 400.81px;" id="elqehj8it7ucl" class="animable"></rect><rect x="387.19" y="398.57" width="19.15" height="4.48" style="fill: rgb(235, 235, 235); transform-origin: 396.765px 400.81px;" id="elwyokv8hn9ta" class="animable"></rect><rect x="442.18" y="391.07" width="88.08" height="19.48" style="fill: rgb(69, 90, 100); transform-origin: 486.22px 400.81px;" id="el583p1np2nok" class="animable"></rect><rect x="476.64" y="398.57" width="19.15" height="4.48" style="fill: rgb(235, 235, 235); transform-origin: 486.215px 400.81px;" id="elaba17okk44e" class="animable"></rect><rect x="442.18" y="370.43" width="88.08" height="19.48" style="fill: rgb(69, 90, 100); transform-origin: 486.22px 380.17px;" id="elo1ryvwy3evi" class="animable"></rect><rect x="476.64" y="377.93" width="19.15" height="4.48" style="fill: rgb(235, 235, 235); transform-origin: 486.215px 380.17px;" id="el2sdx4k96vq3" class="animable"></rect><path d="M321.14,260.57H250.23a5.54,5.54,0,0,1-5.54-5.53h0a5.54,5.54,0,0,1,5.54-5.54h70.91a5.54,5.54,0,0,1,5.53,5.54h0A5.54,5.54,0,0,1,321.14,260.57Z" style="fill: rgb(38, 50, 56); transform-origin: 285.68px 255.035px;" id="elznbxjb827s8" class="animable"></path><rect x="254.62" y="212.17" width="70.97" height="15.22" rx="6.61" style="fill: rgb(38, 50, 56); transform-origin: 290.105px 219.78px;" id="elryjgx5jdhzf" class="animable"></rect><path d="M322,249.5H249.42a4.72,4.72,0,0,1-4.73-4.72h0a4.72,4.72,0,0,1,4.73-4.72H322a4.72,4.72,0,0,1,4.72,4.72h0A4.72,4.72,0,0,1,322,249.5Z" style="fill: rgb(166, 166, 166); transform-origin: 285.705px 244.78px;" id="eltmq9unedt3c" class="animable"></path><path d="M317.29,212.17H258.18a4.72,4.72,0,0,1-4.72-4.73h0a4.72,4.72,0,0,1,4.72-4.72h59.11a4.72,4.72,0,0,1,4.72,4.72h0A4.72,4.72,0,0,1,317.29,212.17Z" style="fill: rgb(255, 255, 255); transform-origin: 287.735px 207.445px;" id="ell6au6gje5ak" class="animable"></path><path d="M319.82,240.06H251.55a3.17,3.17,0,0,1-3.17-3.17h0a3.17,3.17,0,0,1,3.17-3.17h68.27a3.17,3.17,0,0,1,3.17,3.17h0A3.17,3.17,0,0,1,319.82,240.06Z" style="fill: rgb(255, 67, 39); transform-origin: 285.685px 236.89px;" id="eleba8mrlafzr" class="animable"></path><path d="M319.82,233.72H251.55a3.17,3.17,0,0,1-3.17-3.17h0a3.17,3.17,0,0,1,3.17-3.17h68.27a3.17,3.17,0,0,1,3.17,3.17h0A3.17,3.17,0,0,1,319.82,233.72Z" style="fill: rgb(55, 71, 79); transform-origin: 285.685px 230.55px;" id="eldvyq4jkbnf5" class="animable"></path><path d="M366.44,122.68h-114a5.53,5.53,0,0,1-5.54-5.53h0a5.54,5.54,0,0,1,5.54-5.54h114a5.54,5.54,0,0,1,5.54,5.54h0A5.53,5.53,0,0,1,366.44,122.68Z" style="fill: rgb(166, 166, 166); transform-origin: 309.44px 117.145px;" id="elypupj8x8ty" class="animable"></path><rect x="252.52" y="74.28" width="114.09" height="15.22" rx="6.61" style="fill: rgb(255, 255, 255); transform-origin: 309.565px 81.89px;" id="el6xzqjtibvyv" class="animable"></rect><rect x="252.24" y="58.96" width="114.09" height="15.22" rx="6.61" style="fill: rgb(255, 255, 255); transform-origin: 309.285px 66.57px;" id="el0kbyvfskm75" class="animable"></rect><path d="M272.86,74.18c7.32-.21,14.64-.3,22-.38l21.95-.12,22,.11,11,.14,11,.25-11,.24-11,.14-22,.12-21.95-.12C287.5,74.48,280.18,74.39,272.86,74.18Z" style="fill: rgb(219, 219, 219); transform-origin: 316.835px 74.18px;" id="elutwfk5kyie" class="animable"></path><path d="M367.26,111.61H251.6a4.72,4.72,0,0,1-4.72-4.72h0a4.72,4.72,0,0,1,4.72-4.72H367.26a4.72,4.72,0,0,1,4.72,4.72h0A4.72,4.72,0,0,1,367.26,111.61Z" style="fill: rgb(69, 90, 100); transform-origin: 309.43px 106.89px;" id="el0r1z489h1x1" class="animable"></path><path d="M365.12,102.17H253.74A3.17,3.17,0,0,1,250.57,99h0a3.17,3.17,0,0,1,3.17-3.17H365.12A3.17,3.17,0,0,1,368.29,99h0A3.17,3.17,0,0,1,365.12,102.17Z" style="fill: rgb(255, 67, 39); transform-origin: 309.43px 99px;" id="elavg7b43i8v4" class="animable"></path><path d="M365.12,95.83H253.74a3.17,3.17,0,0,1-3.17-3.17h0a3.17,3.17,0,0,1,3.17-3.17H365.12a3.17,3.17,0,0,1,3.17,3.17h0A3.17,3.17,0,0,1,365.12,95.83Z" style="fill: rgb(55, 71, 79); transform-origin: 309.43px 92.66px;" id="elgdov7qk6c3g" class="animable"></path><rect x="553.93" y="245.8" width="81.82" height="14.79" rx="5.85" style="fill: rgb(38, 50, 56); transform-origin: 594.84px 253.195px;" id="elqhsrarhwrj7" class="animable"></rect><path d="M629.44,245.8h-69.2a6.3,6.3,0,0,1-6.31-6.31h0a6.31,6.31,0,0,1,6.31-6.31h69.2a6.31,6.31,0,0,1,6.31,6.31h0A6.3,6.3,0,0,1,629.44,245.8Z" style="fill: rgb(255, 67, 39); transform-origin: 594.84px 239.49px;" id="eln2ti47h7byl" class="animable"></path><path d="M624.15,216.25H571.3a6.32,6.32,0,0,1-6.31-6.31h0a6.32,6.32,0,0,1,6.31-6.31h52.85a6.31,6.31,0,0,1,6.31,6.31h0A6.31,6.31,0,0,1,624.15,216.25Z" style="fill: rgb(55, 71, 79); transform-origin: 597.725px 209.94px;" id="elcuhwwc8enbs" class="animable"></path><path d="M627.84,233.18h-66a4.23,4.23,0,0,1-4.23-4.23h0a4.23,4.23,0,0,1,4.23-4.23h66a4.23,4.23,0,0,1,4.23,4.23h0A4.23,4.23,0,0,1,627.84,233.18Z" style="fill: rgb(69, 90, 100); transform-origin: 594.84px 228.95px;" id="elivvlhogs1b" class="animable"></path><path d="M627.84,224.72h-66a4.23,4.23,0,0,1-4.23-4.24h0a4.23,4.23,0,0,1,4.23-4.23h66a4.23,4.23,0,0,1,4.23,4.23h0A4.23,4.23,0,0,1,627.84,224.72Z" style="fill: rgb(255, 255, 255); transform-origin: 594.84px 220.485px;" id="elwphp0ixuise" class="animable"></path><rect x="464.45" y="67.23" width="77.55" height="55.46" style="fill: rgb(255, 67, 39); transform-origin: 503.225px 94.96px;" id="ellc4x02g7wko" class="animable"></rect><g id="elp6sng5nckv"><rect x="464.45" y="67.23" width="77.55" height="14.64" style="opacity: 0.1; transform-origin: 503.225px 74.55px;" class="animable"></rect></g><rect x="460.5" y="63.38" width="85.44" height="11.17" style="fill: rgb(255, 67, 39); transform-origin: 503.22px 68.965px;" id="el9a2p07lxt9" class="animable"></rect><rect x="493.56" y="80.25" width="19.33" height="5.38" style="fill: rgb(38, 50, 56); transform-origin: 503.225px 82.94px;" id="elcff0qhgau2k" class="animable"></rect><rect x="552.13" y="67.23" width="77.55" height="55.46" style="fill: rgb(255, 67, 39); transform-origin: 590.905px 94.96px;" id="elqqvbsaas1yh" class="animable"></rect><g id="elhhl70ahp3ml"><rect x="552.13" y="67.23" width="77.55" height="14.64" style="opacity: 0.1; transform-origin: 590.905px 74.55px;" class="animable"></rect></g><rect x="548.18" y="63.38" width="85.44" height="11.17" style="fill: rgb(255, 67, 39); transform-origin: 590.9px 68.965px;" id="elolompq3zgs" class="animable"></rect><rect x="581.24" y="80.25" width="19.33" height="5.38" style="fill: rgb(38, 50, 56); transform-origin: 590.905px 82.94px;" id="elfomvw3tqnh8" class="animable"></rect><path d="M640,411c-2.47.85-73.25,1.52-76-.16-1-.63-2.42-10.94-2.91-23.42l46.31-.55s27.22,11.86,30,14S642.5,410.11,640,411Z" style="fill: rgb(255, 67, 39); transform-origin: 601.078px 399.374px;" id="elrkayvtyhonf" class="animable"></path><path d="M639,408.14c-11.86-.18-59.75.22-71.49.95-.1,0-.1.07,0,.07,11.76.43,59.64-.36,71.5-.83C639.25,408.32,639.24,408.14,639,408.14Z" style="fill: rgb(38, 50, 56); transform-origin: 603.31px 408.691px;" id="el9dg8fz5c4yw" class="animable"></path><path d="M632.9,398.35a9.54,9.54,0,0,0-7.07,3,9.21,9.21,0,0,0-2.59,6.36c0,.07.13.07.14,0a11,11,0,0,1,9.52-9.18A.08.08,0,1,0,632.9,398.35Z" style="fill: rgb(38, 50, 56); transform-origin: 628.115px 403.056px;" id="elotzesxj31i" class="animable"></path><path d="M612.1,388c-4.75,0-10.24,1.7-13.16,5.62-.11.15.11.31.25.23a66,66,0,0,1,13-5.27A.3.3,0,0,0,612.1,388Z" style="fill: rgb(38, 50, 56); transform-origin: 605.647px 390.936px;" id="elsei9oano9o" class="animable"></path><path d="M615.78,389.36c-4.75,0-10.24,1.71-13.16,5.62-.11.15.11.31.25.24a65.18,65.18,0,0,1,13-5.28A.3.3,0,0,0,615.78,389.36Z" style="fill: rgb(38, 50, 56); transform-origin: 609.327px 392.298px;" id="el5qxaxk17z6h" class="animable"></path><path d="M619.46,390.75c-4.75,0-10.24,1.71-13.16,5.62-.11.16.11.31.25.24a65.75,65.75,0,0,1,13-5.27A.3.3,0,0,0,619.46,390.75Z" style="fill: rgb(38, 50, 56); transform-origin: 613.022px 393.689px;" id="elfjicyp66y" class="animable"></path><path d="M623.14,392.15c-4.75,0-10.24,1.71-13.16,5.62-.11.15.11.31.25.23a65.75,65.75,0,0,1,13-5.27A.3.3,0,0,0,623.14,392.15Z" style="fill: rgb(38, 50, 56); transform-origin: 616.687px 395.086px;" id="el3fybgjmuxal" class="animable"></path><path d="M570.41,397.79c-5.32.06-5.23,8.34.11,8.28S575.75,397.72,570.41,397.79Z" style="fill: rgb(255, 255, 255); transform-origin: 570.469px 401.93px;" id="elg0gf87ggbj6" class="animable"></path><path d="M617.11,375.24c-2.42-2-5.43,0-6.9,2.09a25,25,0,0,0-4.2,12.19.13.13,0,0,0,.15.13.58.58,0,0,0,.86.38c3.36-2.37,7.24-4.49,9.78-7.82C618.27,380.26,619.4,377.11,617.11,375.24Zm-5.73,10.15c-1.63,1.21-3.3,2.33-4.88,3.59.83-2.37,1.55-4.77,2.61-7.06a26.83,26.83,0,0,1,1.71-3.22c1-1.58,5.64-5.59,6.16-.43C617.27,381.12,613.31,384,611.38,385.39Z" style="fill: rgb(38, 50, 56); transform-origin: 612.212px 382.262px;" id="el5uc9iecp9mu" class="animable"></path><path d="M594.23,391.39c4.14.6,8.4-.62,12.45-1.29a.58.58,0,0,0,.35-.87.12.12,0,0,0,0-.2,24.83,24.83,0,0,0-11.54-5.73c-2.51-.46-6,.25-6.38,3.35C588.8,389.59,591.81,391,594.23,391.39Zm-2.89-2.67c-3.25-4.05,2.86-4.43,4.69-4a24.55,24.55,0,0,1,3.47,1.1,74.17,74.17,0,0,1,6.82,3.19c-2,.21-4,.59-6,.87C597.94,390.19,593.13,391,591.34,388.72Z" style="fill: rgb(38, 50, 56); transform-origin: 598.103px 387.362px;" id="elhcfa5znj8ke" class="animable"></path><g id="elb0pep54hwca"><path d="M640,411c-2.45.86-73.24,1.54-76-.15-1-.63-2.41-10.94-2.9-23.42l42.32-.51,37.59,21.62C641.14,409.72,640.84,410.67,640,411Z" style="opacity: 0.2; transform-origin: 601.07px 399.406px;" class="animable"></path></g><path d="M627.2,411c-2.46.85-73.24,1.52-76-.16-1-.63-2.42-10.94-2.91-23.42l46.32-.55s27.21,11.86,30,14S629.66,410.11,627.2,411Z" style="fill: rgb(255, 67, 39); transform-origin: 588.271px 399.374px;" id="ell4qubx25nj" class="animable"></path><path d="M626.16,408.14c-11.87-.18-59.75.22-71.5.95-.09,0-.09.07,0,.07,11.76.43,59.64-.36,71.5-.83C626.41,408.32,626.41,408.14,626.16,408.14Z" style="fill: rgb(38, 50, 56); transform-origin: 590.47px 408.691px;" id="elaynisjzej9d" class="animable"></path><path d="M620.07,398.35a9.51,9.51,0,0,0-7.07,3,9.26,9.26,0,0,0-2.6,6.36c0,.07.14.07.15,0a11,11,0,0,1,9.52-9.18C620.16,398.49,620.16,398.35,620.07,398.35Z" style="fill: rgb(38, 50, 56); transform-origin: 615.269px 403.056px;" id="el4loc5fwldts" class="animable"></path><path d="M599.26,388c-4.75,0-10.24,1.7-13.15,5.62-.12.15.1.31.24.23a65.84,65.84,0,0,1,13-5.27A.3.3,0,0,0,599.26,388Z" style="fill: rgb(38, 50, 56); transform-origin: 592.81px 390.936px;" id="elpu8n9s7fe6" class="animable"></path><path d="M602.94,389.36c-4.75,0-10.24,1.71-13.15,5.62-.12.15.1.31.24.24a65.27,65.27,0,0,1,13-5.28A.3.3,0,0,0,602.94,389.36Z" style="fill: rgb(38, 50, 56); transform-origin: 596.489px 392.298px;" id="elxa56uw3rx5e" class="animable"></path><path d="M606.62,390.75c-4.75,0-10.24,1.71-13.15,5.62-.12.16.1.31.24.24a65.84,65.84,0,0,1,13-5.27A.3.3,0,0,0,606.62,390.75Z" style="fill: rgb(38, 50, 56); transform-origin: 600.185px 393.689px;" id="elnq3hujo7f5m" class="animable"></path><path d="M610.3,392.15c-4.75,0-10.24,1.71-13.15,5.62-.12.15.1.31.24.23a65.84,65.84,0,0,1,13-5.27A.3.3,0,0,0,610.3,392.15Z" style="fill: rgb(38, 50, 56); transform-origin: 603.849px 395.086px;" id="el8y9hyipjmsa" class="animable"></path><path d="M557.58,397.79c-5.33.06-5.24,8.34.1,8.28S562.91,397.72,557.58,397.79Z" style="fill: rgb(255, 255, 255); transform-origin: 557.63px 401.93px;" id="elkcwzbwb6jzg" class="animable"></path><path d="M604.27,375.24c-2.42-2-5.43,0-6.89,2.09a24.87,24.87,0,0,0-4.2,12.19c0,.1.07.14.15.13a.58.58,0,0,0,.86.38c3.35-2.37,7.24-4.49,9.77-7.82C605.44,380.26,606.56,377.11,604.27,375.24Zm-5.73,10.15c-1.62,1.21-3.29,2.33-4.87,3.59a72.07,72.07,0,0,1,2.61-7.06,26.76,26.76,0,0,1,1.7-3.22c1-1.58,5.64-5.59,6.16-.43C604.43,381.12,600.48,384,598.54,385.39Z" style="fill: rgb(38, 50, 56); transform-origin: 599.379px 382.262px;" id="elb6yzt7ogmq9" class="animable"></path><path d="M581.4,391.39c4.14.6,8.39-.62,12.45-1.29a.57.57,0,0,0,.34-.87.13.13,0,0,0,0-.2,24.91,24.91,0,0,0-11.55-5.73c-2.5-.46-6,.25-6.38,3.35C576,389.59,579,391,581.4,391.39Zm-2.9-2.67c-3.25-4.05,2.86-4.43,4.69-4a25.1,25.1,0,0,1,3.48,1.1,74,74,0,0,1,6.81,3.19c-2,.21-4,.59-6,.87C585.1,390.19,580.3,391,578.5,388.72Z" style="fill: rgb(38, 50, 56); transform-origin: 585.265px 387.362px;" id="eliyg3meqssak" class="animable"></path><path d="M340.3,411.36c-2.48.83-73.45.85-76.16-.86-1.25-.79-1.88-15.88-2.21-31.82l46.17-.14-.21,8.32s27.17,12.15,29.94,14.35S342.78,410.53,340.3,411.36Z" style="fill: rgb(255, 67, 39); transform-origin: 301.657px 395.225px;" id="elx61m72fkp1r" class="animable"></path><g id="elyj8fznkeacs"><path d="M330.87,411.77c-20,.35-64.59.08-66.73-1.27-1.25-.78-1.89-15.89-2.22-31.82l31.22-.1Z" style="opacity: 0.2; transform-origin: 296.395px 395.245px;" class="animable"></path></g><path d="M339.28,408.52c-11.89-.29-59.91-.33-71.69.29-.1,0-.1.07,0,.07,11.79.55,59.8.2,71.69-.16C339.54,408.71,339.53,408.53,339.28,408.52Z" style="fill: rgb(38, 50, 56); transform-origin: 303.493px 408.742px;" id="elnw7lxsrfzja" class="animable"></path><path d="M309.56,384.22c-4.68-.87-10.4-.15-14,3.19-.14.12.05.32.2.27a65.86,65.86,0,0,1,13.77-2.87A.3.3,0,0,0,309.56,384.22Z" style="fill: rgb(38, 50, 56); transform-origin: 302.652px 385.785px;" id="el46ls70vp8zx" class="animable"></path><path d="M312.94,386.26c-4.68-.88-10.4-.16-14,3.18-.14.13.05.33.2.28a65.23,65.23,0,0,1,13.77-2.87A.3.3,0,0,0,312.94,386.26Z" style="fill: rgb(38, 50, 56); transform-origin: 306.032px 387.822px;" id="el0oxd69x75pqf" class="animable"></path><path d="M316.32,388.29c-4.68-.87-10.4-.15-14,3.19-.14.13.05.32.2.27a66.5,66.5,0,0,1,13.77-2.87A.3.3,0,0,0,316.32,388.29Z" style="fill: rgb(38, 50, 56); transform-origin: 309.412px 389.855px;" id="el8jllgg2ewed" class="animable"></path><path d="M319.7,390.33c-4.68-.87-10.4-.15-14,3.18-.14.13,0,.33.2.28a65.9,65.9,0,0,1,13.76-2.87A.3.3,0,0,0,319.7,390.33Z" style="fill: rgb(38, 50, 56); transform-origin: 312.786px 391.895px;" id="elu34xu6dznu" class="animable"></path><path d="M318.21,373.39c-1.84-2.53-5.27-1.39-7.22.25a24.92,24.92,0,0,0-7.21,10.73c0,.09,0,.15.11.17a.58.58,0,0,0,.74.58c3.86-1.43,8.17-2.48,11.48-5.06C318,378.56,320,375.79,318.21,373.39ZM310,381.75c-1.88.75-3.79,1.41-5.65,2.23a75.5,75.5,0,0,1,4.35-6.18,28.52,28.52,0,0,1,2.48-2.68c1.39-1.27,6.91-4,6.08,1.17C316.85,379.12,312.29,380.86,310,381.75Z" style="fill: rgb(38, 50, 56); transform-origin: 311.344px 378.526px;" id="elov8hnttk3vr" class="animable"></path><path d="M291.88,383.15c3.86,1.64,8.3,1.56,12.4,2,.42,0,.64-.4.56-.75a.12.12,0,0,0,.06-.19,25.08,25.08,0,0,0-9.71-8.53c-2.31-1.08-5.91-1.31-7,1.61C287.08,380,289.63,382.19,291.88,383.15Zm-2.11-3.34c-2.11-4.75,3.91-3.56,5.58-2.69a26.72,26.72,0,0,1,3.08,2,74.64,74.64,0,0,1,5.78,4.86c-2-.32-4-.46-6-.71C295.78,382.94,290.93,382.43,289.77,379.81Z" style="fill: rgb(38, 50, 56); transform-origin: 296.424px 380.044px;" id="elr6ywiklytjq" class="animable"></path><path d="M318.8,411.36c-2.48.83-73.45.85-76.16-.86-1.25-.79-1.88-15.88-2.21-31.82l46.17-.14-.21,8.32s27.18,12.15,29.94,14.35S321.28,410.53,318.8,411.36Z" style="fill: rgb(255, 67, 39); transform-origin: 280.156px 395.225px;" id="eli336i3jv1zi" class="animable"></path><path d="M317.78,408.52c-11.89-.29-59.91-.33-71.69.29-.1,0-.1.07,0,.07,11.79.55,59.8.2,71.7-.16C318,408.71,318,408.53,317.78,408.52Z" style="fill: rgb(38, 50, 56); transform-origin: 281.981px 408.742px;" id="elf0mxwclbvin" class="animable"></path><path d="M288.06,384.22c-4.68-.87-10.4-.15-14,3.19-.14.12.05.32.2.27a65.86,65.86,0,0,1,13.77-2.87A.3.3,0,0,0,288.06,384.22Z" style="fill: rgb(38, 50, 56); transform-origin: 281.152px 385.785px;" id="el8xcgabx9gw3" class="animable"></path><path d="M291.44,386.26c-4.68-.88-10.4-.16-14,3.18-.14.13.05.33.2.28a65.23,65.23,0,0,1,13.77-2.87A.3.3,0,0,0,291.44,386.26Z" style="fill: rgb(38, 50, 56); transform-origin: 284.532px 387.822px;" id="elkgegdf2nlfs" class="animable"></path><path d="M294.82,388.29c-4.68-.87-10.4-.15-14,3.19-.14.13.05.32.2.27a66.5,66.5,0,0,1,13.77-2.87A.3.3,0,0,0,294.82,388.29Z" style="fill: rgb(38, 50, 56); transform-origin: 287.912px 389.855px;" id="ellyyit12lc0g" class="animable"></path><path d="M298.2,390.33c-4.68-.87-10.4-.15-14,3.18-.14.13,0,.33.2.28a65.86,65.86,0,0,1,13.77-2.87A.3.3,0,0,0,298.2,390.33Z" style="fill: rgb(38, 50, 56); transform-origin: 291.288px 391.895px;" id="ell0ciakabl3g" class="animable"></path><path d="M296.71,373.39c-1.84-2.53-5.27-1.39-7.22.25a25,25,0,0,0-7.21,10.73c0,.09,0,.15.11.17,0,.35.34.73.74.58,3.86-1.43,8.17-2.48,11.48-5.06C296.55,378.56,298.45,375.79,296.71,373.39Zm-8.17,8.36c-1.88.75-3.79,1.41-5.65,2.23,1.42-2.09,2.73-4.23,4.35-6.18a28.52,28.52,0,0,1,2.48-2.68c1.39-1.27,6.91-4,6.08,1.17C295.35,379.12,290.79,380.86,288.54,381.75Z" style="fill: rgb(38, 50, 56); transform-origin: 289.837px 378.532px;" id="ellkq9hag7jon" class="animable"></path><path d="M270.38,383.15c3.86,1.64,8.3,1.56,12.4,2,.43,0,.64-.4.56-.75a.12.12,0,0,0,.06-.19,25.08,25.08,0,0,0-9.71-8.53c-2.31-1.08-5.91-1.31-7,1.61C265.58,380,268.13,382.19,270.38,383.15Zm-2.11-3.34c-2.11-4.75,3.91-3.56,5.58-2.69a26.72,26.72,0,0,1,3.08,2,74.64,74.64,0,0,1,5.78,4.86c-2-.32-4-.46-6-.71C274.28,382.94,269.43,382.43,268.27,379.81Z" style="fill: rgb(38, 50, 56); transform-origin: 274.924px 380.044px;" id="elfatdf2ugdrc" class="animable"></path><rect x="361.27" y="150.36" width="1.33" height="11.71" style="fill: rgb(38, 50, 56); transform-origin: 361.935px 156.215px;" id="ell5zmhz1oal" class="animable"></rect><polygon points="365.84 165.36 358.04 165.36 359.11 162.08 364.76 162.08 365.84 165.36" style="fill: rgb(255, 67, 39); transform-origin: 361.94px 163.72px;" id="elamgkzq8hzzf" class="animable"></polygon><path d="M358,164.78h7.82a3.27,3.27,0,0,1,3.27,3.27V326.49a0,0,0,0,1,0,0H354.75a0,0,0,0,1,0,0V168A3.27,3.27,0,0,1,358,164.78Z" style="fill: rgb(69, 90, 100); transform-origin: 361.92px 245.635px;" id="elbuw3b1f2bu" class="animable"></path><polygon points="356.62 193 356.79 218.12 356.86 243.25 356.98 293.5 356.62 293.14 367.26 293.14 366.89 293.5 367.01 243.25 367.08 218.12 367.26 193 367.43 218.12 367.5 243.25 367.62 293.5 367.62 293.87 367.26 293.87 356.62 293.87 356.25 293.87 356.25 293.5 356.37 243.25 356.44 218.12 356.62 193" style="fill: rgb(38, 50, 56); transform-origin: 361.935px 243.435px;" id="elmdk67lhf01n" class="animable"></polygon><rect x="378.12" y="150.36" width="1.33" height="11.71" style="fill: rgb(38, 50, 56); transform-origin: 378.785px 156.215px;" id="elyxkjv7o0i8r" class="animable"></rect><polygon points="382.68 165.36 374.88 165.36 375.96 162.08 381.6 162.08 382.68 165.36" style="fill: rgb(255, 67, 39); transform-origin: 378.78px 163.72px;" id="eleyy406kyrxc" class="animable"></polygon><path d="M374.87,164.78h7.82A3.27,3.27,0,0,1,386,168v126.1a0,0,0,0,1,0,0H371.6a0,0,0,0,1,0,0V168A3.27,3.27,0,0,1,374.87,164.78Z" style="fill: rgb(166, 166, 166); transform-origin: 378.8px 229.44px;" id="elijviv7finb" class="animable"></path><path d="M373.46,193c.12,11.36.23,22.72.27,34.08l.09,34.08-.36-.36H384.1l-.37.36.1-34.08c0-11.36.15-22.72.27-34.08.12,11.36.23,22.72.27,34.08l.1,34.08v.37H373.09v-.37l.09-34.08C373.23,215.72,373.34,204.36,373.46,193Z" style="fill: rgb(38, 50, 56); transform-origin: 378.78px 227.265px;" id="elupkbobqjqze" class="animable"></path><rect x="394.96" y="150.36" width="1.33" height="11.71" style="fill: rgb(38, 50, 56); transform-origin: 395.625px 156.215px;" id="el3sae2i83r2w" class="animable"></rect><polygon points="399.52 165.36 391.72 165.36 392.8 162.08 398.45 162.08 399.52 165.36" style="fill: rgb(255, 67, 39); transform-origin: 395.62px 163.72px;" id="ely7ekf3piw3g" class="animable"></polygon><path d="M391.71,164.78h7.82a3.27,3.27,0,0,1,3.27,3.27V304.93a0,0,0,0,1,0,0H388.44a0,0,0,0,1,0,0V168A3.27,3.27,0,0,1,391.71,164.78Z" style="fill: rgb(255, 67, 39); transform-origin: 395.62px 234.855px;" id="eli27x4lcle9k" class="animable"></path><g id="elk8xnav8u6b"><path d="M391.71,164.78h7.82a3.27,3.27,0,0,1,3.27,3.27V304.93a0,0,0,0,1,0,0H388.44a0,0,0,0,1,0,0V168A3.27,3.27,0,0,1,391.71,164.78Z" style="opacity: 0.2; transform-origin: 395.62px 234.855px;" class="animable"></path></g><g id="ell2volhzk67k"><path d="M390.3,180.91c.1,2,.14,4,.21,6s.08,4,.13,6,.09,4,.09,6l0,6-.47-.47,5.32,0,5.32,0-.46.47,0-6c0-2,.07-4,.1-6s.06-4,.13-6,.11-4,.2-6c.1,2,.14,4,.21,6s.08,4,.13,6,.09,4,.09,6l0,6v.46h-.47l-5.32,0-5.32,0h-.47v-.46l0-6c0-2,.07-4,.1-6s.06-4,.13-6S390.21,182.93,390.3,180.91Z" style="opacity: 0.2; transform-origin: 395.51px 193.14px;" class="animable"></path></g><rect x="411.8" y="150.36" width="1.33" height="11.71" style="fill: rgb(38, 50, 56); transform-origin: 412.465px 156.215px;" id="elda7fv0tzc8k" class="animable"></rect><polygon points="416.37 165.36 408.57 165.36 409.64 162.08 415.29 162.08 416.37 165.36" style="fill: rgb(255, 67, 39); transform-origin: 412.47px 163.72px;" id="elhj7q09hw7ln" class="animable"></polygon><path d="M408.56,164.78h7.82a3.27,3.27,0,0,1,3.27,3.27V315.71a0,0,0,0,1,0,0H405.29a0,0,0,0,1,0,0V168A3.27,3.27,0,0,1,408.56,164.78Z" style="fill: rgb(69, 90, 100); transform-origin: 412.47px 240.245px;" id="eltsy2ced23fe" class="animable"></path><path d="M419.65,168.31v.77H405.29v-.77a1.42,1.42,0,0,1,0-.3h14.31A1,1,0,0,1,419.65,168.31Z" style="fill: rgb(55, 71, 79); transform-origin: 412.466px 168.545px;" id="elr90so9w1pd" class="animable"></path><rect x="405.29" y="172.49" width="14.36" height="1.08" style="fill: rgb(55, 71, 79); transform-origin: 412.47px 173.03px;" id="eli19ek2qegs9" class="animable"></rect><rect x="405.29" y="176.97" width="14.36" height="1.08" style="fill: rgb(55, 71, 79); transform-origin: 412.47px 177.51px;" id="elimmmfii9fg" class="animable"></rect><rect x="405.29" y="181.45" width="14.36" height="1.08" style="fill: rgb(55, 71, 79); transform-origin: 412.47px 181.99px;" id="elhiyzlqt10uj" class="animable"></rect><rect x="405.29" y="185.93" width="14.36" height="1.08" style="fill: rgb(55, 71, 79); transform-origin: 412.47px 186.47px;" id="eluvqqhreapd" class="animable"></rect><rect x="405.29" y="190.42" width="14.36" height="1.08" style="fill: rgb(55, 71, 79); transform-origin: 412.47px 190.96px;" id="elzl1u0omvwql" class="animable"></rect><rect x="405.29" y="194.89" width="14.36" height="1.08" style="fill: rgb(55, 71, 79); transform-origin: 412.47px 195.43px;" id="elogzivbn84wq" class="animable"></rect><rect x="405.29" y="199.37" width="14.36" height="1.08" style="fill: rgb(55, 71, 79); transform-origin: 412.47px 199.91px;" id="elz5mhqeb5qw" class="animable"></rect><rect x="405.29" y="203.86" width="14.36" height="1.08" style="fill: rgb(55, 71, 79); transform-origin: 412.47px 204.4px;" id="elbx4rvlpztvp" class="animable"></rect><rect x="405.29" y="208.33" width="14.36" height="1.08" style="fill: rgb(55, 71, 79); transform-origin: 412.47px 208.87px;" id="el52n4vpx0s3q" class="animable"></rect><rect x="405.29" y="212.82" width="14.36" height="1.08" style="fill: rgb(55, 71, 79); transform-origin: 412.47px 213.36px;" id="el03r4z3hqotvx" class="animable"></rect><rect x="405.29" y="217.3" width="14.36" height="1.08" style="fill: rgb(55, 71, 79); transform-origin: 412.47px 217.84px;" id="elrftk3uonjrh" class="animable"></rect><rect x="405.29" y="221.77" width="14.36" height="1.08" style="fill: rgb(55, 71, 79); transform-origin: 412.47px 222.31px;" id="ely3lh1uw7s0o" class="animable"></rect><rect x="405.29" y="226.26" width="14.36" height="1.08" style="fill: rgb(55, 71, 79); transform-origin: 412.47px 226.8px;" id="elmvgqzxme99" class="animable"></rect><rect x="405.29" y="230.74" width="14.36" height="1.08" style="fill: rgb(55, 71, 79); transform-origin: 412.47px 231.28px;" id="els2n6lsir7ah" class="animable"></rect><rect x="405.29" y="235.22" width="14.36" height="1.08" style="fill: rgb(55, 71, 79); transform-origin: 412.47px 235.76px;" id="elrhuj0op4igd" class="animable"></rect><rect x="405.29" y="239.7" width="14.36" height="1.08" style="fill: rgb(55, 71, 79); transform-origin: 412.47px 240.24px;" id="elgd7hy7h6lbe" class="animable"></rect><rect x="405.29" y="244.19" width="14.36" height="1.08" style="fill: rgb(55, 71, 79); transform-origin: 412.47px 244.73px;" id="el420ek90vmof" class="animable"></rect><rect x="405.29" y="248.67" width="14.36" height="1.08" style="fill: rgb(55, 71, 79); transform-origin: 412.47px 249.21px;" id="eljx8ueaz3peb" class="animable"></rect><rect x="405.29" y="253.14" width="14.36" height="1.08" style="fill: rgb(55, 71, 79); transform-origin: 412.47px 253.68px;" id="elzbui6f7t4f" class="animable"></rect><rect x="405.29" y="257.63" width="14.36" height="1.08" style="fill: rgb(55, 71, 79); transform-origin: 412.47px 258.17px;" id="el5yx510bx19j" class="animable"></rect><rect x="405.29" y="262.11" width="14.36" height="1.08" style="fill: rgb(55, 71, 79); transform-origin: 412.47px 262.65px;" id="elxhq2w2zjzpg" class="animable"></rect><rect x="405.29" y="266.58" width="14.36" height="1.08" style="fill: rgb(55, 71, 79); transform-origin: 412.47px 267.12px;" id="eln6670azd23" class="animable"></rect><rect x="405.29" y="271.07" width="14.36" height="1.08" style="fill: rgb(55, 71, 79); transform-origin: 412.47px 271.61px;" id="elg3njjenx0dg" class="animable"></rect><rect x="405.29" y="275.55" width="14.36" height="1.08" style="fill: rgb(55, 71, 79); transform-origin: 412.47px 276.09px;" id="elaj8309nk8" class="animable"></rect><rect x="405.29" y="280.03" width="14.36" height="1.08" style="fill: rgb(55, 71, 79); transform-origin: 412.47px 280.57px;" id="elv15wyvzmhg" class="animable"></rect><rect x="405.29" y="284.51" width="14.36" height="1.08" style="fill: rgb(55, 71, 79); transform-origin: 412.47px 285.05px;" id="elmussy95w34" class="animable"></rect><rect x="405.29" y="289" width="14.36" height="1.08" style="fill: rgb(55, 71, 79); transform-origin: 412.47px 289.54px;" id="eleaekxwzj5a" class="animable"></rect><rect x="405.29" y="293.47" width="14.36" height="1.08" style="fill: rgb(55, 71, 79); transform-origin: 412.47px 294.01px;" id="el4mj0eei7skc" class="animable"></rect><rect x="405.29" y="297.95" width="14.36" height="1.08" style="fill: rgb(55, 71, 79); transform-origin: 412.47px 298.49px;" id="elpmy2oqjhzhi" class="animable"></rect><rect x="405.29" y="302.44" width="14.36" height="1.08" style="fill: rgb(55, 71, 79); transform-origin: 412.47px 302.98px;" id="el652j3bpufxv" class="animable"></rect><rect x="405.29" y="306.91" width="14.36" height="1.08" style="fill: rgb(55, 71, 79); transform-origin: 412.47px 307.45px;" id="eljl5a5fb83r" class="animable"></rect><rect x="405.29" y="311.4" width="14.36" height="1.08" style="fill: rgb(55, 71, 79); transform-origin: 412.47px 311.94px;" id="el5s18eaz9jfg" class="animable"></rect><polygon points="407.15 193 407.32 215.43 407.39 237.86 407.51 282.72 407.15 282.36 417.79 282.36 417.43 282.72 417.55 237.86 417.61 215.43 417.79 193 417.96 215.43 418.03 237.86 418.15 282.72 418.15 283.08 417.79 283.08 407.15 283.08 406.79 283.08 406.79 282.72 406.91 237.86 406.98 215.43 407.15 193" style="fill: rgb(38, 50, 56); transform-origin: 412.47px 238.04px;" id="elalvzssiweas" class="animable"></polygon><rect x="428.65" y="150.36" width="1.33" height="11.71" style="fill: rgb(38, 50, 56); transform-origin: 429.315px 156.215px;" id="elekpwegutml" class="animable"></rect><polygon points="433.21 165.36 425.41 165.36 426.49 162.08 432.13 162.08 433.21 165.36" style="fill: rgb(255, 67, 39); transform-origin: 429.31px 163.72px;" id="el54whvtnle5q" class="animable"></polygon><path d="M425.4,164.78h7.82a3.27,3.27,0,0,1,3.27,3.27V326.49a0,0,0,0,1,0,0H422.13a0,0,0,0,1,0,0V168A3.27,3.27,0,0,1,425.4,164.78Z" style="fill: rgb(199, 199, 199); transform-origin: 429.31px 245.635px;" id="elktgio8pahw" class="animable"></path><polygon points="423.99 184.96 424.16 210.09 424.23 235.22 424.35 285.47 423.99 285.11 434.63 285.11 434.27 285.47 434.39 235.22 434.46 210.09 434.63 184.96 434.81 210.09 434.87 235.22 434.99 285.47 435 285.83 434.63 285.83 423.99 285.83 423.63 285.83 423.63 285.47 423.75 235.22 423.82 210.09 423.99 184.96" style="fill: rgb(166, 166, 166); transform-origin: 429.315px 235.395px;" id="elvap80l20yy" class="animable"></polygon><rect x="454.33" y="150.36" width="1.33" height="11.71" style="fill: rgb(38, 50, 56); transform-origin: 454.995px 156.215px;" id="el17bfdbdjqw1" class="animable"></rect><polygon points="458.9 165.36 451.1 165.36 452.18 162.08 457.82 162.08 458.9 165.36" style="fill: rgb(255, 67, 39); transform-origin: 455px 163.72px;" id="elhbowlpy9et" class="animable"></polygon><path d="M451.09,164.78h7.82a3.27,3.27,0,0,1,3.27,3.27V282.87a0,0,0,0,1,0,0H447.82a0,0,0,0,1,0,0V168A3.27,3.27,0,0,1,451.09,164.78Z" style="fill: rgb(38, 50, 56); transform-origin: 455px 223.825px;" id="elgt38a31uzdo" class="animable"></path><path d="M449.68,193q.18,14.22.27,28.44c.08,9.48.06,19,.09,28.44l-.36-.36h10.64l-.37.36.1-28.44c0-9.48.15-19,.27-28.44q.18,14.22.27,28.44l.09,28.44v.37H449.31v-.36c0-9.48,0-19,.1-28.44S449.56,202.48,449.68,193Z" style="fill: rgb(166, 166, 166); transform-origin: 454.995px 221.625px;" id="elvb4y4s9r1gj" class="animable"></path><rect x="471.18" y="150.36" width="1.33" height="11.71" style="fill: rgb(38, 50, 56); transform-origin: 471.845px 156.215px;" id="elowdv398ht0a" class="animable"></rect><polygon points="475.74 165.36 467.94 165.36 469.02 162.08 474.66 162.08 475.74 165.36" style="fill: rgb(255, 67, 39); transform-origin: 471.84px 163.72px;" id="eltj4ccblpg07" class="animable"></polygon><path d="M467.93,164.78h7.82A3.27,3.27,0,0,1,479,168V306.49a0,0,0,0,1,0,0H464.66a0,0,0,0,1,0,0V168A3.27,3.27,0,0,1,467.93,164.78Z" style="fill: rgb(255, 67, 39); transform-origin: 471.83px 235.635px;" id="eletk9bxcej" class="animable"></path><g id="elbu4jnywphr"><path d="M467.93,164.78h7.82A3.27,3.27,0,0,1,479,168V306.49a0,0,0,0,1,0,0H464.66a0,0,0,0,1,0,0V168A3.27,3.27,0,0,1,467.93,164.78Z" style="fill: rgb(255, 255, 255); opacity: 0.6; transform-origin: 471.83px 235.635px;" class="animable"></path></g><polygon points="466.52 193 466.69 213.12 466.76 233.25 466.88 273.51 466.52 273.15 477.16 273.15 476.8 273.51 476.92 233.25 476.99 213.12 477.16 193 477.33 213.12 477.4 233.25 477.52 273.51 477.52 273.87 477.16 273.87 466.52 273.87 466.16 273.87 466.16 273.51 466.28 233.25 466.35 213.12 466.52 193" style="fill: rgb(255, 67, 39); transform-origin: 471.84px 233.435px;" id="elza4c4krxkw" class="animable"></polygon><rect x="488.02" y="150.36" width="1.33" height="11.71" style="fill: rgb(38, 50, 56); transform-origin: 488.685px 156.215px;" id="elzxqgcor6mm8" class="animable"></rect><polygon points="492.59 165.36 484.78 165.36 485.86 162.08 491.51 162.08 492.59 165.36" style="fill: rgb(255, 67, 39); transform-origin: 488.685px 163.72px;" id="ell0uct82bsap" class="animable"></polygon><path d="M484.78,164.78h7.82a3.27,3.27,0,0,1,3.27,3.27V310.64a0,0,0,0,1,0,0H481.5a0,0,0,0,1,0,0V168A3.27,3.27,0,0,1,484.78,164.78Z" style="fill: rgb(166, 166, 166); transform-origin: 488.685px 237.71px;" id="eluaty1q4m4uc" class="animable"></path><polygon points="483.37 193 483.54 214.16 483.61 235.33 483.72 277.66 483.37 277.3 494 277.3 493.64 277.66 493.76 235.33 493.83 214.16 494 193 494.18 214.16 494.25 235.33 494.37 277.66 494.37 278.02 494 278.02 483.37 278.02 483 278.02 483.01 277.66 483.12 235.33 483.19 214.16 483.37 193" style="fill: rgb(219, 219, 219); transform-origin: 488.685px 235.51px;" id="elvw516zo56qe" class="animable"></polygon><rect x="504.86" y="150.36" width="1.33" height="11.71" style="fill: rgb(38, 50, 56); transform-origin: 505.525px 156.215px;" id="eloqjg1qrio0d" class="animable"></rect><polygon points="509.43 165.36 501.63 165.36 502.71 162.08 508.35 162.08 509.43 165.36" style="fill: rgb(255, 67, 39); transform-origin: 505.53px 163.72px;" id="eluv76e0c3ge" class="animable"></polygon><path d="M501.62,164.78h7.82a3.27,3.27,0,0,1,3.27,3.27V290a0,0,0,0,1,0,0H498.35a0,0,0,0,1,0,0V168A3.27,3.27,0,0,1,501.62,164.78Z" style="fill: rgb(255, 255, 255); transform-origin: 505.53px 227.39px;" id="eloulstnds0me" class="animable"></path><path d="M500.21,193c.12,10.66.23,21.33.27,32l.09,32-.36-.36h10.64l-.37.36.1-32c0-10.67.15-21.34.27-32,.12,10.66.23,21.33.27,32l.09,32v.37H499.84V257l.1-32C500,214.33,500.09,203.66,500.21,193Z" style="fill: rgb(219, 219, 219); transform-origin: 505.525px 225.185px;" id="elfl0g1v0sm6u" class="animable"></path><rect x="521.71" y="150.36" width="1.33" height="11.71" style="fill: rgb(38, 50, 56); transform-origin: 522.375px 156.215px;" id="el0y9knn54dy7l" class="animable"></rect><polygon points="526.27 165.36 518.47 165.36 519.55 162.08 525.2 162.08 526.27 165.36" style="fill: rgb(255, 67, 39); transform-origin: 522.37px 163.72px;" id="elkh8z94jbrga" class="animable"></polygon><path d="M518.46,164.78h7.82a3.27,3.27,0,0,1,3.27,3.27V286a0,0,0,0,1,0,0H515.19a0,0,0,0,1,0,0V168a3.27,3.27,0,0,1,3.27-3.27Z" style="fill: rgb(255, 67, 39); transform-origin: 522.37px 225.365px;" id="el8gejou3nwg7" class="animable"></path><g id="ell3u3bj1zrvb"><path d="M518.46,164.78h7.82a3.27,3.27,0,0,1,3.27,3.27V286a0,0,0,0,1,0,0H515.19a0,0,0,0,1,0,0V168a3.27,3.27,0,0,1,3.27-3.27Z" style="opacity: 0.2; transform-origin: 522.37px 225.365px;" class="animable"></path></g><g id="elwwmafzzolmg"><path d="M517.05,193c.19,10,.29,20,.36,30s.08,20,.13,30l-.49-.49h10.64l-.48.49c0-10,0-20,.12-30s.17-20,.36-30c.19,10,.29,20,.36,30s.08,20,.13,30v.48H516.57V253c0-10,0-20,.12-30S516.87,203,517.05,193Z" style="opacity: 0.2; transform-origin: 522.375px 223.24px;" class="animable"></path></g><rect x="515.19" y="270.27" width="14.36" height="3.38" style="fill: rgb(255, 67, 39); transform-origin: 522.37px 271.96px;" id="el8rzfxnec7c" class="animable"></rect><rect x="515.19" y="275.43" width="14.36" height="3.38" style="fill: rgb(255, 67, 39); transform-origin: 522.37px 277.12px;" id="elcutgtpe8nl7" class="animable"></rect></g><g id="freepik--Floor--inject-86" class="animable animator-active" style="transform-origin: 375px 420.84px;"><polygon points="50.16 420.84 131.37 420.6 212.58 420.51 375 420.34 537.42 420.51 618.63 420.6 699.84 420.84 618.63 421.09 537.42 421.18 375 421.34 212.58 421.17 131.37 421.08 50.16 420.84" style="fill: rgb(38, 50, 56); transform-origin: 375px 420.84px;" id="elxz1e2e14fhk" class="animable"></polygon></g><g id="freepik--Plant--inject-86" class="animable animator-active" style="transform-origin: 86.75px 314.14px;"><path d="M89.55,256.29s23.1-3.23,17.7-31.11C107.25,225.18,81.44,231,89.55,256.29Z" style="fill: rgb(255, 67, 39); transform-origin: 98.0206px 240.735px;" id="eludeqd51d019" class="animable"></path><g id="el42eamzivtbx"><path d="M89.55,256.29s23.1-3.23,17.7-31.11C107.25,225.18,81.44,231,89.55,256.29Z" style="opacity: 0.1; transform-origin: 98.0206px 240.735px;" class="animable"></path></g><path d="M90.72,250.47a44.18,44.18,0,0,1,1.57-4.15l.06-.53.09-1.15c.07-.83.12-1.67.17-2.5.1-1.66.21-3.33.23-5a.07.07,0,0,1,.14,0c0,1.67,0,3.34,0,5,0,.83-.08,1.67-.14,2.5,0,.18,0,.37,0,.55a50.14,50.14,0,0,1,4.63-7.92c.8-1.11,1.63-2.17,2.53-3.2s1.89-2.05,2.82-3.1c.06-.07.16,0,.1.1A42,42,0,0,0,98.41,237c-.7,1.06-1.36,2.15-2,3.26l.22-.08c.27-.12.55-.23.82-.33l1.89-.72c1.24-.46,2.48-.91,3.71-1.38.08,0,.13.1,0,.13-1.22.49-2.44,1-3.65,1.53l-1.79.77-.9.37a2.87,2.87,0,0,1-.62.22c-.46.83-.92,1.67-1.35,2.53A59.71,59.71,0,0,0,92,250l-.17.48a14.36,14.36,0,0,1,1.9-.91l2.39-1.09c1.62-.74,3.23-1.5,4.78-2.37.08-.05.15.08.07.12-1.59.87-3.15,1.79-4.74,2.65-.79.43-1.59.85-2.4,1.25a7.83,7.83,0,0,1-2.17.87,27.24,27.24,0,0,0-1.52,6.55c-.26,3.15-.23,6.33-.3,9.49a0,0,0,0,1-.08,0c-.23-2.87-.36-5.76-.38-8.64A25.2,25.2,0,0,1,90.72,250.47Z" style="fill: rgb(38, 50, 56); transform-origin: 96.2549px 248.991px;" id="el4v48r9c1lkn" class="animable"></path><path d="M94.27,234.08A26.89,26.89,0,0,1,94.5,239s-.06,0-.07,0c-.09-1.63-.11-3.25-.29-4.88C94.13,234,94.26,234,94.27,234.08Z" style="fill: rgb(38, 50, 56); transform-origin: 94.3333px 236.512px;" id="el8ylk5ipr0k" class="animable"></path><path d="M100.88,235.47a17.41,17.41,0,0,0,3-1.46c.07,0,.14.08.07.13a11.48,11.48,0,0,1-3,1.43A.05.05,0,0,1,100.88,235.47Z" style="fill: rgb(38, 50, 56); transform-origin: 102.417px 234.795px;" id="ely91m5vjmrs" class="animable"></path><path d="M88.81,300.56c0-2.55.07-5.1.1-7.66,0-8.47.12-16.95.27-25.43q.18-10.08.47-20.18a.1.1,0,0,1,.06-.09c0-1.83,0-3.67,0-5.51,0,0,.05-.07.11-.07s.11,0,.11.08l0,5.52a.09.09,0,0,1,.05.08c.34,12,.65,23.95.72,35.93,0,2.43,0,4.87,0,7.3q.12,11.72.09,23.43l0,3.73c0,7.15-.08,14.29-.08,21.44,0,.38-.43.57-.88.59s-1.07-.18-1.07-.62c0-7.88-.05-15.76-.05-23.64C88.79,310.49,88.77,305.53,88.81,300.56Z" style="fill: rgb(38, 50, 56); transform-origin: 89.753px 290.671px;" id="el7wfpyjydei" class="animable"></path><path d="M98.46,292.81s11.11-8.24,21.65-2.67,12.2,27,12.2,27-15.48,2.21-25.24-7.07C97.68,301.13,98.46,292.81,98.46,292.81Z" style="fill: rgb(255, 67, 39); transform-origin: 115.377px 302.789px;" id="el848tddra2jb" class="animable"></path><path d="M95.43,293.31a13.38,13.38,0,0,1,6.43-.84,9.07,9.07,0,0,1,1.37-.13l1.56-.12c1.08-.08,2.16-.14,3.24-.23,2.19-.16,4.39-.29,6.58-.51.08,0,.09.13,0,.14-2.16.27-4.32.58-6.49.8-1.11.11-2.23.23-3.35.31l-.81.08c.33.07.66.15,1,.24a26.13,26.13,0,0,1,5,2.05c.87.15,1.74.4,2.6.6,1.38.32,2.74.68,4.11,1,2.7.7,5.37,1.5,8,2.28.09,0,.05.15,0,.13-2.67-.65-5.36-1.25-8-1.89l-3.91-.94-1-.23a32.67,32.67,0,0,1,7.9,6.86,42.5,42.5,0,0,1,5.48,8.66c0,.08-.07.15-.11.07a42.07,42.07,0,0,0-6.65-8.71l.15.44c.21.65.41,1.31.62,2,.41,1.31.82,2.62,1.22,3.93a.07.07,0,0,1-.14,0c-.47-1.27-.91-2.55-1.36-3.82l-.66-1.88-.33-1c0-.1-.08-.2-.11-.3A39.08,39.08,0,0,0,113.8,299a29.47,29.47,0,0,0-5.9-3.38c0,.19.08.38.11.57.11.5.23,1,.33,1.52.22,1,.42,2.1.63,3.16.42,2.15.68,4.32,1.08,6.48,0,.08-.12.12-.14,0-.5-2.16-1.14-4.29-1.62-6.46-.24-1.08-.49-2.16-.71-3.25-.11-.51-.21-1-.31-1.53-.06-.28-.12-.56-.16-.85l-.6-.24c-2.91-1.08-6.14-1.87-9.24-1.27a9.08,9.08,0,0,0-6.69,5.36c-.1.24-.48.09-.43-.16A8.62,8.62,0,0,1,95.43,293.31Z" style="fill: rgb(38, 50, 56); transform-origin: 107.643px 301.578px;" id="el6m59cadfekm" class="animable"></path><path d="M112.44,302.47l.93,4.22a30.67,30.67,0,0,1,.78,4.11c0,.05-.07.05-.09,0a32.23,32.23,0,0,1-.94-4.14c-.28-1.39-.55-2.78-.82-4.17A.07.07,0,0,1,112.44,302.47Z" style="fill: rgb(38, 50, 56); transform-origin: 113.225px 306.623px;" id="elq2uovuloaz8" class="animable"></path><path d="M123.18,306.05c1.42.71,2.79,1.53,4.26,2.12a.07.07,0,1,1,0,.13,43.6,43.6,0,0,1-4.24-2.2S123.14,306,123.18,306.05Z" style="fill: rgb(38, 50, 56); transform-origin: 125.351px 307.17px;" id="eluchtdr91xos" class="animable"></path><path d="M96,277.69s13.58.87,19.89-8.09,4.9-21.74,4.9-21.74-14.26,1.74-19.92,8.17S96,277.69,96,277.69Z" style="fill: rgb(255, 67, 39); transform-origin: 108.443px 262.787px;" id="elmkcqloiwl3" class="animable"></path><path d="M89.59,291.09c.47-1.46,1-2.89,1.6-4.32s1.09-2.72,1.69-4.07a84.66,84.66,0,0,1,4.07-8c1-1.65,2-3.25,3-4.83,0-.24.07-.48.11-.72l.18-1.26c.14-.86.29-1.72.43-2.57.32-1.88.7-3.74,1-5.62,0-.09.15-.08.14,0-.27,1.85-.46,3.71-.72,5.57-.13.91-.24,1.82-.38,2.73,0,.33-.11.65-.16,1a99,99,0,0,1,6.72-8.71c.32-.37.66-.74,1-1.11,0-.1.09-.2.13-.31s.2-.52.29-.78c.2-.53.4-1.07.59-1.62.38-1.06.72-2.13,1-3.22,0-.09.16-.05.14,0-.28,1.11-.57,2.22-.89,3.32-.16.54-.34,1.06-.52,1.58,0,.09-.07.18-.1.26,1.74-1.89,3.55-3.71,5.38-5.51.06-.07.16,0,.09.1a97.13,97.13,0,0,0-9.62,11.78,8.76,8.76,0,0,1,1-.25c1-.2,2.1-.35,3.15-.48,2.21-.29,4.42-.57,6.62-.91.09,0,.13.12,0,.13-2.11.42-4.19.89-6.28,1.37-1,.23-2,.42-3,.62A17.51,17.51,0,0,0,104,266c-.22.31-.45.62-.67.94-1,1.45-1.95,2.93-2.88,4.42l1.38-.27c1.05-.21,2.1-.4,3.16-.57,2.07-.34,4.14-.7,6.19-1.17.08,0,.12.12,0,.14-2.08.49-4.13,1.06-6.19,1.61q-1.5.39-3,.72l-1.51.33a5.07,5.07,0,0,1-.62.11q-3,4.81-5.56,9.86-1.14,2.22-2.2,4.47c-.72,1.55-1.34,3.12-2,4.68C90,291.56,89.48,291.43,89.59,291.09Z" style="fill: rgb(38, 50, 56); transform-origin: 102.594px 272.151px;" id="eluog7qpthhhp" class="animable"></path><path d="M103.48,259.88c.26-1.29.54-2.59.82-3.87,0-.09.16,0,.14,0-.26,1.27-.5,2.54-.73,3.82a37.08,37.08,0,0,1-.78,3.8s0,0,0,0A28.7,28.7,0,0,1,103.48,259.88Z" style="fill: rgb(38, 50, 56); transform-origin: 103.686px 259.8px;" id="elvu90mj10msn" class="animable"></path><path d="M111.4,259.5c.63-.31,1.3-.56,2-.82l1-.4.52-.21a2.66,2.66,0,0,0,.57-.25c.11-.08.17.1.07.12a2.42,2.42,0,0,0-.58.23l-.52.23-1,.45a18.06,18.06,0,0,1-2,.79C111.38,259.67,111.33,259.54,111.4,259.5Z" style="fill: rgb(38, 50, 56); transform-origin: 113.489px 258.722px;" id="elahrhvlmnclt" class="animable"></path><path d="M82.06,267s-8.22-15.35-20.72-17.72-20.15,10.48-20.15,10.48,9.12,11.65,20.59,13.68S82.06,267,82.06,267Z" style="fill: rgb(255, 67, 39); transform-origin: 61.625px 261.371px;" id="elg936m0vkacf" class="animable"></path><path d="M53,256.17a33.61,33.61,0,0,1,9.81.11l-.56-.3c-.93-.47-1.85-.95-2.77-1.43-1.92-1-3.86-2.06-5.87-2.86-.1,0,0-.17.06-.13,1.95.91,4,1.67,5.94,2.58,1,.45,2,.92,2.9,1.42.62.33,1.3.64,1.91,1a34.61,34.61,0,0,1,7.94,2.64l-1.56-1.7c-1.17-1.28-2.31-2.62-3.59-3.78-.07-.06,0-.16.1-.1,1.31,1.19,2.69,2.29,4,3.53.61.6,1.2,1.22,1.78,1.86.28.32.57.65.84,1a32.93,32.93,0,0,1,16.76,22.63c0,.08-.11.13-.13,0a37.87,37.87,0,0,0-9.19-15.55,36.19,36.19,0,0,0-16.75-9.69,36.87,36.87,0,0,0-11.56-1A.12.12,0,0,1,53,256.17Z" style="fill: rgb(38, 50, 56); transform-origin: 71.8081px 267.137px;" id="elqdht7e7g1r" class="animable"></path><g id="elw8b6w7gpxu"><path d="M41.19,259.77s9.12,11.65,20.59,13.68c8.75,1.55,16-3,18.88-5.26l.63-1s-5.92-5-17.12-7.86S41.19,259.77,41.19,259.77Z" style="opacity: 0.1; transform-origin: 61.24px 265.965px;" class="animable"></path></g><path d="M60.22,250.69A30.38,30.38,0,0,1,63,252.53a17.34,17.34,0,0,1,2.41,2.2.07.07,0,1,1-.1.1c-.83-.72-1.67-1.44-2.53-2.12a28.77,28.77,0,0,0-2.63-1.9C60.07,250.77,60.15,250.65,60.22,250.69Z" style="fill: rgb(38, 50, 56); transform-origin: 62.7737px 252.766px;" id="elqlbhbg94x9" class="animable"></path><path d="M53.36,253.29l1.4.55,1.39.58c.1,0,.06.2,0,.16l-1.4-.56c-.47-.19-.92-.41-1.39-.59C53.24,253.39,53.28,253.26,53.36,253.29Z" style="fill: rgb(38, 50, 56); transform-origin: 54.7476px 253.935px;" id="elco6keztmtx" class="animable"></path><path d="M83.7,286.33s-2.19,15.23-13.64,20.55-25.41,0-25.41,0S50.14,273.94,83.7,286.33Z" style="fill: rgb(255, 67, 39); transform-origin: 64.175px 296.394px;" id="el1lguzk6hp7z" class="animable"></path><path d="M52.54,297c1.05-.12,2.1-.3,3.15-.49l1.54-.29c.26-.05.53-.12.8-.16.31-.29.61-.58.93-.86a46.43,46.43,0,0,1,7-5.08,40.56,40.56,0,0,1,4.2-2.16h-.22l-3.77.17c-2.51.11-5,.17-7.53.33-.1,0-.09-.13,0-.14,2.52-.17,5-.45,7.54-.66l3.67-.33,1.88-.16.49-.05c.65-.25,1.31-.48,2-.68a17.8,17.8,0,0,1,9.7-.54c2.88.74,5.75,2.63,6.5,5.66,0,.11-.14.18-.18.07-1.08-2.53-3.89-3.81-6.43-4.34a15.59,15.59,0,0,0-5.19-.1,11.74,11.74,0,0,1-.58,2.3c-.31,1.07-.63,2.15-1,3.21-.65,2.14-1.37,4.26-2,6.4a.07.07,0,1,1-.13,0c.53-2.13,1-4.29,1.49-6.43l.78-3.15a18.94,18.94,0,0,1,.58-2.17,26.23,26.23,0,0,0-3,.71,40.87,40.87,0,0,0-5.19,1.9c-.17,1.08-.41,2.16-.66,3.23-.32,1.34-.67,2.67-1.09,4a.07.07,0,0,1-.13,0,2.21,2.21,0,0,0,.05-.25h0c.26-1.25.54-2.49.8-3.73.21-1,.4-2,.62-3A46.63,46.63,0,0,0,65,292.21c0,.31-.1.63-.15.91-.08.52-.18,1-.27,1.56-.22,1.18-.45,2.35-.73,3.51a54.66,54.66,0,0,1-2,6.62.07.07,0,0,1,0,.09l-.07.07c-.05.06-.13,0-.11-.07.53-2.25,1.13-4.49,1.63-6.76.24-1.13.49-2.26.72-3.39l.33-1.71c0-.16,0-.33.07-.51a48.58,48.58,0,0,0-4.45,3,47.48,47.48,0,0,0-6.83,6.23c-.08.09-.24,0-.17-.14.88-1.15,1.74-2.27,2.73-3.33.58-.62,1.18-1.21,1.79-1.8l-.19,0q-.81.14-1.62.24c-1.06.14-2.12.25-3.18.37C52.48,297.13,52.45,297,52.54,297Z" style="fill: rgb(38, 50, 56); transform-origin: 71.4493px 295.231px;" id="elitg57mf6i" class="animable"></path><path d="M60.58,302.14h0c0-.13,0-.26.07-.39s.11-.33.14-.5h0c.24-1,.44-2,.62-3.07,0-.07.13-.05.12,0a12.4,12.4,0,0,1-.87,4s-.09,0-.08,0Z" style="fill: rgb(38, 50, 56); transform-origin: 61.0549px 300.157px;" id="elcj3lcqjdjoq" class="animable"></path><path d="M70.17,301.9s0-.07.06-.07c.33-1.35.63-2.69.91-4.05.15-.72.3-1.43.43-2.14.08-.39.15-.78.22-1.16a3.68,3.68,0,0,1,.24-1,.07.07,0,0,1,.13,0,6.79,6.79,0,0,1-.28,2c-.14.75-.29,1.49-.45,2.23-.33,1.5-.71,3-1.13,4.47a.08.08,0,0,1-.16,0Z" style="fill: rgb(38, 50, 56); transform-origin: 71.1502px 297.848px;" id="elrnpphdi6ck" class="animable"></path><path d="M53.58,292.59c2.09-.28,4.18-.59,6.28-.84.08,0,.12.12,0,.14-2.09.31-4.18.56-6.28.84C53.53,292.74,53.49,292.61,53.58,292.59Z" style="fill: rgb(38, 50, 56); transform-origin: 56.7311px 292.24px;" id="el123heo8gzpaj" class="animable"></path><path d="M89.57,250.62s7-30.74-26-43.18C63.55,207.44,54.4,247.9,89.57,250.62Z" style="fill: rgb(255, 67, 39); transform-origin: 76.3375px 229.03px;" id="elw9an37g5mbl" class="animable"></path><path d="M82.44,233.19l-.36-.22-1.86-1-3.83-2.14c-2.52-1.41-5-2.88-7.55-4.26-.08,0,0-.16.07-.12,2.55,1.38,5.13,2.68,7.69,4l3.79,2,1.54.82c-1.1-2.09-2.28-4.14-3.57-6.11-1.72-2.64-3.62-5.14-5.59-7.6a.11.11,0,0,1,.17-.15,52.12,52.12,0,0,1,7.63,9.36c0-.11,0-.22,0-.32,0-.77,0-1.53-.06-2.3,0-1.5,0-3,0-4.5,0-.09.14-.08.14,0,.06,1.47.24,2.94.32,4.42.05.74.08,1.47.1,2.21,0,.4,0,.85,0,1.29.68,1.08,1.33,2.18,2,3.29a58.56,58.56,0,0,1,3,6.19c0-.76.08-1.53.12-2.29.1-1.69.31-3.36.38-5,0-.09.14-.08.14,0,0,1.68,0,3.37,0,5.05,0,.84,0,1.68-.11,2.52,0,.31,0,.63-.06.94a55.56,55.56,0,0,1,2.5,8.45A93.51,93.51,0,0,1,90.19,257s0,0,0,0a50,50,0,0,0-1.75-8.28c-.41-1.45-.84-2.89-1.3-4.32-1.38-.65-2.69-1.46-4-2.19s-2.76-1.51-4.15-2.27c-2.75-1.51-5.5-3.05-8.34-4.39-.09,0,0-.15.07-.12,2.88,1.31,5.78,2.55,8.61,4,1.41.71,2.79,1.46,4.16,2.23,1.15.65,2.33,1.3,3.42,2-.32-1-.65-1.91-1-2.85A81.66,81.66,0,0,0,82.44,233.19Z" style="fill: rgb(38, 50, 56); transform-origin: 79.4983px 237.686px;" id="elndopxtv3av9" class="animable"></path><path d="M85.22,226.16c0-.09.15-.09.14,0-.12,1.76-.17,3.51-.36,5.26a.08.08,0,0,1-.16,0C84.91,229.66,85.09,227.91,85.22,226.16Z" style="fill: rgb(38, 50, 56); transform-origin: 85.1002px 228.796px;" id="el93um14etftj" class="animable"></path><path d="M69.39,232c2.07.83,4.15,1.62,6.21,2.48.05,0,0,.12,0,.1-2.09-.78-4.15-1.63-6.22-2.44C69.26,232.13,69.3,232,69.39,232Z" style="fill: rgb(38, 50, 56); transform-origin: 72.4637px 233.291px;" id="elc2pwkye46jv" class="animable"></path><path d="M66.25,217.85A56.06,56.06,0,0,1,72.12,221a.09.09,0,0,1-.09.15C70.11,220,68.16,219,66.18,218,66.09,217.93,66.17,217.82,66.25,217.85Z" style="fill: rgb(38, 50, 56); transform-origin: 69.1435px 219.5px;" id="el6glxgetc9gt" class="animable"></path><g id="elmc9m77vuz7e"><rect x="66.75" y="317.09" width="47.63" height="50.2" style="fill: rgb(55, 71, 79); transform-origin: 90.565px 342.19px; transform: rotate(180deg);" class="animable"></rect></g><rect x="115.22" y="334.85" width="2.44" height="85.99" style="fill: rgb(38, 50, 56); transform-origin: 116.44px 377.845px;" id="el71rvg714vu6" class="animable"></rect><rect x="63.73" y="334.85" width="2.44" height="85.99" style="fill: rgb(38, 50, 56); transform-origin: 64.95px 377.845px;" id="elr9p121y1nn" class="animable"></rect><rect x="88.18" y="334.85" width="2.44" height="85.99" style="fill: rgb(38, 50, 56); transform-origin: 89.4px 377.845px;" id="elo67j2tixrkb" class="animable"></rect><g id="el79r2vpglwjh"><rect x="64.95" y="364.07" width="51.49" height="6.95" style="fill: rgb(38, 50, 56); transform-origin: 90.695px 367.545px; transform: rotate(180deg);" class="animable"></rect></g></g><g id="freepik--Mirror--inject-86" class="animable animator-active" style="transform-origin: 145.65px 285.02px;"><polygon points="144.01 422.4 154.09 422.4 210.32 252.13 200.23 252.13 144.01 422.4" style="fill: rgb(55, 71, 79); transform-origin: 177.165px 337.265px;" id="elymo9s9h8yfl" class="animable"></polygon><polygon points="63.87 422.4 73.95 422.4 103.16 338.1 130.18 252.13 120.09 252.13 98.54 322.31 63.87 422.4" style="fill: rgb(55, 71, 79); transform-origin: 97.025px 337.265px;" id="el87lvhx2le0q" class="animable"></polygon><path d="M98.54,322.31c1.48,5.05,3,10.34,4.62,15.79l27-86H120.09Z" style="fill: rgb(38, 50, 56); transform-origin: 114.35px 295.1px;" id="elft9l9cyxzkb" class="animable"></path><polygon points="108.42 438.99 227.43 438.99 211.81 131.05 92.8 131.05 108.42 438.99" style="fill: rgb(69, 90, 100); transform-origin: 160.115px 285.02px;" id="elmjrf5ozxofm" class="animable"></polygon><polygon points="118.36 429.15 219.11 430.07 203.49 139.97 102.73 139.05 118.36 429.15" style="fill: rgb(255, 255, 255); transform-origin: 160.92px 284.56px;" id="elzu41fhra67e" class="animable"></polygon><polygon points="108.42 438.99 113.71 438.99 98.09 131.05 92.8 131.05 108.42 438.99" style="fill: rgb(55, 71, 79); transform-origin: 103.255px 285.02px;" id="el1eruhe5e7wy" class="animable"></polygon><g id="el1wo3dc8ds0v"><g style="opacity: 0.2; transform-origin: 160.92px 284.56px;" class="animable"><polygon points="103.47 152.66 103.47 152.66 102.73 139.05 129.04 139.29 207.63 216.97 209.83 257.79 103.47 152.66" style="fill: rgb(235, 235, 235); transform-origin: 156.28px 198.42px;" id="elwzom20sec9" class="animable"></polygon><polygon points="167.79 429.6 128.32 429.24 117.8 418.85 115.6 378.02 167.79 429.6" style="fill: rgb(235, 235, 235); transform-origin: 141.695px 403.81px;" id="elfk5pi9e2w8g" class="animable"></polygon><polygon points="213.58 327.41 107.21 222.29 105.87 197.37 212.23 302.5 213.58 327.41" style="fill: rgb(235, 235, 235); transform-origin: 159.725px 262.39px;" id="el5fyndcopnpw" class="animable"></polygon><polygon points="219.11 430.07 196.43 429.86 114 348.4 112.66 323.48 219.02 428.61 219.11 430.07" style="fill: rgb(235, 235, 235); transform-origin: 165.885px 376.775px;" id="elq1ovu6ga3hd" class="animable"></polygon><polygon points="107.95 235.86 107.95 235.85 107.74 232.05 214.1 337.18 214.1 337.19 214.31 340.99 107.95 235.86" style="fill: rgb(235, 235, 235); transform-origin: 161.025px 286.52px;" id="elz8auzp14ds" class="animable"></polygon><polygon points="218.31 415.16 111.94 310.03 111.74 306.25 218.1 411.38 218.31 415.16" style="fill: rgb(235, 235, 235); transform-origin: 165.025px 360.705px;" id="elnu819sscgxd" class="animable"></polygon><polygon points="204.28 154.7 189.24 139.84 192.91 139.88 204.07 150.9 204.07 150.91 204.28 154.7" style="fill: rgb(235, 235, 235); transform-origin: 196.76px 147.27px;" id="eleiie7k1hic6" class="animable"></polygon></g></g></g><g id="freepik--Character--inject-86" class="animable animator-active" style="transform-origin: 439.464px 278.018px;"><path d="M426.92,395.85s3.25,45.1,3.25,45.13c0,8.83-.07,16.58-.51,20.58a.13.13,0,0,1,0,.06,6.15,6.15,0,0,1-.64,2.74l-.05.05c-2.62,1.8-73.2,4.21-75.69,3.47s-.56-7.9,2.1-10.18,29.29-15.29,29.29-15.29l-2.82-45.08Z" style="fill: rgb(235, 148, 129); transform-origin: 391.148px 431.934px;" id="eledrik9erqn9" class="animable"></path><path d="M353.27,467.88c2.49.74,73.07-1.67,75.69-3.47l.06-.06a6.23,6.23,0,0,0,.63-2.72.08.08,0,0,0,0-.07c.42-4,.54-11.75.5-20.57,0,0-.56-7.83-1.22-17l-45.31,2.12,1,16.26s-26.59,13-29.27,15.29S350.78,467.14,353.27,467.88Z" style="fill: rgb(235, 235, 235); transform-origin: 391.132px 446.004px;" id="eldwp9rngxrq6" class="animable"></path><path d="M353,468c2.53.74,74.21-1.25,76.88-3.08,1-.69,1.25-24.72-.2-36.9l-46.18,1.8s.07,12.39-.48,12.67c-4.54,2.32-25.51,13.09-27.92,15.16C352.37,460,350.42,467.25,353,468Z" style="fill: rgb(255, 67, 39); transform-origin: 391.245px 448.089px;" id="eldtl5m9h3i7c" class="animable"></path><path d="M353.88,465.09c12-.75,60.45-2.64,72.37-2.47.09,0,.09.07,0,.08-11.88,1-60.35,2.5-72.37,2.59C353.63,465.29,353.62,465.11,353.88,465.09Z" style="fill: rgb(38, 50, 56); transform-origin: 390.003px 463.95px;" id="elstx8blqjq3" class="animable"></path><path d="M359.57,454.9a9.64,9.64,0,0,1,7.29,2.66,9.33,9.33,0,0,1,2.93,6.31c0,.07-.13.08-.14,0a11.17,11.17,0,0,0-10.07-8.83A.08.08,0,0,1,359.57,454.9Z" style="fill: rgb(38, 50, 56); transform-origin: 364.662px 459.403px;" id="elnwrr0mgae2" class="animable"></path><path d="M380.12,443.4c4.8-.25,10.44,1.23,13.57,5.05.13.15-.09.32-.23.25a66.62,66.62,0,0,0-13.4-4.71A.3.3,0,0,1,380.12,443.4Z" style="fill: rgb(38, 50, 56); transform-origin: 386.783px 446.045px;" id="elphskbug4ste" class="animable"></path><path d="M376.46,445c4.81-.24,10.44,1.24,13.58,5.06.12.15-.09.32-.24.25a66,66,0,0,0-13.4-4.71A.31.31,0,0,1,376.46,445Z" style="fill: rgb(38, 50, 56); transform-origin: 383.134px 447.651px;" id="el6j9ebqrhraa" class="animable"></path><path d="M372.81,446.57c4.8-.25,10.44,1.24,13.57,5.06.12.14-.09.31-.23.25a66.22,66.22,0,0,0-13.4-4.71A.3.3,0,0,1,372.81,446.57Z" style="fill: rgb(38, 50, 56); transform-origin: 379.447px 449.218px;" id="elcadpllz67l" class="animable"></path><path d="M369.15,448.16c4.81-.25,10.44,1.23,13.58,5,.12.15-.09.32-.24.25a66.62,66.62,0,0,0-13.4-4.71A.3.3,0,0,1,369.15,448.16Z" style="fill: rgb(38, 50, 56); transform-origin: 375.856px 450.78px;" id="el3uw8i5mqqru" class="animable"></path><path d="M422.19,432.75c5.39-.19,5.69,8.19.29,8.38S416.78,432.94,422.19,432.75Z" style="fill: rgb(38, 50, 56); transform-origin: 422.331px 436.94px;" id="el7hcutkuvrxw" class="animable"></path><path d="M375.1,437.8a26.34,26.34,0,0,0,6.72,5.29l.54.32c1,.61,2,1.22,3,1.84a.5.5,0,0,0,.37.05.61.61,0,0,0,.46-.48.13.13,0,0,0,.16-.14,4.53,4.53,0,0,0-.08-.49.16.16,0,0,0,0-.16,4.52,4.52,0,0,0-.08-.63,26,26,0,0,0-2.72-7.82,21.81,21.81,0,0,0-1.94-3c-1.57-2-4.72-3.89-7.06-1.77S373.5,435.9,375.1,437.8Zm-.38-4c.27-5.25,5.15-1.39,6.26.15a27.11,27.11,0,0,1,1.86,3.17c.19.36.38.73.53,1.09.89,1.82,1.58,3.73,2.33,5.61,0,0,0,0,0,0s.07.18.1.27l-.26-.18-.25-.17c-.72-.52-1.48-1-2.23-1.51s-1.58-1-2.36-1.53C378.7,439.41,374.57,436.72,374.72,433.82Z" style="fill: rgb(38, 50, 56); transform-origin: 379.785px 437.597px;" id="el9cu41qrlx57" class="animable"></path><path d="M385.7,445.3h0c1.69.2,3.44.49,5.18.71a23.5,23.5,0,0,0,7.44,0c2.43-.46,5.42-2.08,4.94-5-.49-3.12-4.1-3.67-6.6-3.08a25.4,25.4,0,0,0-10.52,5.51l-.47.44s0,0-.05,0l-.09.1a2.37,2.37,0,0,0-.28.27c-.07.06,0,.14,0,.2A.59.59,0,0,0,385.7,445.3Zm1.3-1.07-.73,0a1.15,1.15,0,0,0-.26,0l.24-.13h0a66.85,66.85,0,0,1,6.48-3.43,25.82,25.82,0,0,1,3.47-1.28c1.83-.51,8-.41,4.94,3.85-1.71,2.33-6.62,1.81-9,1.58C390.4,444.59,388.7,444.37,387,444.23Z" style="fill: rgb(38, 50, 56); transform-origin: 394.249px 442.014px;" id="elsdm19nkco7j" class="animable"></path><path d="M430.25,421.42l-50.46,2.07S377.46,353,378.58,323.4c1.22-32.19,15.05-128,15.05-128h41.72s-10.66,96.17-10.89,128.38C424.25,353.65,430.25,421.42,430.25,421.42Z" style="fill: rgb(38, 50, 56); transform-origin: 406.813px 309.445px;" id="ely3gvpy8jpmh" class="animable"></path><path d="M393.63,195.41l32.19,100.65c3-41,9.53-100.65,9.53-100.65Z" style="fill: rgb(55, 71, 79); transform-origin: 414.49px 245.735px;" id="elnzbb8sqj32h" class="animable"></path><path d="M427.43,200.14l-2.65,28.59-2.45,28.61c-1.57,19.08-3.06,38.17-4.2,57.29-.28,4.78-.45,9.58-.38,14.39s.3,9.58.54,14.36q.73,14.36,1.84,28.67c.73,9.54,3.4,37.65,3.4,37.65S421.59,381.54,421,372s-1.25-19.1-1.69-28.66q-.34-7.17-.49-14.33c-.05-4.77.14-9.53.43-14.31,1-19.1,2.55-38.19,3.94-57.28Z" style="fill: rgb(55, 71, 79); transform-origin: 422.582px 304.92px;" id="elsql603ksxd7" class="animable"></path><path d="M381.37,414c7.69-.53,5.48-.49,13.18-.92,3.77-.22,28.53-1.6,32.08-1.18a.08.08,0,0,1,0,.16c-3.5.75-28.28,1.7-32.05,1.84-7.71.29-5.5.12-13.21.32A.11.11,0,1,1,381.37,414Z" style="fill: rgb(55, 71, 79); transform-origin: 403.985px 413.02px;" id="ellg816g7ay4f" class="animable"></path><path d="M501.58,370.27l23,39c4,7.88,7.32,14.87,8.71,18.65l0,.06a6.15,6.15,0,0,1,.64,2.73.64.64,0,0,1,0,.07c-1.55,2.77-63.65,36.39-66.21,36.83s-4-6.82-2.66-10.05,19.4-26.73,19.4-26.73l-22.61-39.11Z" style="fill: rgb(235, 148, 129); transform-origin: 497.89px 418.95px;" id="el1mbnxf4j9pk" class="animable"></path><path d="M467.75,467.57c2.57-.44,64.67-34.05,66.22-36.83,0,0,0-.05,0-.08a6.14,6.14,0,0,0-.64-2.72.14.14,0,0,0,0-.06c-1.4-3.78-4.74-10.77-8.72-18.65L516,394.59l-39.62,22.09,8.15,14.11s-18,23.5-19.4,26.73S465.19,468,467.75,467.57Z" style="fill: rgb(235, 235, 235); transform-origin: 499.278px 431.089px;" id="elaivksa9488" class="animable"></path><path d="M467.52,467.82c2.6-.47,65.89-34.19,67.46-37,.6-1.07-9.9-22.69-16.62-32.95l-40.53,22.19s5.57,11.06,5.2,11.56c-3,4.1-17,23.08-18.23,26C463.42,460.9,464.93,468.28,467.52,467.82Z" style="fill: rgb(255, 67, 39); transform-origin: 499.641px 432.855px;" id="elqcofb08xkhr" class="animable"></path><path d="M467.05,464.81c10.41-6,52.95-29.3,63.69-34.46.09,0,.12,0,0,.07-10.19,6.19-52.91,29.12-63.63,34.56C466.92,465.1,466.83,464.93,467.05,464.81Z" style="fill: rgb(38, 50, 56); transform-origin: 498.87px 447.686px;" id="elxr7k3wakpso" class="animable"></path><path d="M467.61,453.15a9.61,9.61,0,0,1,7.71-.87,9.38,9.38,0,0,1,5.44,4.34c0,.07-.09.13-.13.07a11.16,11.16,0,0,0-12.95-3.41A.07.07,0,1,1,467.61,453.15Z" style="fill: rgb(38, 50, 56); transform-origin: 474.166px 454.278px;" id="elfmxqotynqzs" class="animable"></path><path d="M480.88,433.69c4.19-2.36,9.9-3.54,14.4-1.52.18.08.06.32-.1.33a66.34,66.34,0,0,0-14.09,1.75A.3.3,0,0,1,480.88,433.69Z" style="fill: rgb(38, 50, 56); transform-origin: 488.039px 432.7px;" id="elctcwc0hbx9h" class="animable"></path><path d="M478.31,436.74c4.19-2.36,9.9-3.54,14.41-1.52.17.08.06.32-.1.33a66.43,66.43,0,0,0-14.1,1.75A.3.3,0,0,1,478.31,436.74Z" style="fill: rgb(38, 50, 56); transform-origin: 485.471px 435.75px;" id="eln51g6wbe3u" class="animable"></path><path d="M475.75,439.79c4.19-2.36,9.9-3.54,14.4-1.52.18.08.06.32-.1.33A66.34,66.34,0,0,0,476,440.35.3.3,0,0,1,475.75,439.79Z" style="fill: rgb(38, 50, 56); transform-origin: 482.904px 438.807px;" id="elc6thke1lwqd" class="animable"></path><path d="M473.18,442.84c4.19-2.36,9.9-3.54,14.41-1.52.17.08.06.32-.1.33a66.43,66.43,0,0,0-14.1,1.75A.3.3,0,0,1,473.18,442.84Z" style="fill: rgb(38, 50, 56); transform-origin: 480.341px 441.85px;" id="el9zy4vyztf7u" class="animable"></path><path d="M513.79,405.42c4.75-2.57,8.75,4.79,4,7.37S509,408,513.79,405.42Z" style="fill: rgb(38, 50, 56); transform-origin: 515.781px 409.107px;" id="el3u973macxv8" class="animable"></path><path d="M473.89,430.92a26.59,26.59,0,0,0,8.37,1.74l.63,0c1.18.09,2.36.19,3.5.3a.47.47,0,0,0,.36-.11.64.64,0,0,0,.2-.64.13.13,0,0,0,.08-.19c-.09-.14-.18-.27-.29-.41a.19.19,0,0,0-.09-.13,4.86,4.86,0,0,0-.35-.53,25.85,25.85,0,0,0-5.92-5.79,22.14,22.14,0,0,0-3.09-1.85c-2.32-1.12-6-1.38-7.11,1.56C469.06,427.69,471.61,429.93,473.89,430.92Zm-2.11-3.39c-2.1-4.82,4-3.55,5.66-2.66a27.25,27.25,0,0,1,3.09,2c.33.24.66.48,1,.74,1.61,1.23,3.07,2.64,4.58,4l0,0,.21.2-.32-.05a1.55,1.55,0,0,0-.29,0c-.88-.15-1.78-.25-2.67-.35l-2.8-.33C477.83,430.75,472.93,430.19,471.78,427.53Z" style="fill: rgb(38, 50, 56); transform-origin: 478.477px 427.745px;" id="elerdlkk3ps3" class="animable"></path><path d="M486.72,432.91h0c1.6-.58,3.29-1.1,4.95-1.68a23.47,23.47,0,0,0,6.66-3.32c2-1.49,3.93-4.27,2.18-6.71s-5.3-1.46-7.28.19a25.42,25.42,0,0,0-7,9.62c-.08.19-.16.4-.23.6l0,0,0,.13c0,.12-.09.23-.13.36s0,.15.11.18A.59.59,0,0,0,486.72,432.91Zm.69-1.54-.67.29a1,1,0,0,0-.24.09l.15-.22h0a70.21,70.21,0,0,1,4.28-6,25.79,25.79,0,0,1,2.53-2.69c1.42-1.27,7-3.94,6.14,1.24-.49,2.86-5.11,4.57-7.38,5.44C490.61,430.18,489,430.74,487.41,431.37Z" style="fill: rgb(38, 50, 56); transform-origin: 493.524px 426.331px;" id="eljfyec8tjj8m" class="animable"></path><path d="M392.4,195.37s1.22,0,1.23,0a264.08,264.08,0,0,0,4.9,26c2.2,8.49,4.46,16,5.76,16.73,1.47.87,8.64,4.05,11,5,0,0,16.11,80.44,24.62,105.39,7.85,23,30,67,30,67l45.81-25.32s-26.18-43.37-30-54.58c-6-17.37-29.48-102.17-29.48-102.17s.17-26.54-8.77-38.14Z" style="fill: rgb(38, 50, 56); transform-origin: 454.06px 305.385px;" id="el18fvxzt11fy" class="animable"></path><path d="M468,405.11c6.74-3.76,4.75-2.78,11.53-6.46,3.31-1.81,25.11-13.64,28.5-14.78a.08.08,0,0,1,.07.14c-2.84,2.17-24.84,13.62-28.19,15.36-6.84,3.56-4.92,2.46-11.8,5.94C468,405.38,467.89,405.18,468,405.11Z" style="fill: rgb(55, 71, 79); transform-origin: 488.042px 394.596px;" id="elp6pelgqaxsi" class="animable"></path><path d="M444.17,226.13c-1.29-.33-2.67-.44-4-.64-1.06-.17-2.12-.36-3.17-.59a13.92,13.92,0,0,1-5.6-2.36c-1.82-1.42-2.75-3.57-3.63-5.64-.53-1.23-1.07-2.45-1.61-3.67l-.81-1.76a19.53,19.53,0,0,1-1-2.13c0-.1-.21,0-.17,0a13.43,13.43,0,0,1,.45,1.53c.18.59.35,1.19.53,1.78.33,1.05.65,2.11,1,3.16a25,25,0,0,0,2.24,5.55c1.95,3.1,5.43,4.34,8.91,4.78,1,.13,2,.2,3,.26a21.92,21.92,0,0,0,3.8,0A.18.18,0,0,0,444.17,226.13Z" style="fill: rgb(55, 71, 79); transform-origin: 434.191px 217.889px;" id="elfor2ohapnnq" class="animable"></path><path d="M400.48,236.27a93.9,93.9,0,0,1,14.77,6.88.17.17,0,0,1-.14.31c-5-2.14-10.05-4.19-14.9-6.59A.33.33,0,0,1,400.48,236.27Z" style="fill: rgb(55, 71, 79); transform-origin: 407.694px 239.863px;" id="el14iaz831ezz" class="animable"></path><path d="M399,202.19c0-.17.32-.21.32,0a162.5,162.5,0,0,0,.83,16.62c.23,2.57,2.29,16.73,6.74,15.7.74-.18,1.12-.91,1.24-2a17.92,17.92,0,0,0-.59-4.34c-.5-3-.89-5.94-1.15-8.94a81.54,81.54,0,0,1,.18-16.75.15.15,0,0,1,.29,0,154.12,154.12,0,0,0,1.35,23.13c.56,3.69,2.42,9.23-1.44,9.8s-6.46-8.71-6.94-11.26A84.68,84.68,0,0,1,399,202.19Z" style="fill: rgb(55, 71, 79); transform-origin: 403.895px 218.741px;" id="el830svb4t186" class="animable"></path><path d="M406.75,234.87a25.28,25.28,0,0,1,1,2.93,6.73,6.73,0,0,1,.41,2.42c0,.15-.22.17-.3.06a8.14,8.14,0,0,1-1-2.35c-.33-.9-.69-1.81-1-2.72A.5.5,0,0,1,406.75,234.87Z" style="fill: rgb(55, 71, 79); transform-origin: 407.01px 237.516px;" id="elzuhppljedyp" class="animable"></path><path d="M504.38,384c-6.71-12.63-17.25-32.34-20.51-38.59a115.91,115.91,0,0,1-8.46-19.29c-4.15-13.49-20-68-23.24-81.69-.82-3.43-1.72-6.86-2.38-10.33a31.58,31.58,0,0,1,0-10.58,33.87,33.87,0,0,0,.07-9.85,65,65,0,0,0-2.3-9.62c-.52-1.66-1.09-3.3-1.65-4.95a.15.15,0,0,0-.29.09c2,6.65,4.1,13.37,3.67,20.41-.21,3.39-1.11,6.71-1.05,10.12a48.46,48.46,0,0,0,1.71,10c3.2,13.81,18.88,68.6,23,82.16a166,166,0,0,0,7.71,19.6c2.84,6.31,13.58,25.62,20.8,37.95l2.76,4.67A.09.09,0,1,0,504.38,384Z" style="fill: rgb(55, 71, 79); transform-origin: 475.004px 291.57px;" id="elfgfxp8to266" class="animable"></path><path d="M411.36,149c-1.41,10.83-10.47,60.93-14.87,64.56-5.57,4.61-35.35,13.59-40.66,11.66-3-1.1-5.35-28.08-1.88-29.76,3.23-1.55,24.59-8.06,26.74-9.22,2.58-1.38,9.59-19.63,19.25-41.32C406.82,129.43,412.84,137.59,411.36,149Z" style="fill: rgb(235, 148, 129); transform-origin: 381.905px 180.932px;" id="elynoeug62i3i" class="animable"></path><path d="M359.37,190.87l1.77,36.23s32.28-7.71,37.5-13.06c4.28-4.38,11.91-45.31,13.65-65s-9.41-15.21-14-3.24-16.89,38.07-17.5,38.74S359.37,190.87,359.37,190.87Z" style="fill: rgb(255, 67, 39); transform-origin: 385.921px 181.321px;" id="eld3jqfi2l5d8" class="animable"></path><g id="elul3klimlph"><path d="M359.37,190.87l1.77,36.23s32.28-7.71,37.5-13.06c4.28-4.38,11.91-45.31,13.65-65s-9.41-15.21-14-3.24-16.89,38.07-17.5,38.74S359.37,190.87,359.37,190.87Z" style="opacity: 0.2; transform-origin: 385.921px 181.321px;" class="animable"></path></g><path d="M366.75,192.45c.23,1.18.73,11.87.8,14.19s.39,11.83.26,14.24c0,.1-.16.12-.17,0-.32-2.38-.69-12-.8-14.33s-.38-12.95-.25-14.12C366.61,192.34,366.74,192.37,366.75,192.45Z" style="fill: rgb(38, 50, 56); transform-origin: 367.198px 206.669px;" id="el38hw02un4qo" class="animable"></path><path d="M390.16,218.36l67,3c1-1.18-19.24-75.29-32.36-86.87-3.24-2.85-12-6.06-19,3.14C393.62,153.67,389.22,217.33,390.16,218.36Z" style="fill: rgb(255, 255, 255); transform-origin: 423.617px 176.451px;" id="elbp2fly49se6" class="animable"></path><path d="M422,131.65l-12.83,39,7.5,63.42,43-11.47S437,138,422,131.65Z" style="fill: rgb(255, 67, 39); transform-origin: 434.42px 182.86px;" id="elkyaoxtt9r1s" class="animable"></path><g id="el96g7x5j13bb"><path d="M422,131.65l-12.83,39,7.5,63.42,43-11.47S437,138,422,131.65Z" style="opacity: 0.2; transform-origin: 434.42px 182.86px;" class="animable"></path></g><polygon points="422.04 131.65 422.52 153.85 414.11 164.66 419.06 174.58 414.8 218 409.21 170.7 422.04 131.65" style="fill: rgb(255, 67, 39); transform-origin: 415.865px 174.825px;" id="elkrr52fxnu5b" class="animable"></polygon><path d="M410.35,145.41c3.94.12,9.22-6.95,10.81-12.12.1-.36-1.07-3.62-2.32-7.65-.75-2.45-1.52-5.2-2-7.76-.1-.52-15.23,7.19-15.23,7.19a41.7,41.7,0,0,1,3.57,9.5,5.76,5.76,0,0,1,.1,1.07c0,.05,0,.11,0,.18C405.33,137.88,406.55,145.3,410.35,145.41Z" style="fill: rgb(235, 148, 129); transform-origin: 411.388px 131.633px;" id="el4pt3lqmlmhq" class="animable"></path><path d="M415.82,118.15c.15,4.48-.4,15.47-8.91,17.42a9.85,9.85,0,0,1-1.66.25,1.41,1.41,0,0,1,0-.18,5.69,5.69,0,0,0-.1-1.07,41.48,41.48,0,0,0-3.57-9.5S412.47,119.5,415.82,118.15Z" style="fill: rgb(38, 50, 56); transform-origin: 408.709px 126.985px;" id="elcp2ypmk0ly8" class="animable"></path><path d="M413,98.43c3.33,5.07,5.09,22,2.18,26.77-4.22,6.88-13.48,10.12-19.92,4.51-6.24-5.44-8.14-27.57-4.67-32.13C395.73,90.87,408.12,90.93,413,98.43Z" style="fill: rgb(235, 148, 129); transform-origin: 402.762px 112.621px;" id="el3o6phw3jg3p" class="animable"></path><path d="M399.52,113.29c0-.05.1,0,.11.08.13,1.14.48,2.43,1.57,2.65,0,0,0,.06,0,.06C399.92,116.1,399.47,114.39,399.52,113.29Z" style="fill: rgb(38, 50, 56); transform-origin: 400.358px 114.675px;" id="el99yecq6x2s" class="animable"></path><path d="M400.36,112c1.8-.42,2.5,3.22.83,3.61S398.85,112.3,400.36,112Z" style="fill: rgb(38, 50, 56); transform-origin: 400.828px 113.803px;" id="elkxyx9el0syg" class="animable"></path><path d="M393.56,114.45s-.08.07-.07.12c.26,1.12.36,2.44-.59,3,0,0,0,.08,0,.06C394.13,117.23,394,115.47,393.56,114.45Z" style="fill: rgb(38, 50, 56); transform-origin: 393.386px 116.042px;" id="elvne9j0xc0l8" class="animable"></path><path d="M392.33,113.47c-1.84.21-1.28,3.87.42,3.67S393.87,113.29,392.33,113.47Z" style="fill: rgb(38, 50, 56); transform-origin: 392.485px 115.306px;" id="el7ga3ejes49e" class="animable"></path><path d="M401.48,110c-.52,0-1-.15-1.51-.23a2.47,2.47,0,0,1-1.49-.52.8.8,0,0,1-.06-1,1.93,1.93,0,0,1,1.89-.56,2.84,2.84,0,0,1,1.85.9A.84.84,0,0,1,401.48,110Z" style="fill: rgb(38, 50, 56); transform-origin: 400.329px 108.817px;" id="elnru13eprvb" class="animable"></path><path d="M390.57,111.9a14.44,14.44,0,0,0,1.38-.65,2.54,2.54,0,0,0,1.27-.93.8.8,0,0,0-.22-.93,1.93,1.93,0,0,0-2,0,2.87,2.87,0,0,0-1.51,1.4A.83.83,0,0,0,390.57,111.9Z" style="fill: rgb(38, 50, 56); transform-origin: 391.35px 110.539px;" id="elmvcecsk5asc" class="animable"></path><path d="M403.27,123.34c-.22.32-.42.73-.83.85a3.15,3.15,0,0,1-1.26,0s-.07,0,0,.06a1.55,1.55,0,0,0,1.55.34,1.22,1.22,0,0,0,.69-1.17C403.39,123.3,403.3,123.3,403.27,123.34Z" style="fill: rgb(38, 50, 56); transform-origin: 402.285px 123.993px;" id="eldn6i980nza" class="animable"></path><path d="M401.43,120.19a3.89,3.89,0,0,1-2.23,2.2,4.58,4.58,0,0,1-1.37.33.82.82,0,0,1-.27,0h-.25a.29.29,0,0,1-.28-.21h0a.41.41,0,0,1,0-.11h0l0-.1c-.19-.86-.36-2.2-.36-2.2-.29.22-1.76,1.26-1.82.8a59.13,59.13,0,0,1-.75-11.9.11.11,0,0,1,.22,0c.62,3.63.6,7.34,1.16,11a6.74,6.74,0,0,1,1.71-.9c.13,0,.28,2.59.4,3a.1.1,0,0,0,0,0,5.41,5.41,0,0,0,3.74-2C401.38,120,401.48,120.09,401.43,120.19Z" style="fill: rgb(38, 50, 56); transform-origin: 397.75px 115.811px;" id="eldlmq8h54rxv" class="animable"></path><path d="M398.27,122.25a4.56,4.56,0,0,0,2.14,1,2.07,2.07,0,0,0,1.25-.22c.83-.44.66-1.27.33-1.93a5.09,5.09,0,0,0-.65-1A6.08,6.08,0,0,1,398.27,122.25Z" style="fill: rgb(38, 50, 56); transform-origin: 400.266px 121.685px;" id="el7v93vq7iq2m" class="animable"></path><path d="M400.41,123.22a2.07,2.07,0,0,0,1.25-.22c.83-.44.66-1.27.33-1.93A2.16,2.16,0,0,0,400.41,123.22Z" style="fill: rgb(255, 155, 188); transform-origin: 401.335px 122.155px;" id="el2tsdfta44hp" class="animable"></path><g id="el7j5i63jvtpj"><path d="M416.12,108.75c-1.17-.27-3.95-3.28-5.16-4.49s-2.71-8.13-3.11-10.2a11.09,11.09,0,0,1,4.93,3.9C414.22,100,415.45,104.27,416.12,108.75Z" style="fill: rgb(38, 50, 56); opacity: 0.2; transform-origin: 411.985px 101.405px;" class="animable"></path></g><path d="M395.58,102.23a5.49,5.49,0,0,0,5.23,1,5.57,5.57,0,0,0,3.65-4,0,0,0,1,1,.08,0A5.5,5.5,0,0,1,401,103.6a5.6,5.6,0,0,1-5.46-1.27C395.44,102.27,395.52,102.17,395.58,102.23Z" style="fill: rgb(38, 50, 56); transform-origin: 400.016px 101.536px;" id="el0ttz1a5esfgh" class="animable"></path><path d="M398.82,88a8.61,8.61,0,0,1,7.79,2.67,6.09,6.09,0,0,1,1.28,3.82c0,.06-.11.07-.12,0a6.7,6.7,0,0,0-4.17-5.43,8.64,8.64,0,0,0-7.7.42,5.43,5.43,0,0,0-2.49,2.83c0,.13-.29.09-.26,0C393.65,90.18,396,88.42,398.82,88Z" style="fill: rgb(38, 50, 56); transform-origin: 400.519px 91.2085px;" id="elogg6wgbfqlp" class="animable"></path><path d="M381.92,97.91a7,7,0,0,1,2.27-4.2c1.71-1.52,3.9-1.73,6.08-1.89a.05.05,0,0,1,0,.1A9.63,9.63,0,0,0,385,93.46a6.83,6.83,0,0,0-2.55,3.84,6.69,6.69,0,0,0,4.16,7.69,6.83,6.83,0,0,0,5.37-.39c.06,0,.13.06.07.09a6.82,6.82,0,0,1-10.15-6.78Z" style="fill: rgb(38, 50, 56); transform-origin: 386.959px 98.7045px;" id="elo6hh7sktc08" class="animable"></path><path d="M414.28,100.93s2-6.09-1.1-8.87c-1.72-1.57-6.32-.5-6.32-.5a8.5,8.5,0,0,0-6-2.58c-4.05-.19-8.26,2.91-8.26,2.91s-4.07-1.45-7.17,1.15c-4.32,3.63-2.4,10.86,2.88,12.35,3.71,1,7.79-2.81,7.79-2.81.46,0,5.51,1.9,8.22-2.78,0,0,3.25,2,5.45-.22A4.1,4.1,0,0,0,414.28,100.93Z" style="fill: rgb(38, 50, 56); transform-origin: 398.983px 97.2644px;" id="eldgbb7euaeuf" class="animable"></path><path d="M413.43,112.55s2.24-6.23,5-5.57,2,9-.48,10.79a2.94,2.94,0,0,1-4.21-.5Z" style="fill: rgb(235, 148, 129); transform-origin: 416.806px 112.684px;" id="elomz1sajz5uc" class="animable"></path><path d="M418.14,109.37s.07,0,0,.07c-1.74,1.32-2.27,3.41-2.49,5.48a1.62,1.62,0,0,1,2.23-1.06c.06,0,0,.12,0,.12a1.81,1.81,0,0,0-1.75,1.13,8.58,8.58,0,0,0-.5,1.8c0,.2-.38.19-.37,0v0C414.54,114.35,415.53,110.34,418.14,109.37Z" style="fill: rgb(38, 50, 56); transform-origin: 416.601px 113.213px;" id="elvm8tm8r9wwp" class="animable"></path><path d="M429,134.84c22.68,12.73,52,46.61,50.1,55.38-2.15,9.77-28.87-7.83-29.2-9.32-.24-1.12-11.64-13.55-22.26-30.88C418,134.26,423.36,131.69,429,134.84Z" style="fill: rgb(235, 148, 129); transform-origin: 450.759px 163.411px;" id="elmer60oxhqb" class="animable"></path><path d="M429,134.84c22.68,12.73,52,46.61,50.1,55.38-2.15,9.77-28.87-7.83-29.2-9.32-.24-1.12-11.64-13.55-22.26-30.88C418,134.26,423.36,131.69,429,134.84Z" style="fill: rgb(255, 67, 39); transform-origin: 450.759px 163.411px;" id="el8eit9bx6uif" class="animable"></path><g id="elpegmi9oe98l"><g style="opacity: 0.2; transform-origin: 450.759px 163.411px;" class="animable"><path d="M429,134.84c22.68,12.73,52,46.61,50.1,55.38-2.15,9.77-28.87-7.83-29.2-9.32-.24-1.12-11.64-13.55-22.26-30.88C418,134.26,423.36,131.69,429,134.84Z" id="elvtudzxp8mi" class="animable" style="transform-origin: 450.759px 163.411px;"></path></g></g><path d="M449.87,180.9c-2-2.31-3.9-4.68-5.79-7.08s-3.72-4.84-5.55-7.28-3.58-4.95-5.28-7.49-3.36-5.1-4.86-7.76q2.64,3.75,5.34,7.43c1.79,2.47,3.58,4.93,5.4,7.37l5.4,7.38C446.33,175.94,448.12,178.4,449.87,180.9Z" style="fill: rgb(38, 50, 56); transform-origin: 439.13px 166.095px;" id="el6hw6dt4od6b" class="animable"></path><path d="M429,154.17c.69.53,1.29,1.12,1.91,1.7l.9.88c.3.3.61.58.91.91a6.57,6.57,0,0,1-2.16-1.43A8.06,8.06,0,0,1,429,154.17Z" style="fill: rgb(38, 50, 56); transform-origin: 430.86px 155.915px;" id="elilztluzwuz8" class="animable"></path><path d="M478.87,190.86c-2.4,4.24-10.59,9.4-38.92,12-3.92.37-12-27.68-7.84-28.29,5.25-.76,22.93-1.58,24.44-1.45C467.81,174.17,481.26,186.62,478.87,190.86Z" style="fill: rgb(235, 148, 129); transform-origin: 455.05px 187.985px;" id="elqthwief8nzh" class="animable"></path><path d="M402.63,180.94a4.19,4.19,0,0,0,1.91,4.39,6.25,6.25,0,0,0-1.82,3.82c-.13,2.56,3.83,3.89,3.83,3.89a7.67,7.67,0,0,0-1.27,4.33c.12,2.47,3.93,4.37,3.93,4.37a6.75,6.75,0,0,0,1.27,4.53c2.7,3.38,9.26,2.63,13.43,2.2s15.61-5.58,17.89-6.34l-4.09-26.55s-17.74-3.65-22.57-2.44C411.06,174.16,403.39,177.75,402.63,180.94Z" style="fill: rgb(235, 148, 129); transform-origin: 422.174px 190.875px;" id="eluqxhlu5kon9" class="animable"></path><path d="M404.69,184.88c4.07-2.12,8.55-2.92,13-4a.08.08,0,0,1,0,.15c-4.42,1-8.57,2.85-12.94,4C404.64,185.12,404.58,184.94,404.69,184.88Z" style="fill: rgb(38, 50, 56); transform-origin: 411.187px 182.967px;" id="elzud42zqsptb" class="animable"></path><path d="M406.61,192.68a11.55,11.55,0,0,1,3-.78c1.09-.21,2.18-.39,3.28-.56,2.19-.33,4.4-.61,6.61-.83a.08.08,0,0,1,0,.15c-2.19.34-4.37.71-6.54,1.13l-3.25.67a13.66,13.66,0,0,1-3.09.51A.15.15,0,0,1,406.61,192.68Z" style="fill: rgb(38, 50, 56); transform-origin: 413.028px 191.74px;" id="el3dkaqnkp51a" class="animable"></path><path d="M409.3,201.73a8.28,8.28,0,0,1,2.76-.56l3-.41c2-.29,4-.57,6-.93.1,0,.14.14,0,.16-2,.37-4,.77-6.07,1.12l-3,.5a7.7,7.7,0,0,1-2.74.22A.05.05,0,0,1,409.3,201.73Z" style="fill: rgb(38, 50, 56); transform-origin: 415.185px 200.849px;" id="el1qtt7y84jbf" class="animable"></path><path d="M435.6,174.28l6.34,33.27s35.42-8.6,37.16-17.35c.89-4.48-8-13.38-18-15.78S435.6,174.28,435.6,174.28Z" style="fill: rgb(255, 67, 39); transform-origin: 457.381px 190.433px;" id="elabwri5l98mb" class="animable"></path><g id="elwgbtb16bzl"><path d="M435.6,174.28l6.34,33.27s35.42-8.6,37.16-17.35c.89-4.48-8-13.38-18-15.78S435.6,174.28,435.6,174.28Z" style="opacity: 0.2; transform-origin: 457.381px 190.433px;" class="animable"></path></g><path d="M435.6,174.28c2.59-.05,5.18-.16,7.77-.25s5.17-.23,7.76-.24a32.68,32.68,0,0,1,7.66.44,68.82,68.82,0,0,1,7.52,1.87,39.94,39.94,0,0,0-7.39-2.5,30.19,30.19,0,0,0-7.81-.65c-2.6.09-5.19.22-7.78.44S438.16,173.89,435.6,174.28Z" style="fill: rgb(38, 50, 56); transform-origin: 450.955px 174.508px;" id="elj7ozwe5u2o" class="animable"></path><path d="M443.36,175.36c.4,1.13,2.57,11.61,3,13.9s2.24,11.62,2.48,14a.09.09,0,0,1-.17,0c-.68-2.3-2.54-11.7-3-14s-2.4-12.74-2.45-13.91C443.19,175.28,443.33,175.29,443.36,175.36Z" style="fill: rgb(38, 50, 56); transform-origin: 446.028px 189.311px;" id="elj328a3orqk" class="animable"></path><path d="M441,202.79c.44,1.56.82,3.14,1.18,4.71l-.34-.21c2.56-.76,5.13-1.47,7.7-2.18l7.74-2.06a64.18,64.18,0,0,1-7.54,2.75c-1.28.38-2.57.75-3.86,1.08s-2.59.67-3.9.94l-.3.06,0-.27C441.42,206,441.19,204.4,441,202.79Z" style="fill: rgb(38, 50, 56); transform-origin: 449.14px 205.335px;" id="el9kxjuswi2l9" class="animable"></path><path d="M405.88,137.59s-7,8.33-10.4,31.26-6.58,65.27-6.58,65.27l-25.92-10s-2-29.37-1.83-33.86,28.69-37.4,32.72-42.64S405.88,137.59,405.88,137.59Z" style="fill: rgb(255, 67, 39); transform-origin: 383.51px 185.855px;" id="el8m1n01p11y8" class="animable"></path><g id="elqmmaslss86"><path d="M405.88,137.59s-7,8.33-10.4,31.26-6.58,65.27-6.58,65.27l-25.92-10s-2-29.37-1.83-33.86,28.69-37.4,32.72-42.64S405.88,137.59,405.88,137.59Z" style="opacity: 0.3; transform-origin: 383.51px 185.855px;" class="animable"></path></g><path d="M350.87,191.21c-1.34,4.11-5.36,9.52-5.34,12.73a3.68,3.68,0,0,0,2.53,3.6s-3,2-2.46,4.9c.26,1.49,2.88,2.4,2.88,2.4a4.41,4.41,0,0,0-1.7,4.25c.49,2,3,2.64,3,2.64s-1.45,2.65-.29,4.57c2.35,3.9,20.22,1.63,22.14-5.31.9-3.23-3.44-2.44-3.44-2.44s6-2.64,5.58-6.34-5.94-2.32-5.94-2.32,5.75-2.62,5-6.41c-.81-3.95-6.15-1.62-6.15-1.62s3.63-3.2,2.37-6c-2.07-4.57-8.84,2.37-12.88,1.94l-3-6.2Z" style="fill: rgb(235, 148, 129); transform-origin: 359.66px 209.705px;" id="elsd3tmyckyhc" class="animable"></path><path d="M348,197.3c.93-4-4.4-8.12-4.06-12.07.47-5.36,7-1,9.25,6.4l.75,6.05Z" style="fill: rgb(235, 148, 129); transform-origin: 348.932px 190.264px;" id="el2ql4l68fot6" class="animable"></path><path d="M350.21,221.89c-.06,0-.07.08,0,.09a31.24,31.24,0,0,0,18.26-3.44c.18-.1.09-.43-.12-.36A64,64,0,0,1,350.21,221.89Z" style="fill: rgb(38, 50, 56); transform-origin: 359.364px 220.18px;" id="el37ldxcwb50u" class="animable"></path><path d="M348.4,214.89c-.07,0-.07.12,0,.12,6.24.67,13.95-.78,19.69-5,.2-.14.23-.47,0-.32C364.06,212.21,354.22,214.65,348.4,214.89Z" style="fill: rgb(38, 50, 56); transform-origin: 358.299px 212.409px;" id="elb9spmrvjgq" class="animable"></path><path d="M367,201.42c-5.66,3.82-12,5.44-18.71,6.16-.09,0-.07.14,0,.15,3.39.54,7.63-.37,10.87-1.36a18.16,18.16,0,0,0,8-4.75C367.25,201.53,367.15,201.34,367,201.42Z" style="fill: rgb(38, 50, 56); transform-origin: 357.712px 204.646px;" id="eltc31mjq4fc" class="animable"></path></g><defs>     <filter id="active" height="200%">         <feMorphology in="SourceAlpha" result="DILATED" operator="dilate" radius="2"></feMorphology>                <feFlood flood-color="#32DFEC" flood-opacity="1" result="PINK"></feFlood>        <feComposite in="PINK" in2="DILATED" operator="in" result="OUTLINE"></feComposite>        <feMerge>            <feMergeNode in="OUTLINE"></feMergeNode>            <feMergeNode in="SourceGraphic"></feMergeNode>        </feMerge>    </filter>    <filter id="hover" height="200%">        <feMorphology in="SourceAlpha" result="DILATED" operator="dilate" radius="2"></feMorphology>                <feFlood flood-color="#ff0000" flood-opacity="0.5" result="PINK"></feFlood>        <feComposite in="PINK" in2="DILATED" operator="in" result="OUTLINE"></feComposite>        <feMerge>            <feMergeNode in="OUTLINE"></feMergeNode>            <feMergeNode in="SourceGraphic"></feMergeNode>        </feMerge>            <feColorMatrix type="matrix" values="0   0   0   0   0                0   1   0   0   0                0   0   0   0   0                0   0   0   1   0 "></feColorMatrix>    </filter></defs></svg>