<svg width="27" height="27" viewBox="0 0 27 27" fill="none" xmlns="http://www.w3.org/2000/svg">
<path d="M13.0049 2.30645C15.57 2.30645 17.6495 4.11175 17.6495 6.3387V7.14516H8.36028V6.3387C8.36028 4.11175 10.4397 2.30645 13.0049 2.30645ZM19.5073 7.14516V6.3387C19.5073 3.22097 16.5961 0.693542 13.0049 0.693542C9.41368 0.693542 6.50244 3.22097 6.50244 6.3387V7.14516H0V23.2742C0 25.0558 1.66357 26.5 3.71568 26.5H22.2941C24.3462 26.5 26.0097 25.0558 26.0097 23.2742V7.14516H19.5073ZM1.85784 8.75806H24.1519V23.2742C24.1519 24.165 23.3201 24.8871 22.2941 24.8871H3.71568C2.68962 24.8871 1.85784 24.165 1.85784 23.2742V8.75806Z" fill="black"/>
</svg>
