<svg xmlns="http://www.w3.org/2000/svg" xmlns:xlink="http://www.w3.org/1999/xlink" width="100" zoomAndPan="magnify" viewBox="0 0 75 49.499998" height="66" preserveAspectRatio="xMidYMid meet" version="1.0"><defs><clipPath id="d07844f2b5"><path d="M 0.375 0.1875 L 74.625 0.1875 L 74.625 7 L 0.375 7 Z M 0.375 0.1875 " clip-rule="nonzero"/></clipPath><clipPath id="f27018bb73"><path d="M 0.375 21 L 74.625 21 L 74.625 28 L 0.375 28 Z M 0.375 21 " clip-rule="nonzero"/></clipPath><clipPath id="2a469aa872"><path d="M 0.375 42 L 74.625 42 L 74.625 49.003906 L 0.375 49.003906 Z M 0.375 42 " clip-rule="nonzero"/></clipPath></defs><g clip-path="url(#d07844f2b5)"><path fill="#ff8400" d="M 74.625 3.394531 C 74.625 5.160156 73.199219 6.589844 71.441406 6.589844 L 3.558594 6.589844 C 1.800781 6.589844 0.375 5.160156 0.375 3.394531 C 0.375 1.628906 1.800781 0.199219 3.558594 0.199219 L 71.441406 0.199219 C 73.199219 0.199219 74.625 1.628906 74.625 3.394531 Z M 74.625 3.394531 " fill-opacity="1" fill-rule="evenodd"/></g><g clip-path="url(#f27018bb73)"><path fill="#ff8400" d="M 74.625 24.6875 C 74.625 26.453125 73.199219 27.882812 71.441406 27.882812 L 3.558594 27.882812 C 1.800781 27.882812 0.375 26.453125 0.375 24.6875 C 0.375 22.925781 1.800781 21.496094 3.558594 21.496094 L 71.441406 21.496094 C 73.199219 21.496094 74.625 22.925781 74.625 24.6875 Z M 74.625 24.6875 " fill-opacity="1" fill-rule="evenodd"/></g><g clip-path="url(#2a469aa872)"><path fill="#ff8400" d="M 74.625 45.984375 C 74.625 47.746094 73.199219 49.175781 71.441406 49.175781 L 3.558594 49.175781 C 1.800781 49.175781 0.375 47.746094 0.375 45.984375 C 0.375 44.21875 1.800781 42.789062 3.558594 42.789062 L 71.441406 42.789062 C 73.199219 42.789062 74.625 44.21875 74.625 45.984375 Z M 74.625 45.984375 " fill-opacity="1" fill-rule="evenodd"/></g></svg>