<svg xmlns="http://www.w3.org/2000/svg" width="38" height="35" fill="none" viewBox="0 0 38 35"><path fill="#000" d="M0.422403 0C0.140801 0 0 0.175219 0 0.394243V34.6058C0 34.8248 0.187735 35 0.422403 35H37.0776C37.3123 35 37.5 34.8248 37.5 34.6058V0.394243C37.5 0.131414 37.3123 0 37.0776 0L0.422403 0ZM5.46683 4.88511C6.35269 4.0583 7.72741 4.0583 8.61328 4.88511L10.7983 6.92448C13.1314 9.10203 13.1314 12.8004 10.7983 14.9779L8.61327 17.0173C7.72741 17.8441 6.35269 17.8441 5.46683 17.0173C4.49018 16.1057 4.49018 14.5576 5.46682 13.6461L6.00751 13.1414C7.27654 11.957 7.27654 9.94538 6.00751 8.76095L5.46683 8.25631C4.49019 7.34478 4.49018 5.79665 5.46683 4.88511ZM18.7735 15.3317C18.7735 14.122 19.7541 13.1414 20.9637 13.1414H30.6633C31.873 13.1414 32.8536 14.122 32.8536 15.3317C32.8536 16.5413 31.873 17.5219 30.6633 17.5219H20.9637C19.7541 17.5219 18.7735 16.5413 18.7735 15.3317Z"/></svg>